<svg width="18" height="16" viewBox="0 0 18 16" fill="none" xmlns="http://www.w3.org/2000/svg">
<path d="M15.7562 15.1013H13.9124C13.7467 15.1013 13.5877 15.0354 13.4705 14.9182C13.3533 14.801 13.2874 14.642 13.2874 14.4763C13.2874 14.3105 13.3533 14.1515 13.4705 14.0343C13.5877 13.9171 13.7467 13.8513 13.9124 13.8513H15.7574C16.1524 13.8513 16.4749 13.5125 16.4749 13.0963V2.05126C16.4749 1.63501 16.1524 1.29626 15.7574 1.29626H2.33493C1.93993 1.29626 1.61743 1.63501 1.61743 2.05126V13.0963C1.61743 13.5125 1.93868 13.8513 2.33493 13.8513H9.83993C10.0057 13.8513 10.1647 13.9171 10.2819 14.0343C10.3991 14.1515 10.4649 14.3105 10.4649 14.4763C10.4649 14.642 10.3991 14.801 10.2819 14.9182C10.1647 15.0354 10.0057 15.1013 9.83993 15.1013H2.33493C1.24993 15.1013 0.367432 14.2013 0.367432 13.0963V2.05126C0.367432 0.945014 1.24993 0.0462646 2.33493 0.0462646H15.7562C16.8412 0.0462646 17.7237 0.946265 17.7237 2.05126V13.0963C17.7237 14.2013 16.8412 15.1013 15.7562 15.1013Z" fill="#283248"/>
<path d="M6.76868 5.31377C6.76868 4.62627 7.25618 4.34502 7.85118 4.68877L11.7637 6.94876C12.3599 7.29251 12.3599 7.85502 11.7637 8.19877L7.85118 10.4588C7.25618 10.8025 6.76868 10.5213 6.76868 9.83377V5.31377Z" fill="#283248"/>
</svg>
