<svg width="18" height="18" viewBox="0 0 18 18" fill="none" xmlns="http://www.w3.org/2000/svg">
<path d="M8.99882 0.202515C6.68121 0.204831 4.45918 1.12653 2.82038 2.76533C1.18158 4.40413 0.259885 6.62615 0.257568 8.94376C0.259885 11.2614 1.18158 13.4834 2.82038 15.1222C4.45918 16.761 6.68121 17.6827 8.99882 17.685C11.3164 17.6827 13.5385 16.761 15.1773 15.1222C16.8161 13.4834 17.7378 11.2614 17.7401 8.94376C17.7378 6.62615 16.8161 4.40413 15.1773 2.76533C13.5385 1.12653 11.3164 0.204831 8.99882 0.202515ZM8.99882 16.435C7.01273 16.4327 5.10864 15.6427 3.70426 14.2383C2.29988 12.8339 1.50988 10.9299 1.50757 8.94376C1.50988 6.95767 2.29988 5.05359 3.70426 3.64921C5.10864 2.24483 7.01273 1.45483 8.99882 1.45251C10.9849 1.45483 12.889 2.24483 14.2934 3.64921C15.6978 5.05359 16.4878 6.95767 16.4901 8.94376C16.4881 10.93 15.6982 12.8342 14.2937 14.2387C12.8893 15.6431 10.985 16.433 8.99882 16.435Z" fill="#283248"/>
<path d="M11.4563 4.44501C11.3405 4.32793 11.1829 4.26153 11.0182 4.26035C10.8535 4.25918 10.6951 4.32334 10.5776 4.43876L6.53132 8.48501C6.4718 8.54481 6.42548 8.61642 6.39534 8.69522C6.3652 8.77402 6.3519 8.85826 6.35632 8.94251C6.35192 9.02733 6.3652 9.11213 6.39533 9.19154C6.42545 9.27094 6.47176 9.34322 6.53132 9.40376L10.5776 13.45C10.8163 13.6913 11.2101 13.6888 11.4538 13.445C11.6976 13.2013 11.7001 12.8075 11.4613 12.5663L7.84007 8.94501L11.4601 5.32376C11.5177 5.26591 11.5633 5.19725 11.5943 5.12171C11.6253 5.04618 11.6411 4.96526 11.6408 4.88361C11.6404 4.80196 11.6239 4.72118 11.5923 4.64592C11.5606 4.57065 11.5144 4.50238 11.4563 4.44501Z" fill="#283248"/>
</svg>
