<svg width="18" height="18" viewBox="0 0 18 18" fill="none" xmlns="http://www.w3.org/2000/svg">
<path d="M8.98694 0.236938C4.15444 0.236938 0.236938 4.15444 0.236938 8.98694C0.236938 13.8194 4.15444 17.7369 8.98694 17.7369C13.8194 17.7369 17.7369 13.8194 17.7369 8.98694C17.7369 4.15444 13.8194 0.236938 8.98694 0.236938ZM14.2902 14.2902C13.6011 14.9794 12.7989 15.5204 11.9059 15.8981C10.9821 16.2888 9.99999 16.4869 8.98694 16.4869C7.97389 16.4869 6.99182 16.2888 6.06797 15.8981C5.17502 15.5204 4.37282 14.9794 3.68364 14.2902C2.99444 13.6011 2.4535 12.7989 2.07581 11.9059C1.68506 10.9821 1.48694 9.99999 1.48694 8.98694C1.48694 7.97389 1.68506 6.99182 2.07581 6.06797C2.45348 5.17502 2.99444 4.37282 3.68364 3.68364C4.37282 2.99444 5.17502 2.4535 6.06797 2.07581C6.9918 1.68506 7.97389 1.48694 8.98694 1.48694C9.99999 1.48694 10.9821 1.68506 11.9059 2.07581C12.7989 2.45348 13.6011 2.99444 14.2902 3.68364C14.9794 4.37282 15.5204 5.17502 15.8981 6.06797C16.2888 6.9918 16.4869 7.97389 16.4869 8.98694C16.4869 9.99999 16.2888 10.9821 15.8981 11.9059C15.5204 12.7989 14.9794 13.6011 14.2902 14.2902Z" fill="#283248"/>
<path d="M11.5399 4.57866C11.0227 3.80186 10.1213 3.37405 9.00192 3.37405C8.11461 3.37405 7.40563 3.66581 6.89467 4.24124C6.47125 4.71809 6.2119 5.3619 6.12379 6.15479C6.06221 6.70905 6.1092 7.13454 6.11477 7.18122C6.15561 7.52397 6.46672 7.76879 6.8093 7.72791C7.15206 7.68709 7.39682 7.37614 7.356 7.03338C7.35563 7.03024 7.31997 6.70846 7.36616 6.29284C7.40672 5.92784 7.52 5.41963 7.82938 5.07122C8.09655 4.77032 8.4801 4.62405 9.00192 4.62405C9.69961 4.62405 10.2174 4.84791 10.4995 5.27145C10.7977 5.7193 10.7771 6.28832 10.6244 6.65358C10.537 6.86264 10.1223 7.24491 9.78909 7.55206C9.08745 8.19876 8.36194 8.86747 8.36194 9.67555V10.8759C8.36194 11.2211 8.64176 11.5009 8.98694 11.5009C9.33211 11.5009 9.61194 11.2211 9.61194 10.8759V9.67555C9.61194 9.66219 9.61885 9.53682 9.85817 9.24733C10.0632 8.99936 10.3545 8.73084 10.6362 8.47118C11.1241 8.02147 11.585 7.59668 11.7777 7.13565C11.9403 6.74674 12.0088 6.30911 11.976 5.87004C11.941 5.40102 11.7901 4.95448 11.5399 4.57866Z" fill="#283248"/>
<path d="M8.22065 12.7298C8.22065 12.937 8.30296 13.1357 8.44947 13.2822C8.59598 13.4287 8.7947 13.511 9.0019 13.511C9.2091 13.511 9.40781 13.4287 9.55433 13.2822C9.70084 13.1357 9.78315 12.937 9.78315 12.7298C9.78315 12.5226 9.70084 12.3238 9.55433 12.1773C9.40781 12.0308 9.2091 11.9485 9.0019 11.9485C8.7947 11.9485 8.59598 12.0308 8.44947 12.1773C8.30296 12.3238 8.22065 12.5226 8.22065 12.7298Z" fill="#283248"/>
</svg>
