<svg width="16" height="18" viewBox="0 0 16 18" fill="none" xmlns="http://www.w3.org/2000/svg">
<path d="M15.5 4.625V3.375C15.5 2 14.375 0.875 13 0.875H3C1.625 0.875 0.5 2 0.5 3.375V4.625C0.5 5.375 0.84375 6.03125 1.34375 6.5C0.84375 6.96875 0.5 7.625 0.5 8.375V9.625C0.5 10.375 0.84375 11.0312 1.34375 11.5C0.84375 11.9688 0.5 12.625 0.5 13.375V14.625C0.5 16 1.625 17.125 3 17.125H13C14.375 17.125 15.5 16 15.5 14.625V13.375C15.5 12.625 15.1562 11.9688 14.6562 11.5C15.1875 11.0312 15.5 10.375 15.5 9.625V8.375C15.5 7.625 15.1562 6.96875 14.6562 6.5C15.1562 6.03125 15.5 5.375 15.5 4.625ZM14.25 14.625C14.25 15.3125 13.6875 15.875 13 15.875H3C2.3125 15.875 1.75 15.3125 1.75 14.625V13.375C1.75 12.6875 2.3125 12.125 3 12.125H13C13.6875 12.125 14.25 12.6875 14.25 13.375V14.625ZM14.25 9.625C14.25 10.3125 13.6875 10.875 13 10.875H3C2.3125 10.875 1.75 10.3125 1.75 9.625V8.375C1.75 7.6875 2.3125 7.125 3 7.125H13C13.6875 7.125 14.25 7.6875 14.25 8.375V9.625ZM14.25 4.625C14.25 5.3125 13.6875 5.875 13 5.875H3C2.3125 5.875 1.75 5.3125 1.75 4.625V3.375C1.75 2.6875 2.3125 2.125 3 2.125H13C13.6875 2.125 14.25 2.6875 14.25 3.375V4.625Z" fill="#283248"/>
<path d="M11.125 4C11.125 4.16576 11.1908 4.32473 11.3081 4.44194C11.4253 4.55915 11.5842 4.625 11.75 4.625C11.9158 4.625 12.0747 4.55915 12.1919 4.44194C12.3092 4.32473 12.375 4.16576 12.375 4C12.375 3.83424 12.3092 3.67527 12.1919 3.55806C12.0747 3.44085 11.9158 3.375 11.75 3.375C11.5842 3.375 11.4253 3.44085 11.3081 3.55806C11.1908 3.67527 11.125 3.83424 11.125 4ZM11.125 9C11.125 9.16576 11.1908 9.32473 11.3081 9.44194C11.4253 9.55915 11.5842 9.625 11.75 9.625C11.9158 9.625 12.0747 9.55915 12.1919 9.44194C12.3092 9.32473 12.375 9.16576 12.375 9C12.375 8.83424 12.3092 8.67527 12.1919 8.55806C12.0747 8.44085 11.9158 8.375 11.75 8.375C11.5842 8.375 11.4253 8.44085 11.3081 8.55806C11.1908 8.67527 11.125 8.83424 11.125 9ZM11.125 14C11.125 14.1658 11.1908 14.3247 11.3081 14.4419C11.4253 14.5592 11.5842 14.625 11.75 14.625C11.9158 14.625 12.0747 14.5592 12.1919 14.4419C12.3092 14.3247 12.375 14.1658 12.375 14C12.375 13.8342 12.3092 13.6753 12.1919 13.5581C12.0747 13.4408 11.9158 13.375 11.75 13.375C11.5842 13.375 11.4253 13.4408 11.3081 13.5581C11.1908 13.6753 11.125 13.8342 11.125 14Z" fill="#283248"/>
</svg>
