<svg width="20" height="20" viewBox="0 0 20 20" fill="none" xmlns="http://www.w3.org/2000/svg">
<path d="M16.6053 0.805298H3.52634C2.00003 0.805298 0.763184 2.0474 0.763184 3.56846V11.5895C0.763184 13.1158 2.00529 14.3527 3.52634 14.3527H9.53687V18.0842H4.87897C4.5895 18.0842 4.35266 18.3211 4.35266 18.6106C4.35266 18.9 4.5895 19.1369 4.87897 19.1369H15.2527C15.5421 19.1369 15.779 18.9 15.779 18.6106C15.779 18.3211 15.5421 18.0842 15.2527 18.0842H10.5948V14.3527H16.6053C18.1316 14.3527 19.3684 13.1106 19.3684 11.5895V3.56846C19.3684 2.04214 18.1263 0.805298 16.6053 0.805298ZM18.3158 11.5895C18.3158 12.5316 17.5474 13.3 16.6053 13.3H3.52634C2.58424 13.3 1.81582 12.5316 1.81582 11.5895V3.56846C1.81582 2.62635 2.58424 1.85793 3.52634 1.85793H16.6C17.5421 1.85793 18.3106 2.62635 18.3106 3.56846V11.5895H18.3158Z" fill="#283248"/>
</svg>
