<svg width="18" height="14" viewBox="0 0 18 14" fill="none" xmlns="http://www.w3.org/2000/svg">
<path d="M15.25 0.333374H2.74996C2.19742 0.333374 1.66752 0.552867 1.27682 0.943568C0.886119 1.33427 0.666626 1.86417 0.666626 2.41671V11.5834C0.666626 12.1359 0.886119 12.6658 1.27682 13.0565C1.66752 13.4472 2.19742 13.6667 2.74996 13.6667H15.25C15.8025 13.6667 16.3324 13.4472 16.7231 13.0565C17.1138 12.6658 17.3333 12.1359 17.3333 11.5834V2.41671C17.3333 1.86417 17.1138 1.33427 16.7231 0.943568C16.3324 0.552867 15.8025 0.333374 15.25 0.333374ZM16.0833 11.375C16.0833 11.5118 16.0564 11.6473 16.004 11.7737C15.9517 11.9001 15.8749 12.0149 15.7782 12.1116C15.6815 12.2083 15.5666 12.2851 15.4403 12.3374C15.3139 12.3898 15.1784 12.4167 15.0416 12.4167H2.95829C2.8215 12.4167 2.68604 12.3898 2.55966 12.3374C2.43328 12.2851 2.31845 12.2083 2.22172 12.1116C2.125 12.0149 2.04827 11.9001 1.99592 11.7737C1.94357 11.6473 1.91663 11.5118 1.91663 11.375V2.62504C1.91663 2.48825 1.94357 2.35279 1.99592 2.22641C2.04827 2.10003 2.125 1.9852 2.22172 1.88847C2.31845 1.79174 2.43328 1.71501 2.55966 1.66267C2.68604 1.61032 2.8215 1.58337 2.95829 1.58337H15.0416C15.1784 1.58337 15.3139 1.61032 15.4403 1.66267C15.5666 1.71501 15.6815 1.79174 15.7782 1.88847C15.8749 1.9852 15.9517 2.10003 16.004 2.22641C16.0564 2.35279 16.0833 2.48825 16.0833 2.62504V11.375Z" fill="#283248"/>
<path d="M11.2916 10.1417H6.70829C6.29162 10.1417 6.08329 9.93337 6.08329 9.51671C6.08329 9.10004 6.29162 8.89171 6.70829 8.89171H11.2916C11.7083 8.89171 11.9166 9.10004 11.9166 9.51671C11.9166 9.93337 11.7083 10.1417 11.2916 10.1417Z" fill="#283248"/>
<path d="M4.28746 4.47921C4.28746 4.06254 4.49579 3.85421 4.91246 3.85421C5.32913 3.85421 5.53746 4.06254 5.53746 4.47921C5.53746 4.89587 5.32913 5.10421 4.91246 5.10421C4.49579 5.10421 4.28746 4.89587 4.28746 4.47921Z" fill="#283248"/>
<path d="M6.32913 4.47921C6.32913 4.06254 6.53746 3.85421 6.95413 3.85421C7.37079 3.85421 7.57913 4.06254 7.57913 4.47921C7.57913 4.89587 7.37079 5.10421 6.95413 5.10421C6.53746 5.10421 6.32913 4.89587 6.32913 4.47921Z" fill="#283248"/>
<path d="M8.37496 4.47921C8.37496 4.06254 8.58329 3.85421 8.99996 3.85421C9.41663 3.85421 9.62496 4.06254 9.62496 4.47921C9.62496 4.89587 9.41663 5.10421 8.99996 5.10421C8.58329 5.10421 8.37496 4.89587 8.37496 4.47921Z" fill="#283248"/>
<path d="M10.4166 4.48337C10.4166 4.06671 10.625 3.85837 11.0416 3.85837C11.4583 3.85837 11.6666 4.06671 11.6666 4.48337C11.6666 4.90004 11.4583 5.10837 11.0416 5.10837C10.625 5.10837 10.4166 4.90004 10.4166 4.48337Z" fill="#283248"/>
<path d="M12.4625 4.47921C12.4625 4.06254 12.6708 3.85421 13.0875 3.85421C13.5041 3.85421 13.7125 4.06254 13.7125 4.47921C13.7125 4.89587 13.5041 5.10421 13.0875 5.10421C12.6708 5.10421 12.4625 4.89587 12.4625 4.47921Z" fill="#283248"/>
<path d="M5.31246 6.76671C5.31246 6.35004 5.52079 6.14171 5.93746 6.14171C6.35413 6.14171 6.56246 6.35004 6.56246 6.76671C6.56246 7.18337 6.35413 7.39171 5.93746 7.39171C5.52079 7.39171 5.31246 7.18337 5.31246 6.76671Z" fill="#283248"/>
<path d="M7.35413 6.76254C7.35413 6.34587 7.56246 6.13754 7.97913 6.13754C8.39579 6.13754 8.60413 6.34587 8.60413 6.76254C8.60413 7.17921 8.39579 7.38754 7.97913 7.38754C7.56246 7.38754 7.35413 7.17921 7.35413 6.76254Z" fill="#283248"/>
<path d="M9.39996 6.76671C9.39996 6.35004 9.60829 6.14171 10.025 6.14171C10.4416 6.14171 10.65 6.35004 10.65 6.76671C10.65 7.18337 10.4416 7.39171 10.025 7.39171C9.60829 7.39171 9.39996 7.18337 9.39996 6.76671Z" fill="#283248"/>
<path d="M11.4416 6.76254C11.4416 6.34587 11.65 6.13754 12.0666 6.13754C12.4833 6.13754 12.6916 6.34587 12.6916 6.76254C12.6916 7.17921 12.4833 7.38754 12.0666 7.38754C11.65 7.38754 11.4416 7.17921 11.4416 6.76254Z" fill="#283248"/>
</svg>
