<svg width="18" height="18" viewBox="0 0 18 18" fill="none" xmlns="http://www.w3.org/2000/svg">
<path d="M6.07031 0.210938H2.55469C1.26562 0.210938 0.210938 1.26562 0.210938 2.55469V6.07031C0.210938 7.35938 1.26562 8.41406 2.55469 8.41406H6.07031C7.35938 8.41406 8.41406 7.35938 8.41406 6.07031V2.55469C8.41406 1.26562 7.35938 0.210938 6.07031 0.210938ZM6.65625 5.48438C6.65625 6.12891 6.12891 6.65625 5.48438 6.65625H3.14062C2.49609 6.65625 1.96875 6.12891 1.96875 5.48438V3.14062C1.96875 2.49609 2.49609 1.96875 3.14062 1.96875H5.48438C6.12891 1.96875 6.65625 2.49609 6.65625 3.14062V5.48438ZM6.07031 9.58594H2.55469C1.26562 9.58594 0.210938 10.6406 0.210938 11.9297V15.4453C0.210938 16.7344 1.26562 17.7891 2.55469 17.7891H6.07031C7.35938 17.7891 8.41406 16.7344 8.41406 15.4453V11.9297C8.41406 10.6406 7.35938 9.58594 6.07031 9.58594ZM6.65625 14.8594C6.65625 15.5039 6.12891 16.0312 5.48438 16.0312H3.14062C2.49609 16.0312 1.96875 15.5039 1.96875 14.8594V12.5156C1.96875 11.8711 2.49609 11.3438 3.14062 11.3438H5.48438C6.12891 11.3438 6.65625 11.8711 6.65625 12.5156V14.8594ZM15.4453 0.210938H11.9297C10.6406 0.210938 9.58594 1.26562 9.58594 2.55469V6.07031C9.58594 7.35938 10.6406 8.41406 11.9297 8.41406H15.4453C16.7344 8.41406 17.7891 7.35938 17.7891 6.07031V2.55469C17.7891 1.26562 16.7344 0.210938 15.4453 0.210938ZM16.0312 5.48438C16.0312 6.12891 15.5039 6.65625 14.8594 6.65625H12.5156C11.8711 6.65625 11.3438 6.12891 11.3438 5.48438V3.14062C11.3438 2.49609 11.8711 1.96875 12.5156 1.96875H14.8594C15.5039 1.96875 16.0312 2.49609 16.0312 3.14062V5.48438ZM15.4453 9.58594H11.9297C10.6406 9.58594 9.58594 10.6406 9.58594 11.9297V15.4453C9.58594 16.7344 10.6406 17.7891 11.9297 17.7891H15.4453C16.7344 17.7891 17.7891 16.7344 17.7891 15.4453V11.9297C17.7891 10.6406 16.7344 9.58594 15.4453 9.58594ZM16.0312 14.8594C16.0312 15.5039 15.5039 16.0312 14.8594 16.0312H12.5156C11.8711 16.0312 11.3438 15.5039 11.3438 14.8594V12.5156C11.3438 11.8711 11.8711 11.3438 12.5156 11.3438H14.8594C15.5039 11.3438 16.0312 11.8711 16.0312 12.5156V14.8594Z" fill="#283248"/>
</svg>
