<svg width="16" height="19" viewBox="0 0 16 19" fill="none" xmlns="http://www.w3.org/2000/svg">
<path d="M13.625 18.75H2.375C1.34375 18.75 0.5 17.9062 0.5 16.875V9.375C0.5 8.34375 1.34375 7.5 2.375 7.5H13.625C14.6562 7.5 15.5 8.34375 15.5 9.375V16.875C15.5 17.9062 14.6562 18.75 13.625 18.75ZM2.375 8.75C2.03125 8.75 1.75 9.03125 1.75 9.375V16.875C1.75 17.2188 2.03125 17.5 2.375 17.5H13.625C13.9688 17.5 14.25 17.2188 14.25 16.875V9.375C14.25 9.03125 13.9688 8.75 13.625 8.75H2.375ZM12.6875 8.125C12.3438 8.125 12.0625 7.84375 12.0625 7.5V5.3125C12.0625 3.0625 10.25 1.25 8 1.25C5.75 1.25 3.9375 3.0625 3.9375 5.3125V7.5C3.9375 7.84375 3.65625 8.125 3.3125 8.125C2.96875 8.125 2.6875 7.84375 2.6875 7.5V5.3125C2.6875 2.375 5.0625 0 8 0C10.9375 0 13.3125 2.375 13.3125 5.3125V7.5C13.3125 7.84375 13.0312 8.125 12.6875 8.125Z" fill="#283248"/>
</svg>
