<svg width="20" height="16" viewBox="0 0 20 16" fill="none" xmlns="http://www.w3.org/2000/svg">
<path d="M5.2034 5.82966L8.90201 2.89449V13.1058L5.2034 10.1704H1.79995V5.82966H5.2034ZM1.0001 4.32973C0.61335 4.32973 0.300049 4.64303 0.300049 5.02978V10.9704C0.300049 11.3569 0.61335 11.6705 1.0001 11.6705H4.68065C6.20948 12.8837 7.73827 14.0969 9.26703 15.3103C9.72575 15.6742 10.4022 15.3476 10.4022 14.762V1.23824C10.4022 0.652452 9.72575 0.325746 9.26703 0.689917C7.73827 1.90312 6.20948 3.11653 4.68065 4.32973H1.0001ZM11.6586 4.45281C11.3931 4.13513 11.4353 3.66195 11.753 3.39635C12.071 3.13078 12.5439 3.17304 12.8095 3.49096C13.7399 4.60411 14.6704 5.7173 15.6008 6.83067C16.5313 5.7173 17.4618 4.60411 18.3924 3.49096C18.6579 3.17304 19.1309 3.13078 19.4487 3.39635C19.7665 3.66192 19.8088 4.1351 19.5432 4.45281C18.555 5.63528 17.5666 6.81772 16.5784 8.00016C17.5666 9.18259 18.555 10.365 19.5432 11.5473C19.8088 11.8652 19.7665 12.3381 19.4487 12.6037C19.1309 12.8695 18.6579 12.8272 18.3924 12.5093C17.4618 11.3961 16.5313 10.2828 15.6008 9.16961L12.8095 12.5093C12.5439 12.8272 12.0709 12.8695 11.753 12.6037C11.4353 12.3381 11.3931 11.8651 11.6586 11.5473C12.6469 10.365 13.635 9.18259 14.6235 8.00016C13.6351 6.81768 12.6469 5.63525 11.6586 4.45281Z" fill="#283248"/>
</svg>
