<svg width="20" height="20" viewBox="0 0 20 20" fill="none" xmlns="http://www.w3.org/2000/svg">
<path d="M18.75 1.25H15C15 0.918479 14.8683 0.600537 14.6339 0.366117C14.3995 0.131696 14.0815 0 13.75 0H8.75C8.41848 0 8.10054 0.131696 7.86612 0.366117C7.6317 0.600537 7.5 0.918479 7.5 1.25H5C3.67392 1.25 2.40215 1.77678 1.46447 2.71447C0.526784 3.65215 0 4.92392 0 6.25C0 7.57608 0.526784 8.84785 1.46447 9.78553C2.40215 10.7232 3.67392 11.25 5 11.25H13.75C14.413 11.25 15.0489 11.5134 15.5178 11.9822C15.9866 12.4511 16.25 13.087 16.25 13.75C16.25 14.413 15.9866 15.0489 15.5178 15.5178C15.0489 15.9866 14.413 16.25 13.75 16.25H12.5C12.5 15.9185 12.3683 15.6005 12.1339 15.3661C11.8995 15.1317 11.5815 15 11.25 15H6.25C5.91848 15 5.60054 15.1317 5.36612 15.3661C5.1317 15.6005 5 15.9185 5 16.25H1.25C0.918479 16.25 0.600537 16.3817 0.366117 16.6161C0.131696 16.8505 0 17.1685 0 17.5C0 17.8315 0.131696 18.1495 0.366117 18.3839C0.600537 18.6183 0.918479 18.75 1.25 18.75H5C5 19.0815 5.1317 19.3995 5.36612 19.6339C5.60054 19.8683 5.91848 20 6.25 20H11.25C11.5815 20 11.8995 19.8683 12.1339 19.6339C12.3683 19.3995 12.5 19.0815 12.5 18.75H13.75C15.0761 18.75 16.3479 18.2232 17.2855 17.2855C18.2232 16.3479 18.75 15.0761 18.75 13.75C18.75 12.4239 18.2232 11.1521 17.2855 10.2145C16.3479 9.27678 15.0761 8.75 13.75 8.75H5C4.33696 8.75 3.70107 8.48661 3.23223 8.01777C2.76339 7.54893 2.5 6.91304 2.5 6.25C2.5 5.58696 2.76339 4.95107 3.23223 4.48223C3.70107 4.01339 4.33696 3.75 5 3.75H7.5C7.5 4.08152 7.6317 4.39946 7.86612 4.63388C8.10054 4.8683 8.41848 5 8.75 5H13.75C14.0815 5 14.3995 4.8683 14.6339 4.63388C14.8683 4.39946 15 4.08152 15 3.75H18.75C19.0815 3.75 19.3995 3.6183 19.6339 3.38388C19.8683 3.14946 20 2.83152 20 2.5C20 2.16848 19.8683 1.85054 19.6339 1.61612C19.3995 1.3817 19.0815 1.25 18.75 1.25Z" fill="#283248"/>
</svg>
