<?xml version="1.0" standalone="no"?><!DOCTYPE svg PUBLIC "-//W3C//DTD SVG 1.1//EN" "http://www.w3.org/Graphics/SVG/1.1/DTD/svg11.dtd"><svg t="1692865042426" class="icon" viewBox="0 0 1024 1024" version="1.1" xmlns="http://www.w3.org/2000/svg" p-id="1530" xmlns:xlink="http://www.w3.org/1999/xlink" width="200" height="200"><path d="M512 512m-153.6 0a153.6 153.6 0 1 0 307.2 0 153.6 153.6 0 1 0-307.2 0Z" fill="#4EEAAB" p-id="1531"></path><path d="M512 0C229.2 0 0 229.2 0 512s229.2 512 512 512 512-229.2 512-512S794.8 0 512 0z m0 947.2C272 947.2 76.8 752 76.8 512S272 76.8 512 76.8 947.2 272 947.2 512 752 947.2 512 947.2z" fill="#454563" p-id="1532"></path><path d="M550.4 196.3c0-21.2-17.2-38.4-38.4-38.4-195.3 0-354.1 158.9-354.1 354.1 0 21.2 17.2 38.4 38.4 38.4s38.4-17.2 38.4-38.4c0-152.9 124.4-277.3 277.3-277.3 21.2 0 38.4-17.2 38.4-38.4z" fill="#454563" p-id="1533"></path><path d="M512 320c-105.9 0-192 86.1-192 192s86.1 192 192 192 192-86.1 192-192-86.1-192-192-192z m0 307.2c-63.5 0-115.2-51.7-115.2-115.2S448.5 396.8 512 396.8 627.2 448.5 627.2 512 575.5 627.2 512 627.2z" fill="#454563" p-id="1534"></path></svg>