<?xml version="1.0" standalone="no"?><!DOCTYPE svg PUBLIC "-//W3C//DTD SVG 1.1//EN" "http://www.w3.org/Graphics/SVG/1.1/DTD/svg11.dtd"><svg t="1692864180732" class="icon" viewBox="0 0 1024 1024" version="1.1" xmlns="http://www.w3.org/2000/svg" p-id="1162" xmlns:xlink="http://www.w3.org/1999/xlink" width="200" height="200"><path d="M897.6 183.5L183 898.1c-7.5 7.5-19.6 7.5-27.1 0l-29.5-29.5c-7.5-7.5-7.5-19.6 0-27.1L841 126.9c7.5-7.5 19.6-7.5 27.1 0l29.5 29.5c7.5 7.4 7.5 19.6 0 27.1z" p-id="1163" fill="#ffffff"></path><path d="M183 126.9l714.7 714.7c7.5 7.5 7.5 19.6 0 27.1l-29.5 29.5c-7.5 7.5-19.6 7.5-27.1 0L126.4 183.5c-7.5-7.5-7.5-19.6 0-27.1l29.5-29.5c7.4-7.5 19.6-7.5 27.1 0z" p-id="1164" fill="#ffffff"></path></svg>