<?xml version="1.0" standalone="no"?><!DOCTYPE svg PUBLIC "-//W3C//DTD SVG 1.1//EN" "http://www.w3.org/Graphics/SVG/1.1/DTD/svg11.dtd"><svg t="1696670073686" class="icon" viewBox="0 0 1024 1024" version="1.1" xmlns="http://www.w3.org/2000/svg" p-id="6142" xmlns:xlink="http://www.w3.org/1999/xlink" width="200" height="200"><path d="M752.2304 360.5504H323.584v-67.7888c0-97.6896 82.944-173.6704 188.7232-173.6704 103.1168 0 180.8384 74.8544 180.8384 174.1824v13.2096c4.608 20.48 24.9856 33.4848 45.4656 28.8768 14.336-3.1744 25.6-14.4384 28.8768-28.8768v-13.0048c1.2288-67.8912-25.8048-133.12-74.5472-180.3264a260.7104 260.7104 0 0 0-178.0736-70.0416h-3.3792c-67.1744 0-131.9936 24.6784-182.1696 69.2224a240.08704 240.08704 0 0 0-80.1792 180.3264v73.3184a163.60448 163.60448 0 0 0-126.976 159.0272v275.2512c0.2048 90.7264 73.728 164.2496 164.5568 164.4544h465.7152c90.7264-0.2048 164.2496-73.728 164.4544-164.4544V525.0048c-0.4096-90.7264-73.9328-164.2496-164.6592-164.4544z" fill="#409EFF" p-id="6143"></path><path d="M519.5776 488.0384h-0.512c-79.0528 1.536-142.0288 66.8672-140.4928 145.92 1.2288 62.7712 43.1104 117.4528 103.5264 134.9632v56.0128c2.1504 9.8304 8.0896 18.432 16.5888 23.8592 6.144 3.9936 13.2096 6.0416 20.48 6.0416a38.07232 38.07232 0 0 0 37.4784-30.3104v-55.9104c75.8784-22.528 119.0912-102.2976 96.5632-178.0736a143.02208 143.02208 0 0 0-133.632-102.5024z m68.096 142.848c0.1024 37.7856-30.5152 68.4032-68.3008 68.5056-37.6832 0-68.3008-30.5152-68.4032-68.3008-0.2048-37.7856 30.3104-68.5056 68.096-68.7104 37.7856-0.2048 68.5056 30.3104 68.7104 68.096l-0.1024 0.4096z" fill="#FFFFFF" p-id="6144"></path></svg>