<?xml version="1.0" standalone="no"?><!DOCTYPE svg PUBLIC "-//W3C//DTD SVG 1.1//EN" "http://www.w3.org/Graphics/SVG/1.1/DTD/svg11.dtd"><svg t="1692870798356" class="icon" viewBox="0 0 1024 1024" version="1.1" xmlns="http://www.w3.org/2000/svg" p-id="27273" xmlns:xlink="http://www.w3.org/1999/xlink" width="200" height="200"><path d="M938.8 555.5c-12.8-27.7-30.4-52.7-51.7-73.9-2.4-2.2-4.8-4.4-7.1-6.8-15.5-16-26.8-35.9-32.1-58.1-0.9-3.3-1.5-6.6-2-10-1.6-9.6-2.1-19.7-1.3-29.8 1.7-22.4 9.2-43 20.8-60.4-47.7 6.3-87.8 39.3-103.2 84.6-1.1 3.4-2.2 6.9-3 10.5l-22.2 290c-6.4-2.6-12.9-4.9-19.8-6.7-11.7-3.3-24.1-5.7-37-7.1-14.9-1.6-30.5-1.7-46.6-0.1-34.1 3.2-65.2 13.3-90.8 27.9-28.9 16.5-50.7 39-61.9 64.4-6.5 14.8-9.5 30.5-7.9 46.5 6.3 67.7 88.6 115.3 183.6 106.4 23.3-2.2 45.3-7.6 65-15.5 26.6-10.7 49.1-25.9 65.7-43.9 14.6-15.8 24.5-33.9 28.3-52.9 0.7-3.6 1.2-7.4 1.6-11.1 0.2 0 22-282.3 22-282.3 2.3 0.1 4.8 0.1 7.1 0.3 30.1 2.3 57 14.9 77.4 34.3 16.4 15.5 28.5 35.3 34.8 57.5-3.6-22.3-10.3-43.7-19.7-63.8z m-99.5-28.3zM105 169h798.2c22.1 0 40-17.9 40-40s-17.9-40-40-40H105c-22.1 0-40 17.9-40 40s17.9 40 40 40z" p-id="27274" fill="#ffffff"></path><path d="M105 551.8h568.2c22.1 0 40-17.9 40-40s-17.9-40-40-40H105c-22.1 0-40 17.9-40 40s17.9 40 40 40z m312.2 302.8H105c-22.1 0-40 17.9-40 40s17.9 40 40 40h312.2c22.1 0 40-17.9 40-40s-17.9-40-40-40z" p-id="27275" fill="#ffffff"></path></svg>