<?xml version="1.0" standalone="no"?><!DOCTYPE svg PUBLIC "-//W3C//DTD SVG 1.1//EN" "http://www.w3.org/Graphics/SVG/1.1/DTD/svg11.dtd"><svg t="1696670003715" class="icon" viewBox="0 0 1024 1024" version="1.1" xmlns="http://www.w3.org/2000/svg" p-id="2901" xmlns:xlink="http://www.w3.org/1999/xlink" width="200" height="200"><path d="M632 344m-120 0a120 120 0 1 0 240 0 120 120 0 1 0-240 0Z" fill="#A9D8FF" p-id="2902"></path><path d="M809 800H503c-48.1 0-87-39-87-87 0-111 90-201 201-201h78c111 0 201 90 201 201 0 48-39 87-87 87z" fill="#A9D8FF" p-id="2903"></path><path d="M440 296m-168 0a168 168 0 1 0 336 0 168 168 0 1 0-336 0Z" fill="#298DF7" p-id="2904"></path><path d="M638.2 896H241.8C179 896 128 845 128 782.2 128 633 249 512 398.2 512h83.6C631 512 752 633 752 782.2 752 845 701 896 638.2 896z" fill="#298DF7" p-id="2905"></path></svg>