<?xml version="1.0" standalone="no"?><!DOCTYPE svg PUBLIC "-//W3C//DTD SVG 1.1//EN" "http://www.w3.org/Graphics/SVG/1.1/DTD/svg11.dtd"><svg t="1692866162920" class="icon" viewBox="0 0 1024 1024" version="1.1" xmlns="http://www.w3.org/2000/svg" p-id="24663" xmlns:xlink="http://www.w3.org/1999/xlink" width="200" height="200"><path d="M772.8 96v64L936 321.6l-91.2 91.2c-12.8-11.2-27.2-16-43.2-16-36.8 0-65.6 28.8-65.6 65.6V800c0 35.2-28.8 64-64 64H352c-35.2 0-64-28.8-64-64V462.4c0-36.8-28.8-65.6-65.6-65.6-16 0-32 6.4-43.2 16L88 321.6 249.6 160h40l1.6 1.6C336 228.8 420.8 272 512 272c91.2 0 176-41.6 220.8-110.4 0-1.6 1.6-1.6 1.6-1.6h38.4V96m-481.6 0H256c-22.4 0-38.4 6.4-49.6 19.2L43.2 276.8c-25.6 25.6-25.6 65.6 0 89.6l94.4 94.4c11.2 11.2 27.2 17.6 41.6 17.6s30.4-6.4 41.6-17.6h1.6c1.6 0 1.6 0 1.6 1.6V800c0 70.4 57.6 128 128 128h320c70.4 0 128-57.6 128-128V462.4c0-1.6 0-1.6 1.6-1.6h1.6c11.2 11.2 27.2 17.6 41.6 17.6 16 0 30.4-6.4 41.6-17.6l94.4-94.4c25.6-25.6 25.6-65.6 0-89.6L819.2 115.2C806.4 102.4 790.4 96 772.8 96h-40c-22.4 0-41.6 11.2-54.4 30.4-33.6 49.6-96 81.6-168 81.6s-134.4-33.6-168-81.6C332.8 107.2 312 96 291.2 96z" fill="#ffffff" p-id="24664"></path></svg>