<?xml version="1.0" standalone="no"?><!DOCTYPE svg PUBLIC "-//W3C//DTD SVG 1.1//EN" "http://www.w3.org/Graphics/SVG/1.1/DTD/svg11.dtd"><svg t="1693481116005" class="icon" viewBox="0 0 1024 1024" version="1.1" xmlns="http://www.w3.org/2000/svg" p-id="7899" xmlns:xlink="http://www.w3.org/1999/xlink" width="200" height="200"><path d="M256 192V96a96 96 0 0 0-192 0v96a160 160 0 0 0 0 256v480a96 96 0 0 0 192 0V448a160 160 0 0 0 0-256zM128 96a32 32 0 0 1 64 0v67.2a162.24 162.24 0 0 0-64 0z m64 832a32 32 0 0 1-64 0V476.8a160 160 0 0 0 64 0z m59.84-581.12V352a96 96 0 0 1-12.16 23.68 96 96 0 0 1-19.84 20.16 96 96 0 0 1-115.2 0 96 96 0 0 1-19.84-20.16 96 96 0 0 1-15.04-23.68v-5.12a86.08 86.08 0 0 1 0-53.76V288a96 96 0 0 1 12.16-23.68 96 96 0 0 1 19.84-20.16A98.24 98.24 0 0 1 128 229.76 96 96 0 0 1 160 224a96 96 0 0 1 32 5.76 98.24 98.24 0 0 1 25.6 13.76 96 96 0 0 1 19.84 20.16 96 96 0 0 1 12.8 24.32v5.12a86.08 86.08 0 0 1 0 53.76zM960 192V96a96 96 0 0 0-192 0v96a160 160 0 0 0 0 256v480a96 96 0 0 0 192 0V448a160 160 0 0 0 0-256z m-128-96a32 32 0 0 1 64 0v67.2a162.24 162.24 0 0 0-64 0z m64 832a32 32 0 0 1-64 0V476.8a160 160 0 0 0 64 0z m59.84-581.12V352a96 96 0 0 1-12.16 23.68 96 96 0 0 1-19.84 20.16 96 96 0 0 1-115.2 0 96 96 0 0 1-19.84-20.16 96 96 0 0 1-12.16-23.68v-5.12a86.08 86.08 0 0 1 0-53.76V288a96 96 0 0 1 12.16-23.68 96 96 0 0 1 19.84-20.16 98.24 98.24 0 0 1 25.6-13.76 90.24 90.24 0 0 1 64 0 98.24 98.24 0 0 1 25.6 13.76 96 96 0 0 1 19.84 20.16 96 96 0 0 1 12.16 23.68v5.12a86.08 86.08 0 0 1 0 53.76zM608 576V96a96 96 0 0 0-192 0v480a160 160 0 0 0 0 256v96a96 96 0 0 0 192 0v-96a160 160 0 0 0 0-256zM480 96a32 32 0 0 1 64 0v451.2a162.24 162.24 0 0 0-64 0z m64 832a32 32 0 0 1-64 0v-67.2a160 160 0 0 0 64 0z m59.84-197.12V736a96 96 0 0 1-12.16 23.68 96 96 0 0 1-19.84 20.16 96 96 0 0 1-115.2 0 96 96 0 0 1-19.84-20.16 96 96 0 0 1-12.16-23.68v-5.12a86.08 86.08 0 0 1 0-53.76V672a96 96 0 0 1 12.16-23.68 96 96 0 0 1 19.84-20.16 98.24 98.24 0 0 1 25.6-13.76 90.24 90.24 0 0 1 64 0 98.24 98.24 0 0 1 25.6 13.76 96 96 0 0 1 19.84 20.16 96 96 0 0 1 12.16 23.68v5.12a86.08 86.08 0 0 1 0 53.76z" fill="#000000" p-id="7900"></path></svg>