<?xml version="1.0" standalone="no"?><!DOCTYPE svg PUBLIC "-//W3C//DTD SVG 1.1//EN" "http://www.w3.org/Graphics/SVG/1.1/DTD/svg11.dtd"><svg t="1696670205049" class="icon" viewBox="0 0 1024 1024" version="1.1" xmlns="http://www.w3.org/2000/svg" p-id="12485" xmlns:xlink="http://www.w3.org/1999/xlink" width="200" height="200"><path d="M502.28224 338.432m-234.496 0a234.496 234.496 0 1 0 468.992 0 234.496 234.496 0 1 0-468.992 0Z" fill="#CAE4FF" p-id="12486"></path><path d="M492.288 609.792c-160.256-0.512-289.792-130.048-289.792-289.792 0-160.768 129.024-291.84 289.792-294.4 160.256 0.512 289.792 130.048 289.792 289.792 0.512 161.28-129.024 291.84-289.792 294.4z m0-500.224c-113.664 0-205.824 92.16-205.824 205.824 0 113.664 92.16 205.824 205.824 205.824s205.824-92.16 205.824-205.824c0-113.664-92.16-205.824-205.824-205.824z" fill="#0972E7" p-id="12487"></path><path d="M109.824 1013.248c-23.04 0-41.984-18.944-41.984-41.984v-16.896c1.024-236.544 192.512-427.52 428.544-428.544 23.04 0 41.984 18.944 41.984 41.984 0 23.04-18.944 41.984-41.984 41.984-189.952 1.024-343.552 154.624-344.576 344.576v12.8c0.512 24.064-17.92 44.032-41.984 46.08z" fill="#0972E7" p-id="12488"></path><path d="M874.752 1009.152c-22.016 1.536-40.448-15.36-41.984-37.376v-17.408c-1.024-189.952-154.624-343.552-344.576-344.576-23.04 0-41.984-18.944-41.984-41.984 0-23.04 18.944-41.984 41.984-41.984 236.544 1.024 427.52 192.512 428.544 428.544v12.8c1.536 22.016-15.36 40.448-37.376 41.984h-4.608z" fill="#0972E7" p-id="12489"></path></svg>