<?xml version="1.0" standalone="no"?><!DOCTYPE svg PUBLIC "-//W3C//DTD SVG 1.1//EN" "http://www.w3.org/Graphics/SVG/1.1/DTD/svg11.dtd"><svg t="1693614636445" class="icon" viewBox="0 0 1024 1024" version="1.1" xmlns="http://www.w3.org/2000/svg" p-id="8175" xmlns:xlink="http://www.w3.org/1999/xlink" width="200" height="200"><path d="M256 426.666667h512v426.666666H256V426.666667z m85.333333 85.333333v256h341.333334v-256H341.333333z m0-42.666667H256v-42.666666h85.333333V341.333333c0-93.866667 76.8-170.666667 170.666667-170.666666s170.666667 76.8 170.666667 170.666666v85.333334h85.333333v42.666666h-170.666667V341.333333c0-46.933333-38.4-85.333333-85.333333-85.333333s-85.333333 38.4-85.333333 85.333333v128H341.333333z m170.666667 213.333334c-25.6 0-42.666667-17.066667-42.666667-42.666667s17.066667-42.666667 42.666667-42.666667 42.666667 17.066667 42.666667 42.666667-17.066667 42.666667-42.666667 42.666667z" fill="#ffffff" p-id="8176"></path></svg>