<?xml version="1.0" standalone="no"?><!DOCTYPE svg PUBLIC "-//W3C//DTD SVG 1.1//EN" "http://www.w3.org/Graphics/SVG/1.1/DTD/svg11.dtd"><svg t="1692872517101" class="icon" viewBox="0 0 1024 1024" version="1.1" xmlns="http://www.w3.org/2000/svg" p-id="34020" xmlns:xlink="http://www.w3.org/1999/xlink" width="200" height="200"><path d="M361.5 727.8c-119.1 0-215.9-96.9-215.9-215.9 0-119.1 96.9-215.9 215.9-215.9 2.3 0 4.6-0.2 6.8-0.6v58.3c0 12.3 14 19.4 23.9 12.1l132.6-97.6c8.1-6 8.1-18.2 0-24.2l-132.6-97.6c-9.9-7.3-23.9-0.2-23.9 12.1v58.1c-2.2-0.4-4.5-0.6-6.8-0.6-39.8 0-78.5 7.9-115 23.4-35.2 15-66.8 36.3-94 63.5s-48.6 58.8-63.5 94c-15.5 36.5-23.4 75.2-23.4 115s7.9 78.5 23.4 115c15 35.2 36.3 66.8 63.5 94s58.8 48.6 94 63.5c36.5 15.5 75.2 23.4 115 23.4 22.1 0 40-17.9 40-40s-17.9-40-40-40zM938.2 396.9c-15-35.2-36.3-66.8-63.5-94s-58.8-48.6-94-63.5c-36.5-15.5-75.2-23.4-115-23.4-22.1 0-40 17.9-40 40s17.9 40 40 40c119.1 0 215.9 96.9 215.9 215.9 0 119.1-96.9 215.9-215.9 215.9-4.1 0-8.1 0.6-11.8 1.8v-60.8c0-12.3-14-19.4-23.9-12.1l-132.6 97.6c-8.1 6-8.1 18.2 0 24.2L629.9 876c9.9 7.3 23.9 0.2 23.9-12.1V806c3.7 1.2 7.7 1.8 11.8 1.8 39.8 0 78.5-7.9 115-23.4 35.2-15 66.8-36.3 94-63.5s48.6-58.8 63.5-94c15.5-36.5 23.4-75.2 23.4-115s-7.8-78.5-23.3-115z" p-id="34021" fill="#ffffff"></path></svg>