<?xml version="1.0" standalone="no"?><!DOCTYPE svg PUBLIC "-//W3C//DTD SVG 1.1//EN" "http://www.w3.org/Graphics/SVG/1.1/DTD/svg11.dtd"><svg t="1692922688772" class="icon" viewBox="0 0 1024 1024" version="1.1" xmlns="http://www.w3.org/2000/svg" p-id="41324" xmlns:xlink="http://www.w3.org/1999/xlink" width="200" height="200"><path d="M924 862a40 40 0 0 1 0-80 20 20 0 0 0 20-20V100a20 20 0 0 0-20-20H262a20 20 0 0 0-20 20 40 40 0 0 1-80 0A100 100 0 0 1 262 0h662a100 100 0 0 1 100 100v662a100 100 0 0 1-100 100z" fill="#ffffff" p-id="41325"></path><path d="M762 1024H100A100 100 0 0 1 0 924V262a100 100 0 0 1 100-100h662a100 100 0 0 1 100 100v662a100 100 0 0 1-100 100zM100 242a20 20 0 0 0-20 20v662a20 20 0 0 0 20 20h662a20 20 0 0 0 20-20V262a20 20 0 0 0-20-20z" fill="#ffffff" p-id="41326"></path><path d="M431 807a40 40 0 0 1-40-40V419a40 40 0 0 1 80 0v348a40 40 0 0 1-40 40z" fill="#ffffff" p-id="41327"></path><path d="M605 633H257a40 40 0 0 1 0-80h348a40 40 0 0 1 0 80z" fill="#ffffff" p-id="41328"></path></svg>