<?xml version="1.0" standalone="no"?><!DOCTYPE svg PUBLIC "-//W3C//DTD SVG 1.1//EN" "http://www.w3.org/Graphics/SVG/1.1/DTD/svg11.dtd"><svg t="1692874248829" class="icon" viewBox="0 0 1024 1024" version="1.1" xmlns="http://www.w3.org/2000/svg" p-id="3268" xmlns:xlink="http://www.w3.org/1999/xlink" width="200" height="200"><path d="M133 181.9h753c22.1 0 40-17.9 40-40s-17.9-40-40-40H133c-22.1 0-40 17.9-40 40s17.9 40 40 40z m753 291.3H133c-22.1 0-40 17.9-40 40s17.9 40 40 40h753c22.1 0 40-17.9 40-40s-17.9-40-40-40zM572 846.6H133c-22.1 0-40 17.9-40 40s17.9 40 40 40h439c22.1 0 40-17.9 40-40s-17.9-40-40-40z m333.6-121.9L679.8 594.4c-12.4-7.1-27.6-7.1-40 0-12.4 7.1-20 20.3-20 34.6v260.8c0 14.3 7.6 27.5 20 34.6 6.2 3.6 13.1 5.4 20 5.4s13.8-1.8 20-5.4L905.6 794c12.4-7.1 20-20.3 20-34.6s-7.6-27.5-20-34.7z m-205.8 95.8V698.3l105.8 61.1-105.8 61.1z" p-id="3269" fill="#ffffff"></path></svg>