<?xml version="1.0" standalone="no"?><!DOCTYPE svg PUBLIC "-//W3C//DTD SVG 1.1//EN" "http://www.w3.org/Graphics/SVG/1.1/DTD/svg11.dtd"><svg t="1692872236226" class="icon" viewBox="0 0 1024 1024" version="1.1" xmlns="http://www.w3.org/2000/svg" p-id="29689" xmlns:xlink="http://www.w3.org/1999/xlink" width="200" height="200"><path d="M512 0c282.766222 0 512 229.233778 512 512s-229.233778 512-512 512S0 794.766222 0 512 229.233778 0 512 0z m0 64C264.590222 64 64 264.590222 64 512S264.590222 960 512 960 960 759.409778 960 512 759.409778 64 512 64z m262.826667 183.694222V727.04c0 29.411556-6.883556 43.804444-25.656889 51.313778-20.024889 8.135111-53.191111 8.760889-103.879111 8.760889-2.503111-12.515556-9.386667-34.417778-15.644445-46.307556 38.172444 1.877333 75.093333 1.251556 86.357334 0.625778 10.638222 0 14.392889-3.754667 14.392888-14.392889V290.872889h-300.373333V247.694222H774.826667z m-408.007111 163.953778v263.452444l64.455111-45.056c3.128889 12.515556 10.012444 30.037333 13.767111 38.798223-98.929778 73.898667-118.414222 88.206222-128.142222 100.209777l-1.393778 1.792c-5.006222-9.386667-18.147556-25.031111-26.282667-31.914666 11.889778-9.386667 33.792-32.540444 33.792-63.829334v-219.022222H230.4v-44.430222h136.419556z m288.483555 43.804444v198.997334H512v41.927111h-41.927111v-240.924445h185.230222z m-41.927111 40.049778H512v118.272h101.376V495.502222z m71.964444-142.677333v40.049778h-239.672888v-40.049778h239.672888zM297.984 235.804444c33.166222 28.16 75.719111 66.958222 95.744 92.615112l-31.288889 32.540444c-18.773333-26.282667-60.700444-67.584-94.492444-96.369778z" fill="#ffffff" p-id="29690"></path></svg>