<?xml version="1.0" standalone="no"?><!DOCTYPE svg PUBLIC "-//W3C//DTD SVG 1.1//EN" "http://www.w3.org/Graphics/SVG/1.1/DTD/svg11.dtd"><svg t="1695169142331" class="icon" viewBox="0 0 1024 1024" version="1.1" xmlns="http://www.w3.org/2000/svg" p-id="1648" xmlns:xlink="http://www.w3.org/1999/xlink" width="200" height="200"><path d="M853.344 992l-682.656 0c-76.448 0-138.656-62.208-138.656-138.656l0-682.656c0-76.448 62.208-138.656 138.656-138.656l682.656 0c76.448 0 138.656 62.208 138.656 138.656l0 682.656c0 76.448-62.208 138.656-138.656 138.656zM170.656 138.656c-17.632 0-32 14.368-32 32l0 682.656c0 17.632 14.368 32 32 32l682.656 0c17.632 0 32-14.368 32-32l0-682.656c0-17.632-14.368-32-32-32l-682.656 0z" fill="#ffffff" p-id="1649"></path></svg>