<?xml version="1.0" standalone="no"?><!DOCTYPE svg PUBLIC "-//W3C//DTD SVG 1.1//EN" "http://www.w3.org/Graphics/SVG/1.1/DTD/svg11.dtd"><svg t="1692864821139" class="icon" viewBox="0 0 1024 1024" version="1.1" xmlns="http://www.w3.org/2000/svg" p-id="10043" xmlns:xlink="http://www.w3.org/1999/xlink" width="200" height="200"><path d="M168 982.4c-32 0-64-12.8-88-36.8-44.8-44.8-49.6-112-12.8-163.2l161.6-235.2c9.6-14.4 30.4-17.6 44.8-8 14.4 9.6 17.6 30.4 8 44.8L118.4 819.2c-19.2 25.6-16 59.2 4.8 80 20.8 20.8 54.4 24 80 6.4L440 742.4c14.4-9.6 35.2-6.4 44.8 8 9.6 14.4 6.4 35.2-8 44.8L241.6 958.4c-22.4 16-48 24-73.6 24z m457.6-235.2c-78.4 0-156.8-30.4-216-89.6l-43.2-43.2c-108.8-108.8-120-281.6-24-403.2 11.2-14.4 30.4-16 44.8-4.8 14.4 11.2 16 30.4 4.8 44.8-75.2 96-67.2 233.6 19.2 320l43.2 43.2c86.4 86.4 222.4 94.4 318.4 19.2 14.4-11.2 33.6-8 44.8 4.8 11.2 14.4 8 33.6-4.8 44.8-56 43.2-121.6 64-187.2 64zM840 708.8c-24 0-49.6-9.6-67.2-28.8L342.4 251.2c-36.8-36.8-36.8-97.6 0-136 36.8-36.8 97.6-36.8 136 0l430.4 430.4c17.6 17.6 28.8 41.6 28.8 67.2s-9.6 49.6-28.8 67.2c-19.2 20.8-43.2 28.8-68.8 28.8zM409.6 152c-8 0-16 3.2-22.4 9.6-12.8 12.8-12.8 32 0 44.8l430.4 430.4c12.8 12.8 32 12.8 44.8 0 6.4-6.4 9.6-14.4 9.6-22.4s-3.2-16-9.6-22.4L433.6 161.6c-6.4-6.4-14.4-9.6-24-9.6z m473.6 446.4c-6.4 0-14.4-1.6-19.2-6.4-14.4-11.2-16-30.4-4.8-44.8 75.2-96 67.2-233.6-19.2-320L796.8 184c-86.4-86.4-222.4-94.4-320-19.2-14.4 11.2-33.6 9.6-44.8-4.8-11.2-14.4-8-33.6 4.8-44.8 121.6-94.4 294.4-84.8 403.2 24l43.2 43.2c108.8 108.8 120 281.6 24 403.2-4.8 9.6-14.4 12.8-24 12.8z" fill="#ffffff" p-id="10044"></path></svg>