<svg width="1600" height="1600" viewBox="0 0 1600 1600" fill="none" xmlns="http://www.w3.org/2000/svg">
<g clip-path="url(#clip0_223_16)">
<rect width="1600" height="1600" rx="100" fill="white"/>
<g filter="url(#filter0_d_223_16)">
<rect width="1600" height="1600" rx="100" fill="white"/>
<g clip-path="url(#clip1_223_16)">
<rect x="68" y="69" width="1463" height="1462" rx="100" fill="url(#paint0_linear_223_16)"/>
<path d="M484.748 86.44H508.172V90.472H484.748V86.44ZM483.02 136.552H509.004V140.648H483.02V136.552ZM491.212 100.008H504.396V104.104H490.572L491.212 100.008ZM489.804 110.376L491.98 107.496C494.732 108.904 498.06 111.08 499.788 112.68L497.548 115.944C495.884 114.216 492.556 111.848 489.804 110.376ZM487.436 119.784L489.74 116.968C492.62 118.696 496.012 121.256 497.612 123.112L495.308 126.248C493.644 124.328 490.316 121.64 487.436 119.784ZM502.732 100.008H507.148C505.612 112.296 503.308 129.064 501.58 138.472H497.036C499.02 128.872 501.516 111.976 502.732 100.008ZM490.892 88.296L495.244 88.744C494.028 100.584 491.788 116.776 486.412 127.08C485.58 126.312 483.98 125.288 482.956 124.776C488.076 114.984 489.996 99.368 490.892 88.296ZM476.044 83.24H480.14V142.056H476.044V83.24ZM471.308 93.992L474.7 94.44C474.7 100.264 473.932 106.792 471.756 110.952L468.556 109.032C470.54 105.512 471.244 99.432 471.308 93.992ZM481.1 94.632L484.3 93.544C485.708 97 486.988 101.544 487.372 104.232L483.98 105.64C483.596 102.76 482.38 98.152 481.1 94.632ZM458.252 83.304L462.412 84.776C460.428 89.32 457.932 95.016 455.948 98.472L452.684 97.192C454.668 93.544 457.036 87.528 458.252 83.304ZM464.716 90.664L468.684 92.392C464.844 99.496 459.532 108.584 455.244 114.152L452.364 112.616C456.524 106.984 461.772 97.448 464.716 90.664ZM449.932 96.232L452.108 93.032C455.308 96.168 458.892 100.328 460.3 103.144L457.996 106.92C456.524 103.912 453.004 99.432 449.932 96.232ZM462.22 105.32L465.612 104.04C467.98 108.136 470.22 113.448 470.924 116.904L467.276 118.376C466.636 114.984 464.46 109.48 462.22 105.32ZM449.292 111.592C454.156 111.4 461.068 111.016 468.172 110.632L468.108 114.472C461.516 115.048 454.924 115.56 449.74 115.88L449.292 111.592ZM464.076 120.68L467.468 119.72C469.004 123.496 470.348 128.424 470.86 131.688L467.276 132.776C466.892 129.512 465.484 124.52 464.076 120.68ZM452.364 119.848L456.204 120.488C455.628 126.504 454.412 132.712 452.748 136.808C451.98 136.296 450.188 135.464 449.228 135.08C451.02 131.176 451.852 125.416 452.364 119.848ZM458.316 113.448H462.412V142.12H458.316V113.448ZM531.468 119.4H536.076V135.272C536.076 137.192 536.716 137.576 540.364 137.576C541.964 137.576 550.412 137.576 552.588 137.576C555.66 137.576 556.108 136.552 556.428 130.088C557.452 130.792 559.436 131.496 560.78 131.816C560.14 139.88 558.668 141.864 552.972 141.864C551.436 141.864 541.388 141.864 540.044 141.864C533.196 141.864 531.468 140.52 531.468 135.336V119.4ZM558.156 112.488L562.7 114.6C553.036 128.232 536.588 136.808 519.052 141.864C518.348 140.84 516.62 138.792 515.468 137.768C533.452 133.352 549.452 125.032 558.156 112.488ZM534.092 114.216L537.164 111.272C541.324 113.128 546.508 116.2 549.132 118.504L545.868 121.768C543.436 119.464 538.252 116.2 534.092 114.216ZM557.9 122.6L562.252 120.616C566.668 124.712 571.468 130.408 573.452 134.504L568.78 136.744C566.924 132.712 562.316 126.824 557.9 122.6ZM522.572 119.208L526.86 120.872C525.26 125.672 522.7 131.304 518.86 134.696L514.7 132.264C518.476 129.128 521.1 123.88 522.572 119.208ZM515.98 86.504H541.516V90.472H515.98V86.504ZM517.324 96.552H540.748V100.52H517.324V96.552ZM544.396 86.504H571.34V90.472H544.396V86.504ZM543.5 107.112H572.236V111.208H543.5V107.112ZM545.42 96.616H569.996V100.52H545.42V96.616ZM514.764 108.712C521.484 108.2 531.852 107.176 541.9 106.088L541.964 109.992C532.428 111.144 522.572 112.232 515.404 113.064L514.764 108.712ZM526.412 87.592H530.956V108.968L526.412 109.352V87.592ZM555.34 87.592H559.948V109.224L555.34 109.352V87.592ZM594.06 115.752H622.924V120.168H594.06V115.752ZM589.836 102.376H625.932V106.856H589.836V102.376ZM600.012 85.352H618.444V89.896H600.012V85.352ZM621.196 115.752H626.06C626.06 115.752 625.996 117.288 625.804 118.056C624.14 131.944 622.476 137.832 619.852 140.264C618.38 141.672 616.844 142.056 614.284 142.184C612.108 142.312 607.82 142.184 603.468 141.992C603.404 140.584 602.7 138.6 601.804 137.32C606.348 137.768 611.02 137.832 612.876 137.832C614.284 137.832 615.244 137.768 616.012 137.128C618.124 135.464 619.66 129.64 621.196 116.52V115.752ZM596.556 104.232H601.612C599.436 110.76 596.492 119.016 594.38 124.136L589.644 123.24C591.82 118.248 594.7 110.312 596.556 104.232ZM594.124 89.512L598.988 91.048C594.892 98.152 588.428 105 582.476 109.416C581.516 108.52 579.468 106.792 578.252 106.024C584.396 102.12 590.476 95.976 594.124 89.512ZM614.732 85.352H619.98C623.692 93.16 630.668 101.032 637.26 105.256C636.044 106.024 634.188 107.624 633.292 108.712C626.764 103.976 619.98 95.912 616.012 87.976H614.732V85.352ZM680.716 109.288L685.836 110.696C678.796 128.552 664.716 137.448 645.068 142.376C644.556 141.16 643.02 138.984 641.996 137.832C661.388 133.8 674.828 125.48 680.716 109.288ZM659.852 98.28L664.716 100.136C660.172 106.28 653.004 112.296 646.796 116.2C645.964 115.176 644.108 113.256 642.892 112.36C649.164 109.032 655.948 103.72 659.852 98.28ZM662.412 109.608C668.364 124.776 681.356 134.312 701.196 137.576C700.108 138.664 698.7 140.84 697.996 142.184C677.58 138.28 664.716 128.04 657.868 111.016L662.412 109.608ZM643.404 91.624H699.596V96.296H643.404V91.624ZM668.876 83.176H673.804V94.632H668.876V83.176ZM678.988 100.968L682.956 98.024C688.972 102.056 696.524 108.008 700.172 112.232L696.012 115.56C692.556 111.336 685.132 105.128 678.988 100.968ZM747.468 83.24H752.268V109.864H747.468V83.24ZM735.052 93.416H764.492V97.832H735.052V93.416ZM735.564 107.304H760.012V111.656H735.564V107.304ZM758.668 107.304H759.628L760.524 107.112L763.596 108.584C758.924 126.504 747.532 137 733.964 142.248C733.324 141.096 731.788 139.176 730.7 138.344C743.948 133.608 754.7 124.136 758.668 108.264V107.304ZM741.9 111.528C745.804 123.88 754.124 133.864 765.964 138.024C764.94 138.984 763.468 140.84 762.764 142.056C750.476 137.192 742.22 126.568 737.74 112.68L741.9 111.528ZM718.604 83.304H723.276V101.096H718.604V83.304ZM706.636 89.064H735.5V93.096H706.636V89.064ZM708.172 98.728H733.772V102.76H708.172V98.728ZM713.804 110.952V118.12H727.948V110.952H713.804ZM709.388 107.112H732.62V122.024H709.388V107.112ZM711.116 124.264L715.148 123.176C716.812 126.184 718.092 130.216 718.476 132.84L714.124 134.184C713.804 131.432 712.652 127.4 711.116 124.264ZM726.028 122.664L730.444 123.816C729.164 127.272 727.756 131.112 726.54 133.736L722.828 132.712C723.916 129.96 725.324 125.608 726.028 122.664ZM705.996 135.72C713.164 134.888 724.364 133.288 735.18 131.752L735.372 135.912C725.068 137.448 714.252 139.048 706.7 140.2L705.996 135.72ZM777.548 143.848L776.076 140.52C781.324 138.344 784.204 135.08 784.204 130.28L782.988 124.84L786.444 129.704C785.548 130.856 784.268 131.176 783.052 131.176C780.428 131.176 778.252 129.64 778.252 126.568C778.252 123.56 780.556 121.96 783.116 121.96C786.7 121.96 788.62 124.904 788.62 129.384C788.62 136.296 784.268 141.544 777.548 143.848ZM835.02 106.856H892.108V110.248H835.02V106.856ZM841.036 99.56H886.156V117.736H840.204V114.216H881.612V103.016H841.036V99.56ZM861.068 95.848H865.676V142.184H861.068V95.848ZM881.676 119.976H886.22V141.544H881.676V119.976ZM841.996 120.104H846.348V125.16C846.348 130.664 845.644 137.064 839.5 141.8C838.732 140.84 837.004 139.432 835.852 138.728C841.356 134.76 841.996 129.448 841.996 124.968V120.104ZM843.532 88.36H862.86V92.072H843.532V88.36ZM867.788 88.168H891.532V91.88H867.788V88.168ZM844.62 82.28L849.036 83.432C846.668 89.768 842.572 95.72 838.348 99.624C837.516 98.856 835.66 97.576 834.508 97C838.796 93.48 842.508 87.976 844.62 82.28ZM869.452 82.536L873.996 83.496C872.396 88.808 869.58 93.992 866.444 97.384C865.612 96.616 863.692 95.336 862.604 94.696C865.676 91.624 868.172 87.208 869.452 82.536ZM847.82 90.6L851.596 88.808C853.132 91.176 855.052 94.568 855.884 96.616L851.916 98.664C851.212 96.616 849.356 93.16 847.82 90.6ZM874.636 90.856L878.476 88.936C880.14 91.176 882.124 94.312 882.956 96.296L878.924 98.536C878.156 96.488 876.236 93.224 874.636 90.856ZM853.836 122.28L857.868 123.176C856.396 128.936 853.9 134.76 851.212 138.6C850.444 137.96 848.78 136.68 847.756 136.168C850.444 132.584 852.556 127.4 853.836 122.28ZM868.876 123.432L872.78 122.216C875.212 126.312 877.836 131.752 878.86 135.144L874.7 136.616C873.74 133.224 871.18 127.592 868.876 123.432ZM924.108 96.744H955.404V124.904H950.86V101.416H928.524V125.288H924.108V96.744ZM937.292 83.368H941.964V142.184H937.292V83.368ZM926.604 116.712H953.292V121.32H926.604V116.712ZM907.02 83.432L911.372 84.712C908.876 91.752 904.78 98.792 900.236 103.464C899.852 102.44 898.572 100.008 897.74 98.92C901.58 95.144 905.036 89.448 907.02 83.432ZM905.676 90.664H922.06V95.08H904.78L905.676 90.664ZM907.724 141.736L907.148 137.448L908.876 135.528L921.932 129.128C922.06 130.408 922.444 132.264 922.764 133.224C910.604 139.624 908.812 140.648 907.724 141.736ZM902.604 101.992H920.716V106.344H902.604V101.992ZM899.276 115.048H922.252V119.4H899.276V115.048ZM907.724 141.736C907.276 140.648 905.996 138.984 905.164 138.088C906.444 137.32 908.62 135.4 908.62 132.392V103.336H913.164V135.912C913.164 135.912 907.724 139.88 907.724 141.736ZM978.06 115.752H1006.92V120.168H978.06V115.752ZM973.836 102.376H1009.93V106.856H973.836V102.376ZM984.012 85.352H1002.44V89.896H984.012V85.352ZM1005.2 115.752H1010.06C1010.06 115.752 1010 117.288 1009.8 118.056C1008.14 131.944 1006.48 137.832 1003.85 140.264C1002.38 141.672 1000.84 142.056 998.284 142.184C996.108 142.312 991.82 142.184 987.468 141.992C987.404 140.584 986.7 138.6 985.804 137.32C990.348 137.768 995.02 137.832 996.876 137.832C998.284 137.832 999.244 137.768 1000.01 137.128C1002.12 135.464 1003.66 129.64 1005.2 116.52V115.752ZM980.556 104.232H985.612C983.436 110.76 980.492 119.016 978.38 124.136L973.644 123.24C975.82 118.248 978.7 110.312 980.556 104.232ZM978.124 89.512L982.988 91.048C978.892 98.152 972.428 105 966.476 109.416C965.516 108.52 963.468 106.792 962.252 106.024C968.396 102.12 974.476 95.976 978.124 89.512ZM998.732 85.352H1003.98C1007.69 93.16 1014.67 101.032 1021.26 105.256C1020.04 106.024 1018.19 107.624 1017.29 108.712C1010.76 103.976 1003.98 95.912 1000.01 87.976H998.732V85.352ZM1026.32 89.576H1046.48V93.992H1026.32V89.576ZM1027.15 107.752H1045.13V112.104H1027.15V107.752ZM1025.48 129.64C1030.86 128.424 1038.86 126.312 1046.67 124.264L1047.12 128.744C1039.88 130.664 1032.2 132.776 1026.44 134.312L1025.48 129.64ZM1078.48 83.304L1081.93 86.696C1073.29 89 1060.36 90.536 1049.42 91.304C1049.23 90.28 1048.72 88.616 1048.2 87.656C1058.96 86.824 1071.5 85.16 1078.48 83.304ZM1049.74 94.44L1053.52 93.288C1055.18 96.424 1056.91 100.456 1057.55 103.144L1053.58 104.36C1053 101.8 1051.4 97.576 1049.74 94.44ZM1060.81 92.52L1064.65 91.816C1066.12 95.272 1067.4 99.816 1067.6 102.568L1063.56 103.528C1063.31 100.712 1062.16 96.04 1060.81 92.52ZM1077.52 90.664L1082.19 92.072C1079.69 97 1076.56 102.824 1073.93 106.472L1070.22 105.128C1072.72 101.288 1075.85 95.016 1077.52 90.664ZM1048.33 105.96H1082.57V110.12H1048.33V105.96ZM1045.64 117.096H1084.94V121.256H1045.64V117.096ZM1063.05 107.496H1067.66V137.64H1063.05V107.496ZM1049.61 124.584H1054.16V142.12H1049.61V124.584ZM1076.68 124.584H1081.29V141.8H1076.68V124.584ZM1051.53 135.336H1078.8V139.304H1051.53V135.336ZM1033.93 91.304H1038.35V128.744L1033.93 130.024V91.304ZM1114.06 133.224L1118.28 134.696C1113.93 138.024 1106.7 140.648 1100.75 142.248C1099.98 141.416 1098.25 140.008 1097.1 139.304C1103.44 137.96 1110.28 135.912 1114.06 133.224ZM1125.84 135.464L1129.42 133.224C1135.63 135.144 1142.67 137.768 1146.76 139.88L1141.77 142.056C1138.32 139.88 1132.11 137.384 1125.84 135.464ZM1097.93 87.976H1118.6V91.56H1097.93V87.976ZM1122.89 87.976H1148.75V91.624H1122.89V87.976ZM1099.02 82.984L1103.5 84.2C1101.13 89.704 1097.36 95.144 1093.71 98.664C1092.81 97.896 1090.89 96.616 1089.74 95.976C1093.58 92.776 1097.04 87.848 1099.02 82.984ZM1124.36 82.792L1128.91 84.008C1126.6 89.32 1122.44 94.312 1118.35 97.512C1117.39 96.808 1115.4 95.592 1114.19 95.016C1118.48 92.072 1122.32 87.592 1124.36 82.792ZM1101.58 90.536L1105.61 89.192C1107.21 91.432 1108.94 94.44 1109.71 96.424L1105.48 97.96C1104.84 95.976 1103.12 92.84 1101.58 90.536ZM1128.27 90.472L1132.56 89.192C1134.54 91.368 1136.72 94.44 1137.68 96.488L1133.32 97.96C1132.36 95.912 1130.32 92.776 1128.27 90.472ZM1099.79 129.448H1147.92V132.904H1099.79V129.448ZM1114.76 120.232H1118.92V131.496H1114.76V120.232ZM1125.26 120.296H1129.42V131.432H1125.26V120.296ZM1103.37 121.96L1106.83 120.488C1108.68 122.728 1110.67 125.864 1111.5 127.976L1107.92 129.512C1107.08 127.528 1105.23 124.264 1103.37 121.96ZM1137.93 120.552L1142.28 122.024C1140.17 124.776 1137.68 127.784 1135.76 129.704L1132.62 128.424C1134.41 126.248 1136.72 122.856 1137.93 120.552ZM1118.99 98.664H1142.67V101.544H1118.99V98.664ZM1097.68 103.848H1144.78V107.112H1097.68V103.848ZM1116.56 95.976H1121.1V105.512H1116.56V95.976ZM1095.44 103.848H1099.79V114.664C1099.79 122.6 1098.76 133.992 1093.2 141.864C1092.43 141.096 1090.57 139.88 1089.55 139.432C1094.8 131.944 1095.44 121.896 1095.44 114.6V103.848ZM1103.76 111.208L1138.57 109.224L1138.7 112.104L1103.95 114.216L1103.76 111.208ZM1116.43 107.176H1120.4V114.216C1120.4 115.752 1121.1 116.008 1125.13 116.008C1126.99 116.008 1137.42 116.008 1139.92 116.008C1142.35 116.008 1142.86 115.688 1143.12 113.384C1144.01 113.96 1145.48 114.408 1146.57 114.6C1146.12 118.312 1144.78 119.208 1140.43 119.208C1138.96 119.208 1126.41 119.208 1125 119.208C1118.16 119.208 1116.43 118.312 1116.43 114.216V107.176ZM1143.37 103.848H1144.08L1144.84 103.656L1147.92 104.36C1147.15 106.984 1146.19 110.12 1145.29 112.04L1141.32 111.272C1142.03 109.48 1142.86 106.728 1143.37 104.424V103.848Z" fill="url(#paint1_linear_223_16)"/>
<path d="M422.796 1459.74H437.26V1497.5H422.796V1492.83H432.844V1464.35H422.796V1459.74ZM420.364 1459.74H424.78V1502.88H420.364V1459.74ZM470.476 1486.3H475.084C475.084 1486.3 475.084 1487.65 475.02 1488.29C474.444 1503.46 473.868 1508.83 472.268 1510.69C471.244 1511.97 470.028 1512.42 468.236 1512.54C466.636 1512.67 463.5 1512.61 460.492 1512.42C460.364 1511.26 459.916 1509.6 459.212 1508.58C462.284 1508.77 465.164 1508.83 466.252 1508.83C467.276 1508.83 467.852 1508.7 468.364 1508.13C469.452 1506.85 470.028 1501.6 470.476 1487.07V1486.3ZM455.756 1454.05L460.812 1454.82C459.404 1457.63 457.74 1460.64 456.524 1462.56L452.62 1461.73C453.772 1459.49 455.052 1456.29 455.756 1454.05ZM466.764 1460.19H471.244C471.244 1460.19 471.18 1461.47 471.116 1462.11C470.668 1474.4 470.092 1478.94 468.812 1480.48C467.916 1481.57 466.892 1481.95 465.356 1482.08C464.012 1482.21 461.644 1482.27 459.148 1482.14C459.02 1480.93 458.636 1479.33 458.06 1478.24C460.364 1478.43 462.412 1478.5 463.308 1478.5C464.076 1478.5 464.652 1478.43 465.036 1477.86C465.868 1476.83 466.38 1472.61 466.764 1460.96V1460.19ZM450.828 1468.96L453.708 1466.78C456.46 1468.9 459.852 1472.03 461.516 1474.14L458.508 1476.58C456.908 1474.46 453.58 1471.2 450.828 1468.96ZM468.876 1460.19V1464.1H447.436V1486.3H472.332V1490.21H442.828V1460.19H468.876ZM440.396 1496.48H467.276V1500.64H440.396V1496.48ZM489.932 1458.98H510.604V1462.5H489.932V1458.98ZM514.252 1458.98H540.428V1462.5H514.252V1458.98ZM491.02 1453.98L495.5 1455.14C493.132 1460.58 489.356 1465.95 485.644 1469.41C484.812 1468.7 482.892 1467.36 481.804 1466.78C485.58 1463.65 489.036 1458.78 491.02 1453.98ZM516.364 1453.98L520.844 1455.07C518.412 1460.32 514.06 1465.18 509.964 1468.32C509.004 1467.62 507.084 1466.53 505.804 1465.95C510.284 1463.07 514.188 1458.66 516.364 1453.98ZM494.028 1461.92L497.996 1460.7C499.532 1462.62 501.324 1465.38 502.028 1467.17L497.868 1468.51C497.228 1466.72 495.564 1463.9 494.028 1461.92ZM520.652 1461.86L524.62 1460.64C526.412 1462.43 528.268 1464.99 529.036 1466.78L524.876 1468.19C524.108 1466.4 522.316 1463.71 520.652 1461.86ZM516.044 1474.85H535.18V1477.73H516.044V1474.85ZM499.916 1480.67H535.244V1483.87H499.916V1480.67ZM513.676 1471.78H518.284V1481.95H513.676V1471.78ZM503.372 1488.03L530.828 1486.3L531.084 1488.99L503.692 1490.85L503.372 1488.03ZM513.484 1483.23H517.708V1491.17C517.708 1492.58 518.22 1492.83 521.292 1492.83C522.7 1492.83 530.572 1492.83 532.492 1492.83C534.54 1492.83 534.988 1492.38 535.244 1489.5C536.076 1490.08 537.612 1490.46 538.764 1490.72C538.38 1494.82 537.1 1495.9 533.004 1495.9C531.724 1495.9 522.252 1495.9 521.036 1495.9C515.084 1495.9 513.484 1495.07 513.484 1491.17V1483.23ZM497.804 1480.67H502.22V1488.74C502.22 1495.97 500.94 1506.27 494.924 1513.31C494.22 1512.42 492.428 1510.82 491.468 1510.3C497.036 1503.84 497.804 1495.07 497.804 1488.67V1480.67ZM533.964 1480.67H534.668L535.436 1480.48L538.508 1481.38C537.484 1484.19 536.204 1487.26 534.988 1489.18L531.404 1487.9C532.3 1486.11 533.324 1483.55 533.964 1481.31V1480.67ZM510.22 1497.06H514.636C513.74 1505.7 510.86 1510.5 500.748 1513.18C500.364 1512.16 499.148 1510.56 498.316 1509.79C507.276 1507.74 509.58 1504.03 510.22 1497.06ZM521.228 1496.93H525.58V1507.17C525.58 1508.51 525.9 1508.77 527.756 1508.77C528.588 1508.77 532.94 1508.77 534.092 1508.77C535.692 1508.77 536.076 1508 536.204 1502.69C537.1 1503.26 538.828 1503.9 539.98 1504.16C539.596 1510.82 538.444 1512.48 534.604 1512.48C533.58 1512.48 528.204 1512.48 527.18 1512.48C522.444 1512.48 521.228 1511.39 521.228 1507.23V1496.93ZM532.108 1466.46L535.756 1469.47C524.684 1472.35 506.892 1474.08 491.852 1474.91C491.724 1474.02 491.276 1472.48 490.892 1471.65C505.484 1470.75 523.084 1469.02 532.108 1466.46ZM488.908 1470.62L494.668 1472.35C494.604 1472.86 494.22 1473.12 493.388 1473.25V1486.5C493.388 1494.37 492.3 1505.38 485.388 1513.12C484.748 1512.16 483.148 1510.56 481.996 1509.92C488.14 1502.94 488.908 1493.73 488.908 1486.37V1470.62ZM562.06 1486.75H590.924V1491.17H562.06V1486.75ZM557.836 1473.38H593.932V1477.86H557.836V1473.38ZM568.012 1456.35H586.444V1460.9H568.012V1456.35ZM589.196 1486.75H594.06C594.06 1486.75 593.996 1488.29 593.804 1489.06C592.14 1502.94 590.476 1508.83 587.852 1511.26C586.38 1512.67 584.844 1513.06 582.284 1513.18C580.108 1513.31 575.82 1513.18 571.468 1512.99C571.404 1511.58 570.7 1509.6 569.804 1508.32C574.348 1508.77 579.02 1508.83 580.876 1508.83C582.284 1508.83 583.244 1508.77 584.012 1508.13C586.124 1506.46 587.66 1500.64 589.196 1487.52V1486.75ZM564.556 1475.23H569.612C567.436 1481.76 564.492 1490.02 562.38 1495.14L557.644 1494.24C559.82 1489.25 562.7 1481.31 564.556 1475.23ZM562.124 1460.51L566.988 1462.05C562.892 1469.15 556.428 1476 550.476 1480.42C549.516 1479.52 547.468 1477.79 546.252 1477.02C552.396 1473.12 558.476 1466.98 562.124 1460.51ZM582.732 1456.35H587.98C591.692 1464.16 598.668 1472.03 605.26 1476.26C604.044 1477.02 602.188 1478.62 601.292 1479.71C594.764 1474.98 587.98 1466.91 584.012 1458.98H582.732V1456.35ZM638.348 1465.44H665.548V1470.11H638.348V1465.44ZM638.668 1454.3L643.724 1455.26C641.484 1466.53 637.9 1477.28 633.164 1484.26C632.204 1483.49 629.964 1482.14 628.684 1481.5C633.548 1475.04 636.876 1464.8 638.668 1454.3ZM648.972 1468H651.404V1480.42C651.34 1485.66 654.348 1501.47 669.58 1508.7C668.684 1509.79 667.276 1511.78 666.572 1512.86C654.796 1506.98 649.868 1494.69 648.908 1489.12C647.948 1494.88 642.508 1506.78 628.748 1512.93C628.172 1511.9 626.828 1509.92 625.868 1508.96C643.276 1501.54 646.604 1485.92 646.54 1480.42V1468H648.972ZM664.012 1465.44H664.78L665.612 1465.25L669.068 1466.14C667.532 1472.35 665.548 1479.46 663.756 1483.87L659.532 1482.72C661.132 1478.56 662.924 1471.78 664.012 1466.34V1465.44ZM614.796 1460.13H630.092V1495.07H614.796V1490.59H625.676V1464.61H614.796V1460.13ZM612.236 1460.13H616.652V1501.15H612.236V1460.13ZM682.124 1460.58H702.604V1464.74H682.124V1460.58ZM707.02 1460.58H731.916V1464.74H707.02V1460.58ZM680.524 1474.66H726.924V1479.14H680.524V1474.66ZM674.828 1489.18H732.044V1493.6H674.828V1489.18ZM683.34 1453.98L688.012 1455.07C685.516 1462.24 681.676 1469.47 677.772 1474.14C676.876 1473.38 674.892 1472.1 673.676 1471.46C677.772 1467.17 681.292 1460.58 683.34 1453.98ZM708.556 1453.98L713.228 1455.07C710.86 1462.24 706.764 1468.96 702.348 1473.31C701.452 1472.54 699.468 1471.14 698.316 1470.5C702.796 1466.59 706.508 1460.45 708.556 1453.98ZM685.644 1463.46L689.612 1461.92C691.532 1464.86 693.58 1468.96 694.348 1471.46L690.124 1473.25C689.42 1470.62 687.5 1466.53 685.644 1463.46ZM712.012 1463.46L716.044 1461.79C718.476 1464.74 721.164 1468.7 722.252 1471.39L718.028 1473.25C717.004 1470.56 714.38 1466.46 712.012 1463.46ZM701.452 1475.81H706.316V1507.17C706.316 1510.18 705.548 1511.58 703.308 1512.35C701.068 1513.06 697.42 1513.12 691.596 1513.12C691.404 1511.84 690.508 1509.79 689.804 1508.38C694.348 1508.58 698.636 1508.58 699.916 1508.51C701.132 1508.45 701.452 1508.13 701.452 1507.1V1475.81ZM745.548 1514.85L744.076 1511.52C749.324 1509.34 752.204 1506.08 752.204 1501.28L750.988 1495.84L754.444 1500.7C753.548 1501.86 752.268 1502.18 751.052 1502.18C748.428 1502.18 746.252 1500.64 746.252 1497.57C746.252 1494.56 748.556 1492.96 751.116 1492.96C754.7 1492.96 756.62 1495.9 756.62 1500.38C756.62 1507.3 752.268 1512.54 745.548 1514.85ZM817.868 1492.58H822.732V1505.25C822.732 1507.1 823.372 1507.36 826.956 1507.36C828.62 1507.36 837.004 1507.36 839.244 1507.36C842.38 1507.36 842.892 1506.34 843.212 1499.1C844.3 1499.87 846.284 1500.64 847.628 1500.96C846.988 1509.66 845.516 1511.84 839.564 1511.84C838.092 1511.84 828.044 1511.84 826.636 1511.84C819.724 1511.84 817.868 1510.43 817.868 1505.25V1492.58ZM823.82 1490.14L826.956 1487.2C831.756 1489.57 837.644 1493.41 840.524 1496.29L837.132 1499.55C834.38 1496.74 828.62 1492.7 823.82 1490.14ZM846.924 1493.28L851.212 1491.55C854.924 1496.35 858.892 1502.88 860.3 1507.3L855.692 1509.34C854.284 1504.99 850.636 1498.27 846.924 1493.28ZM809.612 1492.26L813.836 1493.73C812.364 1499.04 810.06 1505.7 806.86 1509.86L802.572 1507.55C805.772 1503.58 808.204 1497.25 809.612 1492.26ZM813.324 1473.5V1481.76H848.908V1473.5H813.324ZM813.324 1461.34V1469.47H848.908V1461.34H813.324ZM808.78 1457.12H853.644V1485.98H808.78V1457.12ZM828.94 1458.91H833.612V1484.13H828.94V1458.91ZM896.972 1482.08C899.532 1498.46 906.572 1506.66 925.132 1508.9C924.172 1509.92 922.956 1511.9 922.38 1513.25C902.924 1510.24 895.82 1501.22 892.748 1482.53L896.972 1482.08ZM892.684 1480.42H897.42C895.884 1497.57 891.98 1508.45 868.492 1513.25C868.044 1512.03 866.892 1510.24 866.06 1509.22C888.332 1505.12 891.404 1495.65 892.684 1480.42ZM878.476 1484L882.7 1485.41C881.292 1490.98 878.86 1496.1 873.42 1498.98L869.708 1496.16C874.508 1493.73 877.26 1489.25 878.476 1484ZM914.444 1483.74L919.18 1485.66C916.3 1489.95 912.588 1494.75 909.708 1497.89L905.804 1496.03C908.684 1492.83 912.396 1487.52 914.444 1483.74ZM874.252 1475.1H912.46V1479.07H874.252V1475.1ZM867.66 1465.5H923.148V1469.6H867.66V1465.5ZM874.956 1456.48H914.892V1480.8H910.092V1460.45H874.956V1456.48ZM965.708 1476.26H970.572V1513.18H965.708V1476.26ZM947.02 1485.66H988.556V1490.08H947.02V1485.66ZM971.916 1487.39C975.756 1495.07 983.244 1502.82 990.22 1506.66C989.196 1507.55 987.66 1509.28 986.828 1510.43C979.852 1505.95 972.428 1497.31 968.204 1488.8L971.916 1487.39ZM964.62 1487.07L968.396 1488.48C964.108 1497.31 956.172 1505.89 948.556 1510.3C947.724 1509.15 946.252 1507.49 945.228 1506.53C952.716 1502.82 960.588 1494.88 964.62 1487.07ZM956.364 1461.6V1473.31H980.236V1461.6H956.364ZM951.82 1457.31H984.972V1477.66H951.82V1457.31ZM945.164 1454.43L949.708 1455.84C945.356 1466.66 938.636 1477.41 931.66 1484.51C931.148 1483.42 929.804 1480.93 928.908 1479.78C935.308 1473.7 941.452 1464.16 945.164 1454.43ZM938.508 1470.94L943.052 1466.4L943.116 1466.46V1512.99H938.508V1470.94ZM1010.06 1486.75H1038.92V1491.17H1010.06V1486.75ZM1005.84 1473.38H1041.93V1477.86H1005.84V1473.38ZM1016.01 1456.35H1034.44V1460.9H1016.01V1456.35ZM1037.2 1486.75H1042.06C1042.06 1486.75 1042 1488.29 1041.8 1489.06C1040.14 1502.94 1038.48 1508.83 1035.85 1511.26C1034.38 1512.67 1032.84 1513.06 1030.28 1513.18C1028.11 1513.31 1023.82 1513.18 1019.47 1512.99C1019.4 1511.58 1018.7 1509.6 1017.8 1508.32C1022.35 1508.77 1027.02 1508.83 1028.88 1508.83C1030.28 1508.83 1031.24 1508.77 1032.01 1508.13C1034.12 1506.46 1035.66 1500.64 1037.2 1487.52V1486.75ZM1012.56 1475.23H1017.61C1015.44 1481.76 1012.49 1490.02 1010.38 1495.14L1005.64 1494.24C1007.82 1489.25 1010.7 1481.31 1012.56 1475.23ZM1010.12 1460.51L1014.99 1462.05C1010.89 1469.15 1004.43 1476 998.476 1480.42C997.516 1479.52 995.468 1477.79 994.252 1477.02C1000.4 1473.12 1006.48 1466.98 1010.12 1460.51ZM1030.73 1456.35H1035.98C1039.69 1464.16 1046.67 1472.03 1053.26 1476.26C1052.04 1477.02 1050.19 1478.62 1049.29 1479.71C1042.76 1474.98 1035.98 1466.91 1032.01 1458.98H1030.73V1456.35ZM1083.72 1457.06L1109.39 1457.18V1461.41L1083.72 1461.28V1457.06ZM1089.55 1460.26C1094.09 1469.73 1103.82 1476.06 1116.68 1478.37C1115.6 1479.39 1114.25 1481.31 1113.55 1482.59C1100.43 1479.65 1090.64 1472.42 1085.64 1461.47L1089.55 1460.26ZM1107.79 1457.12H1108.75L1109.58 1456.93L1112.52 1458.14C1107.85 1471.33 1096.59 1478.75 1084.11 1482.08C1083.66 1480.86 1082.57 1478.94 1081.68 1477.98C1093.13 1475.42 1103.95 1468.58 1107.79 1457.82V1457.12ZM1062.6 1458.14L1067.02 1458.21L1066.96 1479.97H1062.54L1062.6 1458.14ZM1074.89 1455.46L1079.24 1455.52L1079.12 1481.57H1074.76L1074.89 1455.46ZM1084.62 1489.57H1089.61V1493.86C1089.61 1499.87 1087.12 1507.74 1063.63 1512.99C1063.05 1511.97 1061.64 1510.11 1060.56 1509.15C1083.15 1504.86 1084.62 1498.27 1084.62 1493.79V1489.57ZM1088.91 1503.52L1091.28 1499.94C1098.64 1502.18 1108.49 1506.02 1113.68 1508.83L1111.12 1512.93C1106.19 1510.11 1096.4 1506.02 1088.91 1503.52ZM1067.98 1483.1H1107.47V1502.56H1102.54V1487.58H1072.65V1502.75H1067.98V1483.1ZM1122.06 1467.49H1141.32V1471.9H1122.06V1467.49ZM1130.76 1454.3L1135.44 1454.75C1133.13 1467.49 1129.42 1484.64 1126.73 1495.26L1122.76 1493.09C1125.32 1483.42 1128.84 1466.4 1130.76 1454.3ZM1124.81 1490.72L1127.69 1487.33C1134.28 1492 1142.16 1498.66 1145.68 1503.39L1142.6 1507.3C1139.08 1502.43 1131.4 1495.46 1124.81 1490.72ZM1139.79 1467.49H1140.62L1141.39 1467.36L1144.2 1467.74C1142.73 1492.58 1136.52 1506.14 1125.32 1513.12C1124.68 1512.03 1123.47 1510.24 1122.38 1509.28C1132.49 1503.71 1138.51 1490.21 1139.79 1468.45V1467.49ZM1144.91 1461.98H1180.62V1466.27H1144.91V1461.98ZM1145.68 1484.38H1179.15V1488.54H1145.68V1484.38ZM1152.84 1475.23H1172.04V1479.33H1152.84V1475.23ZM1153.36 1493.6H1172.04V1497.7H1153.36V1493.6ZM1170.57 1493.6H1175.31C1175.31 1493.6 1175.24 1494.94 1175.12 1495.65C1173.96 1505.63 1172.75 1509.79 1171.02 1511.52C1169.8 1512.61 1168.59 1512.99 1166.8 1513.06C1165.26 1513.18 1162.32 1513.18 1159.24 1512.99C1159.12 1511.78 1158.67 1509.98 1157.96 1508.77C1160.97 1509.09 1163.85 1509.09 1165 1509.09C1166.09 1509.09 1166.67 1509.09 1167.24 1508.51C1168.52 1507.36 1169.68 1503.52 1170.57 1494.24V1493.6ZM1153.36 1486.3H1158.09C1156.88 1491.04 1155.21 1496.86 1153.93 1500.7L1149.39 1499.87C1150.73 1496.16 1152.33 1490.66 1153.36 1486.3ZM1158.6 1454.24L1163.28 1455.01C1160.59 1467.3 1154.83 1476.26 1146.25 1481.95C1145.61 1481.06 1143.88 1479.33 1142.86 1478.5C1151.18 1473.57 1156.36 1465.25 1158.6 1454.24ZM1168.91 1463.39C1171.4 1469.34 1176.46 1475.17 1181.84 1477.98C1180.81 1478.82 1179.4 1480.35 1178.7 1481.5C1173.13 1478.11 1167.88 1471.46 1165.07 1464.74L1168.91 1463.39Z" fill="white"/>
<path d="M84.688 402.184H114.704V406.088H84.688V402.184ZM91.408 413.512V419.4H108.112V413.512H91.408ZM87.44 409.8H112.336V423.112H87.44V409.8ZM105.232 389.064V395.144H109.712V389.064H105.232ZM97.424 389.064V395.144H101.904V389.064H97.424ZM89.936 389.064V395.144H94.096V389.064H89.936ZM86.416 385.608H113.296V398.6H86.416V385.608ZM110.8 423.816L114.128 426.248C112.016 428.168 109.52 430.152 107.536 431.432L104.784 429.256C106.704 427.912 109.392 425.416 110.8 423.816ZM98.896 420.936L102.48 422.344C98.96 428.296 92.624 434.376 87.056 437.512C86.352 436.488 85.072 434.952 84.112 434.184C89.552 431.56 95.696 426.184 98.896 420.936ZM97.424 425.224L101.584 422.28V442.12H97.424V425.224ZM114.768 386.44H125.712V390.664H114.768V386.44ZM123.152 386.44H127.312V436.744C127.312 439.24 126.864 440.712 125.264 441.416C123.664 442.184 121.04 442.248 117.136 442.248C116.944 441.096 116.368 439.048 115.728 437.832C118.608 437.96 121.232 437.96 122.064 437.896C122.896 437.832 123.152 437.576 123.152 436.744V386.44ZM128.464 386.44H139.6V390.664H128.464V386.44ZM137.168 386.44H141.392V436.616C141.392 439.24 140.88 440.648 139.216 441.416C137.552 442.184 134.736 442.248 130.704 442.248C130.512 441.032 129.872 438.92 129.232 437.704C132.24 437.832 135.184 437.832 136.016 437.768C136.912 437.768 137.168 437.448 137.168 436.552V386.44ZM121.488 394.12L125.456 395.336C123.28 400.136 119.76 405.768 116.368 409.48C115.728 408.712 114.512 407.432 113.68 406.856C116.752 403.4 119.888 398.216 121.488 394.12ZM121.872 410.888L125.84 412.168C123.536 417.672 119.76 424.264 115.856 428.616C115.152 427.848 113.936 426.568 113.104 425.864C116.752 421.896 120.144 415.816 121.872 410.888ZM135.312 393.608L139.28 394.952C136.912 399.56 133.328 405.128 130 408.84C129.36 408.008 128.016 406.792 127.248 406.152C130.32 402.824 133.584 397.64 135.312 393.608ZM135.824 410.12L139.792 411.336C137.424 416.904 133.648 423.368 129.616 427.72C128.976 426.952 127.696 425.672 126.928 425.032C130.576 421.064 134.096 414.984 135.824 410.12ZM98.256 426.824L101.136 424.456C105.552 427.4 111.248 431.688 114 434.568L110.928 437.256C108.24 434.376 102.736 429.896 98.256 426.824ZM86.288 464.08H121.296V469.008H86.288V464.08ZM119.312 464.08H124.176C124.368 492.496 126.928 512.464 136.912 512.4C138.832 512.336 139.472 508.432 139.728 501.264C140.816 502.288 142.352 503.504 143.44 504.08C142.8 514.128 141.264 517.328 136.72 517.328C122.448 517.328 119.76 496.72 119.312 464.08ZM137.232 468.944L141.648 471.248C136.72 476.496 130.064 482.384 124.88 486.16L121.296 483.92C126.48 480.08 133.264 473.68 137.232 468.944ZM121.68 485.904L124.112 482.576C130.32 485.584 138.384 490.32 142.352 493.648L139.792 497.488C135.952 494.096 127.952 489.168 121.68 485.904ZM100.56 569.752H129.424V574.168H100.56V569.752ZM96.336 556.376H132.432V560.856H96.336V556.376ZM106.512 539.352H124.944V543.896H106.512V539.352ZM127.696 569.752H132.56C132.56 569.752 132.496 571.288 132.304 572.056C130.64 585.944 128.976 591.832 126.352 594.264C124.88 595.672 123.344 596.056 120.784 596.184C118.608 596.312 114.32 596.184 109.968 595.992C109.904 594.584 109.2 592.6 108.304 591.32C112.848 591.768 117.52 591.832 119.376 591.832C120.784 591.832 121.744 591.768 122.512 591.128C124.624 589.464 126.16 583.64 127.696 570.52V569.752ZM103.056 558.232H108.112C105.936 564.76 102.992 573.016 100.88 578.136L96.144 577.24C98.32 572.248 101.2 564.312 103.056 558.232ZM100.624 543.512L105.488 545.048C101.392 552.152 94.928 559 88.976 563.416C88.016 562.52 85.968 560.792 84.752 560.024C90.896 556.12 96.976 549.976 100.624 543.512ZM121.232 539.352H126.48C130.192 547.16 137.168 555.032 143.76 559.256C142.544 560.024 140.688 561.624 139.792 562.712C133.264 557.976 126.48 549.912 122.512 541.976H121.232V539.352ZM111.312 656.736H116.24V673.184H111.312V656.736ZM85.456 659.424H142.544V663.52H85.456V659.424ZM111.312 636.512H116.24V642.656H111.312V636.512ZM102.224 644.576L106.512 645.472C103.824 651.36 98.32 655.904 92.688 658.848C91.984 658.08 90.32 656.672 89.296 655.968C94.992 653.536 99.984 649.632 102.224 644.576ZM123.728 644.576L128.016 645.28C126.032 650.784 121.552 654.88 116.688 657.504C115.92 656.736 114.256 655.328 113.232 654.688C118.032 652.512 122.064 649.056 123.728 644.576ZM100.56 650.912L103.504 648.352C106.384 649.824 110.096 652.064 112.08 653.6L109.136 656.416C107.28 654.816 103.504 652.512 100.56 650.912ZM121.296 651.552L124.56 648.992C128.848 650.976 134.352 654.048 137.296 656.096L133.84 658.912C131.152 656.864 125.648 653.664 121.296 651.552ZM88.912 641.056H139.088V644.96H88.912V641.056ZM88.144 617.568H109.648V621.408H88.144V617.568ZM107.28 617.568H111.696V633.632C111.696 635.744 111.248 636.768 109.648 637.408C108.048 638.048 105.552 638.048 101.904 638.048C101.648 636.96 100.944 635.488 100.368 634.464C103.184 634.592 105.552 634.592 106.32 634.528C107.152 634.528 107.28 634.272 107.28 633.632V617.568ZM90.448 623.968L93.008 621.536C95.568 622.88 98.768 624.992 100.368 626.528L97.744 629.344C96.144 627.744 93.008 625.504 90.448 623.968ZM87.12 633.504C91.28 632.416 97.552 630.624 103.76 628.832L104.272 632.096C98.96 633.824 93.52 635.616 89.04 637.088L87.12 633.504ZM114.96 617.568H136.976V621.408H114.96V617.568ZM134.416 617.568H138.832V633.76C138.832 635.872 138.448 636.896 136.848 637.536C135.248 638.112 132.816 638.112 129.232 638.112C128.976 637.024 128.272 635.616 127.696 634.592C130.384 634.72 132.688 634.72 133.456 634.656C134.224 634.592 134.416 634.4 134.416 633.76V617.568ZM117.2 623.968L119.696 621.536C122.384 622.816 125.712 624.928 127.44 626.528L124.88 629.344C123.216 627.744 119.888 625.504 117.2 623.968ZM114.512 633.632C118.736 632.48 125.008 630.496 131.216 628.512L131.792 631.712C126.544 633.632 120.976 635.68 116.496 637.216L114.512 633.632ZM96.912 708.648V719.208H131.28V708.648H96.912ZM92.752 705.192H135.696V722.664H92.752V705.192ZM111.632 706.6H115.792V721.32H111.632V706.6ZM100.048 711.016L103.312 709.736C105.04 712.104 106.832 715.24 107.408 717.288L104.016 718.76C103.376 716.584 101.712 713.384 100.048 711.016ZM123.6 709.416L127.504 710.696C125.904 713.64 124.112 716.712 122.576 718.824L119.376 717.608C120.848 715.432 122.704 711.848 123.6 709.416ZM95.952 726.44H132.688V749.992H127.888V730.216H100.496V749.992H95.952V726.44ZM98.512 735.592H129.808V739.048H98.512V735.592ZM107.024 692.84H124.624V697H107.024V692.84ZM98.512 744.36H129.616V748.136H98.512V744.36ZM101.072 694.12L105.488 695.592C101.392 702.632 94.288 708.904 87.44 712.808C86.8 711.912 85.2 709.928 84.176 709.032C90.896 705.704 97.424 700.264 101.072 694.12ZM120.784 692.84H125.904C129.232 699.304 136.592 704.936 143.824 707.688C142.8 708.648 141.392 710.568 140.688 711.848C133.2 708.392 125.84 702.248 122.064 695.464H120.784V692.84ZM92.048 828.848L90.576 825.52C95.824 823.344 98.704 820.08 98.704 815.28L97.488 809.84L100.944 814.704C100.048 815.856 98.768 816.176 97.552 816.176C94.928 816.176 92.752 814.64 92.752 811.568C92.752 808.56 95.056 806.96 97.616 806.96C101.2 806.96 103.12 809.904 103.12 814.384C103.12 821.296 98.768 826.544 92.048 828.848ZM97.936 869.944H140.24V874.104H97.936V869.944ZM95.952 880.632H142.8V884.792H95.952V880.632ZM107.536 863.672H112.016V882.808H107.536V863.672ZM104.08 882.104H108.56V899.384H104.08V882.104ZM124.88 863.672H129.424V882.616H124.88V863.672ZM90.96 848.376H95.824V867.128C95.824 878.008 94.864 893.752 88.208 904.184C87.312 903.48 85.136 902.2 83.984 901.752C90.384 891.64 90.96 877.368 90.96 867.128V848.376ZM93.84 848.376H139.024V864.056H93.84V859.896H134.224V852.536H93.84V848.376ZM96.72 898.808C103.056 897.976 112.72 896.44 122.192 894.904L122.384 899.064C113.552 900.664 104.208 902.136 97.488 903.288L96.72 898.808ZM119.824 882.296C123.536 891.576 131.856 897.976 143.44 900.28C142.416 901.304 141.136 903.032 140.56 904.248C128.464 901.24 120.08 894.072 115.856 883.256L119.824 882.296ZM135.76 885.176L139.344 887.672C135.888 890.424 131.216 893.112 127.568 894.968L124.496 892.6C128.016 890.68 132.944 887.48 135.76 885.176ZM107.92 930.56H140.368V934.976H107.92V930.56ZM104.976 954.816H143.12V959.232H104.976V954.816ZM103.568 943.104H143.44V947.52H103.568V943.104ZM121.488 922.56H126.224V945.408H121.488V922.56ZM130.128 946.56H134.864V975.36C134.864 978.24 134.288 979.584 132.24 980.352C130.32 981.056 127.12 981.12 122.256 981.12C122.064 979.776 121.36 977.792 120.72 976.448C124.432 976.576 127.888 976.576 128.848 976.512C129.808 976.448 130.128 976.192 130.128 975.296V946.56ZM109.968 962.752L113.808 960.64C116.688 963.968 119.888 968.576 121.296 971.712L117.2 974.144C115.984 971.008 112.848 966.208 109.968 962.752ZM88.912 926.784L92.176 923.84C95.504 926.72 99.856 930.752 101.904 933.312L98.512 936.704C96.528 933.952 92.304 929.792 88.912 926.784ZM93.136 979.84L92.176 975.36L93.392 973.376L104.592 964.864C104.976 966.08 105.872 967.936 106.448 968.896C95.76 977.216 94.032 978.56 93.136 979.84ZM84.88 942.336H96.208V947.008H84.88V942.336ZM93.136 979.84C92.56 978.88 91.216 977.152 90.32 976.448C91.6 975.488 93.84 973.12 93.84 969.92V942.336H98.448V973.312C98.448 973.312 93.136 977.92 93.136 979.84ZM100.56 1031.75H129.424V1036.17H100.56V1031.75ZM96.336 1018.38H132.432V1022.86H96.336V1018.38ZM106.512 1001.35H124.944V1005.9H106.512V1001.35ZM127.696 1031.75H132.56C132.56 1031.75 132.496 1033.29 132.304 1034.06C130.64 1047.94 128.976 1053.83 126.352 1056.26C124.88 1057.67 123.344 1058.06 120.784 1058.18C118.608 1058.31 114.32 1058.18 109.968 1057.99C109.904 1056.58 109.2 1054.6 108.304 1053.32C112.848 1053.77 117.52 1053.83 119.376 1053.83C120.784 1053.83 121.744 1053.77 122.512 1053.13C124.624 1051.46 126.16 1045.64 127.696 1032.52V1031.75ZM103.056 1020.23H108.112C105.936 1026.76 102.992 1035.02 100.88 1040.14L96.144 1039.24C98.32 1034.25 101.2 1026.31 103.056 1020.23ZM100.624 1005.51L105.488 1007.05C101.392 1014.15 94.928 1021 88.976 1025.42C88.016 1024.52 85.968 1022.79 84.752 1022.02C90.896 1018.12 96.976 1011.98 100.624 1005.51ZM121.232 1001.35H126.48C130.192 1009.16 137.168 1017.03 143.76 1021.26C142.544 1022.02 140.688 1023.62 139.792 1024.71C133.264 1019.98 126.48 1011.91 122.512 1003.98H121.232V1001.35ZM88.208 1128.14C99.344 1127.89 117.2 1127.25 133.84 1126.48L133.648 1130.9C117.52 1131.73 100.176 1132.5 88.848 1132.88L88.208 1128.14ZM87.632 1108.37H140.688V1112.91H87.632V1108.37ZM98.576 1096.14H129.168V1100.62H98.576V1096.14ZM105.168 1111.25L110.544 1112.78C107.6 1118.93 103.888 1126.42 100.752 1131.22L96.464 1129.81C99.472 1124.82 103.248 1116.88 105.168 1111.25ZM120.4 1118.03L124.496 1115.86C130.384 1120.91 136.656 1127.82 139.664 1132.69L135.312 1135.31C132.432 1130.51 126.096 1123.15 120.4 1118.03ZM113.744 1080.98C108.496 1088.78 98 1097.55 87.12 1102.99C86.544 1101.84 85.328 1100.11 84.304 1099.09C95.312 1093.84 106 1084.56 110.992 1076.37H115.92C122.704 1085.84 133.904 1094.22 144.08 1098.38C142.928 1099.54 141.776 1101.26 140.944 1102.67C130.96 1097.87 119.696 1089.3 113.744 1080.98ZM120.528 1190.3V1202.52H116.432V1190.3H120.528ZM131.6 1184.73V1212.25H127.248V1184.73H131.6ZM142.928 1200.41V1204.18H109.968V1200.41H142.928ZM141.072 1188.82V1192.73H113.104V1188.82H141.072ZM94.096 1193.69C97.104 1195.61 100.816 1198.55 102.608 1200.54L99.408 1202.9C97.68 1200.92 94.032 1197.91 91.024 1195.86L94.096 1193.69ZM108.368 1188.89L109.136 1188.76L111.76 1189.98C107.92 1202.07 99.216 1208.79 88.912 1212.25C88.336 1211.22 87.056 1209.5 86.096 1208.79C96.016 1205.85 104.208 1199.83 107.408 1189.66V1188.89H108.368ZM101.776 1184.66C98.576 1191.06 92.944 1196.5 87.312 1199.96C86.672 1199.26 85.136 1197.78 84.176 1197.08C89.808 1194.01 95.056 1189.21 97.808 1183.64L101.776 1184.66ZM132.944 1160.41V1181.72H128.464V1160.41H132.944ZM121.424 1160.41V1181.72H117.392V1160.41H121.424ZM110.224 1160.41V1181.72H106.064V1160.41H110.224ZM99.344 1160.41V1181.72H94.928V1160.41H99.344ZM141.328 1179.8V1183.77H87.056V1179.8H141.328ZM142.352 1169.43V1173.4H85.648V1169.43H142.352ZM108.688 1188.89V1192.34H93.52L96.784 1188.89H108.688ZM139.408 1159.06V1163.03H92.88L96.656 1159.06H139.408ZM101.84 1154.01C99.088 1159 95.184 1164.18 89.744 1168.47C88.912 1167.51 87.312 1166.3 86.224 1165.72C91.344 1162.07 95.12 1157.14 97.168 1153.18L101.84 1154.01Z" fill="white"/>
<path d="M1466.11 353.496H1516.29V358.04H1466.11V353.496ZM1463.68 353.496H1468.54V370.968C1468.54 380.696 1467.71 395.032 1462.46 404.632C1461.63 403.736 1459.39 402.392 1458.3 401.944C1463.23 392.856 1463.68 380.056 1463.68 370.968V353.496ZM1485.89 346.008L1490.56 344.792C1492.16 347.608 1493.95 351.192 1494.72 353.496L1489.86 355.032C1489.09 352.6 1487.36 348.824 1485.89 346.008ZM1472.83 367.64L1476.99 365.976C1479.81 372.952 1482.88 381.848 1484.29 387.8L1479.81 389.72C1478.53 383.704 1475.46 374.616 1472.83 367.64ZM1486.72 364.12L1491.07 362.84C1493.31 369.816 1495.68 378.776 1496.64 384.728L1492.03 386.072C1491.2 380.12 1488.83 371.032 1486.72 364.12ZM1508.42 362.456L1513.41 364.312C1509.95 376.344 1504.38 389.656 1497.47 400.28C1496.77 399.448 1495.3 398.104 1494.27 397.4C1500.74 387.352 1505.86 373.848 1508.42 362.456ZM1469.31 396.568H1517.12V401.176H1469.31V396.568ZM1480.38 429.088H1512.83V452.32H1480.13V448.288H1508.16V433.12H1480.38V429.088ZM1493.82 422.304H1498.5V481.12H1493.82V422.304ZM1477.44 438.56H1517.44V442.784H1477.44V438.56ZM1476.42 466.976H1516.8V471.2H1476.42V466.976ZM1479.3 457.376H1513.66V461.472H1479.3V457.376ZM1473.22 436.512L1477.38 438.176C1473.09 445.728 1466.43 453.472 1460.42 458.528C1459.97 457.504 1458.62 455.072 1457.86 453.92C1463.49 449.696 1469.57 443.104 1473.22 436.512ZM1472.26 422.496L1476.8 424.224C1473.09 429.728 1467.01 435.744 1461.38 439.584C1460.86 438.432 1459.58 436.576 1458.82 435.616C1463.87 432.352 1469.44 426.976 1472.26 422.496ZM1467.65 447.776L1472 443.424L1472.13 443.552V481.056H1467.65V447.776ZM1474.56 531.752H1503.42V536.168H1474.56V531.752ZM1470.34 518.376H1506.43V522.856H1470.34V518.376ZM1480.51 501.352H1498.94V505.896H1480.51V501.352ZM1501.7 531.752H1506.56C1506.56 531.752 1506.5 533.288 1506.3 534.056C1504.64 547.944 1502.98 553.832 1500.35 556.264C1498.88 557.672 1497.34 558.056 1494.78 558.184C1492.61 558.312 1488.32 558.184 1483.97 557.992C1483.9 556.584 1483.2 554.6 1482.3 553.32C1486.85 553.768 1491.52 553.832 1493.38 553.832C1494.78 553.832 1495.74 553.768 1496.51 553.128C1498.62 551.464 1500.16 545.64 1501.7 532.52V531.752ZM1477.06 520.232H1482.11C1479.94 526.76 1476.99 535.016 1474.88 540.136L1470.14 539.24C1472.32 534.248 1475.2 526.312 1477.06 520.232ZM1474.62 505.512L1479.49 507.048C1475.39 514.152 1468.93 521 1462.98 525.416C1462.02 524.52 1459.97 522.792 1458.75 522.024C1464.9 518.12 1470.98 511.976 1474.62 505.512ZM1495.23 501.352H1500.48C1504.19 509.16 1511.17 517.032 1517.76 521.256C1516.54 522.024 1514.69 523.624 1513.79 524.712C1507.26 519.976 1500.48 511.912 1496.51 503.976H1495.23V501.352ZM1471.87 597.168H1504.19V601.456H1471.87V597.168ZM1470.72 628.272H1505.02V632.56H1470.72V628.272ZM1468.54 609.52H1507.71V635.184H1502.85V613.872H1473.22V635.184H1468.54V609.52ZM1487.81 581.168C1482.56 588.976 1472.06 598.064 1461.12 604.016C1460.48 602.928 1459.2 601.2 1458.11 600.176C1469.38 594.48 1480.06 584.688 1485.12 576.432H1489.98C1496.9 585.968 1508.1 594.864 1518.34 599.408C1517.12 600.56 1515.97 602.224 1515.14 603.632C1505.09 598.384 1493.82 589.36 1487.81 581.168ZM1505.34 675.896H1510.34V697.272C1510.34 700.216 1509.7 701.816 1507.33 702.584C1505.02 703.416 1501.06 703.416 1494.98 703.416C1494.78 701.88 1494.08 699.832 1493.44 698.36C1498.18 698.552 1502.53 698.552 1503.74 698.424C1505.02 698.424 1505.34 698.104 1505.34 697.208V675.896ZM1479.04 678.776H1484.03V711.992H1479.04V678.776ZM1462.21 675.896H1507.46V680.504H1462.21V675.896ZM1459.52 660.536H1516.48V665.144H1459.52V660.536ZM1474.5 653.24H1479.36V672.44H1474.5V653.24ZM1496.58 653.24H1501.57V672.44H1496.58V653.24ZM1466.05 790.848L1464.58 787.52C1469.82 785.344 1472.7 782.08 1472.7 777.28L1471.49 771.84L1474.94 776.704C1474.05 777.856 1472.77 778.176 1471.55 778.176C1468.93 778.176 1466.75 776.64 1466.75 773.568C1466.75 770.56 1469.06 768.96 1471.62 768.96C1475.2 768.96 1477.12 771.904 1477.12 776.384C1477.12 783.296 1472.77 788.544 1466.05 790.848ZM1489.47 835.08C1492.03 851.464 1499.07 859.656 1517.63 861.896C1516.67 862.92 1515.46 864.904 1514.88 866.248C1495.42 863.24 1488.32 854.216 1485.25 835.528L1489.47 835.08ZM1485.18 833.416H1489.92C1488.38 850.568 1484.48 861.448 1460.99 866.248C1460.54 865.032 1459.39 863.24 1458.56 862.216C1480.83 858.12 1483.9 848.648 1485.18 833.416ZM1470.98 837L1475.2 838.408C1473.79 843.976 1471.36 849.096 1465.92 851.976L1462.21 849.16C1467.01 846.728 1469.76 842.248 1470.98 837ZM1506.94 836.744L1511.68 838.664C1508.8 842.952 1505.09 847.752 1502.21 850.888L1498.3 849.032C1501.18 845.832 1504.9 840.52 1506.94 836.744ZM1466.75 828.104H1504.96V832.072H1466.75V828.104ZM1460.16 818.504H1515.65V822.6H1460.16V818.504ZM1467.46 809.48H1507.39V833.8H1502.59V813.448H1467.46V809.48ZM1462.21 896.976H1509.76V901.648H1462.21V896.976ZM1485.38 884.368H1490.3V898.96H1485.38V884.368ZM1508.22 896.976H1509.31L1510.27 896.656L1513.86 898.96C1505.92 911.952 1490.88 926.992 1477.63 935.184C1476.86 934.16 1475.33 932.688 1474.18 931.856C1487.04 924.24 1501.7 909.136 1508.22 898.128V896.976ZM1472.26 924.112C1476.99 935.248 1487.49 937.36 1501.06 937.36C1503.23 937.36 1514.62 937.36 1517.57 937.296C1516.86 938.448 1516.03 940.688 1515.78 942.032H1500.8C1484.93 942.032 1474.18 939.28 1468.16 925.84L1472.26 924.112ZM1462.59 943.056L1457.98 940.304C1462.53 934.608 1467.39 925.456 1469.89 918.608L1474.56 920.4C1472.13 926.352 1467.52 935.76 1462.59 943.056ZM1459.58 989.656H1516.48V994.264H1459.58V989.656ZM1462.66 968.984H1513.79V973.592H1462.66V968.984ZM1485.38 961.304H1490.43V1020.12H1485.38V961.304ZM1504.38 974.744L1509.38 976.344C1507.07 980.76 1504.26 985.88 1501.95 989.08L1497.86 987.608C1500.1 984.216 1502.91 978.648 1504.38 974.744ZM1467.84 976.664L1472.06 975.064C1474.69 978.776 1477.25 983.832 1478.14 987.096L1473.6 988.952C1472.77 985.688 1470.34 980.504 1467.84 976.664ZM1484.1 991.448L1488 993.048C1481.92 1003.03 1471.3 1012.5 1461.57 1017.3C1460.8 1016.15 1459.26 1014.36 1458.18 1013.4C1467.9 1009.18 1478.59 1000.28 1484.1 991.448ZM1491.84 991.448C1497.41 1000.28 1508.16 1009.3 1517.89 1013.53C1516.8 1014.49 1515.26 1016.34 1514.5 1017.56C1504.7 1012.7 1494.08 1002.97 1487.94 993.112L1491.84 991.448ZM1474.56 1070.75H1503.42V1075.17H1474.56V1070.75ZM1470.34 1057.38H1506.43V1061.86H1470.34V1057.38ZM1480.51 1040.35H1498.94V1044.9H1480.51V1040.35ZM1501.7 1070.75H1506.56C1506.56 1070.75 1506.5 1072.29 1506.3 1073.06C1504.64 1086.94 1502.98 1092.83 1500.35 1095.26C1498.88 1096.67 1497.34 1097.06 1494.78 1097.18C1492.61 1097.31 1488.32 1097.18 1483.97 1096.99C1483.9 1095.58 1483.2 1093.6 1482.3 1092.32C1486.85 1092.77 1491.52 1092.83 1493.38 1092.83C1494.78 1092.83 1495.74 1092.77 1496.51 1092.13C1498.62 1090.46 1500.16 1084.64 1501.7 1071.52V1070.75ZM1477.06 1059.23H1482.11C1479.94 1065.76 1476.99 1074.02 1474.88 1079.14L1470.14 1078.24C1472.32 1073.25 1475.2 1065.31 1477.06 1059.23ZM1474.62 1044.51L1479.49 1046.05C1475.39 1053.15 1468.93 1060 1462.98 1064.42C1462.02 1063.52 1459.97 1061.79 1458.75 1061.02C1464.9 1057.12 1470.98 1050.98 1474.62 1044.51ZM1495.23 1040.35H1500.48C1504.19 1048.16 1511.17 1056.03 1517.76 1060.26C1516.54 1061.02 1514.69 1062.62 1513.79 1063.71C1507.26 1058.98 1500.48 1050.91 1496.51 1042.98H1495.23V1040.35ZM1459.14 1119.66H1516.93V1124.01H1459.14V1119.66ZM1474.75 1115.3H1479.49V1128.55H1474.75V1115.3ZM1496.19 1115.3H1500.99V1128.68H1496.19V1115.3ZM1461.5 1142.06H1486.91V1145.83H1465.28V1174.18H1461.5V1142.06ZM1484.86 1142.06H1488.7V1169.77C1488.7 1171.69 1488.45 1172.84 1487.17 1173.48C1485.89 1174.12 1484.03 1174.18 1481.28 1174.18C1481.15 1173.1 1480.64 1171.5 1480.13 1170.47C1481.98 1170.47 1483.58 1170.47 1484.16 1170.47C1484.74 1170.47 1484.86 1170.28 1484.86 1169.7V1142.06ZM1468.29 1149.1L1471.23 1149.54C1470.72 1155.56 1469.89 1161.64 1468.1 1165.74C1467.58 1165.35 1466.3 1164.58 1465.54 1164.26C1467.33 1160.36 1467.97 1154.73 1468.29 1149.1ZM1465.79 1131.11L1469.7 1132.2C1467.71 1136.36 1464.51 1140.78 1461.57 1143.66C1460.8 1142.95 1459.07 1141.8 1458.11 1141.22C1461.18 1138.6 1464 1134.82 1465.79 1131.11ZM1480.19 1132.46L1483.52 1130.79C1486.4 1133.67 1489.66 1137.77 1491.01 1140.52L1487.55 1142.44C1486.21 1139.75 1483.01 1135.53 1480.19 1132.46ZM1478.46 1149.67L1480.9 1149.16C1482.24 1153.7 1483.26 1159.53 1483.39 1162.86L1480.7 1163.69C1480.58 1160.17 1479.68 1154.28 1478.46 1149.67ZM1472.7 1128.04H1477.12V1143.66H1476.54V1173.67H1473.28V1143.66H1472.7V1128.04ZM1496.96 1136.74H1516.61V1140.9H1496.96V1136.74ZM1497.41 1128.74L1501.76 1129.7C1499.52 1138.66 1495.87 1147.3 1491.46 1153C1490.69 1152.17 1488.96 1150.7 1487.87 1149.99C1492.22 1144.81 1495.49 1136.81 1497.41 1128.74ZM1509.63 1138.6L1514.18 1139.3C1510.72 1155.88 1503.74 1167.21 1491.71 1174.25C1491.14 1173.29 1489.6 1171.43 1488.64 1170.54C1500.22 1164.46 1506.69 1153.83 1509.63 1138.6ZM1497.54 1140.84C1500.74 1154.15 1507.52 1165.54 1518.14 1170.41C1517.06 1171.24 1515.65 1173.03 1514.94 1174.18C1504.06 1168.55 1497.28 1156.46 1493.76 1141.74L1497.54 1140.84ZM1467.26 1196.59H1509.18V1250.16H1504.13V1201.46H1472.19V1250.42H1467.26V1196.59ZM1470.53 1218.8H1506.24V1223.54H1470.53V1218.8ZM1470.46 1241.46H1506.37V1246.26H1470.46V1241.46Z" fill="white"/>
</g>
<path d="M403.793 599C424.46 599 434.793 599.667 434.793 601C434.793 601 433.793 614 431.793 640C429.126 667.333 427.126 686.333 425.793 697C424.46 709.667 423.793 716.667 423.793 718C423.793 719.333 433.793 720 453.793 720C473.793 720 483.793 719.333 483.793 718C483.793 716.667 491.46 716 506.793 716H529.793V852V988L563.793 989C586.46 989 598.46 989.167 599.793 989.5C601.126 989.833 601.96 989.667 602.293 989C602.626 988.333 603.126 987 603.793 985C605.126 981 606.46 977.667 607.793 975C609.126 971.667 611.46 969 614.793 967C617.46 964.333 620.126 962.333 622.793 961C624.793 960.333 627.793 960 631.793 960H637.793V988V1017H583.793C547.793 1017 529.46 1017.33 528.793 1018C528.126 1018.67 520.46 1019 505.793 1019L484.793 1018L483.793 878V738L451.793 739H420.793L418.793 750C418.126 755.333 416.793 764 414.793 776C413.46 788 411.793 799 409.793 809C407.793 819 405.126 831.333 401.793 846C399.126 860 396.126 872.667 392.793 884C390.793 890.667 387.793 900.667 383.793 914C381.793 921.333 379.46 928 376.793 934C374.126 940 370.46 946.667 365.793 954C361.126 960.667 355.793 967 349.793 973C343.793 979 337.793 984 331.793 988C326.46 992 320.793 995.667 314.793 999C307.46 1003 300.793 1006 294.793 1008C288.126 1010.67 281.46 1013 274.793 1015C267.46 1017 259.793 1018.67 251.793 1020C245.126 1021.33 238.126 1022.33 230.793 1023L222.793 1024V1019V1015L231.793 1012C238.46 1010 244.793 1007.33 250.793 1004C257.46 1000.67 263.126 997.667 267.793 995C273.126 991 278.626 986.5 284.293 981.5C289.96 976.5 295.46 971.333 300.793 966C305.46 960 310.126 953.667 314.793 947C319.46 939.667 323.96 931.5 328.293 922.5C332.626 913.5 336.793 903.667 340.793 893C344.126 881.667 346.46 873.333 347.793 868C349.126 862 350.793 853.333 352.793 842C355.46 829.333 357.126 818 357.793 808C359.126 798.667 360.793 784.333 362.793 765C364.126 749 364.793 740.333 364.793 739C364.126 738.333 342.46 738 299.793 738H236.793V729V720H301.793H366.793V718C367.46 716 368.126 705.333 368.793 686C370.126 668 371.126 648.667 371.793 628L373.793 599H403.793ZM1303 598V608C1302.33 613.333 1300.5 622.167 1297.5 634.5C1294.5 646.833 1292.83 653.5 1292.5 654.5C1292.17 655.5 1293 656 1295 656C1297 656 1304.33 656 1317 656H1342L1341 653C1340.33 650.333 1340 648.333 1340 647C1340 646.333 1341 645.833 1343 645.5C1345 645.167 1349.67 645 1357 645H1374V651C1374 655 1373.33 660.667 1372 668C1370.67 675.333 1369.33 682.333 1368 689C1366 695.667 1363.67 702 1361 708C1357 715.333 1353.17 721 1349.5 725C1345.83 729 1343.5 730.167 1342.5 728.5C1341.5 726.833 1341.67 722 1343 714C1344.33 706.667 1345 698.333 1345 689V676H1315H1285L1280 687C1277.33 693.667 1273.33 701 1268 709C1263.33 716.333 1257.67 724 1251 732C1245 740 1238 747.667 1230 755C1222.67 763 1216.67 769 1212 773L1205 780L1202 777L1199 773L1203 769C1204.33 767 1208 761.667 1214 753C1218.67 745.667 1223.33 737.333 1228 728C1232 718.667 1235.17 710.333 1237.5 703C1239.83 695.667 1242 689 1244 683C1245.33 677.667 1247 669.5 1249 658.5C1251 647.5 1252.67 637.333 1254 628C1254.67 618 1255 611 1255 607C1254.33 601.667 1254.67 599 1256 599C1256.67 599 1265 598.667 1281 598H1303ZM1222 620V630V639H1211H1201L1200 686C1200 718 1199 736.667 1197 742C1195.67 748 1193.67 753.667 1191 759C1189 763.667 1186.67 768 1184 772C1181.33 775.333 1178.5 778 1175.5 780C1172.5 782 1168.67 783 1164 783H1156V711V639H1072H988V630V620H1105H1222ZM1053 659L1054 665V671H1074H1094V665V659H1116H1138V691C1138 713.667 1137.33 727.667 1136 733C1134.67 738.333 1133.33 743.667 1132 749C1129.33 754.333 1126.33 759.667 1123 765C1119.67 770.333 1116.33 774 1113 776C1110.33 778.667 1106.67 780 1102 780H1094V770V761H1068H1042L1038 767C1036 770.333 1033.33 773.333 1030 776C1027.33 778.667 1023.33 780 1018 780H1010V720C1010 680 1010.33 659.667 1011 659C1011 659 1018 659 1032 659H1053ZM1074 691C1060.67 691 1054 691.333 1054 692C1053.33 693.333 1053 701 1053 715C1053 729 1052.67 737 1052 739L1051 742H1072L1094 741V716V691H1074ZM1318 718V803V888L1322 899C1325.33 907 1328.33 913.333 1331 918C1333.67 923.333 1336.67 928.667 1340 934C1344 938.667 1348 943.333 1352 948C1355.33 952 1360 956.333 1366 961C1370.67 965.667 1377.67 970.667 1387 976C1395 980.667 1399.17 983.5 1399.5 984.5C1399.83 985.5 1396.83 990 1390.5 998C1384.17 1006 1380.33 1010 1379 1010C1377.67 1010 1373 1006.67 1365 1000C1356.33 993.333 1350 987.667 1346 983C1342 979 1338.33 974.333 1335 969C1331 963.667 1327 957 1323 949C1319 939.667 1316 933 1314 929L1312 921L1308 930C1306 936 1303.67 941.667 1301 947C1298.33 952.333 1294.67 958.333 1290 965C1285.33 971.667 1280.33 977.667 1275 983C1269.67 988.333 1264 993 1258 997C1253.33 1001 1247.33 1004.67 1240 1008C1233.33 1011.33 1226 1014.33 1218 1017C1210.67 1019.67 1205.67 1021.33 1203 1022L1199 1023L1201 1017C1202.33 1013.67 1205 1011 1209 1009C1212.33 1007 1216.33 1004.67 1221 1002C1226.33 998.667 1231.33 994.333 1236 989C1241.33 983.667 1246 978.333 1250 973C1254.67 967.667 1259 961 1263 953C1266.33 946.333 1269.17 940 1271.5 934C1273.83 928 1275.67 921.667 1277 915C1278.33 907 1279.33 899 1280 891C1280.67 883.667 1281 853 1281 799V718H1300H1318ZM1230 797V806V815H1215H1201L1200 894C1200 947.333 1199 977 1197 983C1195.67 989 1193.67 994.667 1191 1000C1188.33 1005.33 1185.17 1010 1181.5 1014C1177.83 1018 1175 1020.67 1173 1022C1171 1023.33 1167.67 1024 1163 1024H1156V919V815H1070H984V806V797H1107H1230ZM1053 841V846C1053 849.333 1053.33 851.333 1054 852C1054.67 853.333 1061.67 853.667 1075 853H1094V847V841H1116H1138L1137 878C1137 902.667 1136.17 917.833 1134.5 923.5C1132.83 929.167 1130.83 934.167 1128.5 938.5C1126.17 942.833 1123.67 946.833 1121 950.5C1118.33 954.167 1115.5 957 1112.5 959C1109.5 961 1105.67 962 1101 962H1094V953V944H1068C1050.67 944 1042 944.333 1042 945C1042 945.667 1040 948.167 1036 952.5C1032 956.833 1029 959.333 1027 960C1025 961.333 1021.67 962 1017 962H1010V902V841H1032H1053ZM1054 873L1053 896C1053 911.333 1052.67 920 1052 922L1051 924H1072H1094V898V873H1074H1054Z" fill="url(#paint2_linear_223_16)"/>
<path d="M671 534.252C671 515.052 673.933 500.118 679.8 489.452C685.667 478.785 694.733 471.185 707 466.652C719.533 462.385 736.2 460.252 757 460.252H911L689 360.252V352.252L915 248.252H689V232.252H953V270.252L745 366.252L953 460.252V496.252H757C732.2 496.252 713 499.318 699.4 505.452C685.8 511.852 679 521.452 679 534.252H671ZM685 678.514C685 652.914 689.267 632.647 697.8 617.714C706.6 602.781 719.533 592.114 736.6 585.714C753.667 579.581 775.8 576.514 803 576.514H905C918.6 576.514 928.6 574.647 935 570.914C941.667 567.181 945 559.714 945 548.514V540.514H953V576.514C953 586.381 951.667 593.714 949 598.514C946.6 603.581 942.067 607.181 935.4 609.314C928.733 611.447 918.6 612.514 905 612.514H791C761.4 612.514 739 617.981 723.8 628.914C708.6 639.847 701 657.981 701 683.314C701 703.581 704.6 719.581 711.8 731.314C719 743.314 729.933 751.847 744.6 756.914C759.267 761.981 778.733 764.514 803 764.514H953V780.514H803C775.267 780.514 752.867 777.581 735.8 771.714C719 765.847 706.333 755.447 697.8 740.514C689.267 725.847 685 705.181 685 678.514ZM682.2 924.323C682.2 909.657 684.2 895.257 688.2 881.123C692.2 866.99 697.933 855.39 705.4 846.323C712.867 837.523 721.4 833.123 731 833.123H773.8V840.323C747.133 844.857 727.8 853.657 715.8 866.723C704.067 879.79 698.2 897.79 698.2 920.723C698.2 935.123 701.8 947.39 709 957.523C716.2 967.923 726.2 973.123 739 973.123C750.2 973.123 759.933 969.657 768.2 962.723C776.467 955.79 785.133 944.59 794.2 929.123L823.4 879.923C833.533 862.857 843.8 850.723 854.2 843.523C864.6 836.59 877.267 833.123 892.2 833.123C912.733 833.123 929.133 840.19 941.4 854.323C953.933 868.723 960.2 887.523 960.2 910.723C960.2 924.323 958.2 937.79 954.2 951.123C950.467 964.457 944.867 975.39 937.4 983.923C930.2 992.723 921.8 997.123 912.2 997.123H869.4V989.923C896.067 985.39 915.133 976.723 926.6 963.923C938.333 951.39 944.2 933.657 944.2 910.723C944.2 898.457 940.467 887.657 933 878.323C925.533 868.99 915.8 864.323 903.8 864.323C892.867 864.323 883.8 867.657 876.6 874.323C869.4 881.257 861 892.723 851.4 908.723L822.2 957.923C811.267 976.057 801.133 988.857 791.8 996.323C782.467 1003.79 770.6 1007.52 756.2 1007.52C733.8 1007.52 715.8 1000.06 702.2 985.123C688.867 970.19 682.2 949.923 682.2 924.323ZM689 1096.4C689 1086.54 690.2 1079.07 692.6 1074C695.267 1069.2 699.933 1065.74 706.6 1063.6C713.267 1061.47 723.4 1060.4 737 1060.4H953V1096.4H737C723.4 1096.4 713.267 1098.27 706.6 1102C700.2 1105.74 697 1113.2 697 1124.4V1132.4H689V1096.4ZM681 1277.73C681 1252.93 687 1231.07 699 1212.13C711 1193.47 727.267 1179.07 747.8 1168.93C768.6 1158.8 791.667 1153.73 817 1153.73C843.133 1153.73 867.267 1159.2 889.4 1170.13C911.533 1181.33 929 1196.4 941.8 1215.33C954.6 1234.53 961 1255.33 961 1277.73C961 1299.07 957.933 1317.73 951.8 1333.73C945.933 1350 938.333 1362 929 1369.73C923.4 1374.27 915.933 1377.07 906.6 1378.13C897.533 1379.2 885 1379.73 869 1379.73V1371.73C894.867 1366.67 913.933 1357.33 926.2 1343.73C938.733 1330.13 945 1312.13 945 1289.73C945 1260.93 934.867 1237.73 914.6 1220.13C894.333 1202.53 861.8 1193.73 817 1193.73C795.933 1193.73 776.333 1197.07 758.2 1203.73C740.067 1210.67 725.267 1221.33 713.8 1235.73C702.6 1250.13 697 1268.13 697 1289.73C697 1309.2 701.667 1326.13 711 1340.53C720.333 1355.2 734.333 1368.27 753 1379.73L747 1387.73C723 1375.47 705.933 1360.27 695.8 1342.13C685.933 1324.27 681 1302.8 681 1277.73Z" fill="url(#paint3_linear_223_16)"/>
</g>
</g>
<defs>
<filter id="filter0_d_223_16" x="-140" y="-140" width="1880" height="1880" filterUnits="userSpaceOnUse" color-interpolation-filters="sRGB">
<feFlood flood-opacity="0" result="BackgroundImageFix"/>
<feColorMatrix in="SourceAlpha" type="matrix" values="0 0 0 0 0 0 0 0 0 0 0 0 0 0 0 0 0 0 127 0" result="hardAlpha"/>
<feOffset/>
<feGaussianBlur stdDeviation="70"/>
<feComposite in2="hardAlpha" operator="out"/>
<feColorMatrix type="matrix" values="0 0 0 0 0 0 0 0 0 0 0 0 0 0 0 0 0 0 0.25 0"/>
<feBlend mode="normal" in2="BackgroundImageFix" result="effect1_dropShadow_223_16"/>
<feBlend mode="normal" in="SourceGraphic" in2="effect1_dropShadow_223_16" result="shape"/>
</filter>
<linearGradient id="paint0_linear_223_16" x1="68" y1="69" x2="1531" y2="1531" gradientUnits="userSpaceOnUse">
<stop stop-color="#C32D26"/>
<stop offset="0.810958" stop-color="#E64242"/>
<stop offset="1" stop-color="#F8014B"/>
</linearGradient>
<linearGradient id="paint1_linear_223_16" x1="799.5" y1="85" x2="799.5" y2="145" gradientUnits="userSpaceOnUse">
<stop stop-color="white"/>
<stop offset="1" stop-color="white"/>
</linearGradient>
<linearGradient id="paint2_linear_223_16" x1="84" y1="582" x2="325.082" y2="1384.14" gradientUnits="userSpaceOnUse">
<stop offset="0.68144" stop-color="white"/>
<stop offset="1" stop-color="#FF244C"/>
</linearGradient>
<linearGradient id="paint3_linear_223_16" x1="984" y1="168" x2="439.558" y2="291.357" gradientUnits="userSpaceOnUse">
<stop offset="0.68144" stop-color="white"/>
<stop offset="1" stop-color="#FF244C"/>
</linearGradient>
<clipPath id="clip0_223_16">
<rect width="1600" height="1600" rx="100" fill="white"/>
</clipPath>
<clipPath id="clip1_223_16">
<rect x="68" y="69" width="1463" height="1462" rx="100" fill="white"/>
</clipPath>
</defs>
</svg>
