<svg width="200" height="200" viewBox="0 0 200 200" fill="none" xmlns="http://www.w3.org/2000/svg">
<g clip-path="url(#clip0_454_38)">
<path d="M0 31C0 14.4315 13.4315 1 30 1H170C186.569 1 200 14.4315 200 31V171C200 187.569 186.569 201 170 201H30C13.4315 201 0 187.569 0 171V31Z" fill="url(#paint0_angular_454_38)"/>
<g filter="url(#filter0_d_454_38)">
<path d="M123.924 106.216C124.089 105.75 124.218 105.273 124.311 104.788L116.318 150.118C102.891 132.657 90.133 114.416 75.8834 97.6217C75.6551 97.3526 75.4559 97.118 75.1202 97.1586C75.0012 97.1798 74.8894 97.2305 74.795 97.3062C74.7007 97.3818 74.6269 97.4799 74.5803 97.5914L82.1057 54.9128L82.3113 55.1779C88.87 63.6101 95.5547 71.9422 102.078 80.4021C108.634 88.8716 115.048 97.452 121.742 105.813C122.021 106.162 122.296 106.498 122.58 106.853C122.679 106.956 122.802 107.032 122.938 107.074C123.074 107.116 123.219 107.124 123.358 107.096C123.444 107.066 123.523 107.02 123.59 106.959C123.657 106.898 123.711 106.825 123.749 106.742C123.833 106.534 123.859 106.386 123.924 106.216Z" fill="#F3F8FF"/>
<path d="M74.4849 97.8332C74.3292 98.3389 74.2182 98.8573 74.153 99.3824C71.5944 113.893 70.7723 118.556 68.3227 133.08C30.4732 147.182 64.8498 152.776 27.0003 166.879L36.2934 114.174L45.5866 61.4703C45.6892 60.8595 45.8691 60.2643 46.1219 59.6989C46.3636 59.2109 46.6424 58.7422 46.9559 58.2969C47.4008 57.64 47.9059 57.0258 48.4645 56.4624L65.9948 44.1926C66.3583 43.9352 66.7577 43.7328 67.1803 43.5919C67.7981 43.3749 68.4547 43.2907 69.1073 43.345C71.0735 43.33 72.9765 44.0394 74.4531 45.3378C74.8317 45.6715 75.1772 46.041 75.4849 46.441L82.1086 54.8962L74.5832 97.5748C74.5444 97.6585 74.5115 97.7449 74.4849 97.8332Z" fill="#00ADB5"/>
<path d="M151.032 147.245C144.703 151.287 138.083 156.934 131.173 159.843C129.538 160.482 127.739 160.572 126.049 160.1C124.358 159.627 122.867 158.617 121.801 157.223L116.295 150.114L131.1 66.1493C168.808 52.5195 133.589 46.2796 171.296 32.6496C174.188 31.6042 158.439 111.728 155.52 128.645C155.461 128.981 153.145 142.114 153.087 142.444C152.791 144.621 152.493 146.041 151.032 147.245Z" fill="#00ADB5"/>
</g>
<g filter="url(#filter1_d_454_38)">
<path d="M147.813 102.341C147.255 102.132 146.775 101.479 146.451 100.513C146.127 99.5472 146.053 97.7171 146.193 95.2449C146.413 91.1983 145.881 88.0357 144.389 85.8411C142.896 83.6496 140.345 81.837 136.66 80.2786C132.939 78.7872 129.651 76.2163 127.096 72.8011C124.51 69.5083 122.385 66.4078 120.816 63.5199C119.265 61.0894 117.865 60.0484 116.712 60.4105C115.539 60.8867 114.771 61.8854 114.48 63.5367L110.791 84.4596C109.781 90.1872 108.694 96.3522 107.434 102.944C106.269 109.55 105.064 115.812 104.016 121.755L99.7245 146.095C99.395 148.533 98.5247 151.22 97.3294 154.071C96.0354 156.912 94.0927 159.521 91.6089 161.809C89.0336 164.077 85.8416 165.9 82.0582 167.164C78.2728 168.425 73.7613 168.767 68.5196 168.182C63.1831 167.581 58.6755 165.652 54.8809 162.483C51.083 159.317 48.3661 155.658 46.7215 151.508C45.0795 147.359 44.6472 143.079 45.5183 138.694C46.2952 134.288 48.7608 130.408 52.7039 127.13C56.6442 123.85 60.6831 121.722 64.7923 120.859C68.9015 119.995 72.7049 119.757 76.275 120.272C79.8451 120.787 82.9719 121.567 85.6202 122.828C88.288 123.979 90.2809 125.013 91.5079 125.909L99.1195 82.7416C101.236 70.7413 103.624 57.1942 106.382 42.1238C106.906 39.1539 108.005 36.8475 109.678 35.2143C111.351 33.581 113.273 32.7827 115.634 32.8589C117.518 32.848 118.973 33.5588 120.008 34.9898C121.04 36.4234 121.922 38.1673 122.801 40.4794C123.678 42.7911 124.787 45.4834 126.143 48.4483C127.502 51.4137 129.531 54.497 132.158 57.5715C134.434 60.3586 136.428 62.5242 138.268 63.8716C140.108 65.2189 141.757 66.5293 143.329 67.7151C144.902 68.9009 146.455 70.1977 147.871 71.696C149.386 73.2115 150.859 75.517 152.388 78.6236C153.937 81.6224 154.7 84.5969 154.675 87.5437C154.649 90.4904 154.183 93.1339 153.394 95.3772C152.601 97.6233 151.58 99.4859 150.464 100.766C149.347 102.047 148.465 102.571 147.813 102.341Z" fill="#393E46" fill-opacity="0.933333" shape-rendering="crispEdges"/>
</g>
</g>
<defs>
<filter id="filter0_d_454_38" x="11.0002" y="16.6394" width="184.649" height="174.239" filterUnits="userSpaceOnUse" color-interpolation-filters="sRGB">
<feFlood flood-opacity="0" result="BackgroundImageFix"/>
<feColorMatrix in="SourceAlpha" type="matrix" values="0 0 0 0 0 0 0 0 0 0 0 0 0 0 0 0 0 0 127 0" result="hardAlpha"/>
<feOffset dx="4" dy="4"/>
<feGaussianBlur stdDeviation="10"/>
<feComposite in2="hardAlpha" operator="out"/>
<feColorMatrix type="matrix" values="0 0 0 0 0 0 0 0 0 0 0 0 0 0 0 0 0 0 0.25 0"/>
<feBlend mode="normal" in2="BackgroundImageFix" result="effect1_dropShadow_454_38"/>
<feBlend mode="normal" in="SourceGraphic" in2="effect1_dropShadow_454_38" result="shape"/>
</filter>
<filter id="filter1_d_454_38" x="45.0781" y="28.854" width="119.597" height="143.605" filterUnits="userSpaceOnUse" color-interpolation-filters="sRGB">
<feFlood flood-opacity="0" result="BackgroundImageFix"/>
<feColorMatrix in="SourceAlpha" type="matrix" values="0 0 0 0 0 0 0 0 0 0 0 0 0 0 0 0 0 0 127 0" result="hardAlpha"/>
<feOffset dx="6"/>
<feGaussianBlur stdDeviation="2"/>
<feComposite in2="hardAlpha" operator="out"/>
<feColorMatrix type="matrix" values="0 0 0 0 0 0 0 0 0 0 0 0 0 0 0 0 0 0 0.25 0"/>
<feBlend mode="normal" in2="BackgroundImageFix" result="effect1_dropShadow_454_38"/>
<feBlend mode="normal" in="SourceGraphic" in2="effect1_dropShadow_454_38" result="shape"/>
</filter>
<radialGradient id="paint0_angular_454_38" cx="0" cy="0" r="1" gradientUnits="userSpaceOnUse" gradientTransform="translate(100 101) rotate(90) scale(100)">
<stop offset="0.372036" stop-color="#FDFBFB"/>
<stop offset="1" stop-color="#E2EBF0"/>
<stop offset="1" stop-color="#EBEDEE"/>
</radialGradient>
<clipPath id="clip0_454_38">
<rect width="200" height="200" fill="white"/>
</clipPath>
</defs>
</svg>
