<svg width="18" height="18" viewBox="0 0 18 18" fill="none" xmlns="http://www.w3.org/2000/svg">
<path d="M17.5 7.125L10.25 1C9.5625 0.40625 8.53125 0.40625 7.84375 1L0.5 7.125C0.34375 7.25 0.25 7.40625 0.25 7.625C0.25 7.96875 0.53125 8.25 0.875 8.25C1.03125 8.25 1.1875 8.1875 1.28125 8.09375L1.5 7.90625V14.875C1.5 16.2812 2.5625 17.4375 3.90625 17.4375H14.0938C15.4062 17.4375 16.5 16.2812 16.5 14.875V7.90625L16.6875 8.0625C16.8125 8.15625 16.9375 8.21875 17.125 8.21875C17.4688 8.21875 17.75 7.9375 17.75 7.59375C17.75 7.4375 17.6562 7.25 17.5 7.125ZM7.75 16.1875V11.8125C7.75 11.4688 8.03125 11.1875 8.375 11.1875H9.625C9.96875 11.1875 10.25 11.4688 10.25 11.8125V16.1875H7.75ZM15.25 14.875C15.25 15.5938 14.7188 16.1875 14.0625 16.1875H11.5V11.8125C11.5 10.7813 10.6562 9.9375 9.625 9.9375H8.375C7.34375 9.9375 6.5 10.7813 6.5 11.8125V16.1875H3.9375C3.28125 16.1875 2.75 15.5938 2.75 14.875V6.875L8.625 1.96875C8.84375 1.78125 9.1875 1.78125 9.4375 1.96875L15.25 6.84375V14.875Z" fill="#646B7C"/>
</svg>
