<svg width="18" height="20" viewBox="0 0 18 20" fill="none" xmlns="http://www.w3.org/2000/svg">
<path d="M9.125 19.375H2.75C1.75 19.375 0.875 18.5 0.875 17.5V2.5C0.875 1.5 1.75 0.625 2.75 0.625H15.25C16.25 0.625 17.125 1.5 17.125 2.5V10.125C17.125 10.5 16.875 10.75 16.5 10.75C16.125 10.75 15.875 10.5 15.875 10.125V2.5C15.875 2.125 15.625 1.875 15.25 1.875H2.75C2.375 1.875 2.125 2.125 2.125 2.5V17.5C2.125 17.875 2.375 18.125 2.75 18.125H9.125C9.5 18.125 9.75 18.375 9.75 18.75C9.75 19.125 9.5 19.375 9.125 19.375Z" fill="#646B7C"/>
<path d="M10.875 16.875C9.875 16.875 9 16.5 8.25 15.75C7.5 15 7.125 14.125 7.125 13.125C7.125 12.125 7.5 11.125 8.25 10.5C9.75 9 12.125 9 13.5 10.5C14.25 11.25 14.625 12.125 14.625 13.125C14.625 14.125 14.25 15.125 13.5 15.75C12.875 16.5 11.875 16.875 10.875 16.875ZM10.875 10.625C10.25 10.625 9.625 10.875 9.125 11.375C8.625 11.875 8.375 12.5 8.375 13.125C8.375 13.75 8.625 14.375 9.125 14.875C10.125 15.875 11.625 15.875 12.625 14.875C13.125 14.375 13.375 13.75 13.375 13.125C13.375 12.5 13.125 11.875 12.625 11.375C12.25 10.875 11.5 10.625 10.875 10.625Z" fill="#646B7C"/>
<path d="M15.375 18.25C15.25 18.25 15 18.25 14.875 18.125L13.125 16.25C12.875 16 12.875 15.625 13.125 15.375C13.375 15.125 13.75 15.125 14 15.375L15.75 17.125C16 17.375 16 17.75 15.75 18C15.625 18.125 15.5 18.25 15.375 18.25ZM14 5.625H4C3.625 5.625 3.375 5.375 3.375 5C3.375 4.625 3.625 4.375 4 4.375H14C14.375 4.375 14.625 4.625 14.625 5C14.625 5.375 14.375 5.625 14 5.625ZM8.375 9.375H4C3.625 9.375 3.375 9.125 3.375 8.75C3.375 8.375 3.625 8.125 4 8.125H8.375C8.75 8.125 9 8.375 9 8.75C9 9.125 8.75 9.375 8.375 9.375ZM5.25 13.125H4C3.625 13.125 3.375 12.875 3.375 12.5C3.375 12.125 3.625 11.875 4 11.875H5.25C5.625 11.875 5.875 12.125 5.875 12.5C5.875 12.875 5.625 13.125 5.25 13.125Z" fill="#646B7C"/>
</svg>
