<svg width="18" height="14" viewBox="0 0 18 14" fill="none" xmlns="http://www.w3.org/2000/svg">
<path d="M17.3595 9.28419H15.6902C15.4574 9.28419 15.2687 9.47286 15.2687 9.70568V12.525C15.2687 12.5254 15.2691 12.5258 15.2695 12.5258H17.3597C17.3881 12.5258 17.4109 12.5029 17.4109 12.4746V9.33536C17.4108 9.32179 17.4054 9.30879 17.3958 9.29921C17.3861 9.28963 17.3731 9.28423 17.3595 9.28419ZM1.64548 9.28419H3.45232C3.45271 9.28419 3.4531 9.28458 3.4531 9.28497V12.5252C3.4531 12.5256 3.45271 12.526 3.45232 12.526H1.36209C1.33376 12.526 1.31091 12.5031 1.31091 12.4748V9.61876C1.31091 9.434 1.46072 9.28419 1.64548 9.28419Z" fill="#646B7C"/>
<path d="M16.1912 7.60353H14.5818C14.5814 7.60353 14.581 7.60314 14.581 7.60274V6.39708C14.581 3.37189 12.107 0.816807 9.0822 0.773057C5.96716 0.72794 3.41873 3.24884 3.41873 6.35353V7.60274C3.41873 7.60314 3.41834 7.60353 3.41794 7.60353H1.80857C0.90271 7.60353 0.168335 8.3379 0.168335 9.24376V11.5877C0.168335 12.4936 0.90271 13.2279 1.80857 13.2279H3.30701C3.75837 13.2279 4.12439 12.8619 4.12439 12.4106V6.39239C4.12439 3.70704 6.32146 1.47442 9.00681 1.47833C11.6918 1.48224 13.8748 3.66778 13.8748 6.35353V12.4104C13.8748 12.8617 14.2408 13.2277 14.6922 13.2277H16.1906C17.0965 13.2277 17.8308 12.4934 17.8308 11.5875V9.24356C17.8312 8.33771 17.097 7.60353 16.1912 7.60353ZM3.41892 12.4104C3.41892 12.4719 3.36892 12.5219 3.3074 12.5219H1.80896C1.29294 12.5219 0.874585 12.1035 0.874585 11.5875V9.24356C0.874585 8.72755 1.29294 8.30919 1.80896 8.30919H3.41833C3.41873 8.30919 3.41912 8.30958 3.41912 8.30997L3.41892 12.4104ZM17.1254 11.5875C17.1254 12.1035 16.707 12.5219 16.191 12.5219H14.6926C14.631 12.5219 14.581 12.4719 14.581 12.4104V8.30997C14.581 8.30958 14.5814 8.30919 14.5818 8.30919H16.1912C16.7072 8.30919 17.1256 8.72755 17.1256 9.24356L17.1254 11.5875Z" fill="#646B7C"/>
<path d="M5.75505 10.332C5.62517 10.3301 5.52361 10.2182 5.52361 10.0883V7.42189C5.52361 7.292 5.62517 7.18028 5.75505 7.17814C5.88669 7.17599 5.99412 7.28224 5.99412 7.41349V10.0969C5.99412 10.2279 5.88669 10.3342 5.75505 10.332ZM12.2521 10.9223C12.1222 10.9203 12.0207 10.8084 12.0207 10.6785V8.01212C12.0207 7.88224 12.1222 7.77052 12.2521 7.76837C12.3838 7.76622 12.4912 7.87247 12.4912 8.00372V10.6871C12.4912 10.8184 12.3838 10.9244 12.2521 10.9223ZM7.37927 12.4572C7.24939 12.4553 7.14783 12.3434 7.14783 12.2135V6.95939C7.14783 6.8295 7.24939 6.71778 7.37927 6.71564C7.51091 6.71349 7.61834 6.81974 7.61834 6.95099V12.2221C7.61834 12.3531 7.51091 12.4594 7.37927 12.4572ZM10.6279 9.99806C10.498 9.99611 10.3965 9.88419 10.3965 9.75431V5.36349C10.3965 5.2336 10.498 5.12189 10.6279 5.11974C10.7595 5.11759 10.867 5.22384 10.867 5.35509V9.7629C10.867 9.89396 10.7595 10.0002 10.6279 9.99806ZM9.00349 12.4572C8.87361 12.4553 8.77205 12.3434 8.77205 12.2135V4.76193C8.77205 4.63204 8.87361 4.52032 9.00349 4.51817C9.13513 4.51603 9.24255 4.62228 9.24255 4.75353V12.2221C9.24255 12.3531 9.13513 12.4594 9.00349 12.4572Z" fill="#646B7C"/>
</svg>
