<svg width="17" height="18" viewBox="0 0 17 18" fill="none" xmlns="http://www.w3.org/2000/svg">
<path d="M13.9583 17.0833H2.70833C1.20833 17.0833 0 15.875 0 14.375V3.12496C0 1.62496 1.20833 0.416626 2.70833 0.416626H13.9167C15.4167 0.416626 16.625 1.62496 16.625 3.12496V14.3333C16.6667 15.875 15.4583 17.0833 13.9583 17.0833ZM2.70833 1.66663C1.91667 1.66663 1.25 2.33329 1.25 3.12496V14.3333C1.25 15.125 1.91667 15.7916 2.70833 15.7916H13.9167C14.7083 15.7916 15.375 15.125 15.375 14.3333V3.12496C15.4167 2.33329 14.75 1.66663 13.9583 1.66663H2.70833Z" fill="#646B7C"/>
<path d="M7.5 11.375C7.20833 11.375 6.95833 11.25 6.75 11.0833L4.58333 8.87496C4.29167 8.66663 4.20833 8.29163 4.41667 7.99996C4.625 7.70829 5 7.62496 5.29167 7.83329C5.33333 7.87496 5.41667 7.91663 5.45833 7.99996L7.54167 10.0416L11.25 6.33329C11.5417 6.12496 11.9167 6.20829 12.125 6.49996C12.2917 6.70829 12.25 6.99996 12.125 7.20829L8.25 11.0833C8.04167 11.25 7.79167 11.375 7.5 11.375Z" fill="#646B7C"/>
</svg>
