<svg width="18" height="18" viewBox="0 0 18 18" fill="none" xmlns="http://www.w3.org/2000/svg">
<path d="M8.96888 17.7581C7.79134 17.7581 6.64861 17.5273 5.57242 17.0721C4.53337 16.6326 3.60034 16.0036 2.7993 15.2026C1.99826 14.4015 1.36925 13.4685 0.929769 12.4294C0.474578 11.3532 0.243774 10.2105 0.243774 9.03299C0.243774 7.85544 0.474578 6.71272 0.929769 5.63653C1.36925 4.59745 1.99826 3.66445 2.7993 2.86341C3.60034 2.06235 4.53337 1.43336 5.57242 0.993856C6.64863 0.538665 7.79134 0.307861 8.96888 0.307861C10.1464 0.307861 11.2891 0.538665 12.3653 0.993856C13.4044 1.43336 14.3374 2.06235 15.1385 2.86341C15.9395 3.66445 16.5685 4.59747 17.008 5.63653C17.4632 6.71272 17.694 7.85544 17.694 9.03299C17.694 10.2105 17.4632 11.3533 17.008 12.4294C16.5685 13.4685 15.9395 14.4015 15.1385 15.2026C14.3374 16.0036 13.4044 16.6326 12.3653 17.0721C11.2891 17.5273 10.1464 17.7581 8.96888 17.7581ZM8.96888 1.54702C6.96931 1.54702 5.08943 2.32569 3.67551 3.73961C2.26159 5.15354 1.48291 7.03342 1.48291 9.03299C1.48291 11.0325 2.26159 12.9124 3.67551 14.3264C5.08941 15.7403 6.96931 16.5189 8.96888 16.5189C10.9684 16.5189 12.8483 15.7403 14.2623 14.3264C15.6762 12.9124 16.4548 11.0325 16.4548 9.03299C16.4548 7.03342 15.6762 5.15354 14.2623 3.73961C12.8483 2.32569 10.9685 1.54702 8.96888 1.54702Z" fill="#646B7C"/>
<path d="M12.7568 9.01056H9.01427V4.70412H7.03541V10.9894H12.7568V9.01056Z" fill="#646B7C"/>
</svg>
