<svg width="18" height="20" viewBox="0 0 18 20" fill="none" xmlns="http://www.w3.org/2000/svg">
<path d="M12.2907 15.9977H1.64304V2.22998H12.2888V4.75082L13.619 5.48575V1.33411C13.6192 1.15917 13.585 0.985886 13.5183 0.824162C13.4516 0.662438 13.3537 0.515438 13.2302 0.391554C13.1067 0.267671 12.9599 0.16933 12.7984 0.102147C12.6369 0.0349641 12.4637 0.000254461 12.2888 0H1.64304C1.46809 0.000254464 1.29491 0.0349641 1.13339 0.102147C0.971857 0.16933 0.825142 0.267671 0.701618 0.391554C0.578095 0.515438 0.480182 0.662438 0.413469 0.824162C0.346757 0.985886 0.312552 1.15917 0.312807 1.33411V18.6659C0.312552 18.8408 0.346757 19.0141 0.413469 19.1758C0.480182 19.3376 0.578095 19.4846 0.701618 19.6084C0.825142 19.7323 0.971857 19.8307 1.13339 19.8979C1.29491 19.965 1.46809 19.9997 1.64304 20H12.2888C12.4637 19.9997 12.6369 19.965 12.7984 19.8979C12.9599 19.8307 13.1067 19.7323 13.2302 19.6084C13.3537 19.4846 13.4516 19.3376 13.5183 19.1758C13.585 19.0141 13.6192 18.8408 13.619 18.6659V15.3403C13.4869 15.4351 13.3497 15.5225 13.2079 15.6021C12.909 15.7469 12.6028 15.8763 12.2907 15.9899V15.9977ZM5.41461 1.11111C5.41435 1.08175 5.41994 1.05264 5.43106 1.02547C5.44217 0.998296 5.45859 0.97361 5.47935 0.952851C5.50011 0.932092 5.52479 0.915676 5.55197 0.904561C5.57914 0.893446 5.60825 0.887855 5.63761 0.888113H7.85595C7.88531 0.887855 7.91442 0.893446 7.9416 0.904561C7.96877 0.915676 7.99345 0.932092 8.01421 0.952851C8.03497 0.97361 8.05139 0.998296 8.0625 1.02547C8.07362 1.05264 8.07921 1.08175 8.07895 1.11111V1.33411C8.07793 1.3924 8.05392 1.44793 8.01216 1.4886C7.97039 1.52928 7.91425 1.55181 7.85595 1.55129H5.63567C5.57737 1.55181 5.52123 1.52928 5.47946 1.4886C5.4377 1.44793 5.41369 1.3924 5.41267 1.33411L5.41461 1.11111ZM6.9659 18.664C6.79017 18.664 6.61838 18.6118 6.47229 18.5141C6.3262 18.4165 6.21237 18.2776 6.14521 18.1153C6.07804 17.9529 6.06057 17.7742 6.095 17.6019C6.12942 17.4295 6.2142 17.2713 6.3386 17.1472C6.463 17.023 6.62142 16.9386 6.79383 16.9046C6.96623 16.8705 7.14486 16.8884 7.30711 16.9559C7.46936 17.0234 7.60793 17.1375 7.70528 17.2838C7.80264 17.4301 7.8544 17.602 7.85401 17.7778C7.8535 18.013 7.7597 18.2384 7.59321 18.4045C7.42671 18.5707 7.20111 18.664 6.9659 18.664Z" fill="#646B7C"/>
<path d="M10.7161 6.91099C10.7161 6.50378 11.0051 6.33896 11.356 6.54256L17.4235 10.0446C17.7745 10.2385 17.7745 10.5817 17.4235 10.7834L11.356 14.2854C11.0051 14.4793 10.7161 14.3223 10.7161 13.917V6.91099Z" fill="#646B7C"/>
</svg>
