<svg width="18" height="18" viewBox="0 0 18 18" fill="none" xmlns="http://www.w3.org/2000/svg">
<path d="M8.03125 1.21875L4.20312 6.07812L2.46875 4.34375C2.10938 3.98438 1.51562 3.98438 1.14062 4.34375C0.78125 4.70313 0.78125 5.29688 1.14062 5.67188L3.54688 8.0625L3.59375 8.10938C3.9375 8.45312 4.5 8.45312 4.82812 8.10938V8.09375C4.84375 8.07812 4.85938 8.07812 4.85938 8.0625C4.92188 8 4.98437 7.9375 5.03125 7.85938L9.26562 2.45312C9.60938 2.10938 9.60938 1.5625 9.26562 1.21875C8.9375 0.875 8.375 0.875 8.03125 1.21875ZM7.64062 9.67188H2.39063C1.8125 9.67188 1.34375 10.1406 1.34375 10.7188V15.9844C1.34375 16.5625 1.8125 17.0312 2.39063 17.0312H7.65625C8.23438 17.0312 8.70312 16.5625 8.70312 15.9844V10.7188C8.70312 10.1406 8.23438 9.67188 7.64062 9.67188ZM7.20313 15.5469H2.82813V11.1719H7.20313V15.5469ZM16.0781 9.67188H10.8125C10.2344 9.67188 9.76563 10.1406 9.76563 10.7188V15.9844C9.76563 16.5625 10.2344 17.0312 10.8125 17.0312H16.0781C16.6563 17.0312 17.125 16.5625 17.125 15.9844V10.7188C17.125 10.1406 16.6563 9.67188 16.0781 9.67188ZM15.5469 15.4688H11.3281V11.25H15.5469V15.4688ZM16.0781 1.25H10.8125C10.2344 1.25 9.76563 1.71875 9.76563 2.29688V7.5625C9.76563 8.14062 10.2344 8.60938 10.8125 8.60938H16.0781C16.6563 8.60938 17.125 8.14062 17.125 7.5625V2.29688C17.125 1.71875 16.6563 1.25 16.0781 1.25ZM15.625 7.125H11.25V2.75H15.625V7.125Z" fill="#646B7C"/>
</svg>
