<svg width="18" height="18" viewBox="0 0 18 18" fill="none" xmlns="http://www.w3.org/2000/svg">
<path d="M17.125 17.75C16.9688 17.75 16.8125 17.6875 16.6875 17.5625L12.6875 13.5938C12.4375 13.3438 12.4375 12.9688 12.6875 12.7188C12.9375 12.4688 13.3125 12.4688 13.5625 12.7188L17.5312 16.6875C17.7812 16.9375 17.7812 17.3125 17.5312 17.5625C17.4375 17.6875 17.2812 17.75 17.125 17.75ZM8.0625 15.875C3.75 15.875 0.25 12.375 0.25 8.0625C0.25 3.75 3.75 0.25 8.0625 0.25C12.375 0.25 15.875 3.75 15.875 8.0625C15.875 9.21875 15.625 10.3125 15.1562 11.3438C15 11.6562 14.625 11.7812 14.3125 11.6562C14 11.5 13.875 11.125 14 10.8125C14.4375 9.9375 14.625 9.03125 14.625 8.0625C14.625 4.4375 11.6875 1.5 8.0625 1.5C4.4375 1.5 1.5 4.4375 1.5 8.0625C1.5 11.6875 4.4375 14.625 8.0625 14.625C9.8125 14.625 11.4688 13.9375 12.6875 12.6875C12.9375 12.4375 13.3125 12.4375 13.5625 12.6875C13.8125 12.9375 13.8125 13.3125 13.5625 13.5625C12.125 15.0625 10.1562 15.875 8.0625 15.875Z" fill="#646B7C"/>
</svg>
