<svg width="20" height="18" viewBox="0 0 20 18" fill="none" xmlns="http://www.w3.org/2000/svg">
<path d="M15.0938 2.125L18.2812 5.28125L16.5 7.0625C16.25 6.84375 15.9687 6.75 15.6562 6.75C14.9375 6.75 14.375 7.3125 14.375 8.03125V14.625C14.375 15.3125 13.8125 15.875 13.125 15.875H6.875C6.1875 15.875 5.625 15.3125 5.625 14.625V8.03125C5.625 7.3125 5.0625 6.75 4.34375 6.75C4.03125 6.75 3.71875 6.875 3.5 7.0625L1.71875 5.28125L4.875 2.125H5.65625L5.6875 2.15625C6.5625 3.46875 8.21875 4.3125 10 4.3125C11.7812 4.3125 13.4375 3.5 14.3125 2.15625C14.3125 2.125 14.3438 2.125 14.3438 2.125H15.0938ZM5.6875 0.875H5C4.5625 0.875 4.25 1 4.03125 1.25L0.84375 4.40625C0.34375 4.90625 0.34375 5.6875 0.84375 6.15625L2.6875 8C2.90625 8.21875 3.21875 8.34375 3.5 8.34375C3.78125 8.34375 4.09375 8.21875 4.3125 8H4.34375C4.375 8 4.375 8 4.375 8.03125V14.625C4.375 16 5.5 17.125 6.875 17.125H13.125C14.5 17.125 15.625 16 15.625 14.625V8.03125C15.625 8 15.625 8 15.6562 8H15.6875C15.9062 8.21875 16.2188 8.34375 16.5 8.34375C16.8125 8.34375 17.0938 8.21875 17.3125 8L19.1562 6.15625C19.6562 5.65625 19.6562 4.875 19.1562 4.40625L16 1.25C15.75 1 15.4375 0.875 15.0938 0.875H14.3125C13.875 0.875 13.5 1.09375 13.25 1.46875C12.5938 2.4375 11.375 3.0625 9.96875 3.0625C8.5625 3.0625 7.34375 2.40625 6.6875 1.46875C6.5 1.09375 6.09375 0.875 5.6875 0.875Z" fill="#646B7C"/>
</svg>
