<svg width="16" height="17" viewBox="0 0 16 17" fill="none" xmlns="http://www.w3.org/2000/svg">
<path d="M14.9231 9.15383H1.07691C0.872896 9.15383 0.677239 9.07279 0.532981 8.92853C0.388722 8.78427 0.307678 8.58861 0.307678 8.3846C0.307678 8.18059 0.388722 7.98493 0.532981 7.84067C0.677239 7.69641 0.872896 7.61537 1.07691 7.61537H14.9231C15.1271 7.61537 15.3227 7.69641 15.467 7.84067C15.6112 7.98493 15.6923 8.18059 15.6923 8.3846C15.6923 8.58861 15.6112 8.78427 15.467 8.92853C15.3227 9.07279 15.1271 9.15383 14.9231 9.15383ZM12.6154 1.84614H3.3846C3.18059 1.84614 2.98493 1.7651 2.84067 1.62084C2.69641 1.47658 2.61537 1.28092 2.61537 1.07691C2.61537 0.872896 2.69641 0.677239 2.84067 0.532981C2.98493 0.388722 3.18059 0.307678 3.3846 0.307678H12.6154C12.8194 0.307678 13.015 0.388722 13.1593 0.532981C13.3036 0.677239 13.3846 0.872896 13.3846 1.07691C13.3846 1.28092 13.3036 1.47658 13.1593 1.62084C13.015 1.7651 12.8194 1.84614 12.6154 1.84614ZM3.3846 14.5384H12.6154C12.8194 14.5384 13.015 14.6195 13.1593 14.7637C13.3036 14.908 13.3846 15.1037 13.3846 15.3077C13.3846 15.5117 13.3036 15.7073 13.1593 15.8516C13.015 15.9959 12.8194 16.0769 12.6154 16.0769H3.3846C3.18059 16.0769 2.98493 15.9959 2.84067 15.8516C2.69641 15.7073 2.61537 15.5117 2.61537 15.3077C2.61537 15.1037 2.69641 14.908 2.84067 14.7637C2.98493 14.6195 3.18059 14.5384 3.3846 14.5384Z" fill="#646B7C"/>
</svg>
