<svg width="18" height="18" viewBox="0 0 18 18" fill="none" xmlns="http://www.w3.org/2000/svg">
<path d="M8.99999 12.75C6.93749 12.75 5.24999 11.0625 5.24999 9C5.24999 6.9375 6.93749 5.25 8.99999 5.25C11.0625 5.25 12.75 6.9375 12.75 9C12.75 11.0625 11.0625 12.75 8.99999 12.75ZM8.99999 6.5C7.62499 6.5 6.49999 7.625 6.49999 9C6.49999 10.375 7.62499 11.5 8.99999 11.5C10.375 11.5 11.5 10.375 11.5 9C11.5 7.625 10.375 6.5 8.99999 6.5ZM10.4687 17.75H7.56249C6.65624 17.75 5.90624 17 5.90624 16.0938C5.90624 15.9375 5.81249 15.7812 5.65624 15.7188C5.40624 15.5938 5.15624 15.4375 4.90624 15.2812C4.74999 15.1875 4.59374 15.1875 4.46874 15.25C3.65624 15.7188 2.65624 15.4375 2.18749 14.625L0.687488 12.125C0.468738 11.75 0.406238 11.2812 0.531238 10.8438C0.656238 10.4062 0.937488 10.0625 1.31249 9.84375C1.43749 9.75 1.53124 9.59375 1.53124 9.4375V8.5625C1.53124 8.40625 1.46874 8.25 1.31249 8.15625C0.499988 7.6875 0.249988 6.6875 0.687488 5.875L2.15624 3.34375C2.62499 2.53125 3.62499 2.28125 4.43749 2.71875C4.56249 2.78125 4.74999 2.78125 4.87499 2.6875C5.12499 2.53125 5.37499 2.375 5.62499 2.25C5.78124 2.1875 5.87499 2.03125 5.87499 1.875C5.87499 1 6.62499 0.25 7.53124 0.25H10.4375C11.375 0.25 12.125 1 12.125 1.90625C12.125 2.0625 12.2187 2.21875 12.375 2.28125C12.625 2.40625 12.875 2.5625 13.125 2.71875C13.2812 2.8125 13.4375 2.8125 13.5937 2.75C13.9687 2.53125 14.4375 2.46875 14.8437 2.59375C15.2812 2.71875 15.625 3 15.8437 3.375L17.3125 5.90625C17.7812 6.71875 17.5 7.71875 16.6875 8.1875C16.5625 8.28125 16.4687 8.4375 16.4687 8.59375V9.46875C16.4687 9.625 16.5312 9.78125 16.6875 9.875C17.0625 10.0938 17.3437 10.4688 17.4687 10.875C17.5937 11.2812 17.5312 11.75 17.3125 12.1562L15.8437 14.625C15.375 15.4062 14.375 15.6875 13.5625 15.25C13.4375 15.1562 13.25 15.1875 13.0937 15.2812C12.8437 15.4375 12.5937 15.5938 12.3437 15.7188C12.1875 15.7812 12.0937 15.9375 12.0937 16.0938C12.125 17 11.375 17.75 10.4687 17.75ZM4.62499 13.9375C4.93749 13.9375 5.28124 14.0312 5.56249 14.2188C5.74999 14.3438 5.96874 14.4688 6.18749 14.5625C6.74999 14.8438 7.12499 15.4375 7.12499 16.0625C7.12499 16.2812 7.31249 16.4688 7.53124 16.4688H10.4375C10.6562 16.4688 10.8437 16.2812 10.8437 16.0625C10.8437 15.4375 11.1875 14.8438 11.7812 14.5625C12 14.4688 12.1875 14.3438 12.4062 14.2188C12.9375 13.875 13.625 13.8438 14.1562 14.1562C14.3437 14.2812 14.625 14.1875 14.7187 14L16.1875 11.4688C16.25 11.375 16.25 11.25 16.2187 11.1562C16.1875 11.0625 16.125 10.9688 16.0312 10.9062C15.4687 10.5938 15.1562 10 15.1875 9.34375V8.65625C15.1562 8 15.4687 7.40625 16.0312 7.09375C16.2187 6.96875 16.3125 6.71875 16.1875 6.53125L14.7812 4C14.7187 3.90625 14.625 3.84375 14.5312 3.8125C14.4375 3.78125 14.3125 3.8125 14.2187 3.84375C13.6562 4.15625 13 4.125 12.4687 3.78125C12.2812 3.65625 12.0625 3.53125 11.8437 3.4375C11.2812 3.15625 10.9062 2.5625 10.9062 1.9375C10.875 1.6875 10.6875 1.5 10.4687 1.5H7.56249C7.31249 1.5 7.12499 1.6875 7.12499 1.90625C7.12499 2.53125 6.78124 3.125 6.18749 3.40625C5.96874 3.5 5.78124 3.625 5.56249 3.75C5.03124 4.09375 4.34374 4.125 3.78124 3.8125C3.59374 3.6875 3.31249 3.78125 3.21874 3.96875L1.78124 6.5C1.65624 6.6875 1.74999 6.96875 1.93749 7.0625C2.49999 7.375 2.81249 7.96875 2.78124 8.625V9.3125C2.81249 9.96875 2.49999 10.5625 1.93749 10.875C1.84374 10.9375 1.78124 11.0312 1.74999 11.125C1.71874 11.2188 1.74999 11.3438 1.78124 11.4375L3.24999 13.9688C3.37499 14.1562 3.62499 14.25 3.81249 14.125C4.06249 14 4.34374 13.9375 4.62499 13.9375Z" fill="#646B7C"/>
</svg>
