<svg width="14" height="18" viewBox="0 0 14 18" fill="none" xmlns="http://www.w3.org/2000/svg">
<path d="M12.6587 6.12499C12.493 6.12499 12.334 6.19084 12.2168 6.30805C12.0996 6.42526 12.0337 6.58423 12.0337 6.74999V8.53499C12.0337 11.06 9.775 13.1137 7 13.1137C4.225 13.1137 1.96625 11.0587 1.96625 8.53499V6.67999C1.96625 6.51423 1.9004 6.35526 1.78319 6.23805C1.66598 6.12084 1.50701 6.05499 1.34125 6.05499C1.17549 6.05499 1.01652 6.12084 0.899306 6.23805C0.782095 6.35526 0.716248 6.51423 0.716248 6.67999V8.53499C0.716248 11.6187 3.31875 14.125 6.58875 14.325V16.5025H3.985C3.67 16.5025 3.415 16.7825 3.415 17.1287C3.415 17.4737 3.67 17.7525 3.985 17.7525H10.2162C10.53 17.7525 10.7862 17.4737 10.7862 17.1287C10.7862 16.7825 10.53 16.5025 10.2162 16.5025H7.83875V14.2862C10.905 13.9 13.2837 11.4837 13.2837 8.53499V6.74999C13.2837 6.40374 13.005 6.12499 12.6587 6.12499ZM7.1 12.255C8.12984 12.254 9.11724 11.8445 9.84557 11.1164C10.5739 10.3884 10.9837 9.40108 10.985 8.37124V4.24874C10.9833 3.219 10.5735 2.23192 9.84521 1.5039C9.11695 0.775877 8.12974 0.366312 7.1 0.36499C6.07048 0.366314 5.08354 0.775958 4.35568 1.50405C3.62782 2.23215 3.21849 3.21923 3.2175 4.24874V8.37124C3.21849 9.40075 3.62782 10.3878 4.35568 11.1159C5.08354 11.844 6.07048 12.2537 7.1 12.255Z" fill="#646B7C"/>
</svg>
