<svg width="20" height="20" viewBox="0 0 20 20" fill="none" xmlns="http://www.w3.org/2000/svg">
<path d="M5 3.75V1.875C5 1.37772 4.80246 0.900806 4.45083 0.549175C4.09919 0.197544 3.62228 0 3.125 0C2.62772 0 2.15081 0.197544 1.79917 0.549175C1.44754 0.900806 1.25 1.37772 1.25 1.875V3.75C0.861887 4.04108 0.546877 4.41853 0.329915 4.85246C0.112953 5.28638 0 5.76486 0 6.25C0 6.73514 0.112953 7.21362 0.329915 7.64754C0.546877 8.08147 0.861887 8.45892 1.25 8.75V18.125C1.25 18.6223 1.44754 19.0992 1.79917 19.4508C2.15081 19.8025 2.62772 20 3.125 20C3.62228 20 4.09919 19.8025 4.45083 19.4508C4.80246 19.0992 5 18.6223 5 18.125V8.75C5.38811 8.45892 5.70312 8.08147 5.92008 7.64754C6.13705 7.21362 6.25 6.73514 6.25 6.25C6.25 5.76486 6.13705 5.28638 5.92008 4.85246C5.70312 4.41853 5.38811 4.04108 5 3.75ZM2.5 1.875C2.5 1.70924 2.56585 1.55027 2.68306 1.43306C2.80027 1.31585 2.95924 1.25 3.125 1.25C3.29076 1.25 3.44973 1.31585 3.56694 1.43306C3.68415 1.55027 3.75 1.70924 3.75 1.875V3.1875C3.33747 3.1045 2.91253 3.1045 2.5 3.1875V1.875ZM3.75 18.125C3.75 18.2908 3.68415 18.4497 3.56694 18.5669C3.44973 18.6842 3.29076 18.75 3.125 18.75C2.95924 18.75 2.80027 18.6842 2.68306 18.5669C2.56585 18.4497 2.5 18.2908 2.5 18.125V9.3125C2.91241 9.39668 3.33759 9.39668 3.75 9.3125V18.125ZM4.91875 6.775V6.875C4.86145 7.03945 4.78151 7.19511 4.68125 7.3375C4.57223 7.48716 4.44165 7.61985 4.29375 7.73125C3.96919 7.97467 3.57444 8.10625 3.16875 8.10625C2.76306 8.10625 2.36831 7.97467 2.04375 7.73125C1.89585 7.61985 1.76527 7.48716 1.65625 7.3375C1.53622 7.19855 1.43724 7.04272 1.3625 6.875V6.775C1.2504 6.43398 1.2504 6.06602 1.3625 5.725V5.625C1.4198 5.46055 1.49974 5.30489 1.6 5.1625C1.70902 5.01284 1.8396 4.88015 1.9875 4.76875C2.14296 4.64937 2.3158 4.55452 2.5 4.4875C2.70042 4.41474 2.91179 4.37669 3.125 4.375C3.33821 4.37669 3.54958 4.41474 3.75 4.4875C3.92907 4.5518 4.09758 4.64237 4.25 4.75625C4.3979 4.86765 4.52848 5.00034 4.6375 5.15C4.74318 5.29552 4.82738 5.4555 4.8875 5.625V5.725C4.9996 6.06602 4.9996 6.43398 4.8875 6.775H4.91875ZM18.75 3.75V1.875C18.75 1.37772 18.5525 0.900806 18.2008 0.549175C17.8492 0.197544 17.3723 0 16.875 0C16.3777 0 15.9008 0.197544 15.5492 0.549175C15.1975 0.900806 15 1.37772 15 1.875V3.75C14.6119 4.04108 14.2969 4.41853 14.0799 4.85246C13.863 5.28638 13.75 5.76486 13.75 6.25C13.75 6.73514 13.863 7.21362 14.0799 7.64754C14.2969 8.08147 14.6119 8.45892 15 8.75V18.125C15 18.6223 15.1975 19.0992 15.5492 19.4508C15.9008 19.8025 16.3777 20 16.875 20C17.3723 20 17.8492 19.8025 18.2008 19.4508C18.5525 19.0992 18.75 18.6223 18.75 18.125V8.75C19.1381 8.45892 19.4531 8.08147 19.6701 7.64754C19.887 7.21362 20 6.73514 20 6.25C20 5.76486 19.887 5.28638 19.6701 4.85246C19.4531 4.41853 19.1381 4.04108 18.75 3.75ZM16.25 1.875C16.25 1.70924 16.3158 1.55027 16.4331 1.43306C16.5503 1.31585 16.7092 1.25 16.875 1.25C17.0408 1.25 17.1997 1.31585 17.3169 1.43306C17.4342 1.55027 17.5 1.70924 17.5 1.875V3.1875C17.0875 3.1045 16.6625 3.1045 16.25 3.1875V1.875ZM17.5 18.125C17.5 18.2908 17.4342 18.4497 17.3169 18.5669C17.1997 18.6842 17.0408 18.75 16.875 18.75C16.7092 18.75 16.5503 18.6842 16.4331 18.5669C16.3158 18.4497 16.25 18.2908 16.25 18.125V9.3125C16.6624 9.39668 17.0876 9.39668 17.5 9.3125V18.125ZM18.6688 6.775V6.875C18.6114 7.03945 18.5315 7.19511 18.4312 7.3375C18.3222 7.48716 18.1917 7.61985 18.0438 7.73125C17.7192 7.97467 17.3244 8.10625 16.9188 8.10625C16.5131 8.10625 16.1183 7.97467 15.7938 7.73125C15.6459 7.61985 15.5153 7.48716 15.4062 7.3375C15.306 7.19511 15.2261 7.03945 15.1688 6.875V6.775C15.0567 6.43398 15.0567 6.06602 15.1688 5.725V5.625C15.2261 5.46055 15.306 5.30489 15.4062 5.1625C15.5153 5.01284 15.6459 4.88015 15.7938 4.76875C15.9462 4.65487 16.1147 4.5643 16.2938 4.5C16.6964 4.34728 17.1411 4.34728 17.5438 4.5C17.7228 4.5643 17.8913 4.65487 18.0438 4.76875C18.1917 4.88015 18.3222 5.01284 18.4312 5.1625C18.5315 5.30489 18.6114 5.46055 18.6688 5.625V5.725C18.7808 6.06602 18.7808 6.43398 18.6688 6.775ZM11.875 11.25V1.875C11.875 1.37772 11.6775 0.900806 11.3258 0.549175C10.9742 0.197544 10.4973 0 10 0C9.50272 0 9.02581 0.197544 8.67417 0.549175C8.32254 0.900806 8.125 1.37772 8.125 1.875V11.25C7.73689 11.5411 7.42188 11.9185 7.20492 12.3525C6.98795 12.7864 6.875 13.2649 6.875 13.75C6.875 14.2351 6.98795 14.7136 7.20492 15.1475C7.42188 15.5815 7.73689 15.9589 8.125 16.25V18.125C8.125 18.6223 8.32254 19.0992 8.67417 19.4508C9.02581 19.8025 9.50272 20 10 20C10.4973 20 10.9742 19.8025 11.3258 19.4508C11.6775 19.0992 11.875 18.6223 11.875 18.125V16.25C12.2631 15.9589 12.5781 15.5815 12.7951 15.1475C13.012 14.7136 13.125 14.2351 13.125 13.75C13.125 13.2649 13.012 12.7864 12.7951 12.3525C12.5781 11.9185 12.2631 11.5411 11.875 11.25ZM9.375 1.875C9.375 1.70924 9.44085 1.55027 9.55806 1.43306C9.67527 1.31585 9.83424 1.25 10 1.25C10.1658 1.25 10.3247 1.31585 10.4419 1.43306C10.5592 1.55027 10.625 1.70924 10.625 1.875V10.6875C10.2125 10.6045 9.78753 10.6045 9.375 10.6875V1.875ZM10.625 18.125C10.625 18.2908 10.5592 18.4497 10.4419 18.5669C10.3247 18.6842 10.1658 18.75 10 18.75C9.83424 18.75 9.67527 18.6842 9.55806 18.5669C9.44085 18.4497 9.375 18.2908 9.375 18.125V16.8125C9.78741 16.8967 10.2126 16.8967 10.625 16.8125V18.125ZM11.7938 14.275V14.375C11.7364 14.5394 11.6565 14.6951 11.5562 14.8375C11.4472 14.9872 11.3167 15.1199 11.1688 15.2313C10.8442 15.4747 10.4494 15.6062 10.0437 15.6062C9.63806 15.6062 9.24331 15.4747 8.91875 15.2313C8.77085 15.1199 8.64027 14.9872 8.53125 14.8375C8.43099 14.6951 8.35106 14.5394 8.29375 14.375V14.275C8.18165 13.934 8.18165 13.566 8.29375 13.225V13.125C8.35106 12.9606 8.43099 12.8049 8.53125 12.6625C8.64027 12.5128 8.77085 12.3801 8.91875 12.2687C9.07117 12.1549 9.23968 12.0643 9.41875 12C9.82142 11.8473 10.2661 11.8473 10.6687 12C10.8478 12.0643 11.0163 12.1549 11.1688 12.2687C11.3167 12.3801 11.4472 12.5128 11.5562 12.6625C11.6565 12.8049 11.7364 12.9606 11.7938 13.125V13.225C11.9058 13.566 11.9058 13.934 11.7938 14.275Z" fill="#646B7C"/>
</svg>
