<svg width="17" height="15" viewBox="0 0 17 15" fill="none" xmlns="http://www.w3.org/2000/svg">
<path d="M10.6562 4H2.25L4.75 1.5C5 1.25 5 0.875 4.75 0.625C4.5 0.375 4.125 0.375 3.875 0.625L0.3125 4.15625C0.1875 4.28125 0.125 4.4375 0.125 4.59375C0.125 4.75 0.1875 4.90625 0.3125 5.03125L3.84375 8.5625C4.09375 8.8125 4.46875 8.8125 4.71875 8.5625C4.96875 8.3125 4.96875 7.9375 4.71875 7.6875L2.28125 5.25H10.6562C13 5.25 14.875 7.125 14.875 9.46875C14.875 11.8125 13 13.6875 10.6562 13.6875H4.25C3.90625 13.6875 3.625 13.9688 3.625 14.3125C3.625 14.6562 3.90625 14.9375 4.25 14.9375H10.6562C13.6875 14.9375 16.125 12.5 16.125 9.46875C16.125 6.4375 13.6875 4 10.6562 4Z" fill="#646B7C"/>
</svg>
