<svg width="20" height="16" viewBox="0 0 20 16" fill="none" xmlns="http://www.w3.org/2000/svg">
<path d="M5.20346 5.82966L8.90207 2.89449V13.1058L5.20346 10.1704H1.80001V5.82966H5.20346ZM1.00016 4.32973C0.613411 4.32973 0.30011 4.64303 0.30011 5.02978V10.9704C0.30011 11.3569 0.613411 11.6705 1.00016 11.6705H4.68071C6.20954 12.8837 7.73833 14.0969 9.26709 15.3103C9.72581 15.6742 10.4022 15.3476 10.4022 14.762V1.23824C10.4022 0.652452 9.72581 0.325746 9.26709 0.689917C7.73833 1.90312 6.20954 3.11653 4.68071 4.32973H1.00016ZM11.6587 4.45281C11.3932 4.13513 11.4354 3.66195 11.7531 3.39635C12.071 3.13078 12.544 3.17304 12.8095 3.49096C13.7399 4.60411 14.6705 5.7173 15.6009 6.83067C16.5313 5.7173 17.4618 4.60411 18.3925 3.49096C18.658 3.17304 19.131 3.13078 19.4487 3.39635C19.7666 3.66192 19.8088 4.1351 19.5433 4.45281C18.5551 5.63528 17.5666 6.81772 16.5784 8.00016C17.5666 9.18259 18.5551 10.365 19.5433 11.5473C19.8088 11.8652 19.7666 12.3381 19.4487 12.6037C19.131 12.8695 18.658 12.8272 18.3925 12.5093C17.4618 11.3961 16.5313 10.2828 15.6009 9.16961L12.8095 12.5093C12.544 12.8272 12.071 12.8695 11.7531 12.6037C11.4354 12.3381 11.3932 11.8651 11.6587 11.5473C12.647 10.365 13.6351 9.18259 14.6235 8.00016C13.6351 6.81768 12.647 5.63525 11.6587 4.45281Z" fill="#646B7C"/>
</svg>
