<svg width="16" height="16" viewBox="0 0 16 16" fill="none" xmlns="http://www.w3.org/2000/svg">
<path d="M9.28126 14.125C7.28126 14.5313 5.12501 13.9688 3.59376 12.4375C1.31251 10.1563 1.15626 6.59376 3.12501 4.15626V5.31251C3.12501 5.65626 3.40626 5.93751 3.75001 5.93751C4.09376 5.93751 4.37501 5.65626 4.37501 5.31251V2.81251C4.37501 2.62501 4.31251 2.46876 4.18751 2.37501C4.06251 2.25001 3.90626 2.18751 3.75001 2.18751H1.25001C0.906265 2.18751 0.625015 2.46876 0.625015 2.81251C0.625015 3.15626 0.906265 3.43751 1.25001 3.43751H2.12502C-0.218735 6.34376 1.50204e-05 10.5938 2.68752 13.3125C4.56252 15.1875 7.15627 15.8438 9.56252 15.3438C9.65627 15.3125 9.78127 15.25 9.84377 15.1875C10.0938 14.9375 10.0938 14.5625 9.84377 14.3125C9.71877 14.125 9.46876 14.0625 9.28126 14.125ZM14.7813 12.5938H13.9375C16.2188 9.65626 16.0313 5.40626 13.3125 2.68751C11.5625 0.937508 9.18752 0.250007 6.90627 0.562507C6.75002 0.562507 6.62502 0.625008 6.50002 0.750008C6.25002 1.00001 6.25002 1.37501 6.50002 1.62501C6.65627 1.78126 6.87502 1.84376 7.09377 1.78126C8.96877 1.50001 10.9688 2.09376 12.4063 3.53126C14.6875 5.81251 14.8438 9.37501 12.875 11.8125V10.6563C12.875 10.3125 12.5938 10.0313 12.25 10.0313C11.9063 10.0313 11.625 10.3125 11.625 10.6563V13.1563C11.625 13.3438 11.6875 13.5 11.8125 13.5938C11.9375 13.7188 12.0938 13.7813 12.25 13.7813H14.75C15.0938 13.7813 15.375 13.5 15.375 13.1563C15.375 12.8125 15.125 12.5938 14.7813 12.5938Z" fill="#646B7C"/>
</svg>
