<svg width="21" height="20" viewBox="0 0 21 20" fill="none" xmlns="http://www.w3.org/2000/svg">
<path d="M8.59334 1.00417C8.44234 1.16543 8.36156 1.38005 8.36875 1.60085C8.37594 1.82166 8.47051 2.03057 8.63167 2.18167L8.97084 2.5H7.50834C5.69446 2.49814 3.94137 3.1537 2.57377 4.34526C1.20617 5.53682 0.31674 7.18364 0.0702184 8.98068C-0.176303 10.7777 0.23679 12.6032 1.23299 14.1191C2.22918 15.6349 3.74097 16.7383 5.48834 17.225L5.46917 17.2142C5.58525 17.249 5.70754 17.2581 5.8275 17.2408L5.84167 17.2425V17.2392C6.03744 17.2079 6.21566 17.1079 6.34432 16.9571C6.47298 16.8063 6.54365 16.6145 6.54365 16.4163C6.54365 16.218 6.47298 16.0263 6.34432 15.8754C6.21566 15.7246 6.03744 15.6246 5.84167 15.5933V15.5917C4.49769 15.1923 3.34252 14.3222 2.58763 13.1407C1.83275 11.9592 1.52867 10.5453 1.73106 9.15795C1.93345 7.77057 2.62877 6.5025 3.68972 5.58589C4.75067 4.66928 6.10627 4.16546 7.50834 4.16667H9.11667L8.60834 4.65167C8.44854 4.8045 8.35601 5.01455 8.35109 5.23561C8.34616 5.45667 8.42926 5.67063 8.58209 5.83042C8.73492 5.99021 8.94497 6.08275 9.16603 6.08767C9.38708 6.09259 9.60104 6.0095 9.76084 5.85667L11.7125 3.99C11.7943 3.91173 11.8594 3.81761 11.9036 3.71338C11.9479 3.60914 11.9704 3.49698 11.9698 3.38375C11.9693 3.27051 11.9457 3.15858 11.9004 3.05477C11.8552 2.95097 11.7893 2.85748 11.7067 2.78L9.77084 0.966668C9.60957 0.815673 9.39495 0.734892 9.17415 0.74208C8.95335 0.749268 8.74444 0.843004 8.59334 1.00417ZM10.9125 17.5L11.3808 17.9475C11.46 18.0231 11.5234 18.1136 11.5676 18.2137C11.6117 18.3139 11.6357 18.4217 11.6382 18.5311C11.6407 18.6406 11.6216 18.7494 11.582 18.8514C11.5424 18.9535 11.4831 19.0467 11.4075 19.1258C11.3319 19.205 11.2414 19.2684 11.1413 19.3126C11.0411 19.3567 10.9333 19.3807 10.8239 19.3832C10.7144 19.3857 10.6056 19.3666 10.5036 19.327C10.4015 19.2874 10.3083 19.2281 10.2292 19.1525L8.2775 17.2858C8.19567 17.2076 8.13065 17.1134 8.0864 17.0092C8.04215 16.905 8.01962 16.7928 8.02016 16.6796C8.02071 16.5663 8.04433 16.4544 8.08957 16.3506C8.13482 16.2468 8.20075 16.1533 8.28334 16.0758L10.2192 14.2617C10.3805 14.1106 10.5953 14.0298 10.8162 14.0371C11.0371 14.0444 11.246 14.1391 11.3971 14.3004C11.5482 14.4618 11.6289 14.6765 11.6217 14.8974C11.6144 15.1183 11.5197 15.3273 11.3583 15.4783L10.9792 15.8333H12.5083C13.9096 15.8345 15.2646 15.3312 16.3253 14.4155C17.386 13.4998 18.0816 12.2328 18.2849 10.8464C18.4882 9.45987 18.1857 8.04654 17.4325 6.86483C16.6794 5.68312 15.526 4.81201 14.1833 4.41083C14.0753 4.39349 13.9717 4.35503 13.8785 4.29765C13.7853 4.24027 13.7043 4.16509 13.6401 4.07641C13.576 3.98773 13.5299 3.88728 13.5046 3.78081C13.4793 3.67433 13.4752 3.5639 13.4925 3.45583C13.5098 3.34777 13.5483 3.24418 13.6057 3.15097C13.6631 3.05777 13.7382 2.97678 13.8269 2.91263C13.9156 2.84848 14.0161 2.80243 14.1225 2.7771C14.229 2.75177 14.3394 2.74766 14.4475 2.765L14.4867 2.76333C16.2406 3.24077 17.7614 4.33893 18.7663 5.85359C19.7713 7.36825 20.1919 9.19634 19.9501 10.9979C19.7082 12.7995 18.8203 14.4519 17.4515 15.6479C16.0827 16.8439 14.3261 17.502 12.5083 17.5H10.9125Z" fill="#646B7C"/>
<path d="M11.9667 13.1H8.05V11.9H9.36667V8.375H8.225V7.45833C8.89167 7.33333 9.325 7.16667 9.75834 6.9H10.85V11.9H11.9667V13.1Z" fill="#646B7C"/>
</svg>
