<svg width="18" height="14" viewBox="0 0 18 14" fill="none" xmlns="http://www.w3.org/2000/svg">
<path d="M4.08313 3.96438L8.07312 0.761881C8.16501 0.688121 8.27587 0.641837 8.39293 0.628368C8.50998 0.614898 8.62846 0.634792 8.7347 0.685754C8.84093 0.736716 8.9306 0.81667 8.99335 0.916395C9.05611 1.01612 9.0894 1.13155 9.08937 1.24938V13.1719C9.08932 13.2895 9.05606 13.4048 8.99342 13.5044C8.93077 13.604 8.84128 13.6839 8.73525 13.7349C8.62921 13.7859 8.51094 13.8059 8.39403 13.7926C8.27712 13.7794 8.16632 13.7334 8.07438 13.66L3.97438 10.3875H0.875C0.70924 10.3875 0.550268 10.3217 0.433058 10.2044C0.315848 10.0872 0.25 9.92827 0.25 9.76251V4.58938C0.25 4.42362 0.315848 4.26465 0.433058 4.14744C0.550268 4.03023 0.70924 3.96438 0.875 3.96438H4.08313ZM12.1012 11.065C11.9824 11.1783 11.8238 11.2402 11.6597 11.2375C11.4955 11.2348 11.339 11.1676 11.224 11.0505C11.109 10.9333 11.0447 10.7756 11.045 10.6115C11.0453 10.4473 11.1102 10.2899 11.2256 10.1731C11.6241 9.78301 11.9406 9.31712 12.1563 8.80288C12.3721 8.28863 12.4827 7.73642 12.4819 7.17876C12.4838 6.1353 12.0952 5.1289 11.3925 4.35751C11.3361 4.29697 11.2924 4.22585 11.2637 4.14827C11.235 4.07069 11.2221 3.98819 11.2255 3.90556C11.229 3.82292 11.2488 3.7418 11.2838 3.66688C11.3189 3.59196 11.3684 3.52474 11.4296 3.46911C11.4908 3.41349 11.5625 3.37057 11.6404 3.34283C11.7183 3.3151 11.8009 3.30311 11.8835 3.30755C11.9661 3.31199 12.047 3.33278 12.1215 3.36872C12.196 3.40465 12.2626 3.45501 12.3175 3.51688C13.2293 4.51832 13.7337 5.82443 13.7319 7.17876C13.7327 7.9025 13.5889 8.61912 13.3089 9.28649C13.0289 9.95387 12.6183 10.5586 12.1012 11.065ZM15.0725 13.775C15.0155 13.8348 14.9473 13.8827 14.8716 13.916C14.796 13.9493 14.7146 13.9672 14.632 13.9688C14.5494 13.9704 14.4673 13.9556 14.3905 13.9252C14.3136 13.8949 14.2436 13.8496 14.1843 13.7921C14.1251 13.7345 14.0779 13.6657 14.0454 13.5898C14.0129 13.5138 13.9958 13.4322 13.995 13.3496C13.9943 13.267 14.0099 13.1851 14.041 13.1085C14.0721 13.032 14.1181 12.9624 14.1762 12.9038C15.6691 11.3724 16.5032 9.31741 16.5 7.17876C16.5 5.05563 15.6919 3.06063 14.265 1.54626C14.1534 1.42523 14.094 1.26505 14.0998 1.1005C14.1056 0.935957 14.1761 0.780345 14.2959 0.667474C14.4158 0.554602 14.5754 0.49359 14.74 0.497692C14.9046 0.501794 15.0609 0.570679 15.175 0.689381C16.8187 2.43313 17.75 4.73313 17.75 7.17876C17.75 9.67563 16.7781 12.0206 15.0725 13.775Z" fill="#646B7C"/>
</svg>
