<svg width="17" height="15" viewBox="0 0 17 15" fill="none" xmlns="http://www.w3.org/2000/svg">
<path d="M8.40385 13.3077L14.7115 7.07692C15.3269 6.46154 15.7115 5.53846 15.7115 4.61539C15.7115 3.69231 15.3269 2.84615 14.7115 2.15385C14.0962 1.53846 13.1731 1.15385 12.25 1.15385C11.3269 1.15385 10.4808 1.53846 9.78846 2.15385L8.40385 3.53846L7.01923 2.15385C6.32692 1.53846 5.48077 1.15385 4.55769 1.15385C3.63462 1.15385 2.78846 1.53846 2.09615 2.15385C1.48077 2.84615 1.09615 3.69231 1.09615 4.61539C1.09615 5.53846 1.48077 6.38462 2.09615 7.07692L8.40385 13.3077ZM8.40385 14.9231L1.32692 7.84616C-0.442308 6.07692 -0.442308 3.15385 1.32692 1.30769C2.17308 0.461539 3.32692 0 4.55769 0C5.78846 0 6.94231 0.461538 7.78846 1.38462L8.40385 1.92308L8.94231 1.38462C9.78846 0.461538 11.0192 0 12.25 0C13.4808 0 14.6346 0.461538 15.4808 1.38462C17.25 3.15385 17.25 6.07692 15.4808 7.92308L8.40385 14.9231Z" fill="#646B7C"/>
</svg>
