<svg width="60" height="60" viewBox="0 0 60 60" fill="none" xmlns="http://www.w3.org/2000/svg">
<path d="M50.7692 33.4616H9.23079C8.61875 33.4616 8.03178 33.2184 7.599 32.7857C7.16623 32.3529 6.9231 31.7659 6.9231 31.1539C6.9231 30.5418 7.16623 29.9549 7.599 29.5221C8.03178 29.0893 8.61875 28.8462 9.23079 28.8462H50.7692C51.3813 28.8462 51.9683 29.0893 52.401 29.5221C52.8338 29.9549 53.0769 30.5418 53.0769 31.1539C53.0769 31.7659 52.8338 32.3529 52.401 32.7857C51.9683 33.2184 51.3813 33.4616 50.7692 33.4616ZM43.8462 11.5385H16.1539C15.5418 11.5385 14.9549 11.2953 14.5221 10.8626C14.0893 10.4298 13.8462 9.84283 13.8462 9.23079C13.8462 8.61875 14.0893 8.03178 14.5221 7.599C14.9549 7.16623 15.5418 6.9231 16.1539 6.9231H43.8462C44.4582 6.9231 45.0452 7.16623 45.478 7.599C45.9107 8.03178 46.1539 8.61875 46.1539 9.23079C46.1539 9.84283 45.9107 10.4298 45.478 10.8626C45.0452 11.2953 44.4582 11.5385 43.8462 11.5385ZM16.1539 49.6154H43.8462C44.4582 49.6154 45.0452 49.8585 45.478 50.2913C45.9107 50.7241 46.1539 51.3111 46.1539 51.9231C46.1539 52.5351 45.9107 53.1221 45.478 53.5549C45.0452 53.9877 44.4582 54.2308 43.8462 54.2308H16.1539C15.5418 54.2308 14.9549 53.9877 14.5221 53.5549C14.0893 53.1221 13.8462 52.5351 13.8462 51.9231C13.8462 51.3111 14.0893 50.7241 14.5221 50.2913C14.9549 49.8585 15.5418 49.6154 16.1539 49.6154Z" fill="black"/>
</svg>
