<svg width="60" height="60" viewBox="0 0 60 60" fill="none" xmlns="http://www.w3.org/2000/svg">
<path d="M24.375 50.625H18.75C18.2527 50.625 17.7758 50.4275 17.4242 50.0758C17.0725 49.7242 16.875 49.2473 16.875 48.75V11.25C16.875 10.7527 17.0725 10.2758 17.4242 9.92418C17.7758 9.57254 18.2527 9.375 18.75 9.375H24.375C24.8723 9.375 25.3492 9.57254 25.7008 9.92418C26.0525 10.2758 26.25 10.7527 26.25 11.25V48.75C26.25 49.2473 26.0525 49.7242 25.7008 50.0758C25.3492 50.4275 24.8723 50.625 24.375 50.625Z" fill="black"/>
<path d="M41.25 50.625H35.625C35.1277 50.625 34.6508 50.4275 34.2992 50.0758C33.9475 49.7242 33.75 49.2473 33.75 48.75V11.25C33.75 10.7527 33.9475 10.2758 34.2992 9.92418C34.6508 9.57254 35.1277 9.375 35.625 9.375H41.25C41.7473 9.375 42.2242 9.57254 42.5758 9.92418C42.9275 10.2758 43.125 10.7527 43.125 11.25V48.75C43.125 49.2473 42.9275 49.7242 42.5758 50.0758C42.2242 50.4275 41.7473 50.625 41.25 50.625Z" fill="black"/>
</svg>
