<svg width="60" height="60" viewBox="0 0 60 60" fill="none" xmlns="http://www.w3.org/2000/svg">
<path d="M13.125 7.5C13.6223 7.5 14.0992 7.69754 14.4508 8.04918C14.8025 8.40081 15 8.87772 15 9.375V25.3629L42.2777 9.03633C42.9078 8.65308 43.6292 8.44611 44.3666 8.43704C45.104 8.42796 45.8303 8.61713 46.4695 8.98477C47.8758 9.78164 48.75 11.3285 48.75 13.0078V46.9922C48.75 48.6762 47.8758 50.2184 46.4695 51.0152C45.8301 51.3826 45.1038 51.5715 44.3664 51.5622C43.6291 51.5529 42.9077 51.3458 42.2777 50.9625L15 34.6371V50.625C15 51.1223 14.8025 51.5992 14.4508 51.9508C14.0992 52.3025 13.6223 52.5 13.125 52.5C12.6277 52.5 12.1508 52.3025 11.7992 51.9508C11.4475 51.5992 11.25 51.1223 11.25 50.625V9.375C11.25 8.87772 11.4475 8.40081 11.7992 8.04918C12.1508 7.69754 12.6277 7.5 13.125 7.5Z" fill="black"/>
</svg>
