<svg width="60" height="60" viewBox="0 0 60 60" fill="none" xmlns="http://www.w3.org/2000/svg">
<path d="M15.5859 51.5625C14.8664 51.5612 14.1596 51.3726 13.5351 51.0153C12.1289 50.2184 11.2546 48.6715 11.2546 46.9922V13.0078C11.2546 11.3239 12.1289 9.78166 13.5351 8.98479C14.1745 8.61733 14.9008 8.42837 15.6382 8.43764C16.3756 8.44692 17.097 8.6541 17.7269 9.03752L46.7718 26.4235C47.3771 26.803 47.8762 27.3301 48.2221 27.9553C48.568 28.5804 48.7494 29.2832 48.7494 29.9977C48.7494 30.7122 48.568 31.4149 48.2221 32.0401C47.8762 32.6653 47.3771 33.1923 46.7718 33.5719L17.7222 50.9625C17.0776 51.3523 16.3392 51.5596 15.5859 51.5625Z" fill="black"/>
</svg>
