<svg width="60" height="60" viewBox="0 0 60 60" fill="none" xmlns="http://www.w3.org/2000/svg">
<path d="M29.332 35.1445C30.4863 36.5801 31.7637 37.9395 33.2637 39.123C36.5684 41.7305 40.4648 43.0547 45.1641 43.1719L43.5937 44.7363C42.7676 45.5625 42.7676 46.8984 43.5937 47.7188C44.0039 48.1289 44.543 48.334 45.0879 48.334C45.6328 48.334 46.166 48.1289 46.582 47.7188L51.5039 42.7969C51.9375 42.3633 52.1426 41.7891 52.1191 41.2207C52.2891 40.5293 52.1016 39.7676 51.5625 39.2285L46.6406 34.3066C45.8145 33.4805 44.4785 33.4805 43.6582 34.3066C42.8379 35.1328 42.832 36.4688 43.6582 37.2891L45.3223 38.9531C38.4434 38.8008 34.9453 35.6426 31.8457 31.5059C31.4238 32.1035 31.002 32.7246 30.5625 33.3574C30.1582 33.9551 29.748 34.5469 29.332 35.1445ZM22.4297 19.8984C18.9492 17.1563 14.8008 15.8203 9.75586 15.8203C8.58984 15.8203 7.64648 16.7637 7.64648 17.9297C7.64648 19.0957 8.58984 20.0391 9.75586 20.0391C18.2754 20.0391 21.7793 24.4336 25.4473 29.7363C26.2793 28.5234 27.1289 27.2871 28.043 26.0918C26.4492 23.8594 24.6914 21.6797 22.4297 19.8984Z" fill="black"/>
<path d="M52.2363 19.8281C52.2598 19.2598 52.0547 18.6855 51.6211 18.252L46.6992 13.3301C45.873 12.5039 44.5371 12.5039 43.7168 13.3301C42.8906 14.1563 42.8906 15.4922 43.7168 16.3125L45.2812 17.877C40.582 17.9941 36.6855 19.3242 33.3809 21.9258C30.3867 24.2871 28.2773 27.3574 26.2441 30.3281C22.3066 36.0645 18.9141 41.0156 9.87305 41.0156C8.70703 41.0156 7.76367 41.959 7.76367 43.125C7.76367 44.291 8.70703 45.2344 9.87305 45.2344C14.918 45.2344 19.0664 43.8984 22.5469 41.1563C25.5586 38.7832 27.6738 35.7012 29.7187 32.7188C33.5566 27.1289 36.8789 22.2832 45.4336 22.0957L43.7695 23.7598C42.9434 24.5859 42.9434 25.9219 43.7695 26.7422C44.1797 27.1523 44.7187 27.3574 45.2637 27.3574C45.8086 27.3574 46.3418 27.1523 46.7578 26.7422L51.6797 21.8203C52.2187 21.2812 52.4062 20.5195 52.2363 19.8281Z" fill="black"/>
</svg>
