<svg width="60" height="60" viewBox="0 0 60 60" fill="none" xmlns="http://www.w3.org/2000/svg">
<path d="M10.5949 42.4183C10.1391 42.4183 9.68437 42.2508 9.32461 41.891C6.04102 38.584 4.21875 34.2211 4.21875 29.5945C4.21875 19.9816 12.0094 12.1676 21.5977 12.1676L36.1488 12.2156L33.5355 9.72303C32.816 9.02811 32.7926 7.90077 33.4875 7.18241C34.1824 6.46288 35.3098 6.43944 36.0281 7.13436L41.877 12.7441C42.4043 13.248 42.5719 14.039 42.3082 14.7094C42.0445 15.3808 41.373 15.8355 40.6301 15.8355L21.573 15.7875C13.9746 15.7875 7.78945 21.9961 7.78945 29.6191C7.78945 33.2871 9.22734 36.7629 11.8406 39.375C12.5355 40.0699 12.5355 41.2207 11.8406 41.9156C11.5055 42.2508 11.0508 42.4183 10.5949 42.4183ZM25.1941 53.3742C24.7383 53.3742 24.307 53.2066 23.9473 52.8703L18.0984 47.2605C17.5711 46.7566 17.4035 45.9656 17.6672 45.2953C17.9309 44.6238 18.6023 44.1691 19.3453 44.1691L38.4023 44.2172C46.0008 44.2172 52.1859 38.0086 52.1859 30.3855C52.1859 26.7176 50.748 23.2418 48.1348 20.6297C47.4398 19.9347 47.4398 18.784 48.1348 18.089C48.8297 17.3941 49.9805 17.3941 50.6754 18.089C53.959 21.3961 55.7812 25.759 55.7812 30.3855C55.7812 39.9973 47.9906 47.8125 38.4023 47.8125L23.8512 47.7644L26.4645 50.257C27.184 50.9519 27.2074 52.0793 26.5125 52.7976C26.1281 53.182 25.6734 53.3742 25.1941 53.3742Z" fill="black"/>
<path d="M30.5872 38.1996C29.604 38.1996 28.7895 37.3851 28.7895 36.4019V28.2762L28.3336 28.7789C27.6622 29.5219 26.536 29.5699 25.793 28.923C25.0501 28.2762 25.002 27.1254 25.6489 26.3824L29.2442 22.3793C29.7481 21.8285 30.5391 21.6363 31.234 21.9C31.929 22.1637 32.3848 22.8351 32.3848 23.5781V36.4031C32.3848 37.4086 31.5704 38.1996 30.5872 38.1996Z" fill="black"/>
</svg>
