<?xml version="1.0" standalone="no"?><!DOCTYPE svg PUBLIC "-//W3C//DTD SVG 1.1//EN" "http://www.w3.org/Graphics/SVG/1.1/DTD/svg11.dtd"><svg t="1692864679772" class="icon" viewBox="0 0 1024 1024" version="1.1" xmlns="http://www.w3.org/2000/svg" p-id="8020" xmlns:xlink="http://www.w3.org/1999/xlink" width="200" height="200"><path d="M960 985.6H64c-19.2 0-32-12.8-32-32s12.8-32 32-32h896c19.2 0 32 12.8 32 32s-12.8 32-32 32zM518.4 819.2c-25.6 0-51.2-6.4-70.4-25.6l-320-320c-12.8-12.8-12.8-32 0-44.8s32-12.8 44.8 0l320 320c12.8 12.8 32 12.8 44.8 0l320-320c12.8-12.8 32-12.8 44.8 0s12.8 32 0 44.8l-320 320c-19.2 12.8-44.8 25.6-64 25.6z" fill="#ffffff" p-id="8021"></path><path d="M518.4 812.8c-19.2 0-32-12.8-32-32V70.4c0-19.2 12.8-32 32-32s32 12.8 32 32v710.4c0 19.2-12.8 32-32 32z" fill="#ffffff" p-id="8022"></path></svg>