<?xml version="1.0" standalone="no"?><!DOCTYPE svg PUBLIC "-//W3C//DTD SVG 1.1//EN" "http://www.w3.org/Graphics/SVG/1.1/DTD/svg11.dtd"><svg t="1692864753471" class="icon" viewBox="0 0 1024 1024" version="1.1" xmlns="http://www.w3.org/2000/svg" p-id="9235" xmlns:xlink="http://www.w3.org/1999/xlink" width="200" height="200"><path d="M947.2 416L576 102.4c-35.2-30.4-88-30.4-123.2 0L76.8 416c-8 6.4-12.8 14.4-12.8 25.6 0 17.6 14.4 32 32 32 8 0 16-3.2 20.8-8L128 456v356.8c0 72 54.4 131.2 123.2 131.2h521.6C840 944 896 884.8 896 812.8V456l9.6 8c6.4 4.8 12.8 8 22.4 8 17.6 0 32-14.4 32-32 0-8-4.8-17.6-12.8-24zM448 880V656c0-17.6 14.4-32 32-32h64c17.6 0 32 14.4 32 32v224H448z m384-67.2c0 36.8-27.2 67.2-60.8 67.2H640V656c0-52.8-43.2-96-96-96h-64c-52.8 0-96 43.2-96 96v224H252.8c-33.6 0-60.8-30.4-60.8-67.2V403.2L492.8 152c11.2-9.6 28.8-9.6 41.6 0L832 401.6v411.2z" fill="#ffffff" p-id="9236"></path></svg>