<?xml version="1.0" standalone="no"?><!DOCTYPE svg PUBLIC "-//W3C//DTD SVG 1.1//EN" "http://www.w3.org/Graphics/SVG/1.1/DTD/svg11.dtd"><svg t="1692877098876" class="icon" viewBox="0 0 1024 1024" version="1.1" xmlns="http://www.w3.org/2000/svg" p-id="5165" xmlns:xlink="http://www.w3.org/1999/xlink" width="200" height="200"><path d="M187.392 70.656q28.672 0 48.64 19.456t19.968 48.128l0 52.224q0 28.672-19.968 48.64t-48.64 19.968l-54.272 0q-27.648 0-47.616-19.968t-19.968-48.64l0-52.224q0-28.672 19.968-48.128t47.616-19.456l54.272 0zM889.856 70.656q27.648 0 47.616 19.456t19.968 48.128l0 52.224q0 28.672-19.968 48.64t-47.616 19.968l-437.248 0q-28.672 0-48.64-19.968t-19.968-48.64l0-52.224q0-28.672 19.968-48.128t48.64-19.456l437.248 0zM187.392 389.12q28.672 0 48.64 19.968t19.968 48.64l0 52.224q0 27.648-19.968 47.616t-48.64 19.968l-54.272 0q-27.648 0-47.616-19.968t-19.968-47.616l0-52.224q0-28.672 19.968-48.64t47.616-19.968l54.272 0zM889.856 389.12q27.648 0 47.616 19.968t19.968 48.64l0 52.224q0 27.648-19.968 47.616t-47.616 19.968l-437.248 0q-28.672 0-48.64-19.968t-19.968-47.616l0-52.224q0-28.672 19.968-48.64t48.64-19.968l437.248 0zM187.392 708.608q28.672 0 48.64 19.968t19.968 47.616l0 52.224q0 28.672-19.968 48.64t-48.64 19.968l-54.272 0q-27.648 0-47.616-19.968t-19.968-48.64l0-52.224q0-27.648 19.968-47.616t47.616-19.968l54.272 0zM889.856 708.608q27.648 0 47.616 19.968t19.968 47.616l0 52.224q0 28.672-19.968 48.64t-47.616 19.968l-437.248 0q-28.672 0-48.64-19.968t-19.968-48.64l0-52.224q0-27.648 19.968-47.616t48.64-19.968l437.248 0z" p-id="5166" fill="#ffffff"></path></svg>