<?xml version="1.0" standalone="no"?><!DOCTYPE svg PUBLIC "-//W3C//DTD SVG 1.1//EN" "http://www.w3.org/Graphics/SVG/1.1/DTD/svg11.dtd"><svg t="1692878211281" class="icon" viewBox="0 0 2048 1024" version="1.1" xmlns="http://www.w3.org/2000/svg" p-id="1385" xmlns:xlink="http://www.w3.org/1999/xlink" width="400" height="200"><path d="M512 61.44C263.168 61.44 61.44 263.168 61.44 512s201.728 450.56 450.56 450.56h1024c248.832 0 450.56-201.728 450.56-450.56S1784.832 61.44 1536 61.44H512z m0-61.44h1024c282.76736 0 512 229.23264 512 512S1818.76736 1024 1536 1024H512C229.23264 1024 0 794.76736 0 512S229.23264 0 512 0z m1013.76 819.2C1701.0688 819.2 1843.2 677.0688 1843.2 501.76 1843.2 326.4512 1701.0688 184.32 1525.76 184.32 1350.4512 184.32 1208.32 326.4512 1208.32 501.76 1208.32 677.0688 1350.4512 819.2 1525.76 819.2z" fill="#ffffff" p-id="1386"></path></svg>