<?xml version="1.0" standalone="no"?><!DOCTYPE svg PUBLIC "-//W3C//DTD SVG 1.1//EN" "http://www.w3.org/Graphics/SVG/1.1/DTD/svg11.dtd"><svg t="1692926786771" class="icon" viewBox="0 0 1024 1024" version="1.1" xmlns="http://www.w3.org/2000/svg" p-id="45011" xmlns:xlink="http://www.w3.org/1999/xlink" width="200" height="200"><path d="M462.4 113.6L266.4 362.4 177.6 273.6c-18.4-18.4-48.8-18.4-68 0-18.4 18.4-18.4 48.8 0 68L232.8 464l2.4 2.4c17.6 17.6 46.4 17.6 63.2 0v-0.8c0.8-0.8 1.6-0.8 1.6-1.6 3.2-3.2 6.4-6.4 8.8-10.4l216.8-276.8c17.6-17.6 17.6-45.6 0-63.2-16.8-17.6-45.6-17.6-63.2 0zM442.4 546.4H173.6c-29.6 0-53.6 24-53.6 53.6v269.6c0 29.6 24 53.6 53.6 53.6h269.6c29.6 0 53.6-24 53.6-53.6V600c0-29.6-24-53.6-54.4-53.6z m-22.4 300.8h-224v-224h224v224zM874.4 546.4H604.8c-29.6 0-53.6 24-53.6 53.6v269.6c0 29.6 24 53.6 53.6 53.6h269.6c29.6 0 53.6-24 53.6-53.6V600c0-29.6-24-53.6-53.6-53.6z m-27.2 296.8h-216v-216h216v216zM874.4 115.2H604.8c-29.6 0-53.6 24-53.6 53.6v269.6c0 29.6 24 53.6 53.6 53.6h269.6c29.6 0 53.6-24 53.6-53.6V168.8c0-29.6-24-53.6-53.6-53.6zM851.2 416h-224V192h224v224z" fill="#ffffff" p-id="45012"></path></svg>