<?xml version="1.0" standalone="no"?><!DOCTYPE svg PUBLIC "-//W3C//DTD SVG 1.1//EN" "http://www.w3.org/Graphics/SVG/1.1/DTD/svg11.dtd"><svg t="1692864790709" class="icon" viewBox="0 0 1024 1024" version="1.1" xmlns="http://www.w3.org/2000/svg" p-id="9639" xmlns:xlink="http://www.w3.org/1999/xlink" width="200" height="200"><path d="M512 141.312a370.688 370.688 0 1 0 0.102 741.376A370.688 370.688 0 0 0 512 141.312z m-34.56 177.51a42.854 42.854 0 0 1 34.611-16.486c14.08 0 25.549 5.427 34.611 16.23 9.012 10.855 13.517 24.372 13.517 40.704 0 14.03-18.79 117.197-25.088 192.205h-45.26c-5.479-75.008-25.908-178.176-25.908-192.205a61.44 61.44 0 0 1 13.517-40.448z m68.66 387.226a44.698 44.698 0 0 1-67.994 0 53.658 53.658 0 0 1-14.234-37.683c0-14.695 4.71-27.392 14.234-38.042a44.186 44.186 0 0 1 33.996-15.974c13.108 0 24.474 5.325 33.997 15.974 9.523 10.65 14.234 23.347 14.234 38.042a54.118 54.118 0 0 1-14.234 37.683z" fill="#ffffff" p-id="9640"></path></svg>