<?xml version="1.0" standalone="no"?><!DOCTYPE svg PUBLIC "-//W3C//DTD SVG 1.1//EN" "http://www.w3.org/Graphics/SVG/1.1/DTD/svg11.dtd"><svg t="1692933028213" class="icon" viewBox="0 0 1024 1024" version="1.1" xmlns="http://www.w3.org/2000/svg" p-id="13211" xmlns:xlink="http://www.w3.org/1999/xlink" width="200" height="200"><path d="M426.666667 138.666667v746.666666a53.393333 53.393333 0 0 1-53.333334 53.333334H266.666667a53.393333 53.393333 0 0 1-53.333334-53.333334V138.666667a53.393333 53.393333 0 0 1 53.333334-53.333334h106.666666a53.393333 53.393333 0 0 1 53.333334 53.333334z m330.666666-53.333334H650.666667a53.393333 53.393333 0 0 0-53.333334 53.333334v746.666666a53.393333 53.393333 0 0 0 53.333334 53.333334h106.666666a53.393333 53.393333 0 0 0 53.333334-53.333334V138.666667a53.393333 53.393333 0 0 0-53.333334-53.333334z" fill="#6AD2FF" p-id="13212"></path></svg>