<?xml version="1.0" standalone="no"?><!DOCTYPE svg PUBLIC "-//W3C//DTD SVG 1.1//EN" "http://www.w3.org/Graphics/SVG/1.1/DTD/svg11.dtd"><svg t="1693480983086" class="icon" viewBox="0 0 1024 1024" version="1.1" xmlns="http://www.w3.org/2000/svg" p-id="5430" xmlns:xlink="http://www.w3.org/1999/xlink" width="200" height="200"><path d="M960 64h-192a64 64 0 0 0-64-64H448a64 64 0 0 0-64 64H256a256 256 0 0 0 0 512h448a128 128 0 0 1 0 256h-64a64 64 0 0 0-64-64H320a64 64 0 0 0-64 64H64a64 64 0 0 0 0 128h192a64 64 0 0 0 64 64h256a64 64 0 0 0 64-64h64a256 256 0 0 0 0-512H256a128 128 0 0 1 0-256h128a64 64 0 0 0 64 64h256a64 64 0 0 0 64-64h192a64 64 0 0 0 0-128z" fill="#000000" p-id="5431"></path></svg>