<svg width="16" height="12" viewBox="0 0 16 12" fill="none" xmlns="http://www.w3.org/2000/svg">
<path d="M9.19243 1.31252L15.2237 9.21502C15.3934 9.4374 15.4975 9.70281 15.5243 9.98127C15.5512 10.2597 15.4996 10.5401 15.3754 10.7908C15.2512 11.0415 15.0594 11.2525 14.8217 11.3999C14.5839 11.5473 14.3097 11.6253 14.0299 11.625H1.9693C1.68967 11.625 1.41559 11.5469 1.17802 11.3994C0.940447 11.2519 0.748838 11.0409 0.624821 10.7903C0.500803 10.5396 0.449317 10.2593 0.476172 9.98096C0.503028 9.70261 0.607157 9.43732 0.776804 9.21502L6.80806 1.31252C6.94805 1.12917 7.12845 0.980589 7.33522 0.878316C7.54199 0.776044 7.76956 0.722839 8.00024 0.722839C8.23092 0.722839 8.4585 0.776044 8.66527 0.878316C8.87204 0.980589 9.05243 1.12917 9.19243 1.31252Z" fill="#283248"/>
</svg>
