<svg width="20" height="20" viewBox="0 0 20 20" fill="none" xmlns="http://www.w3.org/2000/svg">
<path d="M18.75 19.25H1.25C0.875 19.25 0.625 19 0.625 18.625C0.625 18.25 0.875 18 1.25 18H18.75C19.125 18 19.375 18.25 19.375 18.625C19.375 19 19.125 19.25 18.75 19.25ZM10.125 16C9.625 16 9.125 15.875 8.75 15.5L2.5 9.25C2.25 9 2.25 8.625 2.5 8.375C2.75 8.125 3.125 8.125 3.375 8.375L9.625 14.625C9.875 14.875 10.25 14.875 10.5 14.625L16.75 8.375C17 8.125 17.375 8.125 17.625 8.375C17.875 8.625 17.875 9 17.625 9.25L11.375 15.5C11 15.75 10.5 16 10.125 16Z" fill="#283248"/>
<path d="M10.125 15.875C9.75 15.875 9.5 15.625 9.5 15.25V1.375C9.5 1 9.75 0.75 10.125 0.75C10.5 0.75 10.75 1 10.75 1.375V15.25C10.75 15.625 10.5 15.875 10.125 15.875Z" fill="#283248"/>
</svg>
