<svg width="16" height="16" viewBox="0 0 16 16" fill="none" xmlns="http://www.w3.org/2000/svg">
<path d="M15.5312 1.58398L1.57422 15.541C1.42773 15.6875 1.19141 15.6875 1.04492 15.541L0.46875 14.9648C0.322266 14.8184 0.322266 14.582 0.46875 14.4355L14.4258 0.478516C14.5723 0.332031 14.8086 0.332031 14.9551 0.478516L15.5312 1.05469C15.6777 1.19922 15.6777 1.4375 15.5312 1.58398Z" fill="#283248"/>
<path d="M1.57422 0.478516L15.5332 14.4375C15.6797 14.584 15.6797 14.8203 15.5332 14.9668L14.957 15.543C14.8105 15.6895 14.5742 15.6895 14.4277 15.543L0.46875 1.58398C0.322266 1.4375 0.322266 1.20117 0.46875 1.05469L1.04492 0.478516C1.18945 0.332031 1.42773 0.332031 1.57422 0.478516Z" fill="#283248"/>
</svg>
