<svg width="18" height="18" viewBox="0 0 18 18" fill="none" xmlns="http://www.w3.org/2000/svg">
<path d="M14.1562 2.65625C15.9688 4.15625 17.125 6.40625 17.125 8.9375C17.125 13.4375 13.5 17.0625 9 17.0625C4.5 17.0625 0.875 13.4375 0.875 8.9375C0.875 6.40625 2.03125 4.15625 3.84375 2.65625C3.96875 2.5625 4.09375 2.5 4.25 2.5C4.59375 2.5 4.875 2.78125 4.875 3.125C4.875 3.34375 4.75 3.53125 4.59375 3.65625C3.0625 4.90625 2.09375 6.8125 2.09375 8.96875C2.09375 12.7812 5.15625 15.8438 8.96875 15.8438C12.7812 15.8438 15.8438 12.7812 15.8438 8.96875C15.8438 6.8125 14.8438 4.875 13.2812 3.59375C13.1562 3.46875 13.0938 3.3125 13.0938 3.15625C13.0938 2.8125 13.375 2.53125 13.7188 2.53125C13.9062 2.5 14.0625 2.5625 14.1562 2.65625Z" fill="#283248"/>
<path d="M9 0.9375C9.34375 0.9375 9.625 1.21875 9.625 1.5625V10.3125C9.625 10.6562 9.34375 10.9375 9 10.9375C8.65625 10.9375 8.375 10.6562 8.375 10.3125V1.5625C8.375 1.21875 8.65625 0.9375 9 0.9375Z" fill="#283248"/>
</svg>
