<svg width="16" height="16" viewBox="0 0 16 16" fill="none" xmlns="http://www.w3.org/2000/svg">
<path d="M7.99999 0.76001C7.04922 0.760141 6.10779 0.947538 5.22944 1.3115C4.35109 1.67547 3.55303 2.20887 2.88083 2.88126C1.52325 4.23921 0.760722 6.08084 0.760986 8.00101C0.761251 9.92117 1.52429 11.7626 2.88224 13.1202C4.24019 14.4777 6.08181 15.2403 8.00198 15.24C9.92215 15.2397 11.7636 14.4767 13.1211 13.1188C14.4787 11.7608 15.2413 9.91918 15.241 7.99901C15.2407 6.07885 14.4777 4.23743 13.1197 2.87985C11.7618 1.52228 9.92016 0.759746 7.99999 0.76001ZM7.32499 4.227C7.40493 4.12453 7.50764 4.04209 7.62497 3.9862C7.74231 3.93031 7.87105 3.90251 8.00099 3.90501C8.27599 3.90501 8.49999 4.01101 8.67698 4.222C8.853 4.43401 8.94099 4.69802 8.94099 5.017C8.94099 5.29103 8.57399 7.306 8.45099 8.771H7.567C7.45999 7.306 7.06099 5.29101 7.06099 5.017C7.05184 4.73059 7.14549 4.45037 7.32499 4.227ZM8.66601 11.79C8.58405 11.886 8.48224 11.9631 8.36761 12.016C8.25297 12.0689 8.12824 12.0962 8.002 12.0962C7.87576 12.0962 7.75103 12.0689 7.63639 12.016C7.52176 11.9631 7.41995 11.886 7.338 11.79C7.15326 11.5901 7.05356 11.3261 7.05999 11.054C7.05999 10.767 7.15198 10.519 7.338 10.311C7.41896 10.2134 7.52043 10.1349 7.63519 10.0809C7.74995 10.027 7.87518 9.99904 8.00198 9.99901C8.258 9.99901 8.47999 10.103 8.66599 10.311C8.85198 10.519 8.94399 10.767 8.94399 11.054C8.94948 11.326 8.84993 11.5896 8.66601 11.79Z" fill="#283248"/>
</svg>
