<svg width="20" height="20" viewBox="0 0 20 20" fill="none" xmlns="http://www.w3.org/2000/svg">
<path d="M10 0C15.5228 0 20 4.47722 20 10C20 15.5228 15.5228 20 10 20C4.47722 20 0 15.5228 0 10C0 4.47722 4.47722 0 10 0ZM10 1.25C5.16778 1.25 1.25 5.16778 1.25 10C1.25 14.8322 5.16778 18.75 10 18.75C14.8322 18.75 18.75 14.8322 18.75 10C18.75 5.16778 14.8322 1.25 10 1.25ZM15.1333 4.83778V14.2C15.1333 14.7744 14.9989 15.0556 14.6322 15.2022C14.2411 15.3611 13.5933 15.3733 12.6033 15.3733C12.5544 15.1289 12.42 14.7011 12.2978 14.4689C13.0433 14.5056 13.7644 14.4933 13.9844 14.4811C14.1922 14.4811 14.2656 14.4078 14.2656 14.2V5.68111H8.39889V4.83778H15.1333ZM7.16444 8.04V13.1856L8.42333 12.3056C8.48444 12.55 8.61889 12.8922 8.69222 13.0633C6.76 14.5067 6.37944 14.7861 6.18944 15.0206L6.16222 15.0556C6.06444 14.8722 5.80778 14.5667 5.64889 14.4322C5.88111 14.2489 6.30889 13.7967 6.30889 13.1856V8.90778H4.5V8.04H7.16444ZM12.7989 8.89556V12.7822H10V13.6011H9.18111V8.89556H12.7989ZM11.98 9.67778H10V11.9878H11.98V9.67778ZM13.3856 6.89111V7.67333H8.70444V6.89111H13.3856ZM5.82 4.60556C6.46778 5.15556 7.29889 5.91333 7.69 6.41444L7.07889 7.05C6.71222 6.53667 5.89333 5.73 5.23333 5.16778L5.82 4.60556Z" fill="#283248"/>
</svg>
