<svg width="16" height="17" viewBox="0 0 16 17" fill="none" xmlns="http://www.w3.org/2000/svg">
<path d="M14.923 9.15383H1.07685C0.872835 9.15383 0.677178 9.07279 0.53292 8.92853C0.388661 8.78427 0.307617 8.58861 0.307617 8.3846C0.307617 8.18059 0.388661 7.98493 0.53292 7.84067C0.677178 7.69641 0.872835 7.61537 1.07685 7.61537H14.923C15.127 7.61537 15.3227 7.69641 15.4669 7.84067C15.6112 7.98493 15.6922 8.18059 15.6922 8.3846C15.6922 8.58861 15.6112 8.78427 15.4669 8.92853C15.3227 9.07279 15.127 9.15383 14.923 9.15383ZM12.6153 1.84614H3.38454C3.18053 1.84614 2.98487 1.7651 2.84061 1.62084C2.69635 1.47658 2.61531 1.28092 2.61531 1.07691C2.61531 0.872896 2.69635 0.677239 2.84061 0.532981C2.98487 0.388722 3.18053 0.307678 3.38454 0.307678H12.6153C12.8193 0.307678 13.015 0.388722 13.1592 0.532981C13.3035 0.677239 13.3845 0.872896 13.3845 1.07691C13.3845 1.28092 13.3035 1.47658 13.1592 1.62084C13.015 1.7651 12.8193 1.84614 12.6153 1.84614ZM3.38454 14.5384H12.6153C12.8193 14.5384 13.015 14.6195 13.1592 14.7637C13.3035 14.908 13.3845 15.1037 13.3845 15.3077C13.3845 15.5117 13.3035 15.7073 13.1592 15.8516C13.015 15.9959 12.8193 16.0769 12.6153 16.0769H3.38454C3.18053 16.0769 2.98487 15.9959 2.84061 15.8516C2.69635 15.7073 2.61531 15.5117 2.61531 15.3077C2.61531 15.1037 2.69635 14.908 2.84061 14.7637C2.98487 14.6195 3.18053 14.5384 3.38454 14.5384Z" fill="#283248"/>
</svg>
