<svg width="14" height="18" viewBox="0 0 14 18" fill="none" xmlns="http://www.w3.org/2000/svg">
<path d="M12.6588 6.12499C12.4931 6.12499 12.3341 6.19084 12.2169 6.30805C12.0997 6.42526 12.0338 6.58423 12.0338 6.74999V8.53499C12.0338 11.06 9.77506 13.1137 7.00006 13.1137C4.22506 13.1137 1.96631 11.0587 1.96631 8.53499V6.67999C1.96631 6.51423 1.90046 6.35526 1.78325 6.23805C1.66604 6.12084 1.50707 6.05499 1.34131 6.05499C1.17555 6.05499 1.01658 6.12084 0.899367 6.23805C0.782156 6.35526 0.716309 6.51423 0.716309 6.67999V8.53499C0.716309 11.6187 3.31881 14.125 6.58881 14.325V16.5025H3.98506C3.67006 16.5025 3.41506 16.7825 3.41506 17.1287C3.41506 17.4737 3.67006 17.7525 3.98506 17.7525H10.2163C10.5301 17.7525 10.7863 17.4737 10.7863 17.1287C10.7863 16.7825 10.5301 16.5025 10.2163 16.5025H7.83881V14.2862C10.9051 13.9 13.2838 11.4837 13.2838 8.53499V6.74999C13.2838 6.40374 13.0051 6.12499 12.6588 6.12499ZM7.10006 12.255C8.1299 12.254 9.1173 11.8445 9.84563 11.1164C10.574 10.3884 10.9837 9.40108 10.9851 8.37124V4.24874C10.9834 3.219 10.5735 2.23192 9.84527 1.5039C9.11701 0.775877 8.1298 0.366312 7.10006 0.36499C6.07055 0.366314 5.0836 0.775958 4.35574 1.50405C3.62788 2.23215 3.21855 3.21923 3.21756 4.24874V8.37124C3.21855 9.40075 3.62788 10.3878 4.35574 11.1159C5.0836 11.844 6.07055 12.2537 7.10006 12.255Z" fill="#283248"/>
</svg>
