<?xml version="1.0" standalone="no"?><!DOCTYPE svg PUBLIC "-//W3C//DTD SVG 1.1//EN" "http://www.w3.org/Graphics/SVG/1.1/DTD/svg11.dtd"><svg t="1692864845157" class="icon" viewBox="0 0 1024 1024" version="1.1" xmlns="http://www.w3.org/2000/svg" p-id="10447" xmlns:xlink="http://www.w3.org/1999/xlink" width="200" height="200"><path d="M494.4 171.2l-155.2 97.6C318.4 281.6 296 288 272 288h-76.8C131.2 288 80 339.2 80 401.6v225.6C80 696 136 752 204.8 752h89.6c24 0 46.4 6.4 67.2 19.2L496 852.8c9.6 6.4 20.8 9.6 33.6 9.6 35.2 0 64-28.8 64-64V225.6c0-11.2-3.2-24-9.6-33.6-20.8-30.4-59.2-40-89.6-20.8zM528 798.4l-134.4-81.6c-30.4-17.6-64-28.8-99.2-28.8h-89.6c-33.6 0-60.8-27.2-60.8-60.8V401.6c0-27.2 22.4-49.6 49.6-49.6H272c36.8 0 70.4-9.6 102.4-28.8l155.2-97.6v572.8zM912 480H720c-17.6 0-32 14.4-32 32s14.4 32 32 32h192c17.6 0 32-14.4 32-32s-14.4-32-32-32z m-12.8 272l-166.4-96c-16-9.6-35.2-3.2-43.2 11.2-9.6 16-3.2 35.2 11.2 43.2l166.4 96c16 9.6 35.2 3.2 43.2-11.2 9.6-14.4 4.8-33.6-11.2-43.2z m-168-384l166.4-96c16-9.6 20.8-28.8 11.2-43.2-9.6-16-28.8-20.8-43.2-11.2l-166.4 96c-16 9.6-20.8 28.8-11.2 43.2s28.8 20.8 43.2 11.2z" fill="#ffffff" p-id="10448"></path></svg>