<?xml version="1.0" standalone="no"?><!DOCTYPE svg PUBLIC "-//W3C//DTD SVG 1.1//EN" "http://www.w3.org/Graphics/SVG/1.1/DTD/svg11.dtd"><svg t="1692947760994" class="icon" viewBox="0 0 1024 1024" version="1.1" xmlns="http://www.w3.org/2000/svg" p-id="26001" xmlns:xlink="http://www.w3.org/1999/xlink" width="200" height="200"><path d="M810 203.8H213.7c-33 0-59.8 26.8-59.8 59.8v496.1c0 33 26.8 59.8 59.8 59.8h596.2c33 0 59.8-26.8 59.8-59.8V263.5c0.1-32.9-26.7-59.7-59.7-59.7z m-596.3 48.5H810c6.1 0 11.2 5.1 11.2 11.2v428.2L638 429c-7.4-10.7-20.2-17.2-33.7-17.2-13.6 0-26.2 6.5-33.6 17.2L440.8 616.4l-71.7-77c-8.3-9-20.6-13.7-33.1-12.8-12.6 0.8-24 7.2-30.9 17.1L202.5 691.9V263.5c0-6.1 5.1-11.2 11.2-11.2z m0 0" p-id="26002" fill="#ffffff"></path><path d="M316.2 411.8c30.2 0 54.8-24.6 54.8-54.8 0-30.2-24.6-54.8-54.8-54.8-30.2 0-54.8 24.6-54.8 54.8 0 30.3 24.6 54.8 54.8 54.8z m0-71.6c9.3 0 16.9 7.6 16.9 16.9 0 9.3-7.5 16.9-16.9 16.9-9.3 0-16.9-7.6-16.9-16.9 0.2-9.3 7.7-16.9 16.9-16.9z m0 0" p-id="26003" fill="#ffffff"></path></svg>