<?xml version="1.0" standalone="no"?><!DOCTYPE svg PUBLIC "-//W3C//DTD SVG 1.1//EN" "http://www.w3.org/Graphics/SVG/1.1/DTD/svg11.dtd"><svg t="1692864743590" class="icon" viewBox="0 0 1024 1024" version="1.1" xmlns="http://www.w3.org/2000/svg" p-id="9032" xmlns:xlink="http://www.w3.org/1999/xlink" width="200" height="200"><path d="M511.936 61.568A448 448 0 0 0 64.384 509.12a448 448 0 0 0 447.552 447.552A448 448 0 0 0 959.488 509.12 448 448 0 0 0 511.936 61.568z m0 831.104A384 384 0 0 1 128.384 509.12a384 384 0 0 1 383.552-383.552A384 384 0 0 1 895.488 509.12a383.936 383.936 0 0 1-383.552 383.552z" fill="#ffffff" p-id="9033"></path><path d="M637.76 278.784a31.872 31.872 0 0 0-44.992-0.32L385.6 485.632a30.912 30.912 0 0 0-8.96 23.424 31.36 31.36 0 0 0 8.96 23.616L592.768 739.84c12.224 12.352 32.384 12.224 44.864-0.256s12.608-32.64 0.384-44.992L452.608 509.184l185.344-185.408a31.744 31.744 0 0 0-0.192-44.992z" fill="#ffffff" p-id="9034"></path></svg>