<?xml version="1.0" standalone="no"?><!DOCTYPE svg PUBLIC "-//W3C//DTD SVG 1.1//EN" "http://www.w3.org/Graphics/SVG/1.1/DTD/svg11.dtd"><svg t="1693007136240" class="icon" viewBox="0 0 1024 1024" version="1.1" xmlns="http://www.w3.org/2000/svg" p-id="1506" xmlns:xlink="http://www.w3.org/1999/xlink" width="200" height="200"><path d="M512 799.507692l322.953846-319.015384c31.507692-31.507692 51.2-78.769231 51.2-126.03077 0-47.261538-19.692308-90.584615-51.2-126.030769-31.507692-31.507692-78.769231-51.2-126.030769-51.2-47.261538 0-90.584615 19.692308-126.030769 51.2l-31.507693 31.507693-39.384615 39.384615-43.323077-43.323077-27.569231-27.569231c-35.446154-31.507692-78.769231-51.2-126.030769-51.2-47.261538 0-90.584615 19.692308-126.030769 51.2-31.507692 35.446154-51.2 78.769231-51.2 126.030769 0 47.261538 19.692308 90.584615 51.2 126.03077l322.953846 319.015384m0 82.707693l-362.338462-362.338462c-90.584615-90.584615-90.584615-240.246154 0-334.769231C192.984615 141.784615 252.061538 118.153846 315.076923 118.153846s122.092308 23.630769 165.415385 70.892308l31.507692 27.569231 27.569231-27.569231C582.892308 141.784615 645.907692 118.153846 708.923077 118.153846c63.015385 0 122.092308 23.630769 165.415385 70.892308 90.584615 90.584615 90.584615 240.246154 0 334.769231L512 882.215385z" fill="#ffffff" p-id="1507"></path></svg>