<?xml version="1.0" standalone="no"?><!DOCTYPE svg PUBLIC "-//W3C//DTD SVG 1.1//EN" "http://www.w3.org/Graphics/SVG/1.1/DTD/svg11.dtd"><svg t="1692864514406" class="icon" viewBox="0 0 1024 1024" version="1.1" xmlns="http://www.w3.org/2000/svg" p-id="5590" xmlns:xlink="http://www.w3.org/1999/xlink" width="200" height="200"><path d="M512 960C265.6 960 64 758.4 64 512S265.6 64 512 64s448 201.6 448 448-201.6 448-448 448z m0-832c-211.2 0-384 172.8-384 384s172.8 384 384 384 384-172.8 384-384-172.8-384-384-384z m224 416H512c-17.6 0-32-14.4-32-32V224c0-17.6 14.4-32 32-32s32 14.4 32 32v256h192c17.6 0 32 14.4 32 32s-14.4 32-32 32z" fill="#ffffff" p-id="5591"></path></svg>