<?xml version="1.0" standalone="no"?><!DOCTYPE svg PUBLIC "-//W3C//DTD SVG 1.1//EN" "http://www.w3.org/Graphics/SVG/1.1/DTD/svg11.dtd"><svg t="1692870636624" class="icon" viewBox="0 0 1024 1024" version="1.1" xmlns="http://www.w3.org/2000/svg" p-id="25942" xmlns:xlink="http://www.w3.org/1999/xlink" width="200" height="200"><path d="M535.906462 230.321231a233.826462 233.826462 0 0 1 339.101538 0c91.214769 94.562462 93.577846 246.390154 7.010462 343.906461l-7.010462 7.561846-23.906462 24.812308L512 905.846154l-339.101538-299.244308-23.906462-24.812308c-93.617231-97.043692-93.617231-254.424615 0-351.468307a233.708308 233.708308 0 0 1 331.972923-7.089231l7.089231 7.089231 23.945846 24.812307 23.906462-24.812307z m-104.52677 54.705231c-62.621538-64.984615-163.052308-64.984615-225.673846 0-62.070154 64.315077-64.157538 168.329846-6.222769 235.283692l6.222769 6.813538 21.661539 22.488616L512 800.768l284.356923-250.919385 21.976615-22.724923c62.030769-64.315077 64.118154-168.329846 6.183385-235.323077l-6.183385-6.774153c-60.652308-62.857846-156.632615-64.905846-219.529846-6.104616l-6.183384 6.104616-80.580923 83.534769-80.659693-83.534769z" fill="#ffffff" p-id="25943"></path><path d="M708.923077 393.846154m-78.769231 0a78.769231 78.769231 0 1 0 157.538462 0 78.769231 78.769231 0 1 0-157.538462 0Z" fill="#ffffff" p-id="25944"></path></svg>