<?xml version="1.0" standalone="no"?><!DOCTYPE svg PUBLIC "-//W3C//DTD SVG 1.1//EN" "http://www.w3.org/Graphics/SVG/1.1/DTD/svg11.dtd"><svg t="1692950328095" class="icon" viewBox="0 0 1024 1024" version="1.1" xmlns="http://www.w3.org/2000/svg" p-id="29940" xmlns:xlink="http://www.w3.org/1999/xlink" width="200" height="200"><path d="M200 224.112v543.776c0 13.36 10.768 24.112 24.112 24.112h543.776c13.36 0 24.112-10.768 24.112-24.112V224.112c0-13.36-10.768-24.112-24.112-24.112H224.112c-13.36 0-24.112 10.768-24.112 24.112z m-48 0A72.064 72.064 0 0 1 224.112 152h543.776A72.064 72.064 0 0 1 840 224.112v543.776a72.064 72.064 0 0 1-72.112 72.112H224.112A72.064 72.064 0 0 1 152 767.888V224.112z" fill="#ffffff" p-id="29941"></path><path d="M507.6 292.128a17.072 17.072 0 0 0-23.2 0.048l-132.72 125.024c-12.88 12.128-8.96 21.968 8.656 21.968h62.464V512c0 8.752 7.04 15.84 15.872 15.84h114.048a15.952 15.952 0 0 0 15.872-16.064v-71.52h63.36c17.68 0 21.52-9.952 8.848-21.952l-133.2-126.176z" fill="#ffffff" p-id="29942"></path><path d="M422.624 560l146 0 0 32-146 0 0-32Z" fill="#ffffff" p-id="29943"></path><path d="M184.112 624v160.08a24 24 0 0 0 23.92 24.096H783.68c13.152 0 23.92-10.784 23.92-24.096V624h-196.8c-18.48 48-65.088 82.08-119.488 82.08A128.096 128.096 0 0 1 371.84 624H184.112z" fill="#ffffff" p-id="29944"></path></svg>