<?xml version="1.0" standalone="no"?><!DOCTYPE svg PUBLIC "-//W3C//DTD SVG 1.1//EN" "http://www.w3.org/Graphics/SVG/1.1/DTD/svg11.dtd"><svg t="1692864592190" class="icon" viewBox="0 0 1024 1024" version="1.1" xmlns="http://www.w3.org/2000/svg" p-id="6803" xmlns:xlink="http://www.w3.org/1999/xlink" width="200" height="200"><path d="M648 307.2H217.6l128-128c12.8-12.8 12.8-32 0-44.8-12.8-12.8-32-12.8-44.8 0L118.4 315.2c-6.4 6.4-9.6 14.4-9.6 22.4s3.2 16 9.6 22.4l180.8 180.8c12.8 12.8 32 12.8 44.8 0 12.8-12.8 12.8-32 0-44.8L219.2 371.2H648c120 0 216 96 216 216s-96 216-216 216H320c-17.6 0-32 14.4-32 32s14.4 32 32 32h328c155.2 0 280-124.8 280-280s-124.8-280-280-280z" fill="#ffffff" p-id="6804"></path></svg>