<?xml version="1.0" standalone="no"?><!DOCTYPE svg PUBLIC "-//W3C//DTD SVG 1.1//EN" "http://www.w3.org/Graphics/SVG/1.1/DTD/svg11.dtd"><svg t="1692937100803" class="icon" viewBox="0 0 1024 1024" version="1.1" xmlns="http://www.w3.org/2000/svg" p-id="18153" xmlns:xlink="http://www.w3.org/1999/xlink" width="200" height="200"><path d="M185.6 416c-19.2 0-32 12.8-32 32v128c0 19.2 12.8 32 32 32s32-12.8 32-32V448c0-19.2-12.8-32-32-32zM620.8 396.8c-19.2 0-32 12.8-32 32v160c0 19.2 12.8 32 32 32s32-12.8 32-32V428.8c0-12.8-12.8-32-32-32zM294.4 332.8c-19.2 0-32 12.8-32 32v294.4c0 19.2 12.8 32 32 32s32-12.8 32-32V364.8c0-19.2-12.8-32-32-32zM403.2 262.4c-19.2 0-32 12.8-32 32v435.2c0 19.2 12.8 32 32 32s32-12.8 32-32V294.4c0-19.2-12.8-32-32-32zM512 326.4c-19.2 0-32 12.8-32 32v307.2c0 19.2 12.8 32 32 32s32-12.8 32-32V358.4c0-19.2-12.8-32-32-32zM729.6 300.8c-19.2 0-32 12.8-32 32v358.4c0 19.2 12.8 32 32 32s32-12.8 32-32V332.8c0-19.2-12.8-32-32-32zM838.4 422.4c-19.2 0-32 12.8-32 32V576c0 19.2 12.8 32 32 32s32-12.8 32-32V454.4c0-19.2-12.8-32-32-32z" p-id="18154" fill="#ffffff"></path><path d="M864 121.6h-704C70.4 121.6 0 192 0 281.6v460.8c0 89.6 70.4 160 160 160h704c89.6 0 160-70.4 160-160V281.6c0-89.6-70.4-160-160-160z m96 620.8c0 51.2-44.8 96-96 96h-704c-51.2 0-96-44.8-96-96V281.6c0-51.2 44.8-96 96-96h704c51.2 0 96 44.8 96 96v460.8z" p-id="18155" fill="#ffffff"></path></svg>