<?xml version="1.0" standalone="no"?><!DOCTYPE svg PUBLIC "-//W3C//DTD SVG 1.1//EN" "http://www.w3.org/Graphics/SVG/1.1/DTD/svg11.dtd"><svg t="1696670125784" class="icon" viewBox="0 0 1024 1024" version="1.1" xmlns="http://www.w3.org/2000/svg" p-id="10081" xmlns:xlink="http://www.w3.org/1999/xlink" width="200" height="200"><path d="M512.173962 886.386057l91.74945-132.906743 7.613383-3.069912C743.297438 698.179958 835.098053 564.915058 834.688732 441.04409c0-177.481872-144.459847-321.880321-321.890555-321.880321S190.866691 263.531519 190.866691 441.04409c0.051165 118.253028 87.54367 249.768078 212.847264 305.006036L410.365432 749.05864z m-136.212016-96.19059l-1.453092-0.726546C233.886397 723.240676 139.292161 577.030979 139.240996 441.04409c0-99.557261 38.885558-193.404485 109.554943-264.012472S413.189751 67.538074 512.798177 67.538074c205.960427 0 373.506016 167.535356 373.506016 373.506016 0 141.758324-98.943279 289.942999-246.186513 353.418555l-1.657753 0.675381-125.037534 164.25055z" fill="#409EFF" p-id="10082"></path><path d="M380.229124 593.086621h44.319303v-269.947636h-44.319303v269.947636z" fill="#409EFF" p-id="10083"></path><path d="M601.876804 362.24967h-69.113963v87.33901h69.113963q56.066835 0 56.077067-45.557501-2.640125-40.461446-56.077067-41.781509M605.816525 488.699364h-73.053684v104.377024H487.113243V321.829156h121.261542q88.771635 3.878323 95.167286 82.171324-1.320062 83.409522-97.797178 84.698884" fill="#409EFF" p-id="10084"></path></svg>