<?xml version="1.0" standalone="no"?><!DOCTYPE svg PUBLIC "-//W3C//DTD SVG 1.1//EN" "http://www.w3.org/Graphics/SVG/1.1/DTD/svg11.dtd"><svg t="1692864759580" class="icon" viewBox="0 0 1024 1024" version="1.1" xmlns="http://www.w3.org/2000/svg" p-id="9437" xmlns:xlink="http://www.w3.org/1999/xlink" width="200" height="200"><path d="M577.6 825.6c-102.4 20.8-212.8-8-291.2-86.4-116.8-116.8-124.8-299.2-24-424v59.2c0 17.6 14.4 32 32 32s32-14.4 32-32v-128c0-9.6-3.2-17.6-9.6-22.4-6.4-6.4-14.4-9.6-22.4-9.6h-128c-17.6 0-32 14.4-32 32s14.4 32 32 32h44.8C91.2 427.2 102.4 644.8 240 784c96 96 228.8 129.6 352 104 4.8-1.6 11.2-4.8 14.4-8 12.8-12.8 12.8-32 0-44.8-6.4-9.6-19.2-12.8-28.8-9.6z m281.6-78.4H816c116.8-150.4 107.2-368-32-507.2-89.6-89.6-211.2-124.8-328-108.8-8 0-14.4 3.2-20.8 9.6-12.8 12.8-12.8 32 0 44.8 8 8 19.2 11.2 30.4 8 96-14.4 198.4 16 272 89.6 116.8 116.8 124.8 299.2 24 424V648c0-17.6-14.4-32-32-32s-32 14.4-32 32v128c0 9.6 3.2 17.6 9.6 22.4 6.4 6.4 14.4 9.6 22.4 9.6h128c17.6 0 32-14.4 32-32s-12.8-28.8-30.4-28.8z" fill="#ffffff" p-id="9438"></path></svg>