<?xml version="1.0" standalone="no"?><!DOCTYPE svg PUBLIC "-//W3C//DTD SVG 1.1//EN" "http://www.w3.org/Graphics/SVG/1.1/DTD/svg11.dtd"><svg t="1692937049179" class="icon" viewBox="0 0 1024 1024" version="1.1" xmlns="http://www.w3.org/2000/svg" p-id="16160" xmlns:xlink="http://www.w3.org/1999/xlink" width="200" height="200"><path d="M981.333333 384c0-79.36-54.613333-145.493333-128-164.693333V85.333333c0-23.466667-19.2-42.666667-42.666666-42.666666s-42.666667 19.2-42.666667 42.666666v133.973334c-73.386667 19.2-128 85.333333-128 164.693333s54.613333 145.493333 128 164.693333V938.666667c0 23.466667 19.2 42.666667 42.666667 42.666666s42.666667-19.2 42.666666-42.666666v-389.973334c73.386667-19.2 128-85.333333 128-164.693333z m-170.666666 85.333333c-46.933333 0-85.333333-38.4-85.333334-85.333333s38.4-85.333333 85.333334-85.333333 85.333333 38.4 85.333333 85.333333-38.4 85.333333-85.333333 85.333333zM554.666667 560.64V85.333333c0-23.466667-19.2-42.666667-42.666667-42.666666s-42.666667 19.2-42.666667 42.666666v475.306667c-73.386667 19.2-128 85.333333-128 164.693333s54.613333 145.493333 128 164.693334V938.666667c0 23.466667 19.2 42.666667 42.666667 42.666666s42.666667-19.2 42.666667-42.666666v-48.64c73.386667-19.2 128-85.333333 128-164.693334s-54.613333-145.493333-128-164.693333zM512 810.666667c-46.933333 0-85.333333-38.4-85.333333-85.333334s38.4-85.333333 85.333333-85.333333 85.333333 38.4 85.333333 85.333333-38.4 85.333333-85.333333 85.333334zM384 341.333333c0-79.36-54.613333-145.493333-128-164.693333V85.333333c0-23.466667-19.2-42.666667-42.666667-42.666666s-42.666667 19.2-42.666666 42.666666v91.306667c-73.386667 19.2-128 85.333333-128 164.693333s54.613333 145.493333 128 164.693334V938.666667c0 23.466667 19.2 42.666667 42.666666 42.666666s42.666667-19.2 42.666667-42.666666V506.026667c73.386667-19.2 128-85.333333 128-164.693334z m-170.666667 85.333334c-46.933333 0-85.333333-38.4-85.333333-85.333334s38.4-85.333333 85.333333-85.333333 85.333333 38.4 85.333334 85.333333-38.4 85.333333-85.333334 85.333334z" p-id="16161" fill="#ffffff"></path></svg>