<?xml version="1.0" standalone="no"?><!DOCTYPE svg PUBLIC "-//W3C//DTD SVG 1.1//EN" "http://www.w3.org/Graphics/SVG/1.1/DTD/svg11.dtd"><svg t="1693199161379" class="icon" viewBox="0 0 1024 1024" version="1.1" xmlns="http://www.w3.org/2000/svg" p-id="13344" xmlns:xlink="http://www.w3.org/1999/xlink" width="200" height="200"><path d="M745.227761 1024H278.772239A100.097752 100.097752 0 0 1 178.674487 923.902248V100.097752A100.097752 100.097752 0 0 1 278.772239 0h466.455522a100.097752 100.097752 0 0 1 100.097752 100.097752v823.804496a100.097752 100.097752 0 0 1-100.097752 100.097752zM278.772239 80.078201a20.01955 20.01955 0 0 0-20.019551 20.019551v823.804496a20.01955 20.01955 0 0 0 20.019551 20.019551h466.455522a20.01955 20.01955 0 0 0 20.019551-20.019551V100.097752a20.01955 20.01955 0 0 0-20.019551-20.019551z" fill="#ffffff" p-id="13345"></path><path d="M799.280547 830.811339H225.72043a40.039101 40.039101 0 1 1 0-80.078201h573.560117a40.039101 40.039101 0 1 1 0 80.078201zM566.052786 926.905181H457.947214a40.039101 40.039101 0 1 1 0-80.078202h108.105572a40.039101 40.039101 0 1 1 0 80.078202zM308.801564 222.217009a40.039101 40.039101 0 0 1-28.02737-68.066471l52.05083-52.050831a40.344399 40.344399 0 1 1 57.055719 57.055718l-52.050831 52.050831a40.039101 40.039101 0 0 1-29.028348 11.010753zM328.821114 342.334311a40.039101 40.039101 0 0 1-28.02737-68.066471l152.148582-152.148583a40.344399 40.344399 0 1 1 57.055719 57.055719L356.848485 330.322581a40.039101 40.039101 0 0 1-28.027371 12.01173z" fill="#ffffff" p-id="13346"></path></svg>