<?xml version="1.0" standalone="no"?><!DOCTYPE svg PUBLIC "-//W3C//DTD SVG 1.1//EN" "http://www.w3.org/Graphics/SVG/1.1/DTD/svg11.dtd"><svg t="1692872707060" class="icon" viewBox="0 0 1024 1024" version="1.1" xmlns="http://www.w3.org/2000/svg" p-id="1798" xmlns:xlink="http://www.w3.org/1999/xlink" width="200" height="200"><path d="M145.4 461.1l367.6 340 367.6-340c22.5-14.5 52.5-14.5 67.5 0 15 21.7 15 50.7 0 65.1L527.9 909.5c0 7.2-7.5 7.2-15 7.2s-7.5 0-15-7.2L77.7 526.2c-22.5-21.7-15-50.6 0-65.1 22.6-14.5 52.6-14.5 67.7 0zM528 576.9c0 7.2-7.5 7.2-15 7.2s-15 0-15-7.2L77.8 193.6c-22.5-21.7-15-50.6 0-65.1 22.5-14.4 52.5-14.4 67.5 0L513 468.4l367.6-347.2c22.5-14.5 52.5-14.5 67.5 0 15 21.7 15 50.7 0 65.1L528 576.9z m0 0" fill="#ffffff" p-id="1799"></path></svg>