<?xml version="1.0" standalone="no"?><!DOCTYPE svg PUBLIC "-//W3C//DTD SVG 1.1//EN" "http://www.w3.org/Graphics/SVG/1.1/DTD/svg11.dtd"><svg t="1692864603081" class="icon" viewBox="0 0 1024 1024" version="1.1" xmlns="http://www.w3.org/2000/svg" p-id="7005" xmlns:xlink="http://www.w3.org/1999/xlink" width="200" height="200"><path d="M896 288v-64c0-70.4-57.6-128-128-128H256c-70.4 0-128 57.6-128 128v64c0 38.4 17.6 72 43.2 96-25.6 24-43.2 57.6-43.2 96v64c0 38.4 17.6 72 43.2 96-25.6 24-43.2 57.6-43.2 96v64c0 70.4 57.6 128 128 128h512c70.4 0 128-57.6 128-128v-64c0-38.4-17.6-72-43.2-96 27.2-24 43.2-57.6 43.2-96v-64c0-38.4-17.6-72-43.2-96 25.6-24 43.2-57.6 43.2-96z m-64 512c0 35.2-28.8 64-64 64H256c-35.2 0-64-28.8-64-64v-64c0-35.2 28.8-64 64-64h512c35.2 0 64 28.8 64 64v64z m0-256c0 35.2-28.8 64-64 64H256c-35.2 0-64-28.8-64-64v-64c0-35.2 28.8-64 64-64h512c35.2 0 64 28.8 64 64v64z m0-256c0 35.2-28.8 64-64 64H256c-35.2 0-64-28.8-64-64v-64c0-35.2 28.8-64 64-64h512c35.2 0 64 28.8 64 64v64z" fill="#ffffff" p-id="7006"></path><path d="M672 256a32 32 0 1 0 64 0 32 32 0 1 0-64 0zM672 512a32 32 0 1 0 64 0 32 32 0 1 0-64 0zM672 768a32 32 0 1 0 64 0 32 32 0 1 0-64 0z" fill="#ffffff" p-id="7007"></path></svg>