<?xml version="1.0" standalone="no"?><!DOCTYPE svg PUBLIC "-//W3C//DTD SVG 1.1//EN" "http://www.w3.org/Graphics/SVG/1.1/DTD/svg11.dtd"><svg t="1692947569404" class="icon" viewBox="0 0 1024 1024" version="1.1" xmlns="http://www.w3.org/2000/svg" p-id="24864" xmlns:xlink="http://www.w3.org/1999/xlink" width="200" height="200"><path d="M448 704h192v-192h-192v192z m-32-256h256a32 32 0 0 1 32 32v256a32 32 0 0 1-32 32h-256a32 32 0 0 1-32-32v-256a32 32 0 0 1 32-32zM174.72 178.528a32 32 0 1 1 48.32-41.952l76.416 88a32 32 0 0 1-48.32 41.984L174.72 178.528z m51.264 205.952H137.6a32 32 0 1 1 0-64h120.32a32 32 0 0 1 32 32v420.672l10.272-13.568a32 32 0 0 1 51.04 38.624l-67.776 89.6c-18.528 24.448-57.504 11.36-57.504-19.328V384.48z m608.32-192.064H384a32 32 0 0 1 0-64h482.336a32 32 0 0 1 32 32V864a32 32 0 0 1-32 32h-142.56a32 32 0 1 1 0-64h110.56V192.416zM416 354.976a32 32 0 0 1 0-64h257.408a32 32 0 1 1 0 64H416z" fill="#ffffff" p-id="24865"></path></svg>