<?xml version="1.0" standalone="no"?><!DOCTYPE svg PUBLIC "-//W3C//DTD SVG 1.1//EN" "http://www.w3.org/Graphics/SVG/1.1/DTD/svg11.dtd"><svg t="1692864434199" class="icon" viewBox="0 0 1024 1024" version="1.1" xmlns="http://www.w3.org/2000/svg" p-id="5032" xmlns:xlink="http://www.w3.org/1999/xlink" width="200" height="200"><path d="M512 704c-105.6 0-192-86.4-192-192s86.4-192 192-192 192 86.4 192 192-86.4 192-192 192z m0-320c-70.4 0-128 57.6-128 128s57.6 128 128 128 128-57.6 128-128-57.6-128-128-128z m75.2 576H438.4c-46.4 0-84.8-38.4-84.8-84.8 0-8-4.8-16-12.8-19.2-12.8-6.4-25.6-14.4-38.4-22.4-8-4.8-16-4.8-22.4-1.6-41.6 24-92.8 9.6-116.8-32L86.4 672c-11.2-19.2-14.4-43.2-8-65.6 6.4-22.4 20.8-40 40-51.2 6.4-4.8 11.2-12.8 11.2-20.8v-44.8c0-8-3.2-16-11.2-20.8-41.6-24-54.4-75.2-32-116.8l75.2-129.6c24-41.6 75.2-54.4 116.8-32 6.4 3.2 16 3.2 22.4-1.6 12.8-8 25.6-16 38.4-22.4 8-3.2 12.8-11.2 12.8-19.2 0-44.8 38.4-83.2 84.8-83.2h148.8c48 0 86.4 38.4 86.4 84.8 0 8 4.8 16 12.8 19.2 12.8 6.4 25.6 14.4 38.4 22.4 8 4.8 16 4.8 24 1.6 19.2-11.2 43.2-14.4 64-8 22.4 6.4 40 20.8 51.2 40l75.2 129.6c24 41.6 9.6 92.8-32 116.8-6.4 4.8-11.2 12.8-11.2 20.8V536c0 8 3.2 16 11.2 20.8 19.2 11.2 33.6 30.4 40 51.2s3.2 44.8-8 65.6L862.4 800c-24 40-75.2 54.4-116.8 32-6.4-4.8-16-3.2-24 1.6-12.8 8-25.6 16-38.4 22.4-8 3.2-12.8 11.2-12.8 19.2 1.6 46.4-36.8 84.8-83.2 84.8zM288 764.8c16 0 33.6 4.8 48 14.4 9.6 6.4 20.8 12.8 32 17.6 28.8 14.4 48 44.8 48 76.8 0 11.2 9.6 20.8 20.8 20.8h148.8c11.2 0 20.8-9.6 20.8-20.8 0-32 17.6-62.4 48-76.8 11.2-4.8 20.8-11.2 32-17.6 27.2-17.6 62.4-19.2 89.6-3.2 9.6 6.4 24 1.6 28.8-8L880 638.4c3.2-4.8 3.2-11.2 1.6-16-1.6-4.8-4.8-9.6-9.6-12.8-28.8-16-44.8-46.4-43.2-80v-35.2c-1.6-33.6 14.4-64 43.2-80 9.6-6.4 14.4-19.2 8-28.8L808 256c-3.2-4.8-8-8-12.8-9.6-4.8-1.6-11.2 0-16 1.6-28.8 16-62.4 14.4-89.6-3.2-9.6-6.4-20.8-12.8-32-17.6-28.8-14.4-48-44.8-48-76.8-1.6-12.8-11.2-22.4-22.4-22.4H438.4c-12.8 0-22.4 9.6-22.4 20.8 0 32-17.6 62.4-48 76.8-11.2 4.8-20.8 11.2-32 17.6-27.2 17.6-62.4 19.2-91.2 3.2-9.6-6.4-24-1.6-28.8 8L142.4 384c-6.4 9.6-1.6 24 8 28.8 28.8 16 44.8 46.4 43.2 80V528c1.6 33.6-14.4 64-43.2 80-4.8 3.2-8 8-9.6 12.8-1.6 4.8 0 11.2 1.6 16l75.2 129.6c6.4 9.6 19.2 14.4 28.8 8 12.8-6.4 27.2-9.6 41.6-9.6z" fill="#ffffff" p-id="5033"></path></svg>