<svg width="20" height="18" viewBox="0 0 20 18" fill="none" xmlns="http://www.w3.org/2000/svg">
<path d="M13.125 11.5C12.9688 11.5 12.8125 11.4375 12.6875 11.3125L10 8.625L7.3125 11.3125C7.0625 11.5625 6.6875 11.5625 6.4375 11.3125C6.1875 11.0625 6.1875 10.6875 6.4375 10.4375L9.5625 7.3125C9.8125 7.0625 10.1875 7.0625 10.4375 7.3125L13.5625 10.4375C13.8125 10.6875 13.8125 11.0625 13.5625 11.3125C13.4375 11.4375 13.2812 11.5 13.125 11.5ZM10 17.75C9.65625 17.75 9.375 17.4688 9.375 17.125V8.0625C9.375 7.71875 9.65625 7.4375 10 7.4375C10.3438 7.4375 10.625 7.71875 10.625 8.0625V17.125C10.625 17.4688 10.3438 17.75 10 17.75ZM15 14H13.75C13.4062 14 13.125 13.7188 13.125 13.375C13.125 13.0312 13.4062 12.75 13.75 12.75H15C16.7188 12.75 18.125 11.3438 18.125 9.625C18.125 8.125 17 6.78125 15.5 6.53125C15.2188 6.5 15 6.25 14.9688 5.96875C14.7188 3.4375 12.5625 1.5 10 1.5C7.4375 1.5 5.28125 3.4375 5.03125 6C5 6.28125 4.78125 6.5 4.5 6.5625C3 6.78125 1.875 8.125 1.875 9.625C1.875 11.3438 3.28125 12.75 5 12.75H6.25C6.59375 12.75 6.875 13.0312 6.875 13.375C6.875 13.7188 6.59375 14 6.25 14H5C2.59375 14 0.625 12.0312 0.625 9.625C0.625 7.65625 1.96875 5.9375 3.84375 5.40625C4.375 2.4375 6.9375 0.25 10 0.25C13.0625 0.25 15.625 2.4375 16.1562 5.40625C18.0312 5.9375 19.375 7.65625 19.375 9.625C19.375 12.0312 17.4062 14 15 14Z" fill="#7B8290"/>
</svg>
