<svg width="18" height="17" viewBox="0 0 18 17" fill="none" xmlns="http://www.w3.org/2000/svg">
<path d="M2.66003 0.380005C3.03336 0.380005 3.35003 0.506672 3.61003 0.760005C3.87003 1.01334 4.00003 1.32667 4.00003 1.70001V2.72001C4.00003 3.09334 3.87003 3.41 3.61003 3.67C3.35003 3.93 3.03336 4.06 2.66003 4.06H1.60003C1.24003 4.06 0.930029 3.93 0.670029 3.67C0.410029 3.41 0.280029 3.09334 0.280029 2.72001V1.70001C0.280029 1.32667 0.410029 1.01334 0.670029 0.760005C0.930029 0.506672 1.24003 0.380005 1.60003 0.380005H2.66003ZM16.38 0.380005C16.74 0.380005 17.05 0.506672 17.31 0.760005C17.57 1.01334 17.7 1.32667 17.7 1.70001V2.72001C17.7 3.09334 17.57 3.41 17.31 3.67C17.05 3.93 16.74 4.06 16.38 4.06H7.84003C7.4667 4.06 7.15003 3.93 6.89003 3.67C6.63003 3.41 6.50003 3.09334 6.50003 2.72001V1.70001C6.50003 1.32667 6.63003 1.01334 6.89003 0.760005C7.15003 0.506672 7.4667 0.380005 7.84003 0.380005H16.38ZM2.66003 6.6C3.03336 6.6 3.35003 6.73001 3.61003 6.99001C3.87003 7.25001 4.00003 7.56667 4.00003 7.94V8.96C4.00003 9.32 3.87003 9.63001 3.61003 9.89001C3.35003 10.15 3.03336 10.28 2.66003 10.28H1.60003C1.24003 10.28 0.930029 10.15 0.670029 9.89001C0.410029 9.63001 0.280029 9.32 0.280029 8.96V7.94C0.280029 7.56667 0.410029 7.25001 0.670029 6.99001C0.930029 6.73001 1.24003 6.6 1.60003 6.6H2.66003ZM16.38 6.6C16.74 6.6 17.05 6.73001 17.31 6.99001C17.57 7.25001 17.7 7.56667 17.7 7.94V8.96C17.7 9.32 17.57 9.63001 17.31 9.89001C17.05 10.15 16.74 10.28 16.38 10.28H7.84003C7.4667 10.28 7.15003 10.15 6.89003 9.89001C6.63003 9.63001 6.50003 9.32 6.50003 8.96V7.94C6.50003 7.56667 6.63003 7.25001 6.89003 6.99001C7.15003 6.73001 7.4667 6.6 7.84003 6.6H16.38ZM2.66003 12.84C3.03336 12.84 3.35003 12.97 3.61003 13.23C3.87003 13.49 4.00003 13.8 4.00003 14.16V15.18C4.00003 15.5533 3.87003 15.87 3.61003 16.13C3.35003 16.39 3.03336 16.52 2.66003 16.52H1.60003C1.24003 16.52 0.930029 16.39 0.670029 16.13C0.410029 15.87 0.280029 15.5533 0.280029 15.18V14.16C0.280029 13.8 0.410029 13.49 0.670029 13.23C0.930029 12.97 1.24003 12.84 1.60003 12.84H2.66003ZM16.38 12.84C16.74 12.84 17.05 12.97 17.31 13.23C17.57 13.49 17.7 13.8 17.7 14.16V15.18C17.7 15.5533 17.57 15.87 17.31 16.13C17.05 16.39 16.74 16.52 16.38 16.52H7.84003C7.4667 16.52 7.15003 16.39 6.89003 16.13C6.63003 15.87 6.50003 15.5533 6.50003 15.18V14.16C6.50003 13.8 6.63003 13.49 6.89003 13.23C7.15003 12.97 7.4667 12.84 7.84003 12.84H16.38Z" fill="#7B8290"/>
</svg>
