<svg width="16" height="16" viewBox="0 0 16 16" fill="none" xmlns="http://www.w3.org/2000/svg">
<path d="M9.28139 14.125C7.28139 14.5313 5.12514 13.9688 3.59389 12.4375C1.31264 10.1563 1.15639 6.59376 3.12514 4.15626V5.31251C3.12514 5.65626 3.40639 5.93751 3.75014 5.93751C4.09389 5.93751 4.37514 5.65626 4.37514 5.31251V2.81251C4.37514 2.62501 4.31264 2.46876 4.18764 2.37501C4.06264 2.25001 3.90639 2.18751 3.75014 2.18751H1.25014C0.906387 2.18751 0.625137 2.46876 0.625137 2.81251C0.625137 3.15626 0.906387 3.43751 1.25014 3.43751H2.12514C-0.218613 6.34376 0.000137091 10.5938 2.68764 13.3125C4.56264 15.1875 7.15639 15.8438 9.56264 15.3438C9.65639 15.3125 9.78139 15.25 9.84389 15.1875C10.0939 14.9375 10.0939 14.5625 9.84389 14.3125C9.71889 14.125 9.46889 14.0625 9.28139 14.125ZM14.7814 12.5938H13.9376C16.2189 9.65626 16.0314 5.40626 13.3126 2.68751C11.5626 0.937508 9.18764 0.250007 6.90639 0.562507C6.75014 0.562507 6.62514 0.625008 6.50014 0.750008C6.25014 1.00001 6.25014 1.37501 6.50014 1.62501C6.65639 1.78126 6.87514 1.84376 7.09389 1.78126C8.96889 1.50001 10.9689 2.09376 12.4064 3.53126C14.6876 5.81251 14.8439 9.37501 12.8751 11.8125V10.6563C12.8751 10.3125 12.5939 10.0313 12.2501 10.0313C11.9064 10.0313 11.6251 10.3125 11.6251 10.6563V13.1563C11.6251 13.3438 11.6876 13.5 11.8126 13.5938C11.9376 13.7188 12.0939 13.7813 12.2501 13.7813H14.7501C15.0939 13.7813 15.3751 13.5 15.3751 13.1563C15.3751 12.8125 15.1251 12.5938 14.7814 12.5938Z" fill="#7B8290"/>
</svg>
