<svg width="18" height="17" viewBox="0 0 18 17" fill="none" xmlns="http://www.w3.org/2000/svg">
<path d="M1.59766 1.55273H16.3047C16.7363 1.55273 17.0859 1.20312 17.0859 0.771484C17.0859 0.339844 16.7363 -0.00976562 16.3047 -0.00976562H1.59766C1.16602 -0.00976562 0.816406 0.339844 0.816406 0.771484C0.816406 1.20312 1.16602 1.55273 1.59766 1.55273ZM16.3047 7.24219H1.59766C1.16602 7.24219 0.816406 7.5918 0.816406 8.02344C0.816406 8.45508 1.16602 8.80469 1.59766 8.80469H16.3047C16.7363 8.80469 17.0859 8.45508 17.0859 8.02344C17.0859 7.5918 16.7363 7.24219 16.3047 7.24219ZM10.1719 14.5352H1.59766C1.16602 14.5352 0.816406 14.8848 0.816406 15.3164C0.816406 15.748 1.16602 16.0977 1.59766 16.0977H10.1719C10.6035 16.0977 10.9531 15.748 10.9531 15.3164C10.9531 14.8848 10.6035 14.5352 10.1719 14.5352ZM16.6875 12.1543L12.2773 9.60938C12.0352 9.4707 11.7383 9.4707 11.4961 9.60938C11.2539 9.74805 11.1055 10.0059 11.1055 10.2852V15.3789C11.1055 15.6582 11.2539 15.916 11.4961 16.0547C11.6172 16.125 11.752 16.1602 11.8867 16.1602C12.0215 16.1602 12.1562 16.125 12.2773 16.0547L16.6875 13.5078C16.9297 13.3691 17.0781 13.1113 17.0781 12.832C17.0781 12.5527 16.9297 12.2949 16.6875 12.1543ZM12.668 14.0254V11.6387L14.7344 12.832L12.668 14.0254Z" fill="#7B8290"/>
</svg>
