<svg width="18" height="18" viewBox="0 0 18 18" fill="none" xmlns="http://www.w3.org/2000/svg">
<path d="M9 17.75C4.1875 17.75 0.25 13.8125 0.25 9C0.25 4.1875 4.1875 0.25 9 0.25C13.8125 0.25 17.75 4.1875 17.75 9C17.75 13.8125 13.8125 17.75 9 17.75ZM9 1.5C4.875 1.5 1.5 4.875 1.5 9C1.5 13.125 4.875 16.5 9 16.5C13.125 16.5 16.5 13.125 16.5 9C16.5 4.875 13.125 1.5 9 1.5ZM13.375 9.625H9C8.65625 9.625 8.375 9.34375 8.375 9V3.375C8.375 3.03125 8.65625 2.75 9 2.75C9.34375 2.75 9.625 3.03125 9.625 3.375V8.375H13.375C13.7188 8.375 14 8.65625 14 9C14 9.34375 13.7188 9.625 13.375 9.625Z" fill="#7B8290"/>
</svg>
