<svg width="20" height="20" viewBox="0 0 20 20" fill="none" xmlns="http://www.w3.org/2000/svg">
<path d="M16.6669 19.375H3.33374C1.84061 19.375 0.62561 18.16 0.62561 16.6669V3.33374C0.62561 1.84061 1.84061 0.62561 3.33374 0.62561H16.6669C18.16 0.62561 19.375 1.84061 19.375 3.33374V16.6669C19.375 18.16 18.16 19.375 16.6669 19.375ZM3.33311 2.70811C2.98874 2.70811 2.70811 2.98874 2.70811 3.33311V16.6662C2.70811 17.0106 2.98874 17.2912 3.33311 17.2912H16.6662C17.0106 17.2912 17.2912 17.0106 17.2912 16.6662V3.33311C17.2912 2.98874 17.0106 2.70811 16.6662 2.70811H3.33311Z" fill="#7B8290"/>
</svg>
