<svg width="200" height="200" viewBox="0 0 200 200" fill="none" xmlns="http://www.w3.org/2000/svg">
<path d="M0 30C0 13.4315 13.4315 0 30 0H170C186.569 0 200 13.4315 200 30V170C200 186.569 186.569 200 170 200H30C13.4315 200 0 186.569 0 170V30Z" fill="#222831"/>
<path d="M123.924 106.216C124.089 105.75 124.218 105.273 124.311 104.788L116.318 150.118C102.891 132.657 90.133 114.416 75.8834 97.6217C75.6551 97.3526 75.4559 97.118 75.1202 97.1586C75.0012 97.1798 74.8894 97.2305 74.7951 97.3062C74.7007 97.3818 74.6269 97.4799 74.5803 97.5915L82.1057 54.9129L82.3113 55.1779C88.87 63.6101 95.5547 71.9422 102.078 80.4021C108.634 88.8716 115.048 97.452 121.742 105.813C122.021 106.162 122.296 106.498 122.58 106.853C122.679 106.956 122.802 107.032 122.938 107.074C123.074 107.116 123.219 107.124 123.358 107.096C123.444 107.066 123.523 107.02 123.59 106.959C123.657 106.898 123.711 106.825 123.749 106.742C123.833 106.534 123.859 106.386 123.924 106.216Z" fill="#F3F8FF"/>
<path d="M74.4848 97.8332C74.3292 98.3389 74.2181 98.8572 74.153 99.3823C71.5944 113.893 70.7722 118.556 68.3227 133.08C30.4732 147.182 64.8497 152.776 27.0002 166.879L45.5866 61.4702C45.6892 60.8594 45.8691 60.2642 46.1219 59.6988C46.3636 59.2108 46.6424 58.7421 46.9558 58.2968C47.4008 57.6399 47.9059 57.0258 48.4645 56.4623L65.9947 44.1925C66.3582 43.9351 66.7577 43.7327 67.1803 43.5919C67.798 43.3748 68.4547 43.2907 69.1072 43.3449C71.0735 43.3299 72.9765 44.0393 74.4531 45.3378C74.8317 45.6715 75.1772 46.0409 75.4849 46.4409L82.1086 54.8961L74.5832 97.5748C74.5444 97.6585 74.5115 97.7448 74.4848 97.8332Z" fill="#00ADB5"/>
<path d="M151.031 147.245C144.703 151.287 138.083 156.934 131.173 159.843C129.538 160.482 127.739 160.572 126.049 160.1C124.358 159.627 122.867 158.617 121.801 157.223L116.295 150.114L131.1 66.1493C168.808 52.5194 133.588 46.2796 171.296 32.6495C174.188 31.6041 158.439 111.728 155.52 128.645C155.46 128.981 153.145 142.114 153.087 142.444C152.791 144.621 152.493 146.041 151.031 147.245Z" fill="#00ADB5"/>
<path d="M147.813 102.341C147.255 102.132 146.775 101.479 146.451 100.513C146.127 99.5472 146.053 97.717 146.193 95.2448C146.413 91.1982 145.881 88.0357 144.389 85.841C142.896 83.6495 140.345 81.8369 136.66 80.2786C132.939 78.7871 129.651 76.2162 127.096 72.801C124.51 69.5082 122.385 66.4077 120.816 63.5199C119.265 61.0893 117.865 60.0483 116.712 60.4104C115.539 60.8866 114.771 61.8853 114.48 63.5367L110.791 84.4596C109.781 90.1871 108.694 96.3521 107.434 102.944C106.269 109.55 105.064 115.812 104.016 121.755L99.7246 146.094C99.3951 148.533 98.5248 151.22 97.3295 154.071C96.0355 156.912 94.0928 159.521 91.609 161.808C89.0337 164.077 85.8417 165.9 82.0583 167.164C78.2729 168.425 73.7614 168.767 68.5197 168.182C63.1832 167.581 58.6756 165.652 54.881 162.483C51.0831 159.317 48.3662 155.658 46.7215 151.508C45.0796 147.359 44.6473 143.079 45.5184 138.693C46.2953 134.288 48.7609 130.408 52.7039 127.129C56.6443 123.85 60.6832 121.722 64.7924 120.858C68.9016 119.995 72.705 119.757 76.2751 120.272C79.8452 120.787 82.972 121.567 85.6202 122.828C88.2881 123.978 90.281 125.013 91.508 125.909L99.1196 82.7415C101.236 70.7412 103.624 57.1941 106.382 42.1237C106.906 39.1538 108.005 36.8474 109.678 35.2142C111.351 33.581 113.273 32.7826 115.634 32.8588C117.518 32.8479 118.973 33.5588 120.008 34.9897C121.04 36.4234 121.922 38.1672 122.801 40.4794C123.678 42.791 124.787 45.4834 126.143 48.4482C127.503 51.4136 129.531 54.4969 132.158 57.5715C134.434 60.3585 136.428 62.5241 138.268 63.8715C140.108 65.2189 141.757 66.5292 143.329 67.715C144.902 68.9008 146.455 70.1976 147.872 71.6959C149.386 73.2114 150.859 75.517 152.389 78.6235C153.937 81.6223 154.7 84.5969 154.675 87.5436C154.65 90.4903 154.183 93.1338 153.394 95.3772C152.602 97.6232 151.581 99.4858 150.464 100.766C149.347 102.046 148.465 102.571 147.813 102.341Z" fill="#393E46" fill-opacity="0.933333"/>
</svg>
