<?xml version="1.0" standalone="no"?><!DOCTYPE svg PUBLIC "-//W3C//DTD SVG 1.1//EN" "http://www.w3.org/Graphics/SVG/1.1/DTD/svg11.dtd"><svg t="1692872431408" class="icon" viewBox="0 0 1024 1024" version="1.1" xmlns="http://www.w3.org/2000/svg" p-id="32888" xmlns:xlink="http://www.w3.org/1999/xlink" width="200" height="200"><path d="M439.977387 51.413333a42.666667 42.666667 0 0 0 1.962666 60.288l17.365334 16.298667H384.425387a384 384 0 0 0-103.424 753.92l-0.981334-0.554667a42.666667 42.666667 0 0 0 18.346667 1.365334l0.725333 0.085333v-0.170667a42.666667 42.666667 0 0 0 0-84.266666v-0.085334A298.666667 298.666667 0 0 1 384.425387 213.333333h82.346666l-26.026666 24.832a42.666667 42.666667 0 0 0 59.008 61.696l99.925333-95.573333a42.666667 42.666667 0 0 0-0.298667-61.952L500.265387 49.493333a42.666667 42.666667 0 0 0-60.288 1.962667zM558.71872 896l23.978667 22.912a42.666667 42.666667 0 1 1-58.965334 61.696l-99.925333-95.573333a42.666667 42.666667 0 0 1 0.298667-61.952l99.114666-92.885334a42.666667 42.666667 0 0 1 58.325334 62.293334l-19.413334 18.176H640.425387a298.666667 298.666667 0 0 0 85.76-584.832 42.666667 42.666667 0 1 1 13.525333-84.266667l2.005333-0.085333A384 384 0 0 1 640.425387 896h-81.706667z" fill="#ffffff" p-id="32889"></path><path d="M612.692053 670.72h-200.533333v-61.44h67.413333v-180.48H421.11872v-46.933333c34.133333-6.4 56.32-14.933333 78.506667-28.586667h55.893333v256h57.173333v61.44z" fill="#ffffff" p-id="32890"></path></svg>