<?xml version="1.0" standalone="no"?><!DOCTYPE svg PUBLIC "-//W3C//DTD SVG 1.1//EN" "http://www.w3.org/Graphics/SVG/1.1/DTD/svg11.dtd"><svg t="1692864581575" class="icon" viewBox="0 0 1024 1024" version="1.1" xmlns="http://www.w3.org/2000/svg" p-id="6600" xmlns:xlink="http://www.w3.org/1999/xlink" width="200" height="200"><path d="M857.92 875.584h-94.4a32 32 0 0 1 0-64h94.464c20.224 0 36.736-17.344 36.736-38.656V207.424c0-21.312-16.512-38.656-36.736-38.656H170.752c-20.224 0-36.736 17.344-36.736 38.656v565.504c0 21.312 16.448 38.656 36.736 38.656h384.256a32 32 0 0 1 0 64H170.752c-55.552 0-100.736-46.08-100.736-102.656V207.424c0-56.64 45.184-102.656 100.736-102.656H857.92c55.552 0 100.736 46.08 100.736 102.656v565.504c0 56.576-45.184 102.656-100.736 102.656z" fill="#ffffff" p-id="6601"></path><path d="M397.76 374.464c0-35.2 24.96-49.6 55.424-32l200.32 115.712c30.528 17.6 30.528 46.4 0 64l-200.32 115.712c-30.464 17.6-55.424 3.2-55.424-32V374.464z" fill="#ffffff" p-id="6602"></path></svg>