<?xml version="1.0" standalone="no"?><!DOCTYPE svg PUBLIC "-//W3C//DTD SVG 1.1//EN" "http://www.w3.org/Graphics/SVG/1.1/DTD/svg11.dtd"><svg t="1692950275091" class="icon" viewBox="0 0 1024 1024" version="1.1" xmlns="http://www.w3.org/2000/svg" p-id="27126" xmlns:xlink="http://www.w3.org/1999/xlink" width="200" height="200"><path d="M510.407736 960.414823c-60.290131 0-118.797663-11.81714-173.898609-35.122939-53.199643-22.50148-100.970646-54.706973-141.983735-95.720062s-73.218582-88.784092-95.720062-141.983735c-23.305799-55.101969-35.122939-113.608477-35.122939-173.898609 0-60.290131 11.81714-118.797663 35.122939-173.898609 22.50148-53.200666 54.706973-100.970646 95.720062-141.983735 41.013089-41.014112 88.784092-73.218582 141.983735-95.721085 55.101969-23.305799 113.608477-35.122939 173.898609-35.122939s118.797663 11.81714 173.898609 35.122939c53.199643 22.502503 100.970646 54.706973 141.983735 95.721085 41.013089 41.013089 73.218582 88.784092 95.720062 141.983735 23.305799 55.100946 35.122939 113.608477 35.122939 173.898609 0 60.290131-11.81714 118.797663-35.122939 173.898609-22.50148 53.199643-54.706973 100.970646-95.720062 141.983735s-88.784092 73.218582-141.983735 95.720062C629.205399 948.597683 570.697867 960.414823 510.407736 960.414823zM510.407736 130.408095c-102.377692 0-198.627826 39.868009-271.0206 112.260783-72.392774 72.392774-112.260783 168.642908-112.260783 271.0206s39.868009 198.627826 112.260783 271.0206c72.39175 72.392774 168.642908 112.260783 271.0206 112.260783 102.377692 0 198.62885-39.868009 271.0206-112.260783s112.260783-168.642908 112.260783-271.0206-39.868009-198.627826-112.260783-271.0206S612.786451 130.408095 510.407736 130.408095z" fill="#ffffff" p-id="27127"></path><path d="M704.347796 512.541329 512.731664 512.541329 512.731664 292.051589 411.414117 292.051589 411.414117 613.858876 704.347796 613.858876Z" fill="#ffffff" p-id="27128"></path></svg>