<?xml version="1.0" standalone="no"?><!DOCTYPE svg PUBLIC "-//W3C//DTD SVG 1.1//EN" "http://www.w3.org/Graphics/SVG/1.1/DTD/svg11.dtd"><svg t="1692878217618" class="icon" viewBox="0 0 2048 1024" version="1.1" xmlns="http://www.w3.org/2000/svg" p-id="1587" width="400" height="200" xmlns:xlink="http://www.w3.org/1999/xlink"><path d="M512 61.44C263.168 61.44 61.44 263.168 61.44 512s201.728 450.56 450.56 450.56h1024c248.832 0 450.56-201.728 450.56-450.56S1784.832 61.44 1536 61.44H512z m0-61.44h1024c282.76736 0 512 229.23264 512 512S1818.76736 1024 1536 1024H512C229.23264 1024 0 794.76736 0 512S229.23264 0 512 0z m332.8 524.8C844.8 348.0576 701.52192 204.8 524.8 204.8 348.0576 204.8 204.8 348.07808 204.8 524.8c0 176.7424 143.27808 320 320 320 176.7424 0 320-143.27808 320-320z" fill="#ffffff" p-id="1588"></path></svg>