<?xml version="1.0" standalone="no"?><!DOCTYPE svg PUBLIC "-//W3C//DTD SVG 1.1//EN" "http://www.w3.org/Graphics/SVG/1.1/DTD/svg11.dtd"><svg t="1692864668678" class="icon" viewBox="0 0 1024 1024" version="1.1" xmlns="http://www.w3.org/2000/svg" p-id="7817" xmlns:xlink="http://www.w3.org/1999/xlink" width="200" height="200"><path d="M516.032 66.496A447.488 447.488 0 0 0 69.056 513.472c0 246.528 200.512 446.976 446.976 446.976s446.976-200.512 446.976-446.976A447.488 447.488 0 0 0 516.032 66.496z m0 830.016c-211.2 0-382.976-171.84-382.976-382.976S304.896 130.56 516.032 130.56 899.008 302.4 899.008 513.536s-171.84 382.976-382.976 382.976z" fill="#ffffff" p-id="7818"></path><path d="M700.032 481.472h-152v-152a32 32 0 0 0-64 0v152h-152a32 32 0 0 0 0 64h152v152a32 32 0 0 0 64 0v-152h152a32 32 0 0 0 0-64z" fill="#ffffff" p-id="7819"></path></svg>