<?xml version="1.0" standalone="no"?><!DOCTYPE svg PUBLIC "-//W3C//DTD SVG 1.1//EN" "http://www.w3.org/Graphics/SVG/1.1/DTD/svg11.dtd"><svg t="1693194742146" class="icon" viewBox="0 0 1024 1024" version="1.1" xmlns="http://www.w3.org/2000/svg" p-id="7060" xmlns:xlink="http://www.w3.org/1999/xlink" width="200" height="200"><path d="M832 170.666667H192a106.666667 106.666667 0 0 0-106.666667 106.666666v469.333334a106.666667 106.666667 0 0 0 106.666667 106.666666h640a106.666667 106.666667 0 0 0 106.666667-106.666666V277.333333a106.666667 106.666667 0 0 0-106.666667-106.666666z m42.666667 565.333333a53.333333 53.333333 0 0 1-53.333334 53.333333h-618.666666A53.333333 53.333333 0 0 1 149.333333 736v-448A53.333333 53.333333 0 0 1 202.666667 234.666667h618.666666A53.333333 53.333333 0 0 1 874.666667 288v448z" fill="#ffffff" p-id="7061"></path><path d="M661.333333 672.853333m-32 0l-234.666666 0q-32 0-32-32l0 0q0-32 32-32l234.666666 0q32 0 32 32l0 0q0 32-32 32Z" fill="#ffffff" p-id="7062"></path><path d="M270.72 414.933333m0-32l0 0q0-32 32-32l0 0q32 0 32 32l0 0q0 32-32 32l0 0q-32 0-32-32Z" fill="#ffffff" p-id="7063"></path><path d="M375.253333 414.933333m0-32l0 0q0-32 32-32l0 0q32 0 32 32l0 0q0 32-32 32l0 0q-32 0-32-32Z" fill="#ffffff" p-id="7064"></path><path d="M480 414.933333m0-32l0 0q0-32 32-32l0 0q32 0 32 32l0 0q0 32-32 32l0 0q-32 0-32-32Z" fill="#ffffff" p-id="7065"></path><path d="M584.533333 415.146667m0-32l0 0q0-32 32-32l0 0q32 0 32 32l0 0q0 32-32 32l0 0q-32 0-32-32Z" fill="#ffffff" p-id="7066"></path><path d="M689.28 414.933333m0-32l0 0q0-32 32-32l0 0q32 0 32 32l0 0q0 32-32 32l0 0q-32 0-32-32Z" fill="#ffffff" p-id="7067"></path><path d="M323.2 532.053333m0-32l0 0q0-32 32-32l0 0q32 0 32 32l0 0q0 32-32 32l0 0q-32 0-32-32Z" fill="#ffffff" p-id="7068"></path><path d="M427.733333 531.84m0-32l0 0q0-32 32-32l0 0q32 0 32 32l0 0q0 32-32 32l0 0q-32 0-32-32Z" fill="#ffffff" p-id="7069"></path><path d="M532.48 532.053333m0-32l0 0q0-32 32-32l0 0q32 0 32 32l0 0q0 32-32 32l0 0q-32 0-32-32Z" fill="#ffffff" p-id="7070"></path><path d="M637.013333 531.84m0-32l0 0q0-32 32-32l0 0q32 0 32 32l0 0q0 32-32 32l0 0q-32 0-32-32Z" fill="#ffffff" p-id="7071"></path></svg>