<?xml version="1.0" standalone="no"?><!DOCTYPE svg PUBLIC "-//W3C//DTD SVG 1.1//EN" "http://www.w3.org/Graphics/SVG/1.1/DTD/svg11.dtd"><svg t="1692864806658" class="icon" viewBox="0 0 1024 1024" version="1.1" xmlns="http://www.w3.org/2000/svg" p-id="9841" xmlns:xlink="http://www.w3.org/1999/xlink" width="200" height="200"><path d="M800 960H224c-52.8 0-96-43.2-96-96V480c0-52.8 43.2-96 96-96h576c52.8 0 96 43.2 96 96v384c0 52.8-43.2 96-96 96zM224 448c-17.6 0-32 14.4-32 32v384c0 17.6 14.4 32 32 32h576c17.6 0 32-14.4 32-32V480c0-17.6-14.4-32-32-32H224z m528-32c-17.6 0-32-14.4-32-32V272c0-115.2-92.8-208-208-208s-208 92.8-208 208v112c0 17.6-14.4 32-32 32s-32-14.4-32-32V272C240 121.6 361.6 0 512 0s272 121.6 272 272v112c0 17.6-14.4 32-32 32z" fill="#ffffff" p-id="9842"></path></svg>