<?xml version="1.0" standalone="no"?><!DOCTYPE svg PUBLIC "-//W3C//DTD SVG 1.1//EN" "http://www.w3.org/Graphics/SVG/1.1/DTD/svg11.dtd"><svg t="1692865124311" class="icon" viewBox="0 0 1024 1024" version="1.1" xmlns="http://www.w3.org/2000/svg" p-id="3190" xmlns:xlink="http://www.w3.org/1999/xlink" width="200" height="200"><path d="M266.417804 400.877059l189.369133-150.280807v522.816527L266.417804 623.122941H92.161282V400.877059H266.417804zM51.208941 324.080355c-19.801549 0-35.842556 16.041007-35.842556 35.842556v304.159596c0 19.790712 16.041007 35.844362 35.842556 35.844362h188.44435c78.275995 62.115778 156.550183 124.231556 234.822566 186.359977 23.48623 18.632927 58.118621 1.907364 58.118621-28.075826V165.796204c0-29.992221-34.632391-46.71959-58.118621-28.074019-78.272382 62.115778-156.546571 124.242393-234.822566 186.35817H51.208941zM596.926483 330.382244c-13.59539-16.264978-11.433349-40.491756 4.831629-54.090759 16.279427-13.597196 40.493563-11.433349 54.090758 4.844272 47.637148 56.993348 95.279715 113.988503 142.916863 170.992689 47.638954-57.004186 95.279715-113.99934 142.929507-170.992689 13.59539-16.277621 37.813138-18.441468 54.079921-4.844272 16.274009 13.597196 18.437856 37.823975 4.842466 54.090759-50.597537 60.542563-101.20591 121.083321-151.801641 181.624078 50.59573 60.540757 101.204104 121.079708 151.801641 181.611434 13.59539 16.277621 11.431543 40.493563-4.842466 54.090759-16.26859 13.608033-40.484532 11.44238-54.079921-4.835241-47.649792-56.993348-95.290552-113.997534-142.929507-170.990883l-142.916863 170.990883c-13.597196 16.277621-37.813138 18.443274-54.090758 4.835241-16.264978-13.597196-18.427018-37.814944-4.831629-54.090759 50.599343-60.531726 101.191461-121.070677 151.799835-181.611434-50.606568-60.542563-101.200492-121.083321-151.799835-181.624078z" fill="#ffffff" p-id="3191"></path></svg>