<svg width="16" height="12" viewBox="0 0 16 12" fill="none" xmlns="http://www.w3.org/2000/svg">
<path d="M9.19249 1.31252L15.2237 9.21502C15.3935 9.4374 15.4976 9.70281 15.5244 9.98127C15.5512 10.2597 15.4996 10.5401 15.3754 10.7908C15.2513 11.0415 15.0595 11.2525 14.8217 11.3999C14.584 11.5473 14.3097 11.6253 14.03 11.625H1.96937C1.68973 11.625 1.41565 11.5469 1.17808 11.3994C0.940508 11.2519 0.748899 11.0409 0.624882 10.7903C0.500864 10.5396 0.449378 10.2593 0.476233 9.98096C0.503089 9.70261 0.607218 9.43732 0.776865 9.21502L6.80812 1.31252C6.94811 1.12917 7.12851 0.980589 7.33528 0.878316C7.54205 0.776044 7.76962 0.722839 8.0003 0.722839C8.23098 0.722839 8.45856 0.776044 8.66533 0.878316C8.8721 0.980589 9.0525 1.12917 9.19249 1.31252Z" fill="black"/>
</svg>
