<svg width="20" height="20" viewBox="0 0 20 20" fill="none" xmlns="http://www.w3.org/2000/svg">
<path d="M18.0469 16.8359C17.8397 16.8359 17.641 16.7536 17.4944 16.6071C17.3479 16.4606 17.2656 16.2619 17.2656 16.0547C17.2656 15.8475 17.3479 15.6488 17.4944 15.5023C17.641 15.3557 17.8397 15.2734 18.0469 15.2734C18.1505 15.2734 18.2498 15.2323 18.3231 15.159C18.3963 15.0858 18.4375 14.9864 18.4375 14.8828V1.95312C18.4375 1.84952 18.3963 1.75017 18.3231 1.67691C18.2498 1.60365 18.1505 1.5625 18.0469 1.5625H5.11719C5.01359 1.5625 4.91423 1.60365 4.84097 1.67691C4.76772 1.75017 4.72656 1.84952 4.72656 1.95312C4.72656 2.16033 4.64425 2.35904 4.49774 2.50555C4.35123 2.65207 4.15251 2.73438 3.94531 2.73438C3.73811 2.73438 3.5394 2.65207 3.39289 2.50555C3.24637 2.35904 3.16406 2.16033 3.16406 1.95312C3.16406 1.43512 3.36984 0.938339 3.73612 0.572057C4.1024 0.205775 4.59919 0 5.11719 0H18.0469C18.5649 0 19.0617 0.205775 19.4279 0.572057C19.7942 0.938339 20 1.43512 20 1.95312V14.8828C20 15.1393 19.9495 15.3933 19.8513 15.6302C19.7532 15.8672 19.6093 16.0825 19.4279 16.2639C19.2466 16.4452 19.0313 16.5891 18.7943 16.6873C18.5573 16.7854 18.3034 16.8359 18.0469 16.8359Z" fill="black"/>
<path d="M14.8828 20H1.95312C1.43512 20 0.938339 19.7942 0.572057 19.4279C0.205775 19.0617 0 18.5649 0 18.0469V5.11719C0 4.59919 0.205775 4.1024 0.572057 3.73612C0.938339 3.36984 1.43512 3.16406 1.95312 3.16406H14.8828C15.1393 3.16406 15.3933 3.21458 15.6302 3.31274C15.8672 3.41089 16.0825 3.55476 16.2639 3.73612C16.4452 3.91748 16.5891 4.1328 16.6873 4.36976C16.7854 4.60672 16.8359 4.8607 16.8359 5.11719V18.0469C16.8359 18.3034 16.7854 18.5573 16.6873 18.7943C16.5891 19.0313 16.4452 19.2466 16.2639 19.4279C16.0825 19.6093 15.8672 19.7532 15.6302 19.8513C15.3933 19.9495 15.1393 20 14.8828 20ZM1.95312 4.72656C1.84952 4.72656 1.75017 4.76772 1.67691 4.84097C1.60365 4.91423 1.5625 5.01359 1.5625 5.11719V18.0469C1.5625 18.1505 1.60365 18.2498 1.67691 18.3231C1.75017 18.3963 1.84952 18.4375 1.95312 18.4375H14.8828C14.9864 18.4375 15.0858 18.3963 15.159 18.3231C15.2323 18.2498 15.2734 18.1505 15.2734 18.0469V5.11719C15.2734 5.01359 15.2323 4.91423 15.159 4.84097C15.0858 4.76772 14.9864 4.72656 14.8828 4.72656H1.95312Z" fill="black"/>
<path d="M8.41797 15.7617C8.21077 15.7617 8.01205 15.6794 7.86554 15.5329C7.71903 15.3864 7.63672 15.1877 7.63672 14.9805V8.18359C7.63672 7.97639 7.71903 7.77768 7.86554 7.63117C8.01205 7.48465 8.21077 7.40234 8.41797 7.40234C8.62517 7.40234 8.82388 7.48465 8.9704 7.63117C9.11691 7.77768 9.19922 7.97639 9.19922 8.18359V14.9805C9.19922 15.1877 9.11691 15.3864 8.9704 15.5329C8.82388 15.6794 8.62517 15.7617 8.41797 15.7617Z" fill="black"/>
<path d="M11.8164 12.3633H5.01953C4.81233 12.3633 4.61362 12.281 4.4671 12.1345C4.32059 11.9879 4.23828 11.7892 4.23828 11.582C4.23828 11.3748 4.32059 11.1761 4.4671 11.0296C4.61362 10.8831 4.81233 10.8008 5.01953 10.8008H11.8164C12.0236 10.8008 12.2223 10.8831 12.3688 11.0296C12.5153 11.1761 12.5977 11.3748 12.5977 11.582C12.5977 11.7892 12.5153 11.9879 12.3688 12.1345C12.2223 12.281 12.0236 12.3633 11.8164 12.3633Z" fill="black"/>
</svg>
