<svg width="14" height="20" viewBox="0 0 14 20" fill="none" xmlns="http://www.w3.org/2000/svg">
<path d="M11.5552 20H2.44478C1.92627 20 1.429 19.794 1.06236 19.4274C0.695722 19.0607 0.489746 18.5635 0.489746 18.045V1.95503C0.489746 1.43653 0.695722 0.939256 1.06236 0.572616C1.429 0.205976 1.92627 0 2.44478 0H11.5552C11.812 0 12.0662 0.0505684 12.3034 0.148818C12.5406 0.247068 12.7561 0.391075 12.9377 0.572616C13.1192 0.754158 13.2632 0.969679 13.3615 1.20687C13.4597 1.44407 13.5103 1.6983 13.5103 1.95503V18.045C13.5103 18.3017 13.4597 18.5559 13.3615 18.7931C13.2632 19.0303 13.1192 19.2458 12.9377 19.4274C12.7561 19.6089 12.5406 19.7529 12.3034 19.8512C12.0662 19.9494 11.812 20 11.5552 20ZM2.44478 1.56403C2.39343 1.56403 2.34259 1.57414 2.29515 1.59379C2.24771 1.61344 2.2046 1.64224 2.1683 1.67855C2.13199 1.71486 2.10319 1.75796 2.08354 1.8054C2.06389 1.85284 2.05377 1.90369 2.05377 1.95503V18.045C2.05377 18.0963 2.06389 18.1472 2.08354 18.1946C2.10319 18.242 2.13199 18.2851 2.1683 18.3214C2.2046 18.3578 2.24771 18.3866 2.29515 18.4062C2.34259 18.4259 2.39343 18.436 2.44478 18.436H11.5552C11.6066 18.436 11.6574 18.4259 11.7049 18.4062C11.7523 18.3866 11.7954 18.3578 11.8317 18.3214C11.868 18.2851 11.8968 18.242 11.9165 18.1946C11.9361 18.1472 11.9462 18.0963 11.9462 18.045V1.95503C11.9462 1.90369 11.9361 1.85284 11.9165 1.8054C11.8968 1.75796 11.868 1.71486 11.8317 1.67855C11.7954 1.64224 11.7523 1.61344 11.7049 1.59379C11.6574 1.57414 11.6066 1.56403 11.5552 1.56403H2.44478Z" fill="black"/>
<path d="M12.611 16.2268H1.40861C1.30591 16.2268 1.2042 16.2066 1.10931 16.1673C1.01442 16.128 0.928195 16.0704 0.855565 15.9978C0.782935 15.9252 0.725321 15.8389 0.686014 15.7441C0.646706 15.6492 0.626475 15.5475 0.626475 15.4448C0.626475 15.3421 0.646706 15.2404 0.686014 15.1455C0.725321 15.0506 0.782935 14.9644 0.855565 14.8918C0.928195 14.8191 1.01442 14.7615 1.10931 14.7222C1.2042 14.683 1.30591 14.6627 1.40861 14.6628H12.611C12.7137 14.6627 12.8154 14.683 12.9103 14.7222C13.0052 14.7615 13.0914 14.8191 13.164 14.8918C13.2366 14.9644 13.2942 15.0506 13.3336 15.1455C13.3729 15.2404 13.3931 15.3421 13.3931 15.4448C13.3931 15.5475 13.3729 15.6492 13.3336 15.7441C13.2942 15.8389 13.2366 15.9252 13.164 15.9978C13.0914 16.0704 13.0052 16.128 12.9103 16.1673C12.8154 16.2066 12.7137 16.2268 12.611 16.2268ZM8.05573 18.1036H5.94429C5.73689 18.1036 5.53798 18.0212 5.39132 17.8746C5.24467 17.7279 5.16228 17.529 5.16228 17.3216C5.16228 17.1142 5.24467 16.9153 5.39132 16.7686C5.53798 16.622 5.73689 16.5396 5.94429 16.5396H8.05573C8.26313 16.5396 8.46204 16.622 8.6087 16.7686C8.75535 16.9153 8.83774 17.1142 8.83774 17.3216C8.83774 17.529 8.75535 17.7279 8.6087 17.8746C8.46204 18.0212 8.26313 18.1036 8.05573 18.1036ZM3.03129 4.34018C2.87823 4.33803 2.72917 4.291 2.60258 4.20493C2.47599 4.11886 2.37745 3.99754 2.31916 3.85599C2.26088 3.71445 2.24542 3.55891 2.2747 3.40866C2.30398 3.25841 2.37671 3.12006 2.48388 3.01075L3.5005 1.99414C3.57367 1.92096 3.66054 1.86292 3.75614 1.82332C3.85174 1.78372 3.9542 1.76334 4.05768 1.76334C4.16116 1.76334 4.26363 1.78372 4.35923 1.82332C4.45483 1.86292 4.5417 1.92096 4.61487 1.99414C4.68804 2.06731 4.74608 2.15417 4.78568 2.24977C4.82528 2.34538 4.84566 2.44784 4.84566 2.55132C4.84566 2.6548 4.82528 2.75726 4.78568 2.85287C4.74608 2.94847 4.68804 3.03533 4.61487 3.1085L3.59825 4.12512C3.52282 4.19691 3.43382 4.25291 3.33646 4.28984C3.2391 4.32677 3.13535 4.34388 3.03129 4.34018ZM3.4223 6.68622C3.26924 6.68407 3.12017 6.63704 2.99359 6.55097C2.867 6.46491 2.76845 6.34358 2.71017 6.20203C2.65189 6.06049 2.63643 5.90495 2.66571 5.7547C2.69499 5.60445 2.76772 5.4661 2.87489 5.35679L5.84654 2.38514C5.99431 2.23737 6.19474 2.15435 6.40372 2.15435C6.61271 2.15435 6.81313 2.23737 6.96091 2.38514C7.10868 2.53292 7.1917 2.73334 7.1917 2.94233C7.1917 3.15131 7.10868 3.35174 6.96091 3.49951L3.96971 6.45161C3.82532 6.59896 3.62857 6.68328 3.4223 6.68622Z" fill="black"/>
</svg>
