<svg width="17" height="18" viewBox="0 0 17 18" fill="none" xmlns="http://www.w3.org/2000/svg">
<path d="M16.4969 9.04063V16.5C16.4969 16.8315 16.3652 17.1495 16.1308 17.3839C15.8963 17.6183 15.5784 17.75 15.2469 17.75H1.5C1.16848 17.75 0.850537 17.6183 0.616116 17.3839C0.381696 17.1495 0.25 16.8315 0.25 16.5V1.5C0.25 1.16848 0.381696 0.850537 0.616116 0.616116C0.850537 0.381696 1.16848 0.25 1.5 0.25H8.37375V1.5H2.125C1.95924 1.5 1.80027 1.56585 1.68306 1.68306C1.56585 1.80027 1.5 1.95924 1.5 2.125V15.875C1.5 16.0408 1.56585 16.1997 1.68306 16.3169C1.80027 16.4342 1.95924 16.5 2.125 16.5H14.6225C14.7883 16.5 14.9472 16.4342 15.0644 16.3169C15.1817 16.1997 15.2475 16.0408 15.2475 15.875V9H15.2487C15.2478 8.91561 15.2639 8.8319 15.2962 8.75391C15.3284 8.67592 15.3761 8.60528 15.4364 8.54623C15.4967 8.48718 15.5684 8.44096 15.647 8.41035C15.7257 8.37974 15.8097 8.36537 15.894 8.36812C15.9784 8.37086 16.0613 8.39066 16.1378 8.42633C16.2143 8.46199 16.2828 8.51277 16.3391 8.57561C16.3954 8.63845 16.4385 8.71205 16.4656 8.79197C16.4927 8.87189 16.5033 8.95648 16.4969 9.04063ZM8.14625 8.96875L15.2175 1.8975C15.3354 1.78365 15.4933 1.72065 15.6571 1.72208C15.821 1.7235 15.9778 1.78923 16.0936 1.90511C16.2095 2.02099 16.2752 2.17775 16.2767 2.34162C16.2781 2.5055 16.2151 2.66337 16.1012 2.78125L9.03 9.8525C8.91212 9.96635 8.75425 10.0293 8.59037 10.0279C8.4265 10.0265 8.26974 9.96077 8.15386 9.84489C8.03798 9.72901 7.97225 9.57225 7.97083 9.40837C7.9694 9.2445 8.0324 9.08663 8.14625 8.96875ZM8.37375 1.5V0.25C8.53951 0.25 8.69848 0.315848 8.81569 0.433058C8.9329 0.550268 8.99875 0.70924 8.99875 0.875C8.99875 1.22 8.70312 1.5 8.37375 1.5Z" fill="black"/>
</svg>
