<svg width="17" height="18" viewBox="0 0 17 18" fill="none" xmlns="http://www.w3.org/2000/svg">
<path d="M14.2709 0H2.33337C1.14587 0 0.208374 0.9375 0.208374 2.125C0.208374 2.625 0.395874 3.125 0.708374 3.5C0.708374 3.5625 0.770874 3.5625 0.770874 3.625L5.45837 8.3125V13.25C5.45837 13.4375 5.52087 13.5625 5.64587 13.6875L9.89587 17.3125C10.0209 17.375 10.1459 17.4375 10.2709 17.4375C10.4584 17.4375 10.5834 17.375 10.7084 17.25C10.8334 17.125 10.8334 16.9375 10.8334 16.8125V8.5L15.8334 3.625L15.8959 3.5625C16.2084 3.1875 16.3959 2.6875 16.3959 2.1875C16.3959 0.9375 15.4584 0 14.2709 0ZM14.9584 2.75L9.89587 7.8125C9.77087 7.9375 9.70837 8.0625 9.70837 8.25V15.625L6.64587 13.0625V8.125C6.64587 7.9375 6.58337 7.8125 6.45837 7.6875L1.70837 2.8125L1.64587 2.75C1.45837 2.5625 1.39587 2.375 1.39587 2.125C1.39587 1.625 1.83337 1.1875 2.33337 1.1875H14.2709C14.7709 1.1875 15.2084 1.625 15.2084 2.125C15.2084 2.375 15.0834 2.5625 14.9584 2.75Z" fill="black"/>
</svg>
