<svg width="15" height="15" viewBox="0 0 15 15" fill="none" xmlns="http://www.w3.org/2000/svg">
<path d="M1.90625 2.37719V12.9978C1.90625 13.2587 2.11656 13.4688 2.37719 13.4688H12.9978C13.2587 13.4688 13.4688 13.2584 13.4688 12.9978V2.37719C13.4688 2.11625 13.2584 1.90625 12.9978 1.90625H2.37719C2.11625 1.90625 1.90625 2.11656 1.90625 2.37719ZM0.96875 2.37719C0.968627 2.19219 1.00497 2.00899 1.07571 1.83806C1.14645 1.66712 1.25019 1.51181 1.381 1.381C1.51181 1.25019 1.66712 1.14645 1.83806 1.07571C2.00899 1.00497 2.19219 0.968627 2.37719 0.96875H12.9978C13.1828 0.968627 13.366 1.00497 13.5369 1.07571C13.7079 1.14645 13.8632 1.25019 13.994 1.381C14.1248 1.51181 14.2286 1.66712 14.2993 1.83806C14.37 2.00899 14.4064 2.19219 14.4062 2.37719V12.9978C14.4064 13.1828 14.37 13.366 14.2993 13.5369C14.2286 13.7079 14.1248 13.8632 13.994 13.994C13.8632 14.1248 13.7079 14.2286 13.5369 14.2993C13.366 14.37 13.1828 14.4064 12.9978 14.4062H2.37719C2.19219 14.4064 2.00899 14.37 1.83806 14.2993C1.66712 14.2286 1.51181 14.1248 1.381 13.994C1.25019 13.8632 1.14645 13.7079 1.07571 13.5369C1.00497 13.366 0.968627 13.1828 0.96875 12.9978V2.37719Z" fill="black"/>
<path d="M7.91406 3.70563C7.85231 3.64867 7.77133 3.61713 7.68732 3.6173C7.60331 3.61747 7.52246 3.64935 7.46094 3.70656L4.86875 6.14844C4.61719 6.38531 4.69375 6.5775 5.03781 6.5775H6.25781V8C6.25781 8.17094 6.39531 8.30938 6.56781 8.30938H8.79531C8.83628 8.30917 8.87681 8.30089 8.91457 8.285C8.95233 8.26912 8.98659 8.24594 9.01539 8.2168C9.04418 8.18765 9.06694 8.15312 9.08238 8.11517C9.09781 8.07721 9.1056 8.03659 9.10531 7.99563V6.59875H10.3428C10.6881 6.59875 10.7631 6.40438 10.5156 6.17L7.91406 3.70563Z" fill="black"/>
<path d="M6.25437 8.9375H9.10594V9.5625H6.25437V8.9375Z" fill="black"/>
<path d="M1.59594 10.1875V13.3141C1.59569 13.3756 1.60758 13.4367 1.63093 13.4937C1.65428 13.5506 1.68863 13.6025 1.73201 13.6462C1.7754 13.6899 1.82697 13.7246 1.88379 13.7484C1.9406 13.7721 2.00154 13.7845 2.06312 13.7847H13.3062C13.5631 13.7847 13.7734 13.5741 13.7734 13.3141V10.1875H9.92969C9.56875 11.125 8.65844 11.7906 7.59594 11.7906C7.09059 11.7903 6.59718 11.637 6.18066 11.3509C5.76414 11.0647 5.44404 10.6591 5.2625 10.1875H1.59594Z" fill="black"/>
</svg>
