<svg width="18" height="18" viewBox="0 0 18 18" fill="none" xmlns="http://www.w3.org/2000/svg">
<path d="M15.0831 3.7461L12.9409 1.60313C12.6359 1.29796 12.636 0.803308 12.9411 0.49825C13.2463 0.19321 13.7409 0.193308 14.046 0.498445L17.5213 3.97501C18.0133 4.46725 17.6647 5.3086 16.9688 5.3086H13.5982C12.8636 5.3086 12.1774 5.67595 11.7698 6.28755L11.3183 6.96514C11.079 7.32419 10.5939 7.42128 10.2349 7.182C9.87586 6.94274 9.77877 6.45768 10.018 6.09864L10.4696 5.42106C11.167 4.37466 12.341 3.7461 13.5982 3.7461H15.0831ZM6.71117 11.0608C6.95045 10.7017 7.43549 10.6046 7.79453 10.8439C8.15357 11.0832 8.25066 11.5682 8.01139 11.9273L6.58785 14.0633C5.89051 15.1097 4.71647 15.7383 3.4592 15.7383H1.03125C0.599785 15.7383 0.25 15.3885 0.25 14.957C0.25 14.5256 0.599785 14.1758 1.03125 14.1758H3.4592C4.19391 14.1758 4.88004 13.8084 5.28764 13.1968L6.71117 11.0608ZM13.5095 14.2539C12.3078 14.2539 11.1855 13.6532 10.519 12.6531L5.2382 4.72901C5.05273 4.4507 4.8014 4.22249 4.50653 4.06465C4.21166 3.90681 3.88238 3.82423 3.54793 3.82423H1.03125C0.599785 3.82423 0.25 3.47444 0.25 3.04298C0.25 2.61151 0.599785 2.26173 1.03125 2.26173H3.54793C4.74971 2.26173 5.87195 2.86245 6.53844 3.86251L11.8193 11.7866C12.0047 12.0649 12.2561 12.2931 12.5509 12.451C12.8458 12.6088 13.1751 12.6914 13.5095 12.6914H16.9688C17.6647 12.6914 18.0133 13.5328 17.5213 14.025L14.046 17.5016C13.7409 17.8067 13.2463 17.8068 12.9411 17.5018C12.636 17.1967 12.6359 16.7021 12.9409 16.3969L15.0831 14.2539H13.5095Z" fill="black"/>
</svg>
