<svg width="20" height="16" viewBox="0 0 20 16" fill="none" xmlns="http://www.w3.org/2000/svg">
<path d="M3.625 6.125C3.25 6.125 3 6.375 3 6.75V9.25C3 9.625 3.25 9.875 3.625 9.875C4 9.875 4.25 9.625 4.25 9.25V6.75C4.25 6.375 4 6.125 3.625 6.125ZM12.125 5.75C11.75 5.75 11.5 6 11.5 6.375V9.5C11.5 9.875 11.75 10.125 12.125 10.125C12.5 10.125 12.75 9.875 12.75 9.5V6.375C12.75 6.125 12.5 5.75 12.125 5.75ZM5.75 4.5C5.375 4.5 5.125 4.75 5.125 5.125V10.875C5.125 11.25 5.375 11.5 5.75 11.5C6.125 11.5 6.375 11.25 6.375 10.875V5.125C6.375 4.75 6.125 4.5 5.75 4.5ZM7.875 3.125C7.5 3.125 7.25 3.375 7.25 3.75V12.25C7.25 12.625 7.5 12.875 7.875 12.875C8.25 12.875 8.5 12.625 8.5 12.25V3.75C8.5 3.375 8.25 3.125 7.875 3.125ZM10 4.375C9.625 4.375 9.375 4.625 9.375 5V11C9.375 11.375 9.625 11.625 10 11.625C10.375 11.625 10.625 11.375 10.625 11V5C10.625 4.625 10.375 4.375 10 4.375ZM14.25 3.875C13.875 3.875 13.625 4.125 13.625 4.5V11.5C13.625 11.875 13.875 12.125 14.25 12.125C14.625 12.125 14.875 11.875 14.875 11.5V4.5C14.875 4.125 14.625 3.875 14.25 3.875ZM16.375 6.25C16 6.25 15.75 6.5 15.75 6.875V9.25C15.75 9.625 16 9.875 16.375 9.875C16.75 9.875 17 9.625 17 9.25V6.875C17 6.5 16.75 6.25 16.375 6.25Z" fill="black"/>
<path d="M16.875 0.375H3.125C1.375 0.375 0 1.75 0 3.5V12.5C0 14.25 1.375 15.625 3.125 15.625H16.875C18.625 15.625 20 14.25 20 12.5V3.5C20 1.75 18.625 0.375 16.875 0.375ZM18.75 12.5C18.75 13.5 17.875 14.375 16.875 14.375H3.125C2.125 14.375 1.25 13.5 1.25 12.5V3.5C1.25 2.5 2.125 1.625 3.125 1.625H16.875C17.875 1.625 18.75 2.5 18.75 3.5V12.5Z" fill="black"/>
</svg>
