<svg width="19" height="20" viewBox="0 0 19 20" fill="none" xmlns="http://www.w3.org/2000/svg">
<path d="M3.28124 19.1875C2.65624 19.1875 2.03124 18.9375 1.56249 18.4688C0.687488 17.5938 0.593738 16.2813 1.31249 15.2813L4.46874 10.6875C4.65624 10.4063 5.06249 10.3438 5.34374 10.5313C5.62499 10.7188 5.68749 11.125 5.49999 11.4063L2.31249 16C1.93749 16.5 1.99999 17.1563 2.40624 17.5625C2.81249 17.9688 3.46874 18.0313 3.96874 17.6875L8.59374 14.5C8.87499 14.3125 9.28124 14.375 9.46874 14.6563C9.65624 14.9375 9.59374 15.3438 9.31249 15.5313L4.71874 18.7188C4.28124 19.0313 3.78124 19.1875 3.28124 19.1875ZM12.2187 14.5938C10.6875 14.5938 9.15624 14 7.99999 12.8438L7.15624 12C5.03124 9.87504 4.81249 6.50004 6.68749 4.12504C6.90624 3.84379 7.28124 3.81254 7.56249 4.03129C7.84374 4.25004 7.87499 4.62504 7.65624 4.90629C6.18749 6.78129 6.34374 9.46879 8.03124 11.1563L8.87499 12C10.5625 13.6875 13.2187 13.8438 15.0937 12.375C15.375 12.1563 15.75 12.2188 15.9687 12.4688C16.1875 12.75 16.125 13.125 15.875 13.3438C14.7812 14.1875 13.5 14.5938 12.2187 14.5938ZM16.4062 13.8438C15.9375 13.8438 15.4375 13.6563 15.0937 13.2813L6.68749 4.90629C5.96874 4.18754 5.96874 3.00004 6.68749 2.25003C7.40624 1.53128 8.59374 1.53128 9.34374 2.25003L17.75 10.6563C18.0937 11 18.3125 11.4688 18.3125 11.9688C18.3125 12.4688 18.125 12.9375 17.75 13.2813C17.375 13.6875 16.9062 13.8438 16.4062 13.8438ZM7.99999 2.96879C7.84374 2.96879 7.68749 3.03129 7.56249 3.15629C7.31249 3.40629 7.31249 3.78129 7.56249 4.03129L15.9687 12.4375C16.2187 12.6875 16.5937 12.6875 16.8437 12.4375C16.9687 12.3125 17.0312 12.1563 17.0312 12C17.0312 11.8438 16.9687 11.6875 16.8437 11.5625L8.46874 3.15629C8.34374 3.03129 8.18749 2.96879 7.99999 2.96879ZM17.25 11.6875C17.125 11.6875 16.9687 11.6563 16.875 11.5625C16.5937 11.3438 16.5625 10.9688 16.7812 10.6875C18.25 8.81254 18.0937 6.12504 16.4062 4.43754L15.5625 3.59379C13.875 1.90629 11.2187 1.75003 9.31249 3.21879C9.03124 3.43754 8.65624 3.40629 8.43749 3.12504C8.21874 2.84379 8.28124 2.46878 8.53124 2.25003C10.9062 0.406285 14.2812 0.593785 16.4062 2.71878L17.25 3.56254C19.375 5.68754 19.5937 9.06254 17.7187 11.4375C17.625 11.625 17.4375 11.6875 17.25 11.6875Z" fill="black"/>
</svg>
