<svg width="60" height="60" viewBox="0 0 60 60" fill="none" xmlns="http://www.w3.org/2000/svg">
<path d="M33.05 43.0475C32.7325 43.365 32.5394 43.7859 32.5059 44.2336C32.4724 44.6814 32.6007 45.1263 32.8675 45.4875L33.05 45.6975L38.9675 51.6225C39.1463 51.8983 39.3927 52.1238 39.6833 52.2774C39.9738 52.431 40.2989 52.5076 40.6275 52.5C40.9172 52.5047 41.2044 52.4453 41.4685 52.326C41.7326 52.2067 41.967 52.0305 42.155 51.81L42.2875 51.6225L48.205 45.6975L48.3875 45.4875C48.623 45.1689 48.7515 44.784 48.7546 44.3878C48.7578 43.9917 48.6354 43.6048 48.405 43.2825L48.205 43.0475L47.995 42.865C47.6762 42.6289 47.2908 42.5001 46.8941 42.4969C46.4974 42.4938 46.11 42.6165 45.7875 42.8475L45.5525 43.0475L42.5 46.1V9.14L42.4825 8.9175C42.3575 8.1175 41.575 7.5 40.625 7.5C39.675 7.5 38.89 8.1175 38.7675 8.9175L38.75 9.1425V46.1L35.7 43.0475L35.49 42.865C35.1288 42.5982 34.6839 42.4699 34.2361 42.5034C33.7884 42.5369 33.3675 42.73 33.05 43.0475ZM15.625 50.02C14.8863 50.02 14.1549 49.8745 13.4724 49.5918C12.7899 49.3091 12.1699 48.8948 11.6475 48.3725C11.1252 47.8501 10.7109 47.2301 10.4282 46.5476C10.1455 45.8651 10 45.1337 10 44.395V15.645C10 14.1532 10.5926 12.7224 11.6475 11.6675C12.7024 10.6126 14.1332 10.02 15.625 10.02H30.625C31.1223 10.02 31.5992 10.2175 31.9508 10.5692C32.3025 10.9208 32.5 11.3977 32.5 11.895C32.5 12.3923 32.3025 12.8692 31.9508 13.2208C31.5992 13.5725 31.1223 13.77 30.625 13.77H15.625C15.1277 13.77 14.6508 13.9675 14.2992 14.3192C13.9475 14.6708 13.75 15.1477 13.75 15.645V44.395C13.75 45.43 14.59 46.27 15.625 46.27H25.625C26.1223 46.27 26.5992 46.4675 26.9508 46.8192C27.3025 47.1708 27.5 47.6477 27.5 48.145C27.5 48.6423 27.3025 49.1192 26.9508 49.4708C26.5992 49.8225 26.1223 50.02 25.625 50.02H15.625Z" fill="black"/>
</svg>
