<svg width="60" height="60" viewBox="0 0 60 60" fill="none" xmlns="http://www.w3.org/2000/svg">
<path d="M48.3488 19.6425C50.3328 21.7209 51.6782 24.3255 52.2248 27.1465C52.7714 29.9674 52.4962 32.886 51.4321 35.5551C50.3679 38.2242 48.5595 40.5315 46.222 42.2025C43.8844 43.8736 41.1161 44.838 38.2463 44.9812L37.5 45L25.1513 44.9962L29.4563 49.305C29.7669 49.6152 29.9588 50.0246 29.9985 50.4618C30.0382 50.899 29.9233 51.3363 29.6738 51.6975L29.4563 51.9562C29.146 52.2669 28.7366 52.4587 28.2994 52.4985C27.8622 52.5382 27.4249 52.4233 27.0638 52.1737L26.805 51.9562L19.2975 44.4487C18.9875 44.138 18.7963 43.7284 18.7572 43.2912C18.7182 42.854 18.8337 42.417 19.0838 42.0562L19.2975 41.7975L26.805 34.29C27.1357 33.9578 27.5789 33.7615 28.0471 33.7399C28.5153 33.7182 28.9747 33.8727 29.3347 34.1729C29.6947 34.4731 29.9291 34.8973 29.9919 35.3618C30.0547 35.8263 29.9412 36.2975 29.6738 36.6825L29.4563 36.945L25.1513 41.2462H37.5C40.3689 41.2465 43.1296 40.1506 45.2173 38.1828C47.305 36.215 48.562 33.5239 48.7313 30.66L48.75 30C48.7545 27.0383 47.587 24.1951 45.5025 22.0912C45.1603 21.7449 44.9662 21.2791 44.9613 20.7923C44.9563 20.3055 45.141 19.8358 45.4761 19.4826C45.8112 19.1295 46.2706 18.9205 46.757 18.9C47.2434 18.8794 47.7188 19.0489 48.0825 19.3725L48.3525 19.6425H48.3488ZM32.94 7.82624L33.2025 8.04L40.7063 15.5475L40.9238 15.81C41.1398 16.1231 41.2556 16.4946 41.2556 16.875C41.2556 17.2554 41.1398 17.6269 40.9238 17.94L40.7063 18.2025L33.2025 25.7062L32.94 25.9237C32.6269 26.1398 32.2554 26.2556 31.875 26.2556C31.4946 26.2556 31.1231 26.1398 30.81 25.9237L30.5475 25.7062L30.3338 25.4437C30.1177 25.1306 30.0019 24.7592 30.0019 24.3787C30.0019 23.9983 30.1177 23.6269 30.3338 23.3137L30.5475 23.0512L34.8525 18.75H22.5C19.6305 18.7498 16.8693 19.8462 14.7815 21.8148C12.6937 23.7834 11.4371 26.4754 11.2688 29.34L11.25 30C11.25 33.075 12.4838 35.8575 14.4788 37.89C14.7947 38.2507 14.9604 38.7188 14.9418 39.1979C14.9232 39.6771 14.7218 40.1309 14.3789 40.4661C14.036 40.8013 13.5778 40.9924 13.0983 41.0001C12.6189 41.0078 12.1547 40.8315 11.8013 40.5075C9.77638 38.4447 8.39064 35.8408 7.81072 33.0091C7.23081 30.1773 7.48143 27.2383 8.53243 24.5456C9.58344 21.853 11.3901 19.5213 13.735 17.8312C16.0799 16.141 18.8631 15.1644 21.75 15.0187L22.5 15L34.8525 14.9962L30.5475 10.695L30.3338 10.4325C30.0868 10.0716 29.9737 9.63565 30.0142 9.20018C30.0547 8.76471 30.2461 8.35708 30.5553 8.04784C30.8646 7.73859 31.2722 7.54717 31.7077 7.5067C32.1432 7.46624 32.5791 7.57927 32.94 7.82624Z" fill="black"/>
</svg>
