<svg width="60" height="60" viewBox="0 0 60 60" fill="none" xmlns="http://www.w3.org/2000/svg">
<path d="M49.4343 4.37931C49.0633 4.09344 48.6311 3.89748 48.1715 3.80679C47.712 3.71611 47.2377 3.73317 46.7859 3.85665L23.4281 10.1356C22.6176 10.3532 21.9025 10.8341 21.3951 11.5025C20.8877 12.1709 20.6168 12.989 20.625 13.8281V40.3125C20.625 41.1024 20.114 41.7844 19.323 42.0504L19.309 42.0563L13.2152 44.1656C10.8843 44.9449 9.37497 47.1094 9.37497 49.677C9.36644 50.7213 9.60933 51.7523 10.0831 52.683C10.5569 53.6137 11.2478 54.4167 12.0972 55.0242C13.1911 55.8189 14.508 56.2479 15.8601 56.25C16.5675 56.2488 17.27 56.1328 17.9402 55.9067L17.9847 55.8914L20.5441 54.9609C21.6543 54.5903 22.6207 53.8815 23.3077 52.9339C23.9947 51.9863 24.3679 50.8474 24.375 49.677V24.8332C24.375 23.9789 24.934 23.2852 25.8 23.0672L25.8246 23.0602L46.289 17.5945C46.3582 17.5767 46.4305 17.5749 46.5004 17.5892C46.5704 17.6036 46.6361 17.6337 46.6927 17.6774C46.7492 17.721 46.795 17.777 46.8266 17.841C46.8582 17.9051 46.8747 17.9755 46.875 18.0469V34.6793C46.875 35.4703 46.3769 36.1301 45.573 36.3996L45.5437 36.4102L39.5801 38.5324C38.4203 38.9139 37.412 39.6544 36.7009 40.6469C35.9899 41.6394 35.6131 42.8323 35.625 44.0531C35.6145 45.1006 35.8564 46.1352 36.3303 47.0694C36.8041 48.0036 37.4959 48.81 38.3472 49.4203C39.1807 50.0229 40.1471 50.4157 41.1646 50.5656C42.1821 50.7156 43.2207 50.6182 44.1925 50.2817L44.2347 50.2676L46.7941 49.3359C47.9042 48.9655 48.8706 48.2569 49.5576 47.3095C50.2446 46.3621 50.6179 45.2234 50.625 44.0531V6.79688C50.6275 6.32919 50.5213 5.86732 50.3147 5.44774C50.108 5.02817 49.8066 4.66239 49.4343 4.37931Z" fill="black"/>
</svg>
