<svg width="60" height="60" viewBox="0 0 60 60" fill="none" xmlns="http://www.w3.org/2000/svg">
<path d="M46.875 7.5C46.3777 7.5 45.9008 7.69754 45.5492 8.04918C45.1975 8.40081 45 8.87772 45 9.375V25.3629L17.7223 9.03633C17.0922 8.65308 16.3708 8.44611 15.6334 8.43704C14.896 8.42796 14.1697 8.61713 13.5305 8.98477C12.1242 9.78164 11.25 11.3238 11.25 13.0078V46.9922C11.25 48.6762 12.1242 50.2184 13.5305 51.0152C14.1699 51.3826 14.8962 51.5715 15.6336 51.5622C16.3709 51.5529 17.0923 51.3458 17.7223 50.9625L45 34.6371V50.625C45 51.1223 45.1975 51.5992 45.5492 51.9508C45.9008 52.3025 46.3777 52.5 46.875 52.5C47.3723 52.5 47.8492 52.3025 48.2008 51.9508C48.5525 51.5992 48.75 51.1223 48.75 50.625V9.375C48.75 8.87772 48.5525 8.40081 48.2008 8.04918C47.8492 7.69754 47.3723 7.5 46.875 7.5Z" fill="black"/>
</svg>
