<?xml version="1.0" standalone="no"?><!DOCTYPE svg PUBLIC "-//W3C//DTD SVG 1.1//EN" "http://www.w3.org/Graphics/SVG/1.1/DTD/svg11.dtd"><svg t="1692872701463" class="icon" viewBox="0 0 1024 1024" version="1.1" xmlns="http://www.w3.org/2000/svg" p-id="1596" xmlns:xlink="http://www.w3.org/1999/xlink" width="200" height="200"><path d="M877.5 565.9l-367.6-340-367.6 340c-22.5 14.5-52.5 14.5-67.5 0-15-21.7-15-50.7 0-65.1L495 117.5c0-7.2 7.5-7.2 15-7.2s7.5 0 15 7.2l420.2 383.3c22.5 21.7 15 50.6 0 65.1-22.7 14.5-52.7 14.5-67.7 0zM494.8 450.1c0-7.2 7.5-7.2 15-7.2s15 0 15 7.2L945 833.4c22.5 21.7 15 50.6 0 65.1-22.5 14.4-52.5 14.4-67.5 0L509.8 558.6 142.2 905.8c-22.5 14.5-52.5 14.5-67.5 0-15-21.7-15-50.7 0-65.1l420.1-390.6z m0 0" fill="#ffffff" p-id="1597"></path></svg>