<svg width="60" height="60" viewBox="0 0 60 60" fill="none" xmlns="http://www.w3.org/2000/svg">
<path d="M45.4688 10.9688C50.9063 15.4688 54.375 22.2187 54.375 29.8125C54.375 43.3125 43.5 54.1875 30 54.1875C16.5 54.1875 5.625 43.3125 5.625 29.8125C5.625 22.2187 9.09375 15.4688 14.5312 10.9688C14.9063 10.6875 15.2812 10.5 15.75 10.5C16.7812 10.5 17.625 11.3438 17.625 12.375C17.625 13.0313 17.25 13.5938 16.7812 13.9688C12.1875 17.7188 9.28125 23.4375 9.28125 29.9063C9.28125 41.3438 18.4687 50.5313 29.9062 50.5313C41.3437 50.5313 50.5313 41.3438 50.5313 29.9063C50.5313 23.4375 47.5313 17.625 42.8438 13.7813C42.4688 13.4063 42.2812 12.9375 42.2812 12.4688C42.2812 11.4375 43.125 10.5938 44.1562 10.5938C44.7187 10.5 45.1875 10.6875 45.4688 10.9688Z" fill="black"/>
<path d="M30 5.8125C31.0313 5.8125 31.875 6.65625 31.875 7.6875V33.9375C31.875 34.9688 31.0313 35.8125 30 35.8125C28.9687 35.8125 28.125 34.9688 28.125 33.9375V7.6875C28.125 6.65625 28.9687 5.8125 30 5.8125Z" fill="black"/>
</svg>
