<svg width="39" height="59" viewBox="0 0 39 59" fill="none" xmlns="http://www.w3.org/2000/svg">
<path d="M17.0001 0H23.0001V7C23.0001 8.65685 21.6569 10 20.0001 10C18.3432 10 17.0001 8.65685 17.0001 7V0Z" fill="#D9D9D9"/>
<path d="M17.0001 52C17.0001 50.3431 18.3432 49 20.0001 49C21.6569 49 23.0001 50.3431 23.0001 52V59H17.0001V52Z" fill="#D9D9D9"/>
<path d="M9.33958 25.4531C9.27329 24.8329 8.99393 24.3499 8.50151 24.0043C8.01382 23.6586 7.37935 23.4858 6.5981 23.4858C6.04886 23.4858 5.57774 23.5687 5.18475 23.7344C4.79176 23.9001 4.49109 24.125 4.28276 24.4091C4.07443 24.6932 3.96789 25.0175 3.96316 25.3821C3.96316 25.6851 4.03181 25.9479 4.16912 26.1705C4.31117 26.393 4.50293 26.5824 4.74441 26.7386C4.98588 26.8902 5.2534 27.018 5.54696 27.1222C5.84052 27.2263 6.13645 27.3139 6.43475 27.3849L7.79838 27.7259C8.34763 27.8537 8.87556 28.0265 9.38219 28.2443C9.89355 28.4621 10.3505 28.7367 10.7529 29.0682C11.1601 29.3996 11.4821 29.7997 11.7188 30.2685C11.9556 30.7372 12.074 31.2865 12.074 31.9162C12.074 32.7685 11.8561 33.5189 11.4205 34.1676C10.9849 34.8116 10.3552 35.3158 9.53134 35.6804C8.71221 36.0402 7.72026 36.2202 6.55549 36.2202C5.42386 36.2202 4.44138 36.045 3.60804 35.6946C2.77944 35.3442 2.13077 34.8329 1.66202 34.1605C1.19801 33.4882 0.947058 32.669 0.90918 31.7031H3.50151C3.53939 32.2098 3.69564 32.6312 3.97026 32.9673C4.24488 33.3035 4.60236 33.5544 5.0427 33.7202C5.48778 33.8859 5.98494 33.9688 6.53418 33.9688C7.1071 33.9688 7.60899 33.8835 8.03986 33.7131C8.47547 33.5379 8.81638 33.2964 9.06259 32.9886C9.3088 32.6761 9.43428 32.3116 9.43901 31.8949C9.43428 31.5161 9.32301 31.2036 9.1052 30.9574C8.8874 30.7064 8.582 30.4981 8.18901 30.3324C7.80075 30.1619 7.34621 30.0104 6.82537 29.8778L5.17054 29.4517C3.97263 29.1439 3.02566 28.6776 2.32963 28.0526C1.63835 27.4228 1.2927 26.5871 1.2927 25.5455C1.2927 24.6884 1.52471 23.938 1.98873 23.294C2.45748 22.6501 3.09431 22.1506 3.89924 21.7955C4.70416 21.4356 5.61562 21.2557 6.63361 21.2557C7.66581 21.2557 8.57016 21.4356 9.34668 21.7955C10.1279 22.1506 10.7411 22.6454 11.1862 23.2798C11.6312 23.9096 11.8609 24.634 11.8751 25.4531H9.33958Z" fill="white"/>
<path d="M22.3279 25.4531C22.2616 24.8329 21.9822 24.3499 21.4898 24.0043C21.0021 23.6586 20.3676 23.4858 19.5864 23.4858C19.0371 23.4858 18.566 23.5687 18.173 23.7344C17.78 23.9001 17.4794 24.125 17.271 24.4091C17.0627 24.6932 16.9562 25.0175 16.9514 25.3821C16.9514 25.6851 17.0201 25.9479 17.1574 26.1705C17.2994 26.393 17.4912 26.5824 17.7327 26.7386C17.9742 26.8902 18.2417 27.018 18.5352 27.1222C18.8288 27.2263 19.1247 27.3139 19.423 27.3849L20.7867 27.7259C21.3359 27.8537 21.8638 28.0265 22.3705 28.2443C22.8818 28.4621 23.3387 28.7367 23.7412 29.0682C24.1484 29.3996 24.4704 29.7997 24.7071 30.2685C24.9439 30.7372 25.0622 31.2865 25.0622 31.9162C25.0622 32.7685 24.8444 33.5189 24.4088 34.1676C23.9732 34.8116 23.3435 35.3158 22.5196 35.6804C21.7005 36.0402 20.7085 36.2202 19.5438 36.2202C18.4121 36.2202 17.4297 36.045 16.5963 35.6946C15.7677 35.3442 15.1191 34.8329 14.6503 34.1605C14.1863 33.4882 13.9353 32.669 13.8975 31.7031H16.4898C16.5277 32.2098 16.6839 32.6312 16.9585 32.9673C17.2332 33.3035 17.5906 33.5544 18.031 33.7202C18.4761 33.8859 18.9732 33.9688 19.5225 33.9688C20.0954 33.9688 20.5973 33.8835 21.0281 33.7131C21.4637 33.5379 21.8047 33.2964 22.0509 32.9886C22.2971 32.6761 22.4226 32.3116 22.4273 31.8949C22.4226 31.5161 22.3113 31.2036 22.0935 30.9574C21.8757 30.7064 21.5703 30.4981 21.1773 30.3324C20.789 30.1619 20.3345 30.0104 19.8137 29.8778L18.1588 29.4517C16.9609 29.1439 16.0139 28.6776 15.3179 28.0526C14.6266 27.4228 14.281 26.5871 14.281 25.5455C14.281 24.6884 14.513 23.938 14.977 23.294C15.4458 22.6501 16.0826 22.1506 16.8875 21.7955C17.6924 21.4356 18.6039 21.2557 19.6219 21.2557C20.6541 21.2557 21.5584 21.4356 22.335 21.7955C23.1162 22.1506 23.7294 22.6454 24.1744 23.2798C24.6195 23.9096 24.8492 24.634 24.8634 25.4531H22.3279Z" fill="white"/>
<path d="M35.3161 25.4531C35.2499 24.8329 34.9705 24.3499 34.4781 24.0043C33.9904 23.6586 33.3559 23.4858 32.5747 23.4858C32.0254 23.4858 31.5543 23.5687 31.1613 23.7344C30.7683 23.9001 30.4677 24.125 30.2593 24.4091C30.051 24.6932 29.9445 25.0175 29.9397 25.3821C29.9397 25.6851 30.0084 25.9479 30.1457 26.1705C30.2877 26.393 30.4795 26.5824 30.721 26.7386C30.9624 26.8902 31.23 27.018 31.5235 27.1222C31.8171 27.2263 32.113 27.3139 32.4113 27.3849L33.7749 27.7259C34.3242 27.8537 34.8521 28.0265 35.3588 28.2443C35.8701 28.4621 36.327 28.7367 36.7295 29.0682C37.1367 29.3996 37.4587 29.7997 37.6954 30.2685C37.9321 30.7372 38.0505 31.2865 38.0505 31.9162C38.0505 32.7685 37.8327 33.5189 37.3971 34.1676C36.9615 34.8116 36.3318 35.3158 35.5079 35.6804C34.6888 36.0402 33.6968 36.2202 32.532 36.2202C31.4004 36.2202 30.4179 36.045 29.5846 35.6946C28.756 35.3442 28.1073 34.8329 27.6386 34.1605C27.1746 33.4882 26.9236 32.669 26.8857 31.7031H29.4781C29.5159 32.2098 29.6722 32.6312 29.9468 32.9673C30.2214 33.3035 30.5789 33.5544 31.0193 33.7202C31.4643 33.8859 31.9615 33.9688 32.5107 33.9688C33.0837 33.9688 33.5856 33.8835 34.0164 33.7131C34.452 33.5379 34.7929 33.2964 35.0392 32.9886C35.2854 32.6761 35.4108 32.3116 35.4156 31.8949C35.4108 31.5161 35.2996 31.2036 35.0818 30.9574C34.864 30.7064 34.5586 30.4981 34.1656 30.3324C33.7773 30.1619 33.3228 30.0104 32.8019 29.8778L31.1471 29.4517C29.9492 29.1439 29.0022 28.6776 28.3062 28.0526C27.6149 27.4228 27.2693 26.5871 27.2693 25.5455C27.2693 24.6884 27.5013 23.938 27.9653 23.294C28.434 22.6501 29.0709 22.1506 29.8758 21.7955C30.6807 21.4356 31.5922 21.2557 32.6102 21.2557C33.6424 21.2557 34.5467 21.4356 35.3232 21.7955C36.1045 22.1506 36.7177 22.6454 37.1627 23.2798C37.6078 23.9096 37.8374 24.634 37.8517 25.4531H35.3161Z" fill="white"/>
</svg>
