<svg width="13" height="59" viewBox="0 0 13 59" fill="none" xmlns="http://www.w3.org/2000/svg">
<path d="M4.00009 0H10.0001V7C10.0001 8.65685 8.65694 10 7.00009 10C5.34323 10 4.00009 8.65685 4.00009 7V0Z" fill="#D9D9D9"/>
<path d="M4.00009 52C4.00009 50.3431 5.34323 49 7.00009 49C8.65694 49 10.0001 50.3431 10.0001 52V59H4.00009V52Z" fill="#D9D9D9"/>
<path d="M9.33958 25.4531C9.27329 24.8329 8.99393 24.3499 8.50151 24.0043C8.01382 23.6586 7.37935 23.4858 6.5981 23.4858C6.04886 23.4858 5.57774 23.5687 5.18475 23.7344C4.79176 23.9001 4.49109 24.125 4.28276 24.4091C4.07443 24.6932 3.96789 25.0175 3.96316 25.3821C3.96316 25.6851 4.03181 25.9479 4.16912 26.1705C4.31117 26.393 4.50293 26.5824 4.74441 26.7386C4.98588 26.8902 5.2534 27.018 5.54696 27.1222C5.84052 27.2263 6.13645 27.3139 6.43475 27.3849L7.79838 27.7259C8.34763 27.8537 8.87556 28.0265 9.38219 28.2443C9.89355 28.4621 10.3505 28.7367 10.7529 29.0682C11.1601 29.3996 11.4821 29.7997 11.7188 30.2685C11.9556 30.7372 12.074 31.2865 12.074 31.9162C12.074 32.7685 11.8561 33.5189 11.4205 34.1676C10.9849 34.8116 10.3552 35.3158 9.53134 35.6804C8.71221 36.0402 7.72026 36.2202 6.55549 36.2202C5.42386 36.2202 4.44138 36.045 3.60804 35.6946C2.77944 35.3442 2.13077 34.8329 1.66202 34.1605C1.19801 33.4882 0.947058 32.669 0.90918 31.7031H3.50151C3.53939 32.2098 3.69564 32.6312 3.97026 32.9673C4.24488 33.3035 4.60236 33.5544 5.0427 33.7202C5.48778 33.8859 5.98494 33.9688 6.53418 33.9688C7.1071 33.9688 7.60899 33.8835 8.03986 33.7131C8.47547 33.5379 8.81638 33.2964 9.06259 32.9886C9.3088 32.6761 9.43428 32.3116 9.43901 31.8949C9.43428 31.5161 9.32301 31.2036 9.1052 30.9574C8.8874 30.7064 8.582 30.4981 8.18901 30.3324C7.80075 30.1619 7.34621 30.0104 6.82537 29.8778L5.17054 29.4517C3.97263 29.1439 3.02566 28.6776 2.32963 28.0526C1.63835 27.4228 1.2927 26.5871 1.2927 25.5455C1.2927 24.6884 1.52471 23.938 1.98873 23.294C2.45748 22.6501 3.09431 22.1506 3.89924 21.7955C4.70416 21.4356 5.61562 21.2557 6.63361 21.2557C7.66581 21.2557 8.57016 21.4356 9.34668 21.7955C10.1279 22.1506 10.7411 22.6454 11.1862 23.2798C11.6312 23.9096 11.8609 24.634 11.8751 25.4531H9.33958Z" fill="white"/>
</svg>
