<?xml version="1.0" standalone="no"?><!DOCTYPE svg PUBLIC "-//W3C//DTD SVG 1.1//EN" "http://www.w3.org/Graphics/SVG/1.1/DTD/svg11.dtd"><svg t="1692876671745" class="icon" viewBox="0 0 1024 1024" version="1.1" xmlns="http://www.w3.org/2000/svg" p-id="2034" xmlns:xlink="http://www.w3.org/1999/xlink" width="200" height="200"><path d="M810.220935 429.452317c-23.871886-19.881805-50.868671-42.421617-52.195626-55.920521-0.0686-0.398291-0.466892-0.398291-0.531396-0.732078-1.664838-12.497544-11.969219-22.274625-24.869151-22.274625-14.097877 0-25.532628 11.438847-25.532628 25.532629v155.059241L580.823524 343.944582c-5.385637-8.579135-9.907114-18.152463-13.828595-28.324763H688.207593c5.586318 0 10.971955-2.063129 15.026541-5.852529 29.787896-27.528181 42.953013-76.200618 32.913817-121.21676-13.099589-58.377846-54.255683-97.87627-102.529828-98.274561h-0.200682l-416.903579 0.069624c-0.663478 0-1.194874 0.265186-1.862447 0.330715-6.978802 1.331051-32.113139 5.852529-32.113139 5.852529-67.090086 26.598493-104.459852 115.030445-85.178044 201.403363 5.787 25.866415 15.292751 49.472091 28.39234 70.150479L268.444302 579.593837c5.120451 8.309853 9.508823 17.552466 13.297199 27.459581H160.46126c-5.518742 0-10.904379 2.063129-15.026541 5.852529-29.720319 27.528181-42.885437 76.265122-32.845217 121.212664 13.032012 58.248836 55.655335 98.542819 103.727774 98.210056 0.064505 0 0.133105 0.064505 0.265187 0.064505h230.990577c0.367575 6.25082 1.297263 12.436111 2.927288 18.48625 13.032012 49.070728 63.764506 80.789672 129.325931 80.789671 17.754172 0 35.704929-2.46142 53.459101-7.183579 39.163614-10.437487 73.340906-31.24898 96.279009-58.510951 19.350409-23.075304 28.926808-48.607932 28.525445-73.871279 0-0.136177 0.067576-0.200682 0.067576-0.269281v-172.278945c7.71088-3.921481 13.297199-2.792135 17.886253-0.93276 33.44419 13.900267 64.029693 92.425104 66.624218 121.550547 0.067576 0.330715 0.466892 0.531396 0.531397 0.865183 0.997264 7.646376 4.987345 14.82586 12.235429 18.949045 3.990081 2.328315 8.378454 3.391108 12.633721 3.391109 8.844321 0 17.487961-4.589054 22.207049-12.834403 98.675924-172.01683-8.908826-261.715328-80.054522-321.091462z" fill="#27323A" p-id="2035"></path><path d="M628.563201 134.493481h4.855264c26.662998 0.269282 51.198362 26.465388 59.512311 63.767578 1.593166 6.914298 2.325244 13.9617 2.325243 20.943574 0 20.347673-7.114979 38.967028-18.284544 52.195626h-135.910538c-0.865183-0.133105-1.726271 0.067576-2.65903 0H310.733838c6.781193-16.15691 10.706769-33.975587 10.706769-52.461836 0-10.107796-1.065865-20.344601-3.326604-30.319292-4.722159-21.212856-14.162382-38.765322-25.400547-54.058074 93.622026 0.001024 302.872446-0.067576 335.849745-0.067576zM231.875214 784.986258s-15.159646 3.057322-15.557938 3.124898c-27.330571 0.19761-52.063545-25.935015-60.574079-63.634473-1.528661-6.914298-2.260739-14.029277-2.260739-21.012175 0-20.280097 7.114979-38.962932 18.216968-52.195626h120.882973c6.514982 58.381941-18.949046 117.226679-60.707185 133.717376z" fill="#F4CE73" p-id="2036"></path><path d="M333.34225 624.737965c-5.719423-25.465052-15.026541-48.736941-27.793367-69.217719l-142.759307-211.575664c-9.974691-15.827219-17.55349-34.707665-22.207049-55.655334a160.037372 160.037372 0 0 1-3.856976-34.972851c0-51.998016 24.668469-100.803558 62.03414-115.629418 0.067576 0 17.222775-3.124898 17.222775-3.124898 26.462316 0.663478 50.666965 26.863679 58.913338 63.698978 6.649111 29.587214-1.528661 62.170317-19.7487 79.060329-6.649111 6.18222-8.844321 15.823124-5.518742 24.266082a21.979746 21.979746 0 0 0 20.545283 14.033372h250.674772c5.783928 18.880445 12.963412 36.767722 22.939127 52.461837L686.479274 579.593837c9.07572 14.560673 15.990017 32.18174 20.613884 51.331467v74.934072c-0.231398 0.997264-0.398291 2.063129-0.663478 3.060393-21.978722-12.633721-49.571408-20.013886-80.587966-20.013886-17.754172 0-35.709025 2.39282-53.459101 7.114979-48.741037 13.032012-88.834339 41.488857-109.978594 78.062041-2.692818 4.653559-4.653559 9.372646-6.614299 14.093781H296.837666c25.532628-30.452397 41.557458-72.009855 41.557458-117.556369 0-15.096165-1.661766-30.520998-5.052874-45.88235z" fill="#F4CE73" p-id="2037"></path><path d="M690.469355 833.124226c-16.024829 19.085222-41.690563 34.377974-70.348089 42.023325-55.120866 14.693778-111.242069-3.523189-120.284-37.434271-3.990081-14.89446 1.464156-28.923737 6.781193-38.098773 14.162382-24.535364 43.685091-44.818532 78.927224-54.258755 13.430304-3.59179 26.993713-5.385637 40.293983-5.385637 41.022989 0 73.1392 17.222775 79.988993 42.888509 5.651847 21.075656-7.182556 40.491593-15.359304 50.265602zM872.058489 663.704993c-16.623802-38.23495-42.357112-78.062041-76.465803-92.224423-12.299934-5.120451-24.933655-6.318396-37.434272-4.455949V452.258339c6.18222 5.385637 12.633721 10.771274 19.347337 16.357592 56.985362 47.607596 120.01779 100.6039 94.552738 195.089062z" fill="#79CCBF" p-id="2038"></path><path d="M510.441647 443.550194H296.670773c-9.406434 0-17.022094-7.646376-17.022094-17.022093 0-9.443294 7.615659-17.022094 17.022094-17.022094h213.770874c9.409506 0 17.022094 7.577775 17.022093 17.022094 0 9.375718-7.612587 17.022094-17.022093 17.022093zM556.121266 515.359368H342.350393a16.969875 16.969875 0 0 1-17.022094-17.022094c0-9.372646 7.581871-17.022094 17.022094-17.022093h213.770873c9.375718 0 17.022094 7.649447 17.022094 17.022093 0 9.443294-7.646376 17.022094-17.022094 17.022094zM605.358888 587.205401H391.588014a16.971923 16.971923 0 0 1-17.022093-17.022094c0-9.375718 7.581871-17.022094 17.022093-17.022093h213.770874c9.375718 0 17.022094 7.646376 17.022093 17.022093 0 9.440223-7.646376 17.022094-17.022093 17.022094z" fill="#FFFFFF" p-id="2039"></path></svg>