<?xml version="1.0" standalone="no"?><!DOCTYPE svg PUBLIC "-//W3C//DTD SVG 1.1//EN" "http://www.w3.org/Graphics/SVG/1.1/DTD/svg11.dtd"><svg t="1692864643594" class="icon" viewBox="0 0 1024 1024" version="1.1" xmlns="http://www.w3.org/2000/svg" p-id="7411" xmlns:xlink="http://www.w3.org/1999/xlink" width="200" height="200"><path d="M518.4 992H192c-51.2 0-96-44.8-96-96V128c0-51.2 44.8-96 96-96h640c51.2 0 96 44.8 96 96v390.4c0 19.2-12.8 32-32 32s-32-12.8-32-32V128c0-19.2-12.8-32-32-32H192c-19.2 0-32 12.8-32 32v768c0 19.2 12.8 32 32 32h326.4c19.2 0 32 12.8 32 32s-12.8 32-32 32z" fill="#ffffff" p-id="7412"></path><path d="M608 864c-51.2 0-96-19.2-134.4-57.6C435.2 768 416 723.2 416 672s19.2-102.4 57.6-134.4c76.8-76.8 198.4-76.8 268.8 0C780.8 576 800 620.8 800 672s-19.2 102.4-57.6 134.4c-32 38.4-83.2 57.6-134.4 57.6z m0-320c-32 0-64 12.8-89.6 38.4C492.8 608 480 640 480 672s12.8 64 38.4 89.6c51.2 51.2 128 51.2 179.2 0C723.2 736 736 704 736 672s-12.8-64-38.4-89.6C678.4 556.8 640 544 608 544z" fill="#ffffff" p-id="7413"></path><path d="M838.4 934.4c-6.4 0-19.2 0-25.6-6.4l-89.6-96c-12.8-12.8-12.8-32 0-44.8s32-12.8 44.8 0l89.6 89.6c12.8 12.8 12.8 32 0 44.8-6.4 6.4-12.8 12.8-19.2 12.8zM768 288H256c-19.2 0-32-12.8-32-32s12.8-32 32-32h512c19.2 0 32 12.8 32 32s-12.8 32-32 32zM480 480H256c-19.2 0-32-12.8-32-32s12.8-32 32-32h224c19.2 0 32 12.8 32 32s-12.8 32-32 32zM320 672h-64c-19.2 0-32-12.8-32-32s12.8-32 32-32h64c19.2 0 32 12.8 32 32s-12.8 32-32 32z" fill="#ffffff" p-id="7414"></path></svg>