<?xml version="1.0" standalone="no"?><!DOCTYPE svg PUBLIC "-//W3C//DTD SVG 1.1//EN" "http://www.w3.org/Graphics/SVG/1.1/DTD/svg11.dtd"><svg t="1692922758431" class="icon" viewBox="0 0 1024 1024" version="1.1" xmlns="http://www.w3.org/2000/svg" p-id="43031" xmlns:xlink="http://www.w3.org/1999/xlink" width="200" height="200"><path d="M800 938.666667h-576C147.2 938.666667 85.333333 876.8 85.333333 800v-576C85.333333 147.2 147.2 85.333333 224 85.333333h573.866667c76.8 0 138.666667 61.866667 138.666666 138.666667v573.866667c2.133333 78.933333-59.733333 140.8-136.533333 140.8z m-576-789.333334C183.466667 149.333333 149.333333 183.466667 149.333333 224v573.866667c0 40.533333 34.133333 74.666667 74.666667 74.666666h573.866667c40.533333 0 74.666667-34.133333 74.666666-74.666666V224C874.666667 183.466667 840.533333 149.333333 800 149.333333h-576z" fill="#ffffff" p-id="43032"></path><path d="M469.333333 646.4c-14.933333 0-27.733333-6.4-38.4-14.933333L320 518.4c-14.933333-10.666667-19.2-29.866667-8.533333-44.8 10.666667-14.933333 29.866667-19.2 44.8-8.533333 2.133333 2.133333 6.4 4.266667 8.533333 8.533333l106.666667 104.533333 189.866666-189.866666c14.933333-10.666667 34.133333-6.4 44.8 8.533333 8.533333 10.666667 6.4 25.6 0 36.266667l-198.4 198.4c-10.666667 8.533333-23.466667 14.933333-38.4 14.933333z" fill="#ffffff" p-id="43033"></path></svg>