<?xml version="1.0" standalone="no"?><!DOCTYPE svg PUBLIC "-//W3C//DTD SVG 1.1//EN" "http://www.w3.org/Graphics/SVG/1.1/DTD/svg11.dtd"><svg t="1692864125661" class="icon" viewBox="0 0 1024 1024" version="1.1" xmlns="http://www.w3.org/2000/svg" p-id="19128" xmlns:xlink="http://www.w3.org/1999/xlink" width="200" height="200"><path d="M770.9 923.3H253.1c-83.8 0-151.9-68.2-151.9-151.9V253.6c0-83.8 68.2-151.9 151.9-151.9h517.8c83.8 0 151.9 68.2 151.9 151.9v517.8c0 83.8-68.1 151.9-151.9 151.9zM253.1 181.7c-39.7 0-71.9 32.3-71.9 71.9v517.8c0 39.7 32.3 71.9 71.9 71.9h517.8c39.7 0 71.9-32.3 71.9-71.9V253.6c0-39.7-32.3-71.9-71.9-71.9H253.1z" p-id="19129" fill="#ffffff"></path></svg>