<?xml version="1.0" standalone="no"?><!DOCTYPE svg PUBLIC "-//W3C//DTD SVG 1.1//EN" "http://www.w3.org/Graphics/SVG/1.1/DTD/svg11.dtd"><svg t="1692864293969" class="icon" viewBox="0 0 1024 1024" version="1.1" xmlns="http://www.w3.org/2000/svg" p-id="4426" xmlns:xlink="http://www.w3.org/1999/xlink" width="200" height="200"><path d="M512 947.2c-16 0-33.6-6.4-44.8-19.2l-224-224H160c-52.8 0-96-43.2-96-96V416c0-52.8 43.2-96 96-96h83.2l224-224c17.6-17.6 46.4-24 70.4-14.4C560 92.8 576 115.2 576 140.8v740.8c0 25.6-16 49.6-40 59.2-8 4.8-16 6.4-24 6.4zM160 384c-17.6 0-32 14.4-32 32v192c0 17.6 14.4 32 32 32h96c8 0 16 3.2 22.4 9.6L512 883.2V140.8L278.4 374.4C272 380.8 264 384 256 384h-96z m640 432c-9.6 0-17.6-3.2-24-11.2-11.2-14.4-9.6-33.6 4.8-44.8 72-62.4 115.2-152 115.2-248s-43.2-185.6-116.8-246.4c-14.4-11.2-16-32-4.8-44.8 11.2-14.4 32-16 44.8-4.8C908.8 289.6 960 396.8 960 512c0 115.2-51.2 222.4-139.2 296-6.4 4.8-14.4 8-20.8 8zM672 672c-9.6 0-19.2-4.8-25.6-12.8-11.2-14.4-8-33.6 6.4-44.8 32-24 51.2-62.4 51.2-102.4s-19.2-78.4-51.2-102.4c-14.4-11.2-17.6-30.4-6.4-44.8 11.2-14.4 30.4-17.6 44.8-6.4 48 36.8 76.8 92.8 76.8 153.6s-27.2 116.8-76.8 153.6c-6.4 4.8-12.8 6.4-19.2 6.4z" fill="#ffffff" p-id="4427"></path></svg>