<?xml version="1.0" standalone="no"?><!DOCTYPE svg PUBLIC "-//W3C//DTD SVG 1.1//EN" "http://www.w3.org/Graphics/SVG/1.1/DTD/svg11.dtd"><svg t="1692864630273" class="icon" viewBox="0 0 1024 1024" version="1.1" xmlns="http://www.w3.org/2000/svg" p-id="7208" xmlns:xlink="http://www.w3.org/1999/xlink" width="200" height="200"><path d="M880 240H704v-64c0-52.8-43.2-96-96-96H416c-52.8 0-96 43.2-96 96v64H144c-17.6 0-32 14.4-32 32s14.4 32 32 32h48v512c0 70.4 57.6 128 128 128h384c70.4 0 128-57.6 128-128V304h48c17.6 0 32-14.4 32-32s-14.4-32-32-32z m-496-64c0-17.6 14.4-32 32-32h192c17.6 0 32 14.4 32 32v64H384v-64z m384 640c0 35.2-28.8 64-64 64H320c-35.2 0-64-28.8-64-64V304h512v512z" fill="#ffffff" p-id="7209"></path><path d="M416 432c-17.6 0-32 14.4-32 32v256c0 17.6 14.4 32 32 32s32-14.4 32-32V464c0-17.6-14.4-32-32-32z m192 0c-17.6 0-32 14.4-32 32v256c0 17.6 14.4 32 32 32s32-14.4 32-32V464c0-17.6-14.4-32-32-32z" fill="#ffffff" p-id="7210"></path></svg>