<?xml version="1.0" standalone="no"?><!DOCTYPE svg PUBLIC "-//W3C//DTD SVG 1.1//EN" "http://www.w3.org/Graphics/SVG/1.1/DTD/svg11.dtd"><svg t="1692870810705" class="icon" viewBox="0 0 1024 1024" version="1.1" xmlns="http://www.w3.org/2000/svg" p-id="27481" xmlns:xlink="http://www.w3.org/1999/xlink" width="200" height="200"><path d="M940.01 628.95h-85.47c-11.92 0-21.58 9.66-21.58 21.58v144.35c0 0.02 0.02 0.04 0.04 0.04h107.02c1.45 0 2.62-1.17 2.62-2.62V631.57a2.638 2.638 0 0 0-2.63-2.62zM135.45 628.95h92.51c0.02 0 0.04 0.02 0.04 0.04v165.9c0 0.02-0.02 0.04-0.04 0.04H120.94c-1.45 0-2.62-1.17-2.62-2.62V646.08c0-9.46 7.67-17.13 17.13-17.13z" fill="#ffffff" p-id="27482"></path><path d="M880.19 542.9h-82.4c-0.02 0-0.04-0.02-0.04-0.04v-61.73c0-154.89-126.67-285.71-281.54-287.95-159.49-2.31-289.97 126.76-289.97 285.72v63.96c0 0.02-0.02 0.04-0.04 0.04h-82.4c-46.38 0-83.98 37.6-83.98 83.98v120.01c0 46.38 37.6 83.98 83.98 83.98h76.72c23.11 0 41.85-18.74 41.85-41.85V480.89c0-137.49 112.49-251.8 249.98-251.6 137.47 0.2 249.24 112.1 249.24 249.61v310.11c0 23.11 18.74 41.85 41.85 41.85h76.72c46.38 0 83.98-37.6 83.98-83.98V626.87c0.02-46.38-37.57-83.97-83.95-83.97zM226.25 789.01c0 3.15-2.56 5.71-5.71 5.71h-76.72c-26.42 0-47.84-21.42-47.84-47.84V626.87c0-26.42 21.42-47.84 47.84-47.84h82.4c0.02 0 0.04 0.02 0.04 0.04v209.94z m701.77-42.13c0 26.42-21.42 47.84-47.84 47.84h-76.72c-3.15 0-5.71-2.56-5.71-5.71V579.07c0-0.02 0.02-0.04 0.04-0.04h82.4c26.42 0 47.84 21.42 47.84 47.84v120.01z" fill="#ffffff" p-id="27483"></path><path d="M345.86 682.6c-6.65-0.1-11.85-5.83-11.85-12.48V533.6c0-6.65 5.2-12.37 11.85-12.48 6.74-0.11 12.24 5.33 12.24 12.05v137.39c0 6.71-5.5 12.15-12.24 12.04zM678.51 712.82c-6.65-0.1-11.85-5.83-11.85-12.48V563.82c0-6.65 5.2-12.37 11.85-12.48 6.74-0.11 12.24 5.33 12.24 12.05v137.39c0 6.72-5.5 12.15-12.24 12.04zM429.02 791.41c-6.65-0.1-11.85-5.83-11.85-12.48V509.92c0-6.65 5.2-12.37 11.85-12.48 6.74-0.11 12.24 5.33 12.24 12.05v269.88c0 6.71-5.5 12.15-12.24 12.04zM595.35 665.5c-6.65-0.1-11.85-5.83-11.85-12.48V428.21c0-6.65 5.2-12.37 11.85-12.48 6.74-0.11 12.24 5.33 12.24 12.05v225.68c0 6.71-5.5 12.15-12.24 12.04zM512.18 791.41c-6.65-0.1-11.85-5.83-11.85-12.48V397.41c0-6.65 5.2-12.37 11.85-12.48 6.74-0.11 12.24 5.33 12.24 12.05v382.39c0 6.71-5.5 12.15-12.24 12.04z" fill="#ffffff" p-id="27484"></path></svg>