<?xml version="1.0" standalone="no"?><!DOCTYPE svg PUBLIC "-//W3C//DTD SVG 1.1//EN" "http://www.w3.org/Graphics/SVG/1.1/DTD/svg11.dtd"><svg t="1692933252080" class="icon" viewBox="0 0 1024 1024" version="1.1" xmlns="http://www.w3.org/2000/svg" p-id="14307" xmlns:xlink="http://www.w3.org/1999/xlink" width="200" height="200"><path d="M260.256 356.576l204.288-163.968a32 32 0 0 1 52.032 24.96v610.432a32 32 0 0 1-51.968 24.992l-209.92-167.552H96a32 32 0 0 1-32-32v-264.864a32 32 0 0 1 32-32h164.256zM670.784 720.128a32 32 0 0 1-44.832-45.664 214.08 214.08 0 0 0 64.32-153.312 213.92 213.92 0 0 0-55.776-144.448 32 32 0 1 1 47.36-43.04 277.92 277.92 0 0 1 72.416 187.488 278.08 278.08 0 0 1-83.488 198.976zM822.912 858.88a32 32 0 1 1-45.888-44.608A419.008 419.008 0 0 0 896 521.152c0-108.704-41.376-210.848-114.432-288.384a32 32 0 0 1 46.592-43.872c84.16 89.28 131.84 207.04 131.84 332.256 0 127.84-49.76 247.904-137.088 337.728z" fill="#ffffff" p-id="14308"></path></svg>