<?xml version="1.0" standalone="no"?><!DOCTYPE svg PUBLIC "-//W3C//DTD SVG 1.1//EN" "http://www.w3.org/Graphics/SVG/1.1/DTD/svg11.dtd"><svg t="1693198574498" class="icon" viewBox="0 0 1024 1024" version="1.1" xmlns="http://www.w3.org/2000/svg" p-id="11083" xmlns:xlink="http://www.w3.org/1999/xlink" width="200" height="200"><path d="M511.333 63.333c-247.424 0-448 200.576-448 448s200.576 448 448 448 448-200.576 448-448-200.576-448-448-448z m271.529 719.529c-35.286 35.287-76.359 62.983-122.078 82.321-47.3 20.006-97.583 30.15-149.451 30.15-51.868 0-102.15-10.144-149.451-30.15-45.719-19.337-86.792-47.034-122.078-82.321-35.287-35.286-62.983-76.359-82.321-122.078-20.006-47.3-30.15-97.583-30.15-149.451s10.144-102.15 30.15-149.451c19.337-45.719 47.034-86.792 82.321-122.078 35.286-35.287 76.359-62.983 122.078-82.321 47.3-20.006 97.583-30.15 149.451-30.15 51.868 0 102.15 10.144 149.451 30.15 45.719 19.337 86.792 47.034 122.078 82.321 35.287 35.286 62.983 76.359 82.321 122.078 20.006 47.3 30.15 97.583 30.15 149.451s-10.144 102.15-30.15 149.451c-19.337 45.719-47.034 86.792-82.321 122.078z" fill="#ffffff" p-id="11084"></path><path d="M642.045 285.629c-26.482-39.772-72.632-61.676-129.945-61.676-45.43 0-81.73 14.938-107.891 44.4-21.679 24.415-34.958 57.378-39.469 97.974-3.153 28.378-0.747 50.163-0.462 52.553 2.091 17.549 18.02 30.084 35.56 27.991 17.549-2.09 30.081-18.011 27.991-35.56-0.019-0.161-1.845-16.636 0.52-37.916 2.077-18.688 7.877-44.708 23.717-62.547 13.679-15.406 33.317-22.895 60.034-22.895 35.722 0 62.235 11.462 76.675 33.147 15.268 22.93 14.215 52.064 6.398 70.765-4.475 10.704-25.708 30.276-42.77 46.002-35.924 33.111-73.07 67.349-73.07 108.723v61.457c0 17.673 14.327 32 32 32s32-14.327 32-32V546.59c0-0.684 0.354-7.103 12.607-21.925 10.498-12.696 25.413-26.444 39.837-39.739 24.981-23.025 48.576-44.774 58.443-68.379 8.323-19.912 11.834-42.319 10.153-64.799-1.794-24.014-9.516-46.877-22.328-66.119z" fill="#ffffff" p-id="11085"></path><path d="M512.099 702.965m-40 0a40 40 0 1 0 80 0 40 40 0 1 0-80 0Z" fill="#ffffff" p-id="11086"></path></svg>