<?xml version="1.0" standalone="no"?><!DOCTYPE svg PUBLIC "-//W3C//DTD SVG 1.1//EN" "http://www.w3.org/Graphics/SVG/1.1/DTD/svg11.dtd"><svg t="1693199419984" class="icon" viewBox="0 0 1024 1024" version="1.1" xmlns="http://www.w3.org/2000/svg" p-id="19675" xmlns:xlink="http://www.w3.org/1999/xlink" width="200" height="200"><path d="M680.482501 819.080861H135.322136v-704.905953h545.061082v129.067287l68.107815 37.628078V68.30638A68.207097 68.207097 0 0 0 680.383218 0H135.322136A68.207097 68.207097 0 0 0 67.214322 68.30638v887.38724a68.207097 68.207097 0 0 0 68.107814 68.30638h545.061082a68.207097 68.207097 0 0 0 68.107815-68.30638V785.424084a224.080667 224.080667 0 0 1-21.047896 13.403141 500.880357 500.880357 0 0 1-46.960636 19.856506zM328.426654 56.888889a11.318208 11.318208 0 0 1 11.417491-11.417491H453.423358a11.318208 11.318208 0 0 1 11.417491 11.417491v11.417491A11.318208 11.318208 0 0 1 453.423358 79.426023H339.744863a11.318208 11.318208 0 0 1-11.417491-11.119643z m79.426023 898.705449a45.471398 45.471398 0 1 1 45.471398-45.372116 45.471398 45.471398 0 0 1-45.471398 45.372116z m0 0" p-id="19676" fill="#ffffff"></path><path d="M599.865087 353.842932c0-20.849331 14.793097-29.288346 32.763235-18.86368L943.283354 514.283498c17.970138 9.928253 17.970138 27.50126 0 37.826644L632.628322 731.414388c-17.970138 9.928253-32.763234 1.886368-32.763235-18.86368z m0 0" p-id="19677" fill="#ffffff"></path></svg>