<?xml version="1.0" standalone="no"?><!DOCTYPE svg PUBLIC "-//W3C//DTD SVG 1.1//EN" "http://www.w3.org/Graphics/SVG/1.1/DTD/svg11.dtd"><svg t="1692864542192" class="icon" viewBox="0 0 1024 1024" version="1.1" xmlns="http://www.w3.org/2000/svg" p-id="5994" xmlns:xlink="http://www.w3.org/1999/xlink" width="200" height="200"><path d="M895.84 514.08V896a64 64 0 0 1-64 64H128a64 64 0 0 1-64-64V128a64 64 0 0 1 64-64h351.936v64H160a32 32 0 0 0-32 32v704a32 32 0 0 0 32 32h639.872a32 32 0 0 0 32-32V512h0.064a32 32 0 1 1 63.904 2.08z m-427.552-3.68l362.048-362.048a32 32 0 0 1 45.248 45.248L513.536 555.648a32 32 0 0 1-45.248-45.248zM479.936 128V64a32 32 0 0 1 32 32c0 17.664-15.136 32-32 32z" fill="#ffffff" p-id="5995"></path></svg>