<?xml version="1.0" standalone="no"?><!DOCTYPE svg PUBLIC "-//W3C//DTD SVG 1.1//EN" "http://www.w3.org/Graphics/SVG/1.1/DTD/svg11.dtd"><svg t="1692864920999" class="icon" viewBox="0 0 1024 1024" version="1.1" xmlns="http://www.w3.org/2000/svg" p-id="1003" xmlns:xlink="http://www.w3.org/1999/xlink" width="200" height="200"><path d="M850.189474 41.229474H180.547368c-78.147368 0-141.473684 63.595789-141.473684 141.473684v410.677895c0 78.147368 63.595789 141.473684 141.473684 141.473684h307.738948v191.056842H249.802105c-14.821053 0-26.947368 12.126316-26.947368 26.947368s12.126316 26.947368 26.947368 26.947369h531.132632c14.821053 0 26.947368-12.126316 26.947368-26.947369s-12.126316-26.947368-26.947368-26.947368h-238.484211v-191.056842h307.738948c78.147368 0 141.473684-63.595789 141.473684-141.473684V182.703158c0-78.147368-63.595789-141.473684-141.473684-141.473684z m87.578947 552.151579c0 48.235789-39.343158 87.578947-87.578947 87.578947H180.547368c-48.235789 0-87.578947-39.343158-87.578947-87.578947V182.703158c0-48.235789 39.343158-87.578947 87.578947-87.578947h669.372632c48.235789 0 87.578947 39.343158 87.578947 87.578947v410.677895z" p-id="1004" fill="#ffffff"></path></svg>