<?xml version="1.0" standalone="no"?><!DOCTYPE svg PUBLIC "-//W3C//DTD SVG 1.1//EN" "http://www.w3.org/Graphics/SVG/1.1/DTD/svg11.dtd"><svg t="1693199489008" class="icon" viewBox="0 0 1024 1024" version="1.1" xmlns="http://www.w3.org/2000/svg" p-id="21396" xmlns:xlink="http://www.w3.org/1999/xlink" width="200" height="200"><path d="M0 511.998a511.998 511.998 0 1 0 1023.996 0A511.998 511.998 0 1 0 0 511.998z" fill="#E1E6E9" p-id="21397"></path><path d="M142.399 609.6h516.8c67.2 0 124.799-52.8 126.4-120v-1.601H16v1.6c0 67.2 59.2 120 126.398 120z" fill="#FFFFFF" p-id="21398"></path><path d="M657.598 625.598h-515.2C64 625.598 0 564.798 0 489.6V488c0-9.601 6.4-16.001 16-16.001h768c9.6 0 16 6.4 16 16v1.601c-0.001 75.199-64 136-142.402 136zM33.6 504c8 51.199 54.4 89.598 108.8 89.598h516.8c54.4 0 100.8-40 108.799-89.598H33.6z" fill="#193651" p-id="21399"></path><path d="M64 16h673.598V488H63.999z" fill="#F16051" p-id="21400"></path><path d="M736 504H64c-9.602 0-16.002-6.4-16.002-16.001V16C48 6.4 54.4 0 64 0h671.998c9.601 0 16.001 6.4 16.001 16V488c0 8-6.4 16-15.999 16zM80 471.998H720V32H80v439.998z" fill="#193651" p-id="21401"></path><path d="M126.928 80.528h545.598v344H126.928z" fill="#FFFFFF" p-id="21402"></path><path d="M963.198 393.598h-392c-24 0-44.8 20.8-44.8 44.8v524.798c0 23.999 20.8 44.799 44.8 44.799h392c23.999 0 44.8-20.8 44.8-44.8V438.4c0-24.001-20.801-44.802-44.8-44.802z" fill="#FFFFFF" p-id="21403"></path><path d="M963.198 377.6h-392c-33.6 0-60.8 27.2-60.8 60.8v524.798c0 33.6 27.2 60.8 60.8 60.8h392c33.6 0 60.8-27.2 60.8-60.8V438.4c0-33.6-27.2-60.8-60.8-60.8z m28.8 585.598a28.681 28.681 0 0 1-28.8 28.8h-392a28.681 28.681 0 0 1-28.8-28.8V438.4a28.681 28.681 0 0 1 28.8-28.8h392a28.681 28.681 0 0 1 28.8 28.8v524.798z" fill="#193651" p-id="21404"></path><path d="M585.598 483.2h361.599v417.599H585.598z" fill="#2EA2DB" p-id="21405"></path><path d="M819.198 433.598H716.8c-6.4 0-9.601 4.8-9.601 9.601 0 6.4 4.8 9.601 9.6 9.601h102.4c6.4 0 9.6-4.8 9.6-9.6-0.002-4.8-4.801-9.602-9.6-9.602zM740.799 948.797a27.2 27.2 0 1 0 54.4 0 27.2 27.2 0 1 0-54.4 0zM667.199 849.597h-449.6V681.6h32v135.999h417.6z" fill="#193651" p-id="21406"></path><path d="M280 750.398l-46.4-44.8-46.4 44.8-22.4-22.4 68.8-68.8 68.799 68.8z m676.798-443.2h-32V140.8h-406.4v-32h438.4z" fill="#193651" p-id="21407"></path><path d="M940.797 331.2l-68.799-68.801 22.399-24 46.4 46.4 46.4-46.4 22.4 24zM452.798 108.8h33.6v32h-33.6z m-65.6 0h33.6v32h-33.6z m-67.198 0h33.6v32H320z m377.598 708.798h32v32h-32z m64.001 0h32v32h-32z m64 0h31.999v32h-32z" fill="#193651" p-id="21408"></path></svg>