<?xml version="1.0" standalone="no"?><!DOCTYPE svg PUBLIC "-//W3C//DTD SVG 1.1//EN" "http://www.w3.org/Graphics/SVG/1.1/DTD/svg11.dtd"><svg t="1692872413511" class="icon" viewBox="0 0 1024 1024" version="1.1" xmlns="http://www.w3.org/2000/svg" p-id="31831" xmlns:xlink="http://www.w3.org/1999/xlink" width="200" height="200"><path d="M823.456 243l-109.68-109.72c-15.619-15.625-15.614-40.951 0.01-56.57 15.623-15.618 40.95-15.613 56.568 0.01l177.935 178C973.481 279.923 955.633 323 920 323H747.43c-37.616 0-72.746 18.808-93.615 50.122l-23.12 34.693c-12.25 18.383-37.085 23.354-55.468 11.103-18.383-12.25-23.354-37.085-11.103-55.468l23.12-34.692C622.948 275.182 683.059 243 747.43 243h76.025zM394.812 617.51c12.251-18.383 37.085-23.354 55.468-11.103 18.383 12.25 23.354 37.085 11.103 55.468l-72.885 109.367C352.794 824.818 292.683 857 228.311 857H104c-22.091 0-40-17.909-40-40s17.909-40 40-40h124.311c37.617 0 72.747-18.808 93.616-50.122l72.885-109.368zM742.888 781c-61.531 0-118.99-30.757-153.114-81.96L319.396 293.325A104 104 0 0 0 232.854 247H104c-22.091 0-40-17.909-40-40s17.909-40 40-40h128.854c61.531 0 118.99 30.757 153.114 81.96l270.378 405.714A104 104 0 0 0 742.888 701H920c35.633 0 53.481 43.078 28.29 68.28l-177.936 178c-15.618 15.623-40.945 15.628-56.569 0.01-15.623-15.619-15.628-40.945-0.01-56.57L823.456 781h-80.568z" fill="#ffffff" p-id="31832"></path></svg>