<svg width="16" height="12" viewBox="0 0 16 12" fill="none" xmlns="http://www.w3.org/2000/svg">
<path d="M9.19249 10.6875L15.2237 2.785C15.3935 2.56262 15.4976 2.2972 15.5244 2.01875C15.5512 1.74029 15.4996 1.45988 15.3754 1.2092C15.2513 0.958526 15.0595 0.747566 14.8217 0.600154C14.584 0.452743 14.3097 0.374755 14.03 0.375001H1.96937C1.68973 0.374988 1.41565 0.453146 1.17808 0.600649C0.940508 0.748153 0.748899 0.95913 0.624882 1.20976C0.500864 1.4604 0.449378 1.74071 0.476233 2.01906C0.503089 2.2974 0.607218 2.5627 0.776865 2.785L6.80812 10.6875C6.94811 10.8708 7.12851 11.0194 7.33528 11.1217C7.54205 11.224 7.76962 11.2772 8.0003 11.2772C8.23098 11.2772 8.45856 11.224 8.66533 11.1217C8.8721 11.0194 9.05249 10.8708 9.19249 10.6875Z" fill="black"/>
</svg>
