<svg width="18" height="14" viewBox="0 0 18 14" fill="none" xmlns="http://www.w3.org/2000/svg">
<path d="M8.65625 0.343755L5.625 2.25C5.21875 2.5 4.78125 2.62501 4.3125 2.62501H2.8125C1.5625 2.62501 0.5625 3.625 0.5625 4.84375V9.25C0.5625 10.5938 1.65625 11.6875 3 11.6875H4.75C5.21875 11.6875 5.65625 11.8125 6.0625 12.0625L8.6875 13.6563C8.875 13.7813 9.09375 13.8438 9.34375 13.8438C10.0312 13.8438 10.5938 13.2813 10.5938 12.5938V1.40626C10.5938 1.18751 10.5312 0.937505 10.4062 0.750005C10 0.156255 9.25 -0.0312449 8.65625 0.343755ZM9.3125 12.5938L6.6875 11C6.09375 10.6563 5.4375 10.4375 4.75 10.4375H3C2.34375 10.4375 1.8125 9.90625 1.8125 9.25V4.84375C1.8125 4.3125 2.25 3.875 2.78125 3.875H4.3125C5.03125 3.875 5.6875 3.6875 6.3125 3.31251L9.34375 1.40626V12.5938H9.3125ZM16.8125 6.375H13.0625C12.7188 6.375 12.4375 6.65625 12.4375 7C12.4375 7.34375 12.7188 7.625 13.0625 7.625H16.8125C17.1562 7.625 17.4375 7.34375 17.4375 7C17.4375 6.65625 17.1562 6.375 16.8125 6.375ZM16.5625 11.6875L13.3125 9.8125C13 9.625 12.625 9.75 12.4688 10.0313C12.2812 10.3438 12.4062 10.7188 12.6875 10.875L15.9375 12.75C16.25 12.9375 16.625 12.8125 16.7812 12.5313C16.9688 12.25 16.875 11.875 16.5625 11.6875ZM13.2812 4.1875L16.5312 2.31251C16.8438 2.12501 16.9375 1.75001 16.75 1.46876C16.5625 1.15626 16.1875 1.06251 15.9062 1.25001L12.6562 3.12501C12.3438 3.3125 12.25 3.6875 12.4375 3.96875C12.625 4.25 13 4.375 13.2812 4.1875Z" fill="black"/>
</svg>
