<svg width="18" height="16" viewBox="0 0 18 16" fill="none" xmlns="http://www.w3.org/2000/svg">
<path d="M6.06055 12.2148C3.73438 12.2148 1.84375 10.3223 1.84375 7.99805C1.84375 5.67188 3.73633 3.78126 6.06055 3.78126C6.10547 3.78126 6.15039 3.77735 6.19336 3.76954V4.90821C6.19336 5.14844 6.4668 5.28712 6.66016 5.14454L9.25 3.23829C9.4082 3.1211 9.4082 2.88282 9.25 2.76563L6.66016 0.859381C6.4668 0.716803 6.19336 0.855475 6.19336 1.09571V2.23048C6.15039 2.22266 6.10547 2.21876 6.06055 2.21876C5.2832 2.21876 4.52734 2.37305 3.81445 2.67579C3.12695 2.96876 2.50977 3.38477 1.97852 3.91602C1.44727 4.44727 1.0293 5.06446 0.738281 5.75196C0.435547 6.46485 0.28125 7.22071 0.28125 7.99805C0.28125 8.7754 0.435547 9.53126 0.738281 10.2441C1.03125 10.9316 1.44727 11.5488 1.97852 12.0801C2.50977 12.6113 3.12695 13.0293 3.81445 13.3203C4.52734 13.6231 5.2832 13.7773 6.06055 13.7773C6.49219 13.7773 6.8418 13.4277 6.8418 12.9961C6.8418 12.5645 6.49219 12.2148 6.06055 12.2148ZM17.3242 5.75196C17.0312 5.06446 16.6152 4.44727 16.084 3.91602C15.5527 3.38477 14.9355 2.9668 14.248 2.67579C13.5352 2.37305 12.7793 2.21876 12.002 2.21876C11.5703 2.21876 11.2207 2.56837 11.2207 3.00001C11.2207 3.43165 11.5703 3.78126 12.002 3.78126C14.3281 3.78126 16.2188 5.67383 16.2188 7.99805C16.2188 10.3242 14.3262 12.2148 12.002 12.2148C11.9219 12.2148 11.8438 12.2266 11.7715 12.25V11.0625C11.7715 10.8223 11.498 10.6836 11.3047 10.8262L8.71484 12.7324C8.55664 12.8496 8.55664 13.0879 8.71484 13.2051L11.3027 15.1094C11.4961 15.252 11.7695 15.1133 11.7695 14.8731V13.7422C11.8418 13.7656 11.9199 13.7773 12 13.7773C12.7773 13.7773 13.5332 13.6231 14.2461 13.3203C14.9336 13.0274 15.5508 12.6113 16.082 12.0801C16.6133 11.5488 17.0312 10.9316 17.3223 10.2441C17.625 9.53126 17.7793 8.7754 17.7793 7.99805C17.7793 7.22071 17.627 6.46485 17.3242 5.75196Z" fill="black"/>
</svg>
