<svg width="18" height="18" viewBox="0 0 18 18" fill="none" xmlns="http://www.w3.org/2000/svg">
<path d="M8.99876 0.202515C6.68114 0.204831 4.45912 1.12653 2.82032 2.76533C1.18152 4.40413 0.259824 6.62615 0.257507 8.94376C0.259824 11.2614 1.18152 13.4834 2.82032 15.1222C4.45912 16.761 6.68114 17.6827 8.99876 17.685C11.3164 17.6827 13.5384 16.761 15.1772 15.1222C16.816 13.4834 17.7377 11.2614 17.74 8.94376C17.7377 6.62615 16.816 4.40413 15.1772 2.76533C13.5384 1.12653 11.3164 0.204831 8.99876 0.202515ZM8.99876 16.435C7.01267 16.4327 5.10858 15.6427 3.7042 14.2383C2.29982 12.8339 1.50982 10.9299 1.50751 8.94376C1.50982 6.95767 2.29982 5.05359 3.7042 3.64921C5.10858 2.24483 7.01267 1.45483 8.99876 1.45251C10.9848 1.45483 12.8889 2.24483 14.2933 3.64921C15.6977 5.05359 16.4877 6.95767 16.49 8.94376C16.488 10.93 15.6981 12.8342 14.2937 14.2387C12.8892 15.6431 10.985 16.433 8.99876 16.435Z" fill="black"/>
<path d="M11.4563 4.44501C11.3404 4.32793 11.1829 4.26153 11.0182 4.26035C10.8535 4.25918 10.695 4.32334 10.5775 4.43876L6.53126 8.48501C6.47174 8.54481 6.42542 8.61642 6.39528 8.69522C6.36513 8.77402 6.35184 8.85826 6.35626 8.94251C6.35185 9.02733 6.36514 9.11213 6.39527 9.19154C6.42539 9.27094 6.4717 9.34322 6.53126 9.40376L10.5775 13.45C10.8163 13.6913 11.21 13.6888 11.4538 13.445C11.6975 13.2013 11.7 12.8075 11.4613 12.5663L7.84001 8.94501L11.46 5.32376C11.5176 5.26591 11.5632 5.19725 11.5943 5.12171C11.6253 5.04618 11.641 4.96526 11.6407 4.88361C11.6404 4.80196 11.6239 4.72118 11.5922 4.64592C11.5606 4.57065 11.5144 4.50238 11.4563 4.44501Z" fill="black"/>
</svg>
