<svg width="18" height="16" viewBox="0 0 18 16" fill="none" xmlns="http://www.w3.org/2000/svg">
<path d="M16.1387 9.05274L8.95899 2.41211L1.7793 9.05274C1.33984 9.33594 0.753906 9.33594 0.460938 9.05274C0.167969 8.62891 0.167969 8.0625 0.460938 7.78125L8.66797 0.294922C8.66797 0.154297 8.81445 0.154297 8.96094 0.154297C9.10742 0.154297 9.10742 0.154297 9.25391 0.294922L17.4609 7.78125C17.9004 8.20508 17.7539 8.76953 17.4609 9.05274C17.0176 9.33594 16.4316 9.33594 16.1387 9.05274ZM8.66406 6.79102C8.66406 6.65039 8.81055 6.65039 8.95703 6.65039C9.10352 6.65039 9.25 6.65039 9.25 6.79102L17.457 14.2773C17.8965 14.7012 17.75 15.2656 17.457 15.5488C17.0176 15.8301 16.4316 15.8301 16.1387 15.5488L8.95703 8.91016L1.77734 15.6914C1.33789 15.9746 0.751953 15.9746 0.458984 15.6914C0.166016 15.2676 0.166016 14.7012 0.458984 14.4199L8.66406 6.79102Z" fill="black"/>
</svg>
