<svg width="16" height="16" viewBox="0 0 16 16" fill="none" xmlns="http://www.w3.org/2000/svg">
<path d="M6.75 11.75H10.5V8.00001H6.75V11.75ZM6.125 6.75001H11.125C11.2908 6.75001 11.4497 6.81586 11.5669 6.93307C11.6842 7.05028 11.75 7.20925 11.75 7.37501V12.375C11.75 12.5408 11.6842 12.6997 11.5669 12.8169C11.4497 12.9342 11.2908 13 11.125 13H6.125C5.95924 13 5.80027 12.9342 5.68306 12.8169C5.56585 12.6997 5.5 12.5408 5.5 12.375V7.37501C5.5 7.20925 5.56585 7.05028 5.68306 6.93307C5.80027 6.81586 5.95924 6.75001 6.125 6.75001ZM1.4125 1.48688C1.35703 1.42517 1.31441 1.35302 1.28711 1.27466C1.25982 1.1963 1.24841 1.11329 1.25354 1.03047C1.25866 0.947645 1.28023 0.866675 1.31698 0.792278C1.35374 0.717882 1.40493 0.651548 1.46759 0.597147C1.53025 0.542746 1.60312 0.501367 1.68193 0.475424C1.76075 0.449481 1.84395 0.439492 1.92667 0.446042C2.00939 0.452591 2.08998 0.475547 2.16373 0.51357C2.23749 0.551594 2.30293 0.603924 2.35625 0.667507L3.84875 2.38626C3.95749 2.51141 4.01206 2.67463 4.00045 2.84001C3.98885 3.00539 3.91202 3.15939 3.78687 3.26813C3.66173 3.37687 3.49851 3.43144 3.33312 3.41984C3.16774 3.40823 3.01374 3.33141 2.905 3.20626L1.4125 1.48688ZM2.41375 5.50938H0.6875C0.52174 5.50938 0.362768 5.44353 0.245558 5.32632C0.128348 5.20911 0.0625 5.05014 0.0625 4.88438C0.0625 4.71862 0.128348 4.55965 0.245558 4.44244C0.362768 4.32523 0.52174 4.25938 0.6875 4.25938H3.0375C3.20326 4.25938 3.36223 4.32523 3.47944 4.44244C3.59665 4.55965 3.6625 4.71862 3.6625 4.88438V13.1006L3.86312 12.8356C3.96316 12.7034 4.11161 12.6164 4.27583 12.5937C4.44004 12.5709 4.60656 12.6143 4.73875 12.7144C4.87094 12.8144 4.95798 12.9629 4.98072 13.1271C5.00346 13.2913 4.96004 13.4578 4.86 13.59L3.53625 15.34C3.17437 15.8175 2.41313 15.5619 2.41313 14.9625L2.41375 5.50938ZM14.295 1.75813H5.5C5.33424 1.75813 5.17527 1.69228 5.05806 1.57507C4.94085 1.45786 4.875 1.29889 4.875 1.13313C4.875 0.967372 4.94085 0.8084 5.05806 0.69119C5.17527 0.57398 5.33424 0.508132 5.5 0.508132H14.9206C15.0864 0.508132 15.2454 0.57398 15.3626 0.69119C15.4798 0.8084 15.5456 0.967372 15.5456 1.13313V14.875C15.5456 15.0408 15.4798 15.1997 15.3626 15.317C15.2454 15.4342 15.0864 15.5 14.9206 15.5H12.1363C11.9705 15.5 11.8115 15.4342 11.6943 15.317C11.5771 15.1997 11.5113 15.0408 11.5113 14.875C11.5113 14.7092 11.5771 14.5503 11.6943 14.4331C11.8115 14.3159 11.9705 14.25 12.1363 14.25H14.2956L14.295 1.75813ZM6.125 4.93313C5.95924 4.93313 5.80027 4.86728 5.68306 4.75007C5.56585 4.63286 5.5 4.47389 5.5 4.30813C5.5 4.14237 5.56585 3.9834 5.68306 3.86619C5.80027 3.74898 5.95924 3.68313 6.125 3.68313H11.1525C11.3183 3.68313 11.4772 3.74898 11.5944 3.86619C11.7117 3.9834 11.7775 4.14237 11.7775 4.30813C11.7775 4.47389 11.7117 4.63286 11.5944 4.75007C11.4772 4.86728 11.3183 4.93313 11.1525 4.93313H6.125Z" fill="black"/>
</svg>
