<svg width="18" height="18" viewBox="0 0 18 18" fill="none" xmlns="http://www.w3.org/2000/svg">
<path d="M9.07875 0.298767C6.76423 0.301414 4.54526 1.22203 2.90864 2.85865C1.27202 4.49527 0.351402 6.71424 0.348755 9.02877C0.348755 13.8438 4.265 17.7588 9.07875 17.7588C13.8925 17.7588 17.8088 13.8425 17.8088 9.02877C17.8061 6.71424 16.8855 4.49527 15.2489 2.85865C13.6123 1.22203 11.3933 0.301414 9.07875 0.298767ZM9.07875 16.51C4.95375 16.51 1.59875 13.1538 1.59875 9.03002C1.59875 4.90627 4.955 1.55002 9.07875 1.55002C13.2025 1.55002 16.5588 4.90627 16.5588 9.03002C16.5588 13.1538 13.2025 16.51 9.07875 16.51Z" fill="black"/>
<path d="M12.6725 8.40377H9.70375V5.43502C9.70375 5.26926 9.63791 5.11029 9.5207 4.99307C9.40349 4.87586 9.24451 4.81002 9.07875 4.81002C8.91299 4.81002 8.75402 4.87586 8.63681 4.99307C8.5196 5.11029 8.45376 5.26926 8.45376 5.43502V8.40377H5.485C5.31924 8.40377 5.16027 8.46961 5.04306 8.58682C4.92585 8.70403 4.86 8.86301 4.86 9.02877C4.86 9.19453 4.92585 9.3535 5.04306 9.47071C5.16027 9.58792 5.31924 9.65377 5.485 9.65377H8.45376V12.6225C8.45376 12.7883 8.5196 12.9472 8.63681 13.0645C8.75402 13.1817 8.91299 13.2475 9.07875 13.2475C9.24451 13.2475 9.40349 13.1817 9.5207 13.0645C9.63791 12.9472 9.70375 12.7883 9.70375 12.6225V9.65377H12.6725C12.8383 9.65377 12.9972 9.58792 13.1144 9.47071C13.2317 9.3535 13.2975 9.19453 13.2975 9.02877C13.2975 8.86301 13.2317 8.70403 13.1144 8.58682C12.9972 8.46961 12.8383 8.40377 12.6725 8.40377Z" fill="black"/>
</svg>
