<svg width="18" height="18" viewBox="0 0 18 18" fill="none" xmlns="http://www.w3.org/2000/svg">
<path d="M17.3359 9.84961C17.0859 9.30859 16.7422 8.82031 16.3262 8.40625C16.2793 8.36328 16.2324 8.32031 16.1875 8.27344C15.8848 7.96094 15.6641 7.57227 15.5605 7.13867C15.543 7.07422 15.5312 7.00977 15.5215 6.94336C15.4902 6.75586 15.4805 6.55859 15.4961 6.36133C15.5293 5.92383 15.6758 5.52148 15.9023 5.18164C14.9707 5.30469 14.1875 5.94922 13.8867 6.83398C13.8652 6.90039 13.8438 6.96875 13.8281 7.03906L13.3945 12.7031C13.2695 12.6523 13.1426 12.6074 13.0078 12.5723C12.7793 12.5078 12.5371 12.4609 12.2852 12.4336C11.9941 12.4023 11.6895 12.4004 11.375 12.4316C10.709 12.4941 10.1016 12.6914 9.60156 12.9766C9.03711 13.2988 8.61133 13.7383 8.39258 14.2344C8.26562 14.5234 8.20703 14.8301 8.23828 15.1426C8.36133 16.4648 9.96875 17.3945 11.8242 17.2207C12.2793 17.1777 12.709 17.0723 13.0938 16.918C13.6133 16.709 14.0527 16.4121 14.377 16.0605C14.6621 15.752 14.8555 15.3984 14.9297 15.0273C14.9434 14.957 14.9531 14.8828 14.9609 14.8105C14.9648 14.8105 15.3906 9.29688 15.3906 9.29688C15.4355 9.29883 15.4844 9.29883 15.5293 9.30274C16.1172 9.34766 16.6426 9.59375 17.041 9.97266C17.3613 10.2754 17.5977 10.6621 17.7207 11.0957C17.6504 10.6602 17.5195 10.2422 17.3359 9.84961ZM1.05078 2.30078H16.6406C17.0723 2.30078 17.4219 1.95117 17.4219 1.51953C17.4219 1.08789 17.0723 0.738281 16.6406 0.738281H1.05078C0.619141 0.738281 0.269531 1.08789 0.269531 1.51953C0.269531 1.95117 0.619141 2.30078 1.05078 2.30078Z" fill="black"/>
<path d="M1.05078 9.77734H12.1484C12.5801 9.77734 12.9297 9.42773 12.9297 8.99609C12.9297 8.56445 12.5801 8.21484 12.1484 8.21484H1.05078C0.619141 8.21484 0.269531 8.56445 0.269531 8.99609C0.269531 9.42773 0.619141 9.77734 1.05078 9.77734ZM7.14844 15.6914H1.05078C0.619141 15.6914 0.269531 16.041 0.269531 16.4727C0.269531 16.9043 0.619141 17.2539 1.05078 17.2539H7.14844C7.58008 17.2539 7.92969 16.9043 7.92969 16.4727C7.92969 16.041 7.58008 15.6914 7.14844 15.6914Z" fill="black"/>
</svg>
