<?xml version="1.0" standalone="no"?><!DOCTYPE svg PUBLIC "-//W3C//DTD SVG 1.1//EN" "http://www.w3.org/Graphics/SVG/1.1/DTD/svg11.dtd"><svg t="1706270146702" class="icon" viewBox="0 0 1024 1024" version="1.1" xmlns="http://www.w3.org/2000/svg" p-id="8827" data-spm-anchor-id="a313x.search_index.0.i2.c5c13a81dlRiEl" xmlns:xlink="http://www.w3.org/1999/xlink" width="200" height="200"><path d="M511.817 28.607c-266.75 0-482.997 216.246-482.997 482.996s216.246 482.996 482.997 482.996 482.996-216.246 482.996-482.996S778.566 28.607 511.817 28.607z m0 898.202c-229.313 0-415.208-185.893-415.208-415.207S282.504 96.395 511.817 96.395 927.024 282.29 927.024 511.603 741.13 926.809 511.817 926.809z" p-id="8828" fill="#000000" data-spm-anchor-id="a313x.search_index.0.i3.c5c13a81dlRiEl" class="selected"></path><path d="M452.502 503.129a66.245 66.245 0 1 0 135.578 0 66.245 66.245 0 1 0-135.578 0zM249.135 503.129a66.245 66.245 0 1 0 135.578 0 66.245 66.245 0 1 0-135.578 0zM655.868 503.129a66.245 66.245 0 1 0 135.579 0 66.245 66.245 0 1 0-135.578 0z" p-id="8829" fill="#2c2c2c"></path></svg>