<?xml version="1.0" standalone="no"?><!DOCTYPE svg PUBLIC "-//W3C//DTD SVG 1.1//EN" "http://www.w3.org/Graphics/SVG/1.1/DTD/svg11.dtd"><svg t="1706270233570" class="icon" viewBox="0 0 1024 1024" version="1.1" xmlns="http://www.w3.org/2000/svg" p-id="14125" xmlns:xlink="http://www.w3.org/1999/xlink" width="200" height="200"><path d="M607.9232 227.84a144.4864 144.4864 0 0 1 143.744 137.728l0.0768 3.2768 52.48-36.6592a61.2352 61.2352 0 0 1 76.8256 8.2688l3.0976 3.328 2.7648 3.4816c5.1712 8.6016 8.8832 17.9968 11.0336 28.032l1.1008 6.0672v276.5824a58.8032 58.8032 0 0 1-58.9056 58.7008c-10.496 0-20.7616-2.7136-29.8496-7.8336l-4.4288-2.7648-54.528-37.0176-0.1792 1.5872a144.3584 144.3584 0 0 1-131.3792 125.0816l-5.9904 0.3584-5.888 0.1024H268.8512a144.4864 144.4864 0 0 1-143.744-137.728l-0.1536-5.632V371.1744a144.4864 144.4864 0 0 1 138.2656-143.2064l5.632-0.128h339.072z m0 61.2608H268.8256a82.56 82.56 0 0 0-82.2528 77.44l-0.1536 4.6592v281.5744A82.56 82.56 0 0 0 264.192 734.72l4.6592 0.1536h338.2016a82.56 82.56 0 0 0 82.2528-77.44l0.1792-4.6592 0.8192-0.8704V371.2a82.56 82.56 0 0 0-77.7472-81.9456l-4.6592-0.1536z m227.0976 96.9728l-84.0448 57.1904-1.1008 149.5808 85.1456 59.2384V386.0736z" fill="#000000" p-id="14126"></path><path d="M529.0752 534.1184l-128.2816 74.624a25.6 25.6 0 0 1-38.4768-22.1184v-149.248a25.6 25.6 0 0 1 38.4768-22.1184l128.256 74.624a25.6 25.6 0 0 1 0 44.2368z" fill="#000000" p-id="14127"></path></svg>