<svg width="16" height="12" viewBox="0 0 16 12" fill="none" xmlns="http://www.w3.org/2000/svg">
<path d="M9.19243 10.6875L15.2237 2.785C15.3934 2.56262 15.4975 2.2972 15.5243 2.01875C15.5512 1.74029 15.4996 1.45988 15.3754 1.2092C15.2512 0.958526 15.0594 0.747566 14.8217 0.600154C14.5839 0.452743 14.3097 0.374755 14.0299 0.375001H1.9693C1.68967 0.374988 1.41559 0.453146 1.17802 0.600649C0.940447 0.748153 0.748838 0.95913 0.624821 1.20976C0.500803 1.4604 0.449317 1.74071 0.476172 2.01906C0.503028 2.2974 0.607157 2.5627 0.776804 2.785L6.80805 10.6875C6.94805 10.8708 7.12845 11.0194 7.33522 11.1217C7.54199 11.224 7.76956 11.2772 8.00024 11.2772C8.23092 11.2772 8.4585 11.224 8.66527 11.1217C8.87204 11.0194 9.05243 10.8708 9.19243 10.6875Z" fill="#7B8290"/>
</svg>
