<svg width="18" height="18" viewBox="0 0 18 18" fill="none" xmlns="http://www.w3.org/2000/svg">
<path d="M16.047 13.7655H16.0482V13.7583L16.047 13.7655Z" fill="#7B8290"/>
<path d="M17.122 8.99992C17.122 4.5211 13.4781 0.878052 9.00019 0.878052C4.5211 0.878052 0.878052 4.5211 0.878052 8.99992C0.878052 13.4784 4.5211 17.1218 9.00019 17.1218C13.4781 17.1218 17.122 13.4784 17.122 8.99992ZM9.00019 15.9564C5.16473 15.9564 2.04368 12.8348 2.04368 8.99992C2.04368 5.16448 5.16473 2.04372 9.00019 2.04372C12.835 2.04372 15.9561 5.16448 15.9561 8.99992C15.9561 12.8348 12.835 15.9564 9.00019 15.9564Z" fill="#7B8290"/>
<path d="M12.3277 11.5435L9.81639 9.02467L12.3255 6.54351C12.5532 6.31862 12.5549 5.95107 12.33 5.72329C12.1051 5.49522 11.737 5.49348 11.5092 5.71895L8.99787 8.20301L6.52392 5.72127C6.29732 5.49464 5.93031 5.4935 5.70312 5.72011C5.47649 5.94703 5.47649 6.31401 5.70196 6.54065L8.17303 9.01893L5.68241 11.4825C5.45463 11.7079 5.45233 12.0744 5.67782 12.3022C5.7917 12.4172 5.94012 12.4747 6.08966 12.4747C6.23692 12.4747 6.3853 12.4184 6.49806 12.3074L8.99211 9.84034L11.5058 12.3632C11.6191 12.4764 11.768 12.5334 11.917 12.5334C12.0654 12.5334 12.2132 12.4764 12.3266 12.3643C12.5532 12.1383 12.5538 11.7712 12.3277 11.5435Z" fill="#7B8290"/>
</svg>
