<svg width="16" height="18" viewBox="0 0 16 18" fill="none" xmlns="http://www.w3.org/2000/svg">
<path d="M15.1875 3.6875H11.75V2.4375C11.75 1.40625 10.9062 0.5625 9.875 0.5625H6.125C5.09375 0.5625 4.25 1.40625 4.25 2.4375V3.6875H0.8125C0.46875 3.6875 0.1875 3.96875 0.1875 4.3125C0.1875 4.65625 0.46875 4.9375 0.8125 4.9375H1.75V14.9375C1.75 16.3125 2.875 17.4375 4.25 17.4375H11.75C13.125 17.4375 14.25 16.3125 14.25 14.9375V4.9375H15.1875C15.5312 4.9375 15.8125 4.65625 15.8125 4.3125C15.8125 3.96875 15.5312 3.6875 15.1875 3.6875ZM5.5 2.4375C5.5 2.09375 5.78125 1.8125 6.125 1.8125H9.875C10.2188 1.8125 10.5 2.09375 10.5 2.4375V3.6875H5.5V2.4375ZM13 14.9375C13 15.625 12.4375 16.1875 11.75 16.1875H4.25C3.5625 16.1875 3 15.625 3 14.9375V4.9375H13V14.9375Z" fill="#7B8290"/>
<path d="M6.125 7.4375C5.78125 7.4375 5.5 7.71875 5.5 8.0625V13.0625C5.5 13.4062 5.78125 13.6875 6.125 13.6875C6.46875 13.6875 6.75 13.4062 6.75 13.0625V8.0625C6.75 7.71875 6.46875 7.4375 6.125 7.4375ZM9.875 7.4375C9.53125 7.4375 9.25 7.71875 9.25 8.0625V13.0625C9.25 13.4062 9.53125 13.6875 9.875 13.6875C10.2188 13.6875 10.5 13.4062 10.5 13.0625V8.0625C10.5 7.71875 10.2188 7.4375 9.875 7.4375Z" fill="#7B8290"/>
</svg>
