<svg width="20" height="20" viewBox="0 0 20 20" fill="none" xmlns="http://www.w3.org/2000/svg">
<path d="M19.1667 7.50004C19.1667 5.95004 18.1 4.65837 16.6667 4.28337V1.66671C16.6667 1.20837 16.2917 0.833374 15.8334 0.833374C15.375 0.833374 15 1.20837 15 1.66671V4.28337C13.5667 4.65837 12.5 5.95004 12.5 7.50004C12.5 9.05004 13.5667 10.3417 15 10.7167V18.3334C15 18.7917 15.375 19.1667 15.8334 19.1667C16.2917 19.1667 16.6667 18.7917 16.6667 18.3334V10.7167C18.1 10.3417 19.1667 9.05004 19.1667 7.50004ZM15.8334 9.16671C14.9167 9.16671 14.1667 8.41671 14.1667 7.50004C14.1667 6.58337 14.9167 5.83337 15.8334 5.83337C16.75 5.83337 17.5 6.58337 17.5 7.50004C17.5 8.41671 16.75 9.16671 15.8334 9.16671ZM10.8334 10.95V1.66671C10.8334 1.20837 10.4584 0.833374 10 0.833374C9.54171 0.833374 9.16671 1.20837 9.16671 1.66671V10.95C7.73337 11.325 6.66671 12.6167 6.66671 14.1667C6.66671 15.7167 7.73337 17.0084 9.16671 17.3834V18.3334C9.16671 18.7917 9.54171 19.1667 10 19.1667C10.4584 19.1667 10.8334 18.7917 10.8334 18.3334V17.3834C12.2667 17.0084 13.3334 15.7167 13.3334 14.1667C13.3334 12.6167 12.2667 11.325 10.8334 10.95ZM10 15.8334C9.08337 15.8334 8.33337 15.0834 8.33337 14.1667C8.33337 13.25 9.08337 12.5 10 12.5C10.9167 12.5 11.6667 13.25 11.6667 14.1667C11.6667 15.0834 10.9167 15.8334 10 15.8334ZM7.50004 6.66671C7.50004 5.11671 6.43337 3.82504 5.00004 3.45004V1.66671C5.00004 1.20837 4.62504 0.833374 4.16671 0.833374C3.70837 0.833374 3.33337 1.20837 3.33337 1.66671V3.45004C1.90004 3.82504 0.833374 5.11671 0.833374 6.66671C0.833374 8.21671 1.90004 9.50838 3.33337 9.88338V18.3334C3.33337 18.7917 3.70837 19.1667 4.16671 19.1667C4.62504 19.1667 5.00004 18.7917 5.00004 18.3334V9.88338C6.43337 9.50838 7.50004 8.21671 7.50004 6.66671ZM4.16671 8.33337C3.25004 8.33337 2.50004 7.58338 2.50004 6.66671C2.50004 5.75004 3.25004 5.00004 4.16671 5.00004C5.08337 5.00004 5.83337 5.75004 5.83337 6.66671C5.83337 7.58338 5.08337 8.33337 4.16671 8.33337Z" fill="#7B8290"/>
</svg>
