<svg width="14" height="13" viewBox="0 0 14 13" fill="none" xmlns="http://www.w3.org/2000/svg">
<path d="M12.8203 0.980469H1.17383C0.529297 0.980469 0.00585938 1.50391 0.00585938 2.14844V11.8379C0.00585938 12.4824 0.529297 13.0059 1.17383 13.0059H12.8184C13.4629 13.0059 13.9863 12.4824 13.9863 11.8379V2.14648C13.9883 1.50391 13.4648 0.980469 12.8203 0.980469ZM1.17383 1.92773H12.8203C12.9395 1.92773 13.0391 2.02734 13.0391 2.14648V10.5098L9.46094 5.37891C9.31641 5.16992 9.06641 5.04297 8.80274 5.04297C8.53711 5.04297 8.29102 5.16992 8.14649 5.37891L5.60938 9.03906L4.20898 7.53516C4.04688 7.35938 3.80664 7.26758 3.5625 7.28516C3.31641 7.30078 3.09375 7.42578 2.95898 7.61914L0.955078 10.5137V2.14648C0.955078 2.02734 1.05469 1.92773 1.17383 1.92773Z" fill="#7B8290"/>
<path d="M3.17578 5.04297C3.76563 5.04297 4.24609 4.5625 4.24609 3.97266C4.24609 3.38281 3.76563 2.90234 3.17578 2.90234C2.58594 2.90234 2.10547 3.38281 2.10547 3.97266C2.10547 4.56445 2.58594 5.04297 3.17578 5.04297ZM3.17578 3.64453C3.35742 3.64453 3.50586 3.79297 3.50586 3.97461C3.50586 4.15625 3.35938 4.30469 3.17578 4.30469C2.99414 4.30469 2.8457 4.15625 2.8457 3.97461C2.84961 3.79297 2.99609 3.64453 3.17578 3.64453Z" fill="#7B8290"/>
</svg>
