<svg width="18" height="18" viewBox="0 0 18 18" fill="none" xmlns="http://www.w3.org/2000/svg">
<path d="M8.96876 17.7581C7.79122 17.7581 6.64849 17.5273 5.5723 17.0721C4.53324 16.6326 3.60022 16.0036 2.79918 15.2026C1.99814 14.4015 1.36913 13.4685 0.929647 12.4294C0.474456 11.3532 0.243652 10.2105 0.243652 9.03299C0.243652 7.85544 0.474456 6.71272 0.929647 5.63653C1.36913 4.59745 1.99814 3.66445 2.79918 2.86341C3.60022 2.06235 4.53324 1.43336 5.5723 0.993856C6.64851 0.538665 7.79122 0.307861 8.96876 0.307861C10.1463 0.307861 11.289 0.538665 12.3652 0.993856C13.4043 1.43336 14.3373 2.06235 15.1383 2.86341C15.9394 3.66445 16.5684 4.59747 17.0079 5.63653C17.4631 6.71272 17.6939 7.85544 17.6939 9.03299C17.6939 10.2105 17.4631 11.3533 17.0079 12.4294C16.5684 13.4685 15.9394 14.4015 15.1383 15.2026C14.3373 16.0036 13.4043 16.6326 12.3652 17.0721C11.289 17.5273 10.1463 17.7581 8.96876 17.7581ZM8.96876 1.54702C6.96919 1.54702 5.08931 2.32569 3.67539 3.73961C2.26146 5.15354 1.48279 7.03342 1.48279 9.03299C1.48279 11.0325 2.26146 12.9124 3.67539 14.3264C5.08929 15.7403 6.96919 16.5189 8.96876 16.5189C10.9683 16.5189 12.8482 15.7403 14.2621 14.3264C15.676 12.9124 16.4547 11.0325 16.4547 9.03299C16.4547 7.03342 15.6761 5.15354 14.2621 3.73961C12.8482 2.32569 10.9683 1.54702 8.96876 1.54702Z" fill="#7B8290"/>
<path d="M12.7566 9.01056H9.01415V4.70412H7.03529V10.9894H12.7566V9.01056Z" fill="#7B8290"/>
</svg>
