<svg width="18" height="20" viewBox="0 0 18 20" fill="none" xmlns="http://www.w3.org/2000/svg">
<path d="M12.2906 15.9977H1.64298V2.22998H12.2887V4.75082L13.6189 5.48575V1.33411C13.6192 1.15917 13.585 0.985886 13.5183 0.824162C13.4516 0.662438 13.3536 0.515438 13.2301 0.391554C13.1066 0.267671 12.9599 0.16933 12.7984 0.102147C12.6368 0.0349641 12.4636 0.000254461 12.2887 0H1.64298C1.46803 0.000254464 1.29485 0.0349641 1.13332 0.102147C0.971795 0.16933 0.825081 0.267671 0.701557 0.391554C0.578034 0.515438 0.480121 0.662438 0.413408 0.824162C0.346696 0.985886 0.312491 1.15917 0.312746 1.33411V18.6659C0.312491 18.8408 0.346696 19.0141 0.413408 19.1758C0.480121 19.3376 0.578034 19.4846 0.701557 19.6084C0.825081 19.7323 0.971795 19.8307 1.13332 19.8979C1.29485 19.965 1.46803 19.9997 1.64298 20H12.2887C12.4636 19.9997 12.6368 19.965 12.7984 19.8979C12.9599 19.8307 13.1066 19.7323 13.2301 19.6084C13.3536 19.4846 13.4516 19.3376 13.5183 19.1758C13.585 19.0141 13.6192 18.8408 13.6189 18.6659V15.3403C13.4869 15.4351 13.3496 15.5225 13.2078 15.6021C12.9089 15.7469 12.6028 15.8763 12.2906 15.9899V15.9977ZM5.41455 1.11111C5.41429 1.08175 5.41988 1.05264 5.431 1.02547C5.44211 0.998296 5.45853 0.97361 5.47929 0.952851C5.50005 0.932092 5.52473 0.915676 5.5519 0.904561C5.57908 0.893446 5.60819 0.887855 5.63755 0.888113H7.85589C7.88525 0.887855 7.91436 0.893446 7.94153 0.904561C7.96871 0.915676 7.99339 0.932092 8.01415 0.952851C8.03491 0.97361 8.05133 0.998296 8.06244 1.02547C8.07356 1.05264 8.07915 1.08175 8.07889 1.11111V1.33411C8.07787 1.3924 8.05386 1.44793 8.0121 1.4886C7.97033 1.52928 7.91419 1.55181 7.85589 1.55129H5.63561C5.57731 1.55181 5.52117 1.52928 5.4794 1.4886C5.43764 1.44793 5.41363 1.3924 5.41261 1.33411L5.41455 1.11111ZM6.96584 18.664C6.7901 18.664 6.61832 18.6118 6.47223 18.5141C6.32614 18.4165 6.21231 18.2776 6.14514 18.1153C6.07798 17.9529 6.06051 17.7742 6.09493 17.6019C6.12936 17.4295 6.21414 17.2713 6.33854 17.1472C6.46294 17.023 6.62136 16.9386 6.79377 16.9046C6.96617 16.8705 7.1448 16.8884 7.30705 16.9559C7.4693 17.0234 7.60787 17.1375 7.70522 17.2838C7.80258 17.4301 7.85434 17.602 7.85395 17.7778C7.85344 18.013 7.75964 18.2384 7.59315 18.4045C7.42665 18.5707 7.20105 18.664 6.96584 18.664Z" fill="#7B8290"/>
<path d="M10.7161 6.91099C10.7161 6.50378 11.005 6.33896 11.356 6.54256L17.4235 10.0446C17.7744 10.2385 17.7744 10.5817 17.4235 10.7834L11.356 14.2854C11.005 14.4793 10.7161 14.3223 10.7161 13.917V6.91099Z" fill="#7B8290"/>
</svg>
