<svg width="18" height="18" viewBox="0 0 18 18" fill="none" xmlns="http://www.w3.org/2000/svg">
<path d="M4.49062 1.5C1.94937 3.03125 0.25 5.81688 0.25 9C0.25 13.8325 4.1675 17.75 9 17.75C9.16576 17.75 9.32473 17.6842 9.44194 17.5669C9.55915 17.4497 9.625 17.2908 9.625 17.125C9.625 16.9592 9.55915 16.8003 9.44194 16.6831C9.32473 16.5659 9.16576 16.5 9 16.5C4.85813 16.5 1.5 13.1419 1.5 9C1.5 5.97313 3.29312 3.365 5.875 2.18V4.6375C5.875 4.97625 6.165 5.25063 6.5 5.25063C6.845 5.25063 7.125 4.98188 7.125 4.6375V0.863129C7.12454 0.782982 7.1081 0.70373 7.07666 0.630007C7.04522 0.556283 6.9994 0.489566 6.94187 0.433754L6.94375 0.429379C6.88729 0.372291 6.82002 0.327026 6.74586 0.296228C6.67171 0.26543 6.59217 0.249716 6.51188 0.250004H2.73812C2.39937 0.250004 2.125 0.540004 2.125 0.875004C2.125 1.22 2.39375 1.5 2.73812 1.5H4.49062ZM13.5094 16.5C16.0506 14.9688 17.75 12.1831 17.75 9C17.75 4.1675 13.8325 0.250004 9 0.250004C8.83424 0.250004 8.67527 0.315852 8.55806 0.433062C8.44085 0.550272 8.375 0.709244 8.375 0.875004C8.375 1.04076 8.44085 1.19974 8.55806 1.31695C8.67527 1.43416 8.83424 1.5 9 1.5C13.1419 1.5 16.5 4.85813 16.5 9C16.5 12.0269 14.7069 14.635 12.125 15.82V13.3625C12.125 13.0238 11.835 12.7494 11.5 12.7494C11.155 12.7494 10.875 13.0181 10.875 13.3625V17.1363C10.875 17.3038 10.9456 17.455 11.0581 17.5656L11.0563 17.57C11.1127 17.6271 11.18 17.6724 11.2541 17.7032C11.3283 17.734 11.4078 17.7497 11.4881 17.7494H15.2619C15.6006 17.7494 15.875 17.4594 15.875 17.1244C15.875 16.7794 15.6062 16.4994 15.2619 16.4994L13.5094 16.5Z" fill="#7B8290"/>
</svg>
