<svg width="18" height="16" viewBox="0 0 18 16" fill="none" xmlns="http://www.w3.org/2000/svg">
<path d="M1.83985 7.00586L9.01954 13.6465L16.1992 7.00586C16.6387 6.72266 17.2246 6.72266 17.5176 7.00586C17.8106 7.42969 17.8106 7.99609 17.5176 8.27734L9.31056 15.7637C9.31056 15.9043 9.16407 15.9043 9.01759 15.9043C8.8711 15.9043 8.8711 15.9043 8.72462 15.7637L0.517587 8.27734C0.0781334 7.85352 0.224618 7.28906 0.517587 7.00586C0.958993 6.72266 1.54493 6.72266 1.83985 7.00586ZM9.31251 9.26758C9.31251 9.4082 9.16602 9.4082 9.01954 9.4082C8.87306 9.4082 8.72657 9.4082 8.72657 9.26758L0.51954 1.78125C0.0800867 1.35742 0.226571 0.792969 0.51954 0.509766C0.958993 0.228516 1.54493 0.228516 1.8379 0.509766L9.01954 7.14844L16.1992 0.367188C16.6387 0.0839844 17.2246 0.0839844 17.5176 0.367188C17.8106 0.791016 17.8106 1.35742 17.5176 1.63867L9.31251 9.26758Z" fill="#7B8290"/>
</svg>
