<svg width="18" height="18" viewBox="0 0 18 18" fill="none" xmlns="http://www.w3.org/2000/svg">
<path d="M14.0566 17.0332H3.94336C2.30664 17.0332 0.976562 15.7012 0.976562 14.0664V3.95313C0.976562 2.31641 2.30859 0.986328 3.94336 0.986328H14.0566C15.6934 0.986328 17.0234 2.31836 17.0234 3.95313V14.0664C17.0234 15.7031 15.6934 17.0332 14.0566 17.0332ZM3.94336 2.54883C3.16797 2.54883 2.53906 3.17969 2.53906 3.95313V14.0664C2.53906 14.8418 3.16992 15.4707 3.94336 15.4707H14.0566C14.832 15.4707 15.4609 14.8398 15.4609 14.0664V3.95313C15.4609 3.17773 14.8301 2.54883 14.0566 2.54883H3.94336Z" fill="#7B8290"/>
</svg>
