<svg width="18" height="15" viewBox="0 0 18 15" fill="none" xmlns="http://www.w3.org/2000/svg">
<path d="M9.46684 1.49842C9.8935 1.04916 10.4071 0.691414 10.9764 0.446949C11.5457 0.202484 12.1588 0.076416 12.7784 0.076416C13.398 0.076416 14.011 0.202484 14.5804 0.446949C15.1497 0.691414 15.6633 1.04916 16.0899 1.49842C17.8715 3.34535 17.9176 6.31073 16.2268 8.21535L16.0899 8.36304L15.623 8.84765L8.99992 14.6923L2.37684 8.84765L1.90992 8.36304C0.0814588 6.46765 0.0814588 3.39381 1.90992 1.49842C2.32508 1.06109 2.82278 0.710343 3.37427 0.466455C3.92576 0.222567 4.5201 0.0903676 5.12298 0.0774934C5.72585 0.0646191 6.3253 0.171325 6.8867 0.391448C7.4481 0.611571 7.96031 0.940746 8.39377 1.35996L8.53223 1.49842L8.99992 1.98304L9.46684 1.49842ZM7.4253 2.56688C6.20223 1.29765 4.24069 1.29765 3.01761 2.56688C1.8053 3.82304 1.76454 5.85458 2.89607 7.16227L3.01761 7.29535L3.44069 7.73458L8.99992 12.64L14.5538 7.73919L14.983 7.29535C16.1945 6.03919 16.2353 4.00765 15.1038 2.69919L14.983 2.56688C13.7984 1.33919 11.9238 1.29919 10.6953 2.44765L10.5745 2.56688L9.00069 4.19842L7.4253 2.56688Z" fill="#7B8290"/>
<path d="M11.3076 4.69227C11.3076 5.10029 11.4697 5.49161 11.7582 5.78013C12.0467 6.06864 12.438 6.23073 12.8461 6.23073C13.2541 6.23073 13.6454 6.06864 13.9339 5.78013C14.2224 5.49161 14.3845 5.10029 14.3845 4.69227C14.3845 4.28424 14.2224 3.89293 13.9339 3.60441C13.6454 3.31589 13.2541 3.15381 12.8461 3.15381C12.438 3.15381 12.0467 3.31589 11.7582 3.60441C11.4697 3.89293 11.3076 4.28424 11.3076 4.69227Z" fill="#7B8290"/>
</svg>
