<svg width="18" height="18" viewBox="0 0 18 18" fill="none" xmlns="http://www.w3.org/2000/svg">
<path d="M16.7732 5.7047C16.3482 4.6999 15.7399 3.79761 14.9653 3.02292C14.1906 2.24824 13.2883 1.63996 12.2835 1.21496C11.2429 0.7748 10.1378 0.551636 8.99904 0.551636C7.86025 0.551636 6.75521 0.7748 5.71459 1.21496C4.70978 1.63996 3.8075 2.24824 3.03281 3.02292C2.25813 3.79761 1.64984 4.69988 1.22484 5.7047C0.784688 6.74533 0.561523 7.85037 0.561523 8.98915C0.561523 10.1279 0.784688 11.233 1.22484 12.2736C1.64984 13.2784 2.25813 14.1807 3.03281 14.9554C3.8075 15.7301 4.70976 16.3384 5.71459 16.7633C6.75521 17.2035 7.86025 17.4267 8.99904 17.4267C10.1378 17.4267 11.2429 17.2035 12.2835 16.7633C13.2883 16.3383 14.1906 15.7301 14.9653 14.9554C15.7399 14.1807 16.3482 13.2784 16.7732 12.2736C17.2134 11.233 17.4365 10.1279 17.4365 8.98915C17.4365 7.85037 17.2134 6.74533 16.7732 5.7047ZM9.62404 6.34433C9.96721 6.33958 10.3095 6.33099 10.6501 6.31761C11.2442 6.29426 11.8377 6.25728 12.43 6.20671C12.6284 6.87816 12.7551 7.59956 12.8087 8.36413H9.62404V6.34433ZM9.62404 5.09298V2.1916C9.96812 2.42941 10.393 2.77451 10.8169 3.25013C11.2743 3.76341 11.6589 4.34658 11.965 4.98878C11.1459 5.05025 10.3612 5.0822 9.62404 5.09298ZM8.37404 2.26558V5.09185C7.7002 5.08089 7.02674 5.05283 6.35432 5.00769C6.2815 5.00278 6.20869 4.99767 6.1359 4.99234C6.43268 4.369 6.80338 3.80111 7.24285 3.29876C7.63902 2.84593 8.0382 2.50794 8.37404 2.26558ZM6.24301 6.253C6.95247 6.30125 7.66304 6.33124 8.37404 6.34296V8.36413H5.29395C5.3475 7.60087 5.47379 6.88054 5.67158 6.21013C5.85621 6.22529 6.04678 6.23966 6.24301 6.253ZM4.04123 8.36413H1.83871C1.9152 7.47044 2.15527 6.61066 2.54455 5.81968C2.9402 5.88956 3.5765 5.99076 4.40797 6.08611C4.21457 6.80289 4.09191 7.56427 4.04123 8.36413ZM4.02445 9.61413C4.06303 10.3787 4.21414 11.1423 4.47564 11.8954C3.61445 11.9926 2.95617 12.0969 2.54945 12.1686C2.15727 11.3749 1.91551 10.5116 1.83871 9.61411L4.02445 9.61413ZM5.27637 9.61413H8.37404V11.6463C7.66369 11.6581 6.95182 11.6879 6.24301 11.7362C6.07875 11.7474 5.91855 11.7593 5.76236 11.7718C5.48264 11.0584 5.3198 10.3354 5.27637 9.61413ZM8.37404 12.8974V15.4699C8.04252 15.1598 7.65971 14.7675 7.27955 14.3032C6.92674 13.8723 6.6176 13.4302 6.35418 12.9816C7.02665 12.9364 7.70015 12.9083 8.37404 12.8974ZM9.62404 15.5666V12.8962C10.2957 12.906 11.0065 12.9334 11.7467 12.9846C11.4837 13.4322 11.1752 13.8732 10.8231 14.3032C10.4023 14.8172 9.97818 15.243 9.62404 15.5666ZM10.6501 11.6716C10.3082 11.6582 9.96617 11.6492 9.62404 11.6446V9.61413H12.8263C12.7829 10.3363 12.6197 11.0603 12.3393 11.7746C11.777 11.728 11.2139 11.6937 10.6501 11.6716ZM14.0783 9.61413H16.1594C16.0827 10.5106 15.8413 11.3729 15.45 12.1659C14.8438 12.0627 14.235 11.9752 13.6243 11.9035C13.8875 11.1478 14.0396 10.3814 14.0783 9.61413ZM14.0615 8.36413C14.0106 7.56119 13.8872 6.79699 13.6925 6.07779C14.282 6.00738 14.8697 5.92223 15.4549 5.82242C15.8434 6.61265 16.083 7.47148 16.1594 8.36413H14.0615ZM14.0814 3.90681C14.3205 4.14599 14.5427 4.40152 14.7463 4.67156C14.2587 4.74698 13.7696 4.81197 13.2792 4.86648C12.8978 3.95271 12.3842 3.12996 11.7501 2.41847C11.7154 2.37955 11.6803 2.34096 11.6449 2.30271C12.5469 2.65941 13.3748 3.20027 14.0814 3.90681ZM6.51582 2.24068C6.46056 2.29913 6.40616 2.3584 6.35264 2.41845C5.71686 3.13183 5.20217 3.95703 4.82043 4.87372C4.18846 4.80568 3.65871 4.73224 3.25352 4.66925C3.45669 4.40008 3.67829 4.14532 3.91672 3.90681C4.66551 3.15802 5.55059 2.59525 6.51582 2.24068ZM3.91672 14.0715C3.68113 13.8358 3.46197 13.5842 3.26078 13.3186C3.70074 13.2502 4.28674 13.1699 4.99176 13.0973C5.34779 13.7915 5.79859 14.4715 6.33682 15.1248C6.55902 15.3943 6.7918 15.6549 7.03461 15.906C5.86748 15.5764 4.79781 14.9526 3.91672 14.0715ZM11.1091 15.8634C11.3371 15.6254 11.5562 15.3791 11.7659 15.1248C12.3024 14.4735 12.752 13.7958 13.1075 13.104C13.6529 13.1619 14.1968 13.2328 14.7389 13.3165C14.5373 13.5829 14.3176 13.8351 14.0814 14.0714C13.237 14.9158 12.2196 15.524 11.1091 15.8634Z" fill="#7B8290"/>
</svg>
