<svg width="10" height="14" viewBox="0 0 10 14" fill="none" xmlns="http://www.w3.org/2000/svg">
<path d="M6.66667 6.16671V5.33337H8.33333V6.16671H6.66667ZM3.33333 6.16671H1.66667V3.66671C1.66667 1.83337 3.16667 0.333374 5 0.333374C6.83333 0.333374 8.33333 1.83337 8.33333 3.66671V4.50004H6.66667V3.66671C6.66667 2.75004 5.91667 2.00004 5 2.00004C4.08333 2.00004 3.33333 2.75004 3.33333 3.66671V6.16671ZM0 5.33337H10V13.6667H0V5.33337ZM1.66667 7.00004V12H8.33333V7.00004H1.66667ZM5 10.3334C4.5 10.3334 4.16667 10 4.16667 9.50004C4.16667 9.00004 4.5 8.66671 5 8.66671C5.5 8.66671 5.83333 9.00004 5.83333 9.50004C5.83333 10 5.5 10.3334 5 10.3334Z" fill="#7B8290"/>
</svg>
