<svg width="18" height="18" viewBox="0 0 18 18" fill="none" xmlns="http://www.w3.org/2000/svg">
<path d="M9 17.5C8.6875 17.5 8.34375 17.375 8.125 17.125L3.75 12.75H2.125C1.09375 12.75 0.25 11.9062 0.25 10.875V7.125C0.25 6.09375 1.09375 5.25 2.125 5.25H3.75L8.125 0.874997C8.46875 0.531247 9.03125 0.406247 9.5 0.593747C9.9375 0.812497 10.25 1.25 10.25 1.75V16.2187C10.25 16.7187 9.9375 17.1875 9.46875 17.375C9.3125 17.4687 9.15625 17.5 9 17.5ZM2.125 6.5C1.78125 6.5 1.5 6.78125 1.5 7.125V10.875C1.5 11.2187 1.78125 11.5 2.125 11.5H4C4.15625 11.5 4.3125 11.5625 4.4375 11.6875L9 16.25V1.75L4.4375 6.3125C4.3125 6.4375 4.15625 6.5 4 6.5H2.125ZM14.625 14.9375C14.4375 14.9375 14.2812 14.875 14.1562 14.7187C13.9375 14.4375 13.9688 14.0625 14.25 13.8437C15.6562 12.625 16.5 10.875 16.5 9C16.5 7.125 15.6562 5.375 14.2188 4.1875C13.9375 3.96875 13.9062 3.5625 14.125 3.3125C14.3438 3.03125 14.75 3 15 3.21875C16.75 4.65625 17.75 6.75 17.75 9C17.75 11.25 16.75 13.3437 15.0312 14.7812C14.9062 14.875 14.75 14.9375 14.625 14.9375ZM12.125 12.125C11.9375 12.125 11.75 12.0312 11.625 11.875C11.4062 11.5937 11.4688 11.2187 11.75 11C12.375 10.5312 12.75 9.78125 12.75 9C12.75 8.21875 12.375 7.46875 11.75 7C11.4688 6.78125 11.4062 6.40625 11.625 6.125C11.8438 5.84375 12.2188 5.78125 12.5 6C13.4375 6.71875 14 7.8125 14 9C14 10.1875 13.4688 11.2812 12.5 12C12.375 12.0937 12.25 12.125 12.125 12.125Z" fill="#7B8290"/>
</svg>
