<svg width="18" height="18" viewBox="0 0 18 18" fill="none" xmlns="http://www.w3.org/2000/svg">
<path d="M1.07031 0.669922C0.638672 0.669922 0.289062 1.01953 0.289062 1.45117V16.3066C0.289062 16.7383 0.638672 17.0879 1.07031 17.0879C1.50195 17.0879 1.85156 16.7383 1.85156 16.3066V1.45117C1.85156 1.01953 1.50195 0.669922 1.07031 0.669922ZM7.93164 0.669922C7.5 0.669922 7.15039 1.01953 7.15039 1.45117V16.3066C7.15039 16.7383 7.5 17.0879 7.93164 17.0879C8.36328 17.0879 8.71289 16.7383 8.71289 16.3066V1.45117C8.71289 1.01953 8.36328 0.669922 7.93164 0.669922ZM17.6543 11.918C17.5156 11.6758 17.2578 11.5273 16.9785 11.5273H15.5723C15.5723 11.5117 15.5742 11.498 15.5742 11.4824V1.45117C15.5742 1.01953 15.2246 0.669922 14.793 0.669922C14.3613 0.669922 14.0117 1.01953 14.0117 1.45117V11.4824C14.0117 11.498 14.0117 11.5117 14.0137 11.5273H12.3145C12.0352 11.5273 11.7773 11.6758 11.6387 11.918C11.5 12.1602 11.5 12.457 11.6387 12.6992L13.9707 16.7383C14.1094 16.9805 14.3672 17.1289 14.6465 17.1289C14.9258 17.1289 15.1836 16.9805 15.3223 16.7383L17.6543 12.6992C17.7949 12.457 17.7949 12.1582 17.6543 11.918ZM14.6465 14.7852L13.668 13.0898H15.625L14.6465 14.7852Z" fill="#7B8290"/>
</svg>
